<?xml version="1.0" encoding="us-ascii" standalone="no"?><svg xmlns="http://www.w3.org/2000/svg" xmlns:xlink="http://www.w3.org/1999/xlink" contentStyleType="text/css" height="448px" preserveAspectRatio="none" style="width:413px;height:448px;background:#FFFFFF;" version="1.1" viewBox="0 0 413 448" width="413px" zoomAndPan="magnify"><defs/><g><!--class Component--><g id="elem_Component"><rect codeLine="2" fill="#F1F1F1" height="96.8906" id="Component" rx="2.5" ry="2.5" style="stroke:#181818;stroke-width:0.5;" width="114" x="39" y="7"/><ellipse cx="54" cy="23" fill="#B4A7E5" rx="11" ry="11" style="stroke:#181818;stroke-width:1.0;"/><path d="M49.9219,18.7656 L49.9219,16.6094 L57.3125,16.6094 L57.3125,18.7656 L54.8438,18.7656 L54.8438,26.8438 L57.3125,26.8438 L57.3125,29 L49.9219,29 L49.9219,26.8438 L52.3906,26.8438 L52.3906,18.7656 L49.9219,18.7656 Z " fill="#000000"/><text fill="#000000" font-family="sans-serif" font-size="14" font-style="italic" lengthAdjust="spacing" textLength="82" x="68" y="27.8467">Component</text><line style="stroke:#181818;stroke-width:0.5;" x1="40" x2="152" y1="39" y2="39"/><line style="stroke:#181818;stroke-width:0.5;" x1="40" x2="152" y1="47" y2="47"/><text fill="#000000" font-family="sans-serif" font-size="14" lengthAdjust="spacing" textLength="63" x="45" y="63.9951">method1</text><text fill="#000000" font-family="sans-serif" font-size="14" lengthAdjust="spacing" textLength="63" x="45" y="80.292">method2</text><text fill="#000000" font-family="sans-serif" font-size="14" lengthAdjust="spacing" textLength="63" x="45" y="96.5889">method3</text></g><!--class ConcreteComponent--><g id="elem_ConcreteComponent"><rect codeLine="7" fill="#F1F1F1" height="96.8906" id="ConcreteComponent" rx="2.5" ry="2.5" style="stroke:#181818;stroke-width:0.5;" width="178" x="228" y="176"/><ellipse cx="243" cy="192" fill="#ADD1B2" rx="11" ry="11" style="stroke:#181818;stroke-width:1.0;"/><path d="M245.9688,197.6406 Q245.3906,197.9375 244.75,198.0781 Q244.1094,198.2344 243.4063,198.2344 Q240.9063,198.2344 239.5781,196.5938 Q238.2656,194.9375 238.2656,191.8125 Q238.2656,188.6875 239.5781,187.0313 Q240.9063,185.375 243.4063,185.375 Q244.1094,185.375 244.75,185.5313 Q245.4063,185.6875 245.9688,185.9844 L245.9688,188.7031 Q245.3438,188.125 244.75,187.8594 Q244.1563,187.5781 243.5313,187.5781 Q242.1875,187.5781 241.5,188.6563 Q240.8125,189.7188 240.8125,191.8125 Q240.8125,193.9063 241.5,194.9844 Q242.1875,196.0469 243.5313,196.0469 Q244.1563,196.0469 244.75,195.7813 Q245.3438,195.5 245.9688,194.9219 L245.9688,197.6406 Z " fill="#000000"/><text fill="#000000" font-family="sans-serif" font-size="14" lengthAdjust="spacing" textLength="146" x="257" y="196.8467">ConcreteComponent</text><line style="stroke:#181818;stroke-width:0.5;" x1="229" x2="405" y1="208" y2="208"/><line style="stroke:#181818;stroke-width:0.5;" x1="229" x2="405" y1="216" y2="216"/><text fill="#000000" font-family="sans-serif" font-size="14" lengthAdjust="spacing" textLength="63" x="234" y="232.9951">method1</text><text fill="#000000" font-family="sans-serif" font-size="14" lengthAdjust="spacing" textLength="63" x="234" y="249.292">method2</text><text fill="#000000" font-family="sans-serif" font-size="14" lengthAdjust="spacing" textLength="63" x="234" y="265.5889">method3</text></g><!--class Decorator--><g id="elem_Decorator"><rect codeLine="12" fill="#F1F1F1" height="113.1875" id="Decorator" rx="2.5" ry="2.5" style="stroke:#181818;stroke-width:0.5;" width="178" x="7" y="168"/><ellipse cx="57.25" cy="184" fill="#A9DCDF" rx="11" ry="11" style="stroke:#181818;stroke-width:1.0;"/><path d="M57.3594,179.3438 L56.2031,184.4219 L58.5313,184.4219 L57.3594,179.3438 Z M55.875,177.1094 L58.8594,177.1094 L62.2188,189.5 L59.7656,189.5 L59,186.4375 L55.7188,186.4375 L54.9688,189.5 L52.5313,189.5 L55.875,177.1094 Z " fill="#000000"/><text fill="#000000" font-family="sans-serif" font-size="14" font-style="italic" lengthAdjust="spacing" textLength="69" x="77.75" y="188.8467">Decorator</text><line style="stroke:#181818;stroke-width:0.5;" x1="8" x2="184" y1="200" y2="200"/><text fill="#000000" font-family="sans-serif" font-size="14" lengthAdjust="spacing" textLength="166" x="13" y="216.9951">component Component</text><line style="stroke:#181818;stroke-width:0.5;" x1="8" x2="184" y1="224.2969" y2="224.2969"/><text fill="#000000" font-family="sans-serif" font-size="14" font-style="italic" lengthAdjust="spacing" textLength="63" x="13" y="241.292">method1</text><text fill="#000000" font-family="sans-serif" font-size="14" font-style="italic" lengthAdjust="spacing" textLength="63" x="13" y="257.5889">method2</text><text fill="#000000" font-family="sans-serif" font-size="14" font-style="italic" lengthAdjust="spacing" textLength="63" x="13" y="273.8857">method3</text></g><!--class ConcreteDecorator--><g id="elem_ConcreteDecorator"><rect codeLine="18" fill="#F1F1F1" height="96.8906" id="ConcreteDecorator" rx="2.5" ry="2.5" style="stroke:#181818;stroke-width:0.5;" width="165" x="13.5" y="345"/><ellipse cx="28.5" cy="361" fill="#ADD1B2" rx="11" ry="11" style="stroke:#181818;stroke-width:1.0;"/><path d="M31.4688,366.6406 Q30.8906,366.9375 30.25,367.0781 Q29.6094,367.2344 28.9063,367.2344 Q26.4063,367.2344 25.0781,365.5938 Q23.7656,363.9375 23.7656,360.8125 Q23.7656,357.6875 25.0781,356.0313 Q26.4063,354.375 28.9063,354.375 Q29.6094,354.375 30.25,354.5313 Q30.9063,354.6875 31.4688,354.9844 L31.4688,357.7031 Q30.8438,357.125 30.25,356.8594 Q29.6563,356.5781 29.0313,356.5781 Q27.6875,356.5781 27,357.6563 Q26.3125,358.7188 26.3125,360.8125 Q26.3125,362.9063 27,363.9844 Q27.6875,365.0469 29.0313,365.0469 Q29.6563,365.0469 30.25,364.7813 Q30.8438,364.5 31.4688,363.9219 L31.4688,366.6406 Z " fill="#000000"/><text fill="#000000" font-family="sans-serif" font-size="14" lengthAdjust="spacing" textLength="133" x="42.5" y="365.8467">ConcreteDecorator</text><line style="stroke:#181818;stroke-width:0.5;" x1="14.5" x2="177.5" y1="377" y2="377"/><line style="stroke:#181818;stroke-width:0.5;" x1="14.5" x2="177.5" y1="385" y2="385"/><text fill="#000000" font-family="sans-serif" font-size="14" lengthAdjust="spacing" textLength="63" x="19.5" y="401.9951">method1</text><text fill="#000000" font-family="sans-serif" font-size="14" lengthAdjust="spacing" textLength="63" x="19.5" y="418.292">method2</text><text fill="#000000" font-family="sans-serif" font-size="14" lengthAdjust="spacing" textLength="63" x="19.5" y="434.5889">method3</text></g><!--link Component to Decorator--><g id="link_Component_Decorator"><path codeLine="24" d="M77,118.43 C77,118.43 77,190.04 77,190.04 " fill="none" id="Component-Decorator" style="stroke:#181818;stroke-width:1.0;"/><polygon fill="#181818" points="77,105.43,73,114.43,77,110.43,81,114.43,77,105.43" style="stroke:#181818;stroke-width:1.0;"/><line style="stroke:#181818;stroke-width:1.0;" x1="77" x2="77" y1="110.43" y2="118.43"/><polygon fill="none" points="77,203.04,81,197.04,77,191.04,73,197.04,77,203.04" style="stroke:#181818;stroke-width:1.0;"/></g><!--reverse link Component to Decorator--><g id="link_Component_Decorator"><path codeLine="27" d="M115,125.38 C115,125.38 115,164.01 115,164.01 " fill="none" id="Component-backto-Decorator" style="stroke:#181818;stroke-width:1.0;stroke-dasharray:7.0,7.0;"/><polygon fill="none" points="108,125.38,115,105.38,122,125.38,108,125.38" style="stroke:#181818;stroke-width:1.0;"/></g><!--reverse link Component to ConcreteComponent--><g id="link_Component_ConcreteComponent"><path codeLine="25" d="M174.49,56 C174.49,56 317,56 317,56 C317,56 317,126 317,175.76 " fill="none" id="Component-backto-ConcreteComponent" style="stroke:#181818;stroke-width:1.0;stroke-dasharray:7.0,7.0;"/><polygon fill="none" points="174.49,63,154.49,56,174.49,49,174.49,63" style="stroke:#181818;stroke-width:1.0;"/></g><!--reverse link Decorator to ConcreteDecorator--><g id="link_Decorator_ConcreteDecorator"><path codeLine="26" d="M96,305.56 C96,305.56 96,344.76 96,344.76 " fill="none" id="Decorator-backto-ConcreteDecorator" style="stroke:#181818;stroke-width:1.0;"/><polygon fill="none" points="89,305.56,96,285.56,103,305.56,89,305.56" style="stroke:#181818;stroke-width:1.0;"/></g><!--SRC=[hP0z3i8m38NtdC8NQ2NAre45BcA24HLj73dkW4hlJlXBYr8n8AP8ptxVyqiuDywZO0TjuqWlde15JsmQfoH7j0HRxZmxSWg30HWwYkF32CztbKjLBgtDQ6oB8KIOiq9AVuBYFgYWLTYHPK5bUV1iegUSkNzusnO3isdrTPft-xpbvsucSUfwAiH5xulDh5V-esNlo-lIodJO7H9NaZ1blTp9V0C0]--></g></svg>