<?xml version="1.0" encoding="us-ascii" standalone="no"?><svg xmlns="http://www.w3.org/2000/svg" xmlns:xlink="http://www.w3.org/1999/xlink" contentStyleType="text/css" height="465px" preserveAspectRatio="none" style="width:478px;height:465px;background:#FFFFFF;" version="1.1" viewBox="0 0 478 465" width="478px" zoomAndPan="magnify"><defs/><g><!--class Display--><g id="elem_Display"><rect codeLine="2" fill="#F1F1F1" height="96.8906" id="Display" rx="2.5" ry="2.5" style="stroke:#181818;stroke-width:0.5;" width="98" x="201.5" y="7"/><ellipse cx="224.15" cy="23" fill="#B4A7E5" rx="11" ry="11" style="stroke:#181818;stroke-width:1.0;"/><path d="M220.0719,18.7656 L220.0719,16.6094 L227.4625,16.6094 L227.4625,18.7656 L224.9938,18.7656 L224.9938,26.8438 L227.4625,26.8438 L227.4625,29 L220.0719,29 L220.0719,26.8438 L222.5406,26.8438 L222.5406,18.7656 L220.0719,18.7656 Z " fill="#000000"/><text fill="#000000" font-family="sans-serif" font-size="14" font-style="italic" lengthAdjust="spacing" textLength="49" x="239.85" y="27.8467">Display</text><line style="stroke:#181818;stroke-width:0.5;" x1="202.5" x2="298.5" y1="39" y2="39"/><line style="stroke:#181818;stroke-width:0.5;" x1="202.5" x2="298.5" y1="47" y2="47"/><text fill="#000000" font-family="sans-serif" font-size="14" lengthAdjust="spacing" textLength="86" x="207.5" y="63.9951">GetColumns</text><text fill="#000000" font-family="sans-serif" font-size="14" lengthAdjust="spacing" textLength="63" x="207.5" y="80.292">GetRows</text><text fill="#000000" font-family="sans-serif" font-size="14" lengthAdjust="spacing" textLength="85" x="207.5" y="96.5889">GetRowText</text></g><!--class StringDisplay--><g id="elem_StringDisplay"><rect codeLine="7" fill="#F1F1F1" height="113.1875" id="StringDisplay" rx="2.5" ry="2.5" style="stroke:#181818;stroke-width:0.5;" width="121" x="350" y="168"/><ellipse cx="365" cy="184" fill="#ADD1B2" rx="11" ry="11" style="stroke:#181818;stroke-width:1.0;"/><path d="M367.9688,189.6406 Q367.3906,189.9375 366.75,190.0781 Q366.1094,190.2344 365.4063,190.2344 Q362.9063,190.2344 361.5781,188.5938 Q360.2656,186.9375 360.2656,183.8125 Q360.2656,180.6875 361.5781,179.0313 Q362.9063,177.375 365.4063,177.375 Q366.1094,177.375 366.75,177.5313 Q367.4063,177.6875 367.9688,177.9844 L367.9688,180.7031 Q367.3438,180.125 366.75,179.8594 Q366.1563,179.5781 365.5313,179.5781 Q364.1875,179.5781 363.5,180.6563 Q362.8125,181.7188 362.8125,183.8125 Q362.8125,185.9063 363.5,186.9844 Q364.1875,188.0469 365.5313,188.0469 Q366.1563,188.0469 366.75,187.7813 Q367.3438,187.5 367.9688,186.9219 L367.9688,189.6406 Z " fill="#000000"/><text fill="#000000" font-family="sans-serif" font-size="14" lengthAdjust="spacing" textLength="89" x="379" y="188.8467">StringDisplay</text><line style="stroke:#181818;stroke-width:0.5;" x1="351" x2="470" y1="200" y2="200"/><text fill="#000000" font-family="sans-serif" font-size="14" lengthAdjust="spacing" textLength="79" x="356" y="216.9951">value string</text><line style="stroke:#181818;stroke-width:0.5;" x1="351" x2="470" y1="224.2969" y2="224.2969"/><text fill="#000000" font-family="sans-serif" font-size="14" lengthAdjust="spacing" textLength="86" x="356" y="241.292">GetColumns</text><text fill="#000000" font-family="sans-serif" font-size="14" lengthAdjust="spacing" textLength="63" x="356" y="257.5889">GetRows</text><text fill="#000000" font-family="sans-serif" font-size="14" lengthAdjust="spacing" textLength="85" x="356" y="273.8857">GetRowText</text></g><!--class Border--><g id="elem_Border"><rect codeLine="13" fill="#F1F1F1" height="113.1875" id="Border" rx="2.5" ry="2.5" style="stroke:#181818;stroke-width:0.5;" width="112" x="194.5" y="168"/><ellipse cx="224.35" cy="184" fill="#A9DCDF" rx="11" ry="11" style="stroke:#181818;stroke-width:1.0;"/><path d="M224.4594,179.3438 L223.3031,184.4219 L225.6313,184.4219 L224.4594,179.3438 Z M222.975,177.1094 L225.9594,177.1094 L229.3188,189.5 L226.8656,189.5 L226.1,186.4375 L222.8188,186.4375 L222.0688,189.5 L219.6313,189.5 L222.975,177.1094 Z " fill="#000000"/><text fill="#000000" font-family="sans-serif" font-size="14" font-style="italic" lengthAdjust="spacing" textLength="47" x="241.65" y="188.8467">Border</text><line style="stroke:#181818;stroke-width:0.5;" x1="195.5" x2="305.5" y1="200" y2="200"/><text fill="#000000" font-family="sans-serif" font-size="14" lengthAdjust="spacing" textLength="100" x="200.5" y="216.9951">display Display</text><line style="stroke:#181818;stroke-width:0.5;" x1="195.5" x2="305.5" y1="224.2969" y2="224.2969"/><text fill="#000000" font-family="sans-serif" font-size="14" lengthAdjust="spacing" textLength="86" x="200.5" y="241.292">GetColumns</text><text fill="#000000" font-family="sans-serif" font-size="14" lengthAdjust="spacing" textLength="63" x="200.5" y="257.5889">GetRows</text><text fill="#000000" font-family="sans-serif" font-size="14" lengthAdjust="spacing" textLength="85" x="200.5" y="273.8857">GetRowText</text></g><!--class SideBorder--><g id="elem_SideBorder"><rect codeLine="19" fill="#F1F1F1" height="113.1875" id="SideBorder" rx="2.5" ry="2.5" style="stroke:#181818;stroke-width:0.5;" width="133" x="108" y="345"/><ellipse cx="133.8" cy="361" fill="#ADD1B2" rx="11" ry="11" style="stroke:#181818;stroke-width:1.0;"/><path d="M136.7688,366.6406 Q136.1906,366.9375 135.55,367.0781 Q134.9094,367.2344 134.2063,367.2344 Q131.7063,367.2344 130.3781,365.5938 Q129.0656,363.9375 129.0656,360.8125 Q129.0656,357.6875 130.3781,356.0313 Q131.7063,354.375 134.2063,354.375 Q134.9094,354.375 135.55,354.5313 Q136.2063,354.6875 136.7688,354.9844 L136.7688,357.7031 Q136.1438,357.125 135.55,356.8594 Q134.9563,356.5781 134.3313,356.5781 Q132.9875,356.5781 132.3,357.6563 Q131.6125,358.7188 131.6125,360.8125 Q131.6125,362.9063 132.3,363.9844 Q132.9875,365.0469 134.3313,365.0469 Q134.9563,365.0469 135.55,364.7813 Q136.1438,364.5 136.7688,363.9219 L136.7688,366.6406 Z " fill="#000000"/><text fill="#000000" font-family="sans-serif" font-size="14" lengthAdjust="spacing" textLength="77" x="150.2" y="365.8467">SideBorder</text><line style="stroke:#181818;stroke-width:0.5;" x1="109" x2="240" y1="377" y2="377"/><text fill="#000000" font-family="sans-serif" font-size="14" lengthAdjust="spacing" textLength="121" x="114" y="393.9951">borderChar string</text><line style="stroke:#181818;stroke-width:0.5;" x1="109" x2="240" y1="401.2969" y2="401.2969"/><text fill="#000000" font-family="sans-serif" font-size="14" lengthAdjust="spacing" textLength="86" x="114" y="418.292">GetColumns</text><text fill="#000000" font-family="sans-serif" font-size="14" lengthAdjust="spacing" textLength="63" x="114" y="434.5889">GetRows</text><text fill="#000000" font-family="sans-serif" font-size="14" lengthAdjust="spacing" textLength="85" x="114" y="450.8857">GetRowText</text></g><!--class FullBorder--><g id="elem_FullBorder"><rect codeLine="25" fill="#F1F1F1" height="113.1875" id="FullBorder" rx="2.5" ry="2.5" style="stroke:#181818;stroke-width:0.5;" width="102" x="276.5" y="345"/><ellipse cx="291.5" cy="361" fill="#ADD1B2" rx="11" ry="11" style="stroke:#181818;stroke-width:1.0;"/><path d="M294.4688,366.6406 Q293.8906,366.9375 293.25,367.0781 Q292.6094,367.2344 291.9063,367.2344 Q289.4063,367.2344 288.0781,365.5938 Q286.7656,363.9375 286.7656,360.8125 Q286.7656,357.6875 288.0781,356.0313 Q289.4063,354.375 291.9063,354.375 Q292.6094,354.375 293.25,354.5313 Q293.9063,354.6875 294.4688,354.9844 L294.4688,357.7031 Q293.8438,357.125 293.25,356.8594 Q292.6563,356.5781 292.0313,356.5781 Q290.6875,356.5781 290,357.6563 Q289.3125,358.7188 289.3125,360.8125 Q289.3125,362.9063 290,363.9844 Q290.6875,365.0469 292.0313,365.0469 Q292.6563,365.0469 293.25,364.7813 Q293.8438,364.5 294.4688,363.9219 L294.4688,366.6406 Z " fill="#000000"/><text fill="#000000" font-family="sans-serif" font-size="14" lengthAdjust="spacing" textLength="70" x="305.5" y="365.8467">FullBorder</text><line style="stroke:#181818;stroke-width:0.5;" x1="277.5" x2="377.5" y1="377" y2="377"/><line style="stroke:#181818;stroke-width:0.5;" x1="277.5" x2="377.5" y1="385" y2="385"/><text fill="#000000" font-family="sans-serif" font-size="14" lengthAdjust="spacing" textLength="86" x="282.5" y="401.9951">GetColumns</text><text fill="#000000" font-family="sans-serif" font-size="14" lengthAdjust="spacing" textLength="63" x="282.5" y="418.292">GetRows</text><text fill="#000000" font-family="sans-serif" font-size="14" lengthAdjust="spacing" textLength="85" x="282.5" y="434.5889">GetRowText</text><text fill="#000000" font-family="sans-serif" font-size="14" lengthAdjust="spacing" textLength="65" x="282.5" y="450.8857">MakeLine</text></g><!--class main--><g id="elem_main"><rect codeLine="32" fill="#F1F1F1" height="58.5938" id="main" rx="2.5" ry="2.5" style="stroke:#181818;stroke-width:0.5;" width="159" x="7" y="26"/><text fill="#000000" font-family="sans-serif" font-size="14" lengthAdjust="spacing" textLength="33" x="70" y="43.9951">main</text><line style="stroke:#181818;stroke-width:0.5;" x1="8" x2="165" y1="52.2969" y2="52.2969"/><line style="stroke:#181818;stroke-width:0.5;" x1="8" x2="165" y1="60.2969" y2="60.2969"/><text fill="#000000" font-family="sans-serif" font-size="14" lengthAdjust="spacing" textLength="147" x="13" y="77.292">show(display Display)</text></g><!--link main to Display--><g id="link_main_Display"><path codeLine="37" d="M166.1,56 C166.1,56 195.04,56 195.04,56 " fill="none" id="main-to-Display" style="stroke:#181818;stroke-width:1.0;"/><polygon fill="#181818" points="200.04,56,191.04,52,195.04,56,191.04,60,200.04,56" style="stroke:#181818;stroke-width:1.0;"/><text fill="#000000" font-family="sans-serif" font-size="13" lengthAdjust="spacing" textLength="32" x="164.57" y="69.0669">show</text></g><!--link Display to Border--><g id="link_Display_Border"><path codeLine="38" d="M234.17,118.43 C234.17,118.43 234.17,190.04 234.17,190.04 " fill="none" id="Display-Border" style="stroke:#181818;stroke-width:1.0;"/><polygon fill="#181818" points="234.17,105.43,230.17,114.43,234.17,110.43,238.17,114.43,234.17,105.43" style="stroke:#181818;stroke-width:1.0;"/><line style="stroke:#181818;stroke-width:1.0;" x1="234.17" x2="234.17" y1="110.43" y2="118.43"/><polygon fill="none" points="234.17,203.04,238.17,197.04,234.17,191.04,230.17,197.04,234.17,203.04" style="stroke:#181818;stroke-width:1.0;"/></g><!--reverse link Display to Border--><g id="link_Display_Border"><path codeLine="42" d="M266.83,125.38 C266.83,125.38 266.83,164.01 266.83,164.01 " fill="none" id="Display-backto-Border" style="stroke:#181818;stroke-width:1.0;stroke-dasharray:7.0,7.0;"/><polygon fill="none" points="259.83,125.38,266.83,105.38,273.83,125.38,259.83,125.38" style="stroke:#181818;stroke-width:1.0;"/></g><!--reverse link Display to StringDisplay--><g id="link_Display_StringDisplay"><path codeLine="39" d="M320.81,56 C320.81,56 410.5,56 410.5,56 C410.5,56 410.5,118.97 410.5,167.92 " fill="none" id="Display-backto-StringDisplay" style="stroke:#181818;stroke-width:1.0;stroke-dasharray:7.0,7.0;"/><polygon fill="none" points="320.81,63,300.81,56,320.81,49,320.81,63" style="stroke:#181818;stroke-width:1.0;"/></g><!--reverse link Border to SideBorder--><g id="link_Border_SideBorder"><path codeLine="40" d="M213.75,305.92 C213.75,305.92 213.75,344.64 213.75,344.64 " fill="none" id="Border-backto-SideBorder" style="stroke:#181818;stroke-width:1.0;"/><polygon fill="none" points="206.75,305.92,213.75,285.92,220.75,305.92,206.75,305.92" style="stroke:#181818;stroke-width:1.0;"/></g><!--reverse link Border to FullBorder--><g id="link_Border_FullBorder"><path codeLine="41" d="M295.5,305.92 C295.5,305.92 295.5,344.64 295.5,344.64 " fill="none" id="Border-backto-FullBorder" style="stroke:#181818;stroke-width:1.0;"/><polygon fill="none" points="288.5,305.92,295.5,285.92,302.5,305.92,288.5,305.92" style="stroke:#181818;stroke-width:1.0;"/></g><!--SRC=[hP9DSW8X48NtVOfU9eln0BDm4Qraasmq5sYPLYWPeFY9iOnt3s76ah6oqnsyVhoFRWXxPHnvwb4hm_7e6AsFqe8oaVsM1EDI1QVfY2T0FFMSYzqPtpWkh4wz2JVgoXx-aJxvEy8PXAOGS1szChiwzejqOWn5lvz2cvn48kABzHtxGkX6saXzM2kguugoASk59F-mPWREQzAwujoLMQaVjEVt_EwPCu9wKgOWWhI7fvkfFMUVp1qFBg6yq0nGDerNEncRPdxnjYK1XaktxIN9DibTJJ3z2hFaPZzLyJhSlrEvCkoWciQqC8hJd5y0]--></g></svg>