<?xml version="1.0" encoding="us-ascii" standalone="no"?><svg xmlns="http://www.w3.org/2000/svg" xmlns:xlink="http://www.w3.org/1999/xlink" contentStyleType="text/css" height="285px" preserveAspectRatio="none" style="width:369px;height:285px;background:#FFFFFF;" version="1.1" viewBox="0 0 369 285" width="369px" zoomAndPan="magnify"><defs/><g><!--class Subject--><g id="elem_Subject"><rect codeLine="2" fill="#F1F1F1" height="96.8906" id="Subject" rx="2.5" ry="2.5" style="stroke:#181818;stroke-width:0.5;" width="85" x="179" y="7"/><ellipse cx="194.45" cy="23" fill="#B4A7E5" rx="11" ry="11" style="stroke:#181818;stroke-width:1.0;"/><path d="M190.3719,18.7656 L190.3719,16.6094 L197.7625,16.6094 L197.7625,18.7656 L195.2938,18.7656 L195.2938,26.8438 L197.7625,26.8438 L197.7625,29 L190.3719,29 L190.3719,26.8438 L192.8406,26.8438 L192.8406,18.7656 L190.3719,18.7656 Z " fill="#000000"/><text fill="#000000" font-family="sans-serif" font-size="14" font-style="italic" lengthAdjust="spacing" textLength="52" x="208.55" y="27.8467">Subject</text><line style="stroke:#181818;stroke-width:0.5;" x1="180" x2="263" y1="39" y2="39"/><line style="stroke:#181818;stroke-width:0.5;" x1="180" x2="263" y1="47" y2="47"/><text fill="#000000" font-family="sans-serif" font-size="14" lengthAdjust="spacing" textLength="73" x="185" y="63.9951">request1()</text><text fill="#000000" font-family="sans-serif" font-size="14" lengthAdjust="spacing" textLength="73" x="185" y="80.292">request2()</text><text fill="#000000" font-family="sans-serif" font-size="14" lengthAdjust="spacing" textLength="73" x="185" y="96.5889">request3()</text></g><!--class Proxy--><g id="elem_Proxy"><rect codeLine="7" fill="#F1F1F1" height="113.1875" id="Proxy" rx="2.5" ry="2.5" style="stroke:#181818;stroke-width:0.5;" width="175" x="7" y="165"/><ellipse cx="71.75" cy="181" fill="#ADD1B2" rx="11" ry="11" style="stroke:#181818;stroke-width:1.0;"/><path d="M74.7188,186.6406 Q74.1406,186.9375 73.5,187.0781 Q72.8594,187.2344 72.1563,187.2344 Q69.6563,187.2344 68.3281,185.5938 Q67.0156,183.9375 67.0156,180.8125 Q67.0156,177.6875 68.3281,176.0313 Q69.6563,174.375 72.1563,174.375 Q72.8594,174.375 73.5,174.5313 Q74.1563,174.6875 74.7188,174.9844 L74.7188,177.7031 Q74.0938,177.125 73.5,176.8594 Q72.9063,176.5781 72.2813,176.5781 Q70.9375,176.5781 70.25,177.6563 Q69.5625,178.7188 69.5625,180.8125 Q69.5625,182.9063 70.25,183.9844 Q70.9375,185.0469 72.2813,185.0469 Q72.9063,185.0469 73.5,184.7813 Q74.0938,184.5 74.7188,183.9219 L74.7188,186.6406 Z " fill="#000000"/><text fill="#000000" font-family="sans-serif" font-size="14" lengthAdjust="spacing" textLength="37" x="92.25" y="185.8467">Proxy</text><line style="stroke:#181818;stroke-width:0.5;" x1="8" x2="181" y1="197" y2="197"/><text fill="#000000" font-family="sans-serif" font-size="14" lengthAdjust="spacing" textLength="163" x="13" y="213.9951">realSubject RealSubject</text><line style="stroke:#181818;stroke-width:0.5;" x1="8" x2="181" y1="221.2969" y2="221.2969"/><text fill="#000000" font-family="sans-serif" font-size="14" lengthAdjust="spacing" textLength="73" x="13" y="238.292">request1()</text><text fill="#000000" font-family="sans-serif" font-size="14" lengthAdjust="spacing" textLength="73" x="13" y="254.5889">request2()</text><text fill="#000000" font-family="sans-serif" font-size="14" lengthAdjust="spacing" textLength="73" x="13" y="270.8857">request3()</text></g><!--class RealSubject--><g id="elem_RealSubject"><rect codeLine="13" fill="#F1F1F1" height="96.8906" id="RealSubject" rx="2.5" ry="2.5" style="stroke:#181818;stroke-width:0.5;" width="114" x="248.5" y="173"/><ellipse cx="263.5" cy="189" fill="#ADD1B2" rx="11" ry="11" style="stroke:#181818;stroke-width:1.0;"/><path d="M266.4688,194.6406 Q265.8906,194.9375 265.25,195.0781 Q264.6094,195.2344 263.9063,195.2344 Q261.4063,195.2344 260.0781,193.5938 Q258.7656,191.9375 258.7656,188.8125 Q258.7656,185.6875 260.0781,184.0313 Q261.4063,182.375 263.9063,182.375 Q264.6094,182.375 265.25,182.5313 Q265.9063,182.6875 266.4688,182.9844 L266.4688,185.7031 Q265.8438,185.125 265.25,184.8594 Q264.6563,184.5781 264.0313,184.5781 Q262.6875,184.5781 262,185.6563 Q261.3125,186.7188 261.3125,188.8125 Q261.3125,190.9063 262,191.9844 Q262.6875,193.0469 264.0313,193.0469 Q264.6563,193.0469 265.25,192.7813 Q265.8438,192.5 266.4688,191.9219 L266.4688,194.6406 Z " fill="#000000"/><text fill="#000000" font-family="sans-serif" font-size="14" lengthAdjust="spacing" textLength="82" x="277.5" y="193.8467">RealSubject</text><line style="stroke:#181818;stroke-width:0.5;" x1="249.5" x2="361.5" y1="205" y2="205"/><line style="stroke:#181818;stroke-width:0.5;" x1="249.5" x2="361.5" y1="213" y2="213"/><text fill="#000000" font-family="sans-serif" font-size="14" lengthAdjust="spacing" textLength="73" x="254.5" y="229.9951">request1()</text><text fill="#000000" font-family="sans-serif" font-size="14" lengthAdjust="spacing" textLength="73" x="254.5" y="246.292">request2()</text><text fill="#000000" font-family="sans-serif" font-size="14" lengthAdjust="spacing" textLength="73" x="254.5" y="262.5889">request3()</text></g><!--class Client--><g id="elem_Client"><rect fill="#F1F1F1" height="48" id="Client" rx="2.5" ry="2.5" style="stroke:#181818;stroke-width:0.5;" width="71" x="41" y="31.5"/><ellipse cx="56" cy="47.5" fill="#ADD1B2" rx="11" ry="11" style="stroke:#181818;stroke-width:1.0;"/><path d="M58.9688,53.1406 Q58.3906,53.4375 57.75,53.5781 Q57.1094,53.7344 56.4063,53.7344 Q53.9063,53.7344 52.5781,52.0938 Q51.2656,50.4375 51.2656,47.3125 Q51.2656,44.1875 52.5781,42.5313 Q53.9063,40.875 56.4063,40.875 Q57.1094,40.875 57.75,41.0313 Q58.4063,41.1875 58.9688,41.4844 L58.9688,44.2031 Q58.3438,43.625 57.75,43.3594 Q57.1563,43.0781 56.5313,43.0781 Q55.1875,43.0781 54.5,44.1563 Q53.8125,45.2188 53.8125,47.3125 Q53.8125,49.4063 54.5,50.4844 Q55.1875,51.5469 56.5313,51.5469 Q57.1563,51.5469 57.75,51.2813 Q58.3438,51 58.9688,50.4219 L58.9688,53.1406 Z " fill="#000000"/><text fill="#000000" font-family="sans-serif" font-size="14" lengthAdjust="spacing" textLength="39" x="70" y="52.3467">Client</text><line style="stroke:#181818;stroke-width:0.5;" x1="42" x2="111" y1="63.5" y2="63.5"/><line style="stroke:#181818;stroke-width:0.5;" x1="42" x2="111" y1="71.5" y2="71.5"/></g><!--link Client to Subject--><g id="link_Client_Subject"><path codeLine="19" d="M112.34,55.5 C130.59,55.5 153.03,55.5 172.81,55.5 " fill="none" id="Client-to-Subject" style="stroke:#181818;stroke-width:1.0;"/><polygon fill="#181818" points="177.59,55.5,168.59,51.5,172.59,55.5,168.59,59.5,177.59,55.5" style="stroke:#181818;stroke-width:1.0;"/><text fill="#000000" font-family="sans-serif" font-size="13" lengthAdjust="spacing" textLength="30" x="130.5" y="48.5669">uses</text></g><!--reverse link Subject to Proxy--><g id="link_Subject_Proxy"><path codeLine="20" d="M171.62,120.91 C160.4,135.4 148.59,150.66 137.67,164.76 " fill="none" id="Subject-backto-Proxy" style="stroke:#181818;stroke-width:1.0;stroke-dasharray:7.0,7.0;"/><polygon fill="none" points="166.64,116.9,184.42,105.38,177.71,125.48,166.64,116.9" style="stroke:#181818;stroke-width:1.0;"/></g><!--reverse link Subject to RealSubject--><g id="link_Subject_RealSubject"><path codeLine="21" d="M255.53,122.95 C264.04,139.56 273,157.05 280.95,172.56 " fill="none" id="Subject-backto-RealSubject" style="stroke:#181818;stroke-width:1.0;stroke-dasharray:7.0,7.0;"/><polygon fill="none" points="248.91,126.37,246.02,105.38,261.37,119.99,248.91,126.37" style="stroke:#181818;stroke-width:1.0;"/></g><!--link Proxy to RealSubject--><g id="link_Proxy_RealSubject"><path codeLine="22" d="M196.32,221.5 C209.1,221.5 221.96,221.5 234.14,221.5 " fill="none" id="Proxy-RealSubject" style="stroke:#181818;stroke-width:1.0;"/><polygon fill="none" points="183.46,221.5,189.46,225.5,195.46,221.5,189.46,217.5,183.46,221.5" style="stroke:#181818;stroke-width:1.0;"/><polygon fill="#181818" points="247.07,221.5,238.07,217.5,242.07,221.5,238.07,225.5,247.07,221.5" style="stroke:#181818;stroke-width:1.0;"/><line style="stroke:#181818;stroke-width:1.0;" x1="242.07" x2="234.07" y1="221.5" y2="221.5"/><text fill="#000000" font-family="sans-serif" font-size="13" lengthAdjust="spacing" textLength="30" x="200.25" y="214.5669">uses</text></g><!--SRC=[oymhIIrAIqnELGWkJSfAJIvHgEPIKAZEJIt9o4-fLIXABInDBIunrD348cg4LTGOA5hBbPoJM5oi452KNr49Dh4eDJ47PaCGWar5kv1CfP8Vk9npCbFpIXHqYpBJCqfqxM11PALGMfnQp0Nnd5vfWLuDN8eBsHLeKX3r-N3Ja9H2J0G0]--></g></svg>