<?xml version="1.0" encoding="us-ascii" standalone="no"?><svg xmlns="http://www.w3.org/2000/svg" xmlns:xlink="http://www.w3.org/1999/xlink" contentStyleType="text/css" height="219px" preserveAspectRatio="none" style="width:619px;height:219px;background:#FFFFFF;" version="1.1" viewBox="0 0 619 219" width="619px" zoomAndPan="magnify"><defs/><g><!--class WebServer--><g id="elem_WebServer"><rect codeLine="1" fill="#F1F1F1" height="64.2969" id="WebServer" rx="2.5" ry="2.5" style="stroke:#181818;stroke-width:0.5;" width="269" x="212" y="7"/><ellipse cx="304.75" cy="23" fill="#B4A7E5" rx="11" ry="11" style="stroke:#181818;stroke-width:1.0;"/><path d="M300.6719,18.7656 L300.6719,16.6094 L308.0625,16.6094 L308.0625,18.7656 L305.5938,18.7656 L305.5938,26.8438 L308.0625,26.8438 L308.0625,29 L300.6719,29 L300.6719,26.8438 L303.1406,26.8438 L303.1406,18.7656 L300.6719,18.7656 Z " fill="#000000"/><text fill="#000000" font-family="sans-serif" font-size="14" font-style="italic" lengthAdjust="spacing" textLength="75" x="325.25" y="27.8467">WebServer</text><line style="stroke:#181818;stroke-width:0.5;" x1="213" x2="480" y1="39" y2="39"/><line style="stroke:#181818;stroke-width:0.5;" x1="213" x2="480" y1="47" y2="47"/><text fill="#000000" font-family="sans-serif" font-size="14" lengthAdjust="spacing" textLength="257" x="218" y="63.9951">HandleRequest(request string) string</text></g><!--class Proxy--><g id="elem_Proxy"><rect codeLine="4" fill="#F1F1F1" height="80.5938" id="Proxy" rx="2.5" ry="2.5" style="stroke:#181818;stroke-width:0.5;" width="269" x="7" y="132"/><ellipse cx="118.75" cy="148" fill="#ADD1B2" rx="11" ry="11" style="stroke:#181818;stroke-width:1.0;"/><path d="M121.7188,153.6406 Q121.1406,153.9375 120.5,154.0781 Q119.8594,154.2344 119.1563,154.2344 Q116.6563,154.2344 115.3281,152.5938 Q114.0156,150.9375 114.0156,147.8125 Q114.0156,144.6875 115.3281,143.0313 Q116.6563,141.375 119.1563,141.375 Q119.8594,141.375 120.5,141.5313 Q121.1563,141.6875 121.7188,141.9844 L121.7188,144.7031 Q121.0938,144.125 120.5,143.8594 Q119.9063,143.5781 119.2813,143.5781 Q117.9375,143.5781 117.25,144.6563 Q116.5625,145.7188 116.5625,147.8125 Q116.5625,149.9063 117.25,150.9844 Q117.9375,152.0469 119.2813,152.0469 Q119.9063,152.0469 120.5,151.7813 Q121.0938,151.5 121.7188,150.9219 L121.7188,153.6406 Z " fill="#000000"/><text fill="#000000" font-family="sans-serif" font-size="14" lengthAdjust="spacing" textLength="37" x="139.25" y="152.8467">Proxy</text><line style="stroke:#181818;stroke-width:0.5;" x1="8" x2="275" y1="164" y2="164"/><text fill="#000000" font-family="sans-serif" font-size="14" lengthAdjust="spacing" textLength="209" x="13" y="180.9951">realWebServer RealWebServer</text><line style="stroke:#181818;stroke-width:0.5;" x1="8" x2="275" y1="188.2969" y2="188.2969"/><text fill="#000000" font-family="sans-serif" font-size="14" lengthAdjust="spacing" textLength="257" x="13" y="205.292">HandleRequest(request string) string</text></g><!--class RealWebServer--><g id="elem_RealWebServer"><rect codeLine="8" fill="#F1F1F1" height="64.2969" id="RealWebServer" rx="2.5" ry="2.5" style="stroke:#181818;stroke-width:0.5;" width="269" x="343" y="140.5"/><ellipse cx="420.75" cy="156.5" fill="#ADD1B2" rx="11" ry="11" style="stroke:#181818;stroke-width:1.0;"/><path d="M423.7188,162.1406 Q423.1406,162.4375 422.5,162.5781 Q421.8594,162.7344 421.1563,162.7344 Q418.6563,162.7344 417.3281,161.0938 Q416.0156,159.4375 416.0156,156.3125 Q416.0156,153.1875 417.3281,151.5313 Q418.6563,149.875 421.1563,149.875 Q421.8594,149.875 422.5,150.0313 Q423.1563,150.1875 423.7188,150.4844 L423.7188,153.2031 Q423.0938,152.625 422.5,152.3594 Q421.9063,152.0781 421.2813,152.0781 Q419.9375,152.0781 419.25,153.1563 Q418.5625,154.2188 418.5625,156.3125 Q418.5625,158.4063 419.25,159.4844 Q419.9375,160.5469 421.2813,160.5469 Q421.9063,160.5469 422.5,160.2813 Q423.0938,160 423.7188,159.4219 L423.7188,162.1406 Z " fill="#000000"/><text fill="#000000" font-family="sans-serif" font-size="14" lengthAdjust="spacing" textLength="105" x="441.25" y="161.3467">RealWebServer</text><line style="stroke:#181818;stroke-width:0.5;" x1="344" x2="611" y1="172.5" y2="172.5"/><line style="stroke:#181818;stroke-width:0.5;" x1="344" x2="611" y1="180.5" y2="180.5"/><text fill="#000000" font-family="sans-serif" font-size="14" lengthAdjust="spacing" textLength="257" x="349" y="197.4951">HandleRequest(request string) string</text></g><!--class Client--><g id="elem_Client"><rect fill="#F1F1F1" height="48" id="Client" rx="2.5" ry="2.5" style="stroke:#181818;stroke-width:0.5;" width="71" x="74" y="15"/><ellipse cx="89" cy="31" fill="#ADD1B2" rx="11" ry="11" style="stroke:#181818;stroke-width:1.0;"/><path d="M91.9688,36.6406 Q91.3906,36.9375 90.75,37.0781 Q90.1094,37.2344 89.4063,37.2344 Q86.9063,37.2344 85.5781,35.5938 Q84.2656,33.9375 84.2656,30.8125 Q84.2656,27.6875 85.5781,26.0313 Q86.9063,24.375 89.4063,24.375 Q90.1094,24.375 90.75,24.5313 Q91.4063,24.6875 91.9688,24.9844 L91.9688,27.7031 Q91.3438,27.125 90.75,26.8594 Q90.1563,26.5781 89.5313,26.5781 Q88.1875,26.5781 87.5,27.6563 Q86.8125,28.7188 86.8125,30.8125 Q86.8125,32.9063 87.5,33.9844 Q88.1875,35.0469 89.5313,35.0469 Q90.1563,35.0469 90.75,34.7813 Q91.3438,34.5 91.9688,33.9219 L91.9688,36.6406 Z " fill="#000000"/><text fill="#000000" font-family="sans-serif" font-size="14" lengthAdjust="spacing" textLength="39" x="103" y="35.8467">Client</text><line style="stroke:#181818;stroke-width:0.5;" x1="75" x2="144" y1="47" y2="47"/><line style="stroke:#181818;stroke-width:0.5;" x1="75" x2="144" y1="55" y2="55"/></g><!--link Client to WebServer--><g id="link_Client_WebServer"><path codeLine="12" d="M145.5,39 C162.26,39 183.39,39 205.61,39 " fill="none" id="Client-to-WebServer" style="stroke:#181818;stroke-width:1.0;"/><polygon fill="#181818" points="210.59,39,201.59,35,205.59,39,201.59,43,210.59,39" style="stroke:#181818;stroke-width:1.0;"/><text fill="#000000" font-family="sans-serif" font-size="13" lengthAdjust="spacing" textLength="30" x="163.5" y="32.0669">uses</text></g><!--reverse link WebServer to Proxy--><g id="link_WebServer_Proxy"><path codeLine="13" d="M279.84,82.76 C255.4,98.44 227.86,116.11 203.81,131.53 " fill="none" id="WebServer-backto-Proxy" style="stroke:#181818;stroke-width:1.0;stroke-dasharray:7.0,7.0;"/><polygon fill="none" points="275.78,76.4,296.4,71.5,283.34,88.19,275.78,76.4" style="stroke:#181818;stroke-width:1.0;"/></g><!--reverse link WebServer to RealWebServer--><g id="link_WebServer_RealWebServer"><path codeLine="14" d="M392.53,86.21 C410.36,104.1 430.3,124.12 446.38,140.26 " fill="none" id="WebServer-backto-RealWebServer" style="stroke:#181818;stroke-width:1.0;stroke-dasharray:7.0,7.0;"/><polygon fill="none" points="388.03,91.61,378.88,72.5,397.95,81.73,388.03,91.61" style="stroke:#181818;stroke-width:1.0;"/></g><!--link Proxy to RealWebServer--><g id="link_Proxy_RealWebServer"><path codeLine="15" d="M290.18,172.5 C303.03,172.5 316.03,172.5 328.88,172.5 " fill="none" id="Proxy-RealWebServer" style="stroke:#181818;stroke-width:1.0;"/><polygon fill="none" points="277.23,172.5,283.23,176.5,289.23,172.5,283.23,168.5,277.23,172.5" style="stroke:#181818;stroke-width:1.0;"/><polygon fill="#181818" points="341.74,172.5,332.74,168.5,336.74,172.5,332.74,176.5,341.74,172.5" style="stroke:#181818;stroke-width:1.0;"/><line style="stroke:#181818;stroke-width:1.0;" x1="336.74" x2="328.74" y1="172.5" y2="172.5"/><text fill="#000000" font-family="sans-serif" font-size="13" lengthAdjust="spacing" textLength="30" x="294.5" y="165.5669">uses</text></g><!--SRC=[dO-n3i8m34HtVuL76DeFO61XOKHbO4vRqqOA2TWE0fN-En91j15RfvDrlcUVzKfyDWtXYUeZyPqO1q0SBgHzQ4VS6zywgkWMINJ5IL6KhU_MNuKH6cT4yC3XyVpacOoRYDLyMapFA8k-X9spv1KBjbslnNOglS4e990AbF5QlcOcv9V_x9GAFsgsdiXl]--></g></svg>