<?xml version="1.0" encoding="us-ascii" standalone="no"?><svg xmlns="http://www.w3.org/2000/svg" xmlns:xlink="http://www.w3.org/1999/xlink" contentStyleType="text/css" height="300px" preserveAspectRatio="none" style="width:356px;height:300px;background:#FFFFFF;" version="1.1" viewBox="0 0 356 300" width="356px" zoomAndPan="magnify"><defs/><g><!--class Subject--><g id="elem_Subject"><rect codeLine="2" fill="#F1F1F1" height="113.1875" id="Subject" rx="2.5" ry="2.5" style="stroke:#181818;stroke-width:0.5;" width="131" x="35.5" y="7"/><ellipse cx="71.65" cy="23" fill="#B4A7E5" rx="11" ry="11" style="stroke:#181818;stroke-width:1.0;"/><path d="M67.5719,18.7656 L67.5719,16.6094 L74.9625,16.6094 L74.9625,18.7656 L72.4938,18.7656 L72.4938,26.8438 L74.9625,26.8438 L74.9625,29 L67.5719,29 L67.5719,26.8438 L70.0406,26.8438 L70.0406,18.7656 L67.5719,18.7656 Z " fill="#000000"/><text fill="#000000" font-family="sans-serif" font-size="14" font-style="italic" lengthAdjust="spacing" textLength="52" x="90.35" y="27.8467">Subject</text><line style="stroke:#181818;stroke-width:0.5;" x1="36.5" x2="165.5" y1="39" y2="39"/><text fill="#000000" font-family="sans-serif" font-size="14" lengthAdjust="spacing" textLength="69" x="41.5" y="55.9951">observers</text><line style="stroke:#181818;stroke-width:0.5;" x1="36.5" x2="165.5" y1="63.2969" y2="63.2969"/><text fill="#000000" font-family="sans-serif" font-size="14" lengthAdjust="spacing" textLength="101" x="41.5" y="80.292">addObserber()</text><text fill="#000000" font-family="sans-serif" font-size="14" lengthAdjust="spacing" textLength="119" x="41.5" y="96.5889">deleteObserber()</text><text fill="#000000" font-family="sans-serif" font-size="14" lengthAdjust="spacing" textLength="112" x="41.5" y="112.8857">notifyObserber()</text></g><!--class Observer--><g id="elem_Observer"><rect codeLine="8" fill="#F1F1F1" height="64.2969" id="Observer" rx="2.5" ry="2.5" style="stroke:#181818;stroke-width:0.5;" width="95" x="211.5" y="31.5"/><ellipse cx="226.5" cy="47.5" fill="#B4A7E5" rx="11" ry="11" style="stroke:#181818;stroke-width:1.0;"/><path d="M222.4219,43.2656 L222.4219,41.1094 L229.8125,41.1094 L229.8125,43.2656 L227.3438,43.2656 L227.3438,51.3438 L229.8125,51.3438 L229.8125,53.5 L222.4219,53.5 L222.4219,51.3438 L224.8906,51.3438 L224.8906,43.2656 L222.4219,43.2656 Z " fill="#000000"/><text fill="#000000" font-family="sans-serif" font-size="14" font-style="italic" lengthAdjust="spacing" textLength="63" x="240.5" y="52.3467">Observer</text><line style="stroke:#181818;stroke-width:0.5;" x1="212.5" x2="305.5" y1="63.5" y2="63.5"/><line style="stroke:#181818;stroke-width:0.5;" x1="212.5" x2="305.5" y1="71.5" y2="71.5"/><text fill="#000000" font-family="sans-serif" font-size="14" lengthAdjust="spacing" textLength="59" x="217.5" y="88.4951">update()</text></g><!--class ConcreteSubject--><g id="elem_ConcreteSubject"><rect codeLine="11" fill="#F1F1F1" height="113.1875" id="ConcreteSubject" rx="2.5" ry="2.5" style="stroke:#181818;stroke-width:0.5;" width="148" x="7" y="180"/><ellipse cx="22" cy="196" fill="#ADD1B2" rx="11" ry="11" style="stroke:#181818;stroke-width:1.0;"/><path d="M24.9688,201.6406 Q24.3906,201.9375 23.75,202.0781 Q23.1094,202.2344 22.4063,202.2344 Q19.9063,202.2344 18.5781,200.5938 Q17.2656,198.9375 17.2656,195.8125 Q17.2656,192.6875 18.5781,191.0313 Q19.9063,189.375 22.4063,189.375 Q23.1094,189.375 23.75,189.5313 Q24.4063,189.6875 24.9688,189.9844 L24.9688,192.7031 Q24.3438,192.125 23.75,191.8594 Q23.1563,191.5781 22.5313,191.5781 Q21.1875,191.5781 20.5,192.6563 Q19.8125,193.7188 19.8125,195.8125 Q19.8125,197.9063 20.5,198.9844 Q21.1875,200.0469 22.5313,200.0469 Q23.1563,200.0469 23.75,199.7813 Q24.3438,199.5 24.9688,198.9219 L24.9688,201.6406 Z " fill="#000000"/><text fill="#000000" font-family="sans-serif" font-size="14" lengthAdjust="spacing" textLength="116" x="36" y="200.8467">ConcreteSubject</text><line style="stroke:#181818;stroke-width:0.5;" x1="8" x2="154" y1="212" y2="212"/><text fill="#000000" font-family="sans-serif" font-size="14" lengthAdjust="spacing" textLength="69" x="13" y="228.9951">observers</text><line style="stroke:#181818;stroke-width:0.5;" x1="8" x2="154" y1="236.2969" y2="236.2969"/><text fill="#000000" font-family="sans-serif" font-size="14" lengthAdjust="spacing" textLength="101" x="13" y="253.292">addObserber()</text><text fill="#000000" font-family="sans-serif" font-size="14" lengthAdjust="spacing" textLength="119" x="13" y="269.5889">deleteObserber()</text><text fill="#000000" font-family="sans-serif" font-size="14" lengthAdjust="spacing" textLength="112" x="13" y="285.8857">notifyObserber()</text></g><!--class ConcreteObserver--><g id="elem_ConcreteObserver"><rect codeLine="17" fill="#F1F1F1" height="64.2969" id="ConcreteObserver" rx="2.5" ry="2.5" style="stroke:#181818;stroke-width:0.5;" width="159" x="190.5" y="204.5"/><ellipse cx="205.5" cy="220.5" fill="#ADD1B2" rx="11" ry="11" style="stroke:#181818;stroke-width:1.0;"/><path d="M208.4688,226.1406 Q207.8906,226.4375 207.25,226.5781 Q206.6094,226.7344 205.9063,226.7344 Q203.4063,226.7344 202.0781,225.0938 Q200.7656,223.4375 200.7656,220.3125 Q200.7656,217.1875 202.0781,215.5313 Q203.4063,213.875 205.9063,213.875 Q206.6094,213.875 207.25,214.0313 Q207.9063,214.1875 208.4688,214.4844 L208.4688,217.2031 Q207.8438,216.625 207.25,216.3594 Q206.6563,216.0781 206.0313,216.0781 Q204.6875,216.0781 204,217.1563 Q203.3125,218.2188 203.3125,220.3125 Q203.3125,222.4063 204,223.4844 Q204.6875,224.5469 206.0313,224.5469 Q206.6563,224.5469 207.25,224.2813 Q207.8438,224 208.4688,223.4219 L208.4688,226.1406 Z " fill="#000000"/><text fill="#000000" font-family="sans-serif" font-size="14" lengthAdjust="spacing" textLength="127" x="219.5" y="225.3467">ConcreteObserver</text><line style="stroke:#181818;stroke-width:0.5;" x1="191.5" x2="348.5" y1="236.5" y2="236.5"/><line style="stroke:#181818;stroke-width:0.5;" x1="191.5" x2="348.5" y1="244.5" y2="244.5"/><text fill="#000000" font-family="sans-serif" font-size="14" lengthAdjust="spacing" textLength="59" x="196.5" y="261.4951">update()</text></g><!--link Subject to Observer--><g id="link_Subject_Observer"><path codeLine="21" d="M180.63,64 C180.63,64 197.15,64 197.15,64 " fill="none" id="Subject-Observer" style="stroke:#181818;stroke-width:1.0;"/><polygon fill="none" points="167.63,64,173.63,68,179.63,64,173.63,60,167.63,64" style="stroke:#181818;stroke-width:1.0;"/><polygon fill="#181818" points="210.15,64,201.15,60,205.15,64,201.15,68,210.15,64" style="stroke:#181818;stroke-width:1.0;"/><line style="stroke:#181818;stroke-width:1.0;" x1="205.15" x2="197.15" y1="64" y2="64"/><text fill="#000000" font-family="sans-serif" font-size="13" lengthAdjust="spacing" textLength="46" x="165.89" y="77.0669">notifies</text></g><!--reverse link Subject to ConcreteSubject--><g id="link_Subject_ConcreteSubject"><path codeLine="22" d="M95.25,141.15 C95.25,141.15 95.25,179.73 95.25,179.73 " fill="none" id="Subject-backto-ConcreteSubject" style="stroke:#181818;stroke-width:1.0;stroke-dasharray:7.0,7.0;"/><polygon fill="none" points="88.25,141.15,95.25,121.15,102.25,141.15,88.25,141.15" style="stroke:#181818;stroke-width:1.0;"/></g><!--reverse link Observer to ConcreteObserver--><g id="link_Observer_ConcreteObserver"><path codeLine="23" d="M259,116.63 C259,116.63 259,204.24 259,204.24 " fill="none" id="Observer-backto-ConcreteObserver" style="stroke:#181818;stroke-width:1.0;stroke-dasharray:7.0,7.0;"/><polygon fill="none" points="252,116.63,259,96.63,266,116.63,252,116.63" style="stroke:#181818;stroke-width:1.0;"/></g><!--SRC=[lP0z3eCm38NtdC9ZEy01Eh3q00mzGKXCIGj9v1WaHBbxAIM8_aZTkjb-jhzdXwknNf9ie3OMkVS8ZhXombX6AgL2EBN51HN3801S4P0wf335GuDJenv1Qfq_wWNIRhyLDDR8-5spZatPRxHnWymNpCnSHrgl9UFSgceP0XoTLJGH_kRm5VlJfOZ6N4BcN76IhPSTdkiD1l5-HThwz9R5juiFsgB7_0u0]--></g></svg>