<?xml version="1.0" encoding="us-ascii" standalone="no"?><svg xmlns="http://www.w3.org/2000/svg" xmlns:xlink="http://www.w3.org/1999/xlink" contentStyleType="text/css" height="300px" preserveAspectRatio="none" style="width:365px;height:300px;background:#FFFFFF;" version="1.1" viewBox="0 0 365 300" width="365px" zoomAndPan="magnify"><defs/><g><!--class Subject--><g id="elem_Subject"><rect codeLine="2" fill="#F1F1F1" height="113.1875" id="Subject" rx="2.5" ry="2.5" style="stroke:#181818;stroke-width:0.5;" width="157" x="23" y="7"/><ellipse cx="71.25" cy="23" fill="#B4A7E5" rx="11" ry="11" style="stroke:#181818;stroke-width:1.0;"/><path d="M67.1719,18.7656 L67.1719,16.6094 L74.5625,16.6094 L74.5625,18.7656 L72.0938,18.7656 L72.0938,26.8438 L74.5625,26.8438 L74.5625,29 L67.1719,29 L67.1719,26.8438 L69.6406,26.8438 L69.6406,18.7656 L67.1719,18.7656 Z " fill="#000000"/><text fill="#000000" font-family="sans-serif" font-size="14" font-style="italic" lengthAdjust="spacing" textLength="52" x="91.75" y="27.8467">Subject</text><line style="stroke:#181818;stroke-width:0.5;" x1="24" x2="179" y1="39" y2="39"/><text fill="#000000" font-family="sans-serif" font-size="14" lengthAdjust="spacing" textLength="69" x="29" y="55.9951">observers</text><line style="stroke:#181818;stroke-width:0.5;" x1="24" x2="179" y1="63.2969" y2="63.2969"/><text fill="#000000" font-family="sans-serif" font-size="14" lengthAdjust="spacing" textLength="131" x="29" y="80.292">RegisterObserver()</text><text fill="#000000" font-family="sans-serif" font-size="14" lengthAdjust="spacing" textLength="145" x="29" y="96.5889">UnregisterObserver()</text><text fill="#000000" font-family="sans-serif" font-size="14" lengthAdjust="spacing" textLength="119" x="29" y="112.8857">NotifyObservers()</text></g><!--class Observer--><g id="elem_Observer"><rect codeLine="8" fill="#F1F1F1" height="64.2969" id="Observer" rx="2.5" ry="2.5" style="stroke:#181818;stroke-width:0.5;" width="95" x="223" y="31.5"/><ellipse cx="238" cy="47.5" fill="#B4A7E5" rx="11" ry="11" style="stroke:#181818;stroke-width:1.0;"/><path d="M233.9219,43.2656 L233.9219,41.1094 L241.3125,41.1094 L241.3125,43.2656 L238.8438,43.2656 L238.8438,51.3438 L241.3125,51.3438 L241.3125,53.5 L233.9219,53.5 L233.9219,51.3438 L236.3906,51.3438 L236.3906,43.2656 L233.9219,43.2656 Z " fill="#000000"/><text fill="#000000" font-family="sans-serif" font-size="14" font-style="italic" lengthAdjust="spacing" textLength="63" x="252" y="52.3467">Observer</text><line style="stroke:#181818;stroke-width:0.5;" x1="224" x2="317" y1="63.5" y2="63.5"/><line style="stroke:#181818;stroke-width:0.5;" x1="224" x2="317" y1="71.5" y2="71.5"/><text fill="#000000" font-family="sans-serif" font-size="14" lengthAdjust="spacing" textLength="60" x="229" y="88.4951">Update()</text></g><!--class ConcreteSubject--><g id="elem_ConcreteSubject"><rect codeLine="11" fill="#F1F1F1" height="113.1875" id="ConcreteSubject" rx="2.5" ry="2.5" style="stroke:#181818;stroke-width:0.5;" width="157" x="7" y="180"/><ellipse cx="26.05" cy="196" fill="#ADD1B2" rx="11" ry="11" style="stroke:#181818;stroke-width:1.0;"/><path d="M29.0188,201.6406 Q28.4406,201.9375 27.8,202.0781 Q27.1594,202.2344 26.4563,202.2344 Q23.9563,202.2344 22.6281,200.5938 Q21.3156,198.9375 21.3156,195.8125 Q21.3156,192.6875 22.6281,191.0313 Q23.9563,189.375 26.4563,189.375 Q27.1594,189.375 27.8,189.5313 Q28.4563,189.6875 29.0188,189.9844 L29.0188,192.7031 Q28.3938,192.125 27.8,191.8594 Q27.2063,191.5781 26.5813,191.5781 Q25.2375,191.5781 24.55,192.6563 Q23.8625,193.7188 23.8625,195.8125 Q23.8625,197.9063 24.55,198.9844 Q25.2375,200.0469 26.5813,200.0469 Q27.2063,200.0469 27.8,199.7813 Q28.3938,199.5 29.0188,198.9219 L29.0188,201.6406 Z " fill="#000000"/><text fill="#000000" font-family="sans-serif" font-size="14" lengthAdjust="spacing" textLength="116" x="40.95" y="200.8467">ConcreteSubject</text><line style="stroke:#181818;stroke-width:0.5;" x1="8" x2="163" y1="212" y2="212"/><text fill="#000000" font-family="sans-serif" font-size="14" lengthAdjust="spacing" textLength="69" x="13" y="228.9951">observers</text><line style="stroke:#181818;stroke-width:0.5;" x1="8" x2="163" y1="236.2969" y2="236.2969"/><text fill="#000000" font-family="sans-serif" font-size="14" lengthAdjust="spacing" textLength="131" x="13" y="253.292">RegisterObserver()</text><text fill="#000000" font-family="sans-serif" font-size="14" lengthAdjust="spacing" textLength="145" x="13" y="269.5889">UnregisterObserver()</text><text fill="#000000" font-family="sans-serif" font-size="14" lengthAdjust="spacing" textLength="119" x="13" y="285.8857">NotifyObservers()</text></g><!--class ConcreteObserver--><g id="elem_ConcreteObserver"><rect codeLine="17" fill="#F1F1F1" height="64.2969" id="ConcreteObserver" rx="2.5" ry="2.5" style="stroke:#181818;stroke-width:0.5;" width="159" x="199" y="204.5"/><ellipse cx="214" cy="220.5" fill="#ADD1B2" rx="11" ry="11" style="stroke:#181818;stroke-width:1.0;"/><path d="M216.9688,226.1406 Q216.3906,226.4375 215.75,226.5781 Q215.1094,226.7344 214.4063,226.7344 Q211.9063,226.7344 210.5781,225.0938 Q209.2656,223.4375 209.2656,220.3125 Q209.2656,217.1875 210.5781,215.5313 Q211.9063,213.875 214.4063,213.875 Q215.1094,213.875 215.75,214.0313 Q216.4063,214.1875 216.9688,214.4844 L216.9688,217.2031 Q216.3438,216.625 215.75,216.3594 Q215.1563,216.0781 214.5313,216.0781 Q213.1875,216.0781 212.5,217.1563 Q211.8125,218.2188 211.8125,220.3125 Q211.8125,222.4063 212.5,223.4844 Q213.1875,224.5469 214.5313,224.5469 Q215.1563,224.5469 215.75,224.2813 Q216.3438,224 216.9688,223.4219 L216.9688,226.1406 Z " fill="#000000"/><text fill="#000000" font-family="sans-serif" font-size="14" lengthAdjust="spacing" textLength="127" x="228" y="225.3467">ConcreteObserver</text><line style="stroke:#181818;stroke-width:0.5;" x1="200" x2="357" y1="236.5" y2="236.5"/><line style="stroke:#181818;stroke-width:0.5;" x1="200" x2="357" y1="244.5" y2="244.5"/><text fill="#000000" font-family="sans-serif" font-size="14" lengthAdjust="spacing" textLength="60" x="205" y="261.4951">Update()</text></g><!--link Subject to Observer--><g id="link_Subject_Observer"><path codeLine="21" d="M194.06,64 C194.06,64 208.97,64 208.97,64 " fill="none" id="Subject-Observer" style="stroke:#181818;stroke-width:1.0;"/><polygon fill="none" points="181.06,64,187.06,68,193.06,64,187.06,60,181.06,64" style="stroke:#181818;stroke-width:1.0;"/><polygon fill="#181818" points="221.97,64,212.97,60,216.97,64,212.97,68,221.97,64" style="stroke:#181818;stroke-width:1.0;"/><line style="stroke:#181818;stroke-width:1.0;" x1="216.97" x2="208.97" y1="64" y2="64"/><text fill="#000000" font-family="sans-serif" font-size="13" lengthAdjust="spacing" textLength="46" x="178.52" y="77.0669">notifies</text></g><!--reverse link Subject to ConcreteSubject--><g id="link_Subject_ConcreteSubject"><path codeLine="22" d="M93.5,141.15 C93.5,141.15 93.5,179.73 93.5,179.73 " fill="none" id="Subject-backto-ConcreteSubject" style="stroke:#181818;stroke-width:1.0;stroke-dasharray:7.0,7.0;"/><polygon fill="none" points="86.5,141.15,93.5,121.15,100.5,141.15,86.5,141.15" style="stroke:#181818;stroke-width:1.0;"/></g><!--reverse link Observer to ConcreteObserver--><g id="link_Observer_ConcreteObserver"><path codeLine="23" d="M270.5,116.63 C270.5,116.63 270.5,204.24 270.5,204.24 " fill="none" id="Observer-backto-ConcreteObserver" style="stroke:#181818;stroke-width:1.0;stroke-dasharray:7.0,7.0;"/><polygon fill="none" points="263.5,116.63,270.5,96.63,277.5,116.63,263.5,116.63" style="stroke:#181818;stroke-width:1.0;"/></g><!--SRC=[nP4n3i8m34NtdC8Z3Eq16BgmWmJY06dgje6IHB6BL9NUdL0rK422aSts-_B_bkcaZPDUdg7H1hbp2DPpROKsZBwK2c7VvaTK3Bq0i3cXlw2dKFTd3C9YW1rMce9wEy75SauFnd_b6ykwx2AZ08UPUPoFxi-Thf2CerGraWZMrYYFZ7_8-XhWPruH8zh4wwhc97lSk09ptw-HnFizQUlIQnPV8JxS9Xxx6m00]--></g></svg>