<?xml version="1.0" encoding="us-ascii" standalone="no"?><svg xmlns="http://www.w3.org/2000/svg" xmlns:xlink="http://www.w3.org/1999/xlink" contentStyleType="text/css" height="310px" preserveAspectRatio="none" style="width:395px;height:310px;background:#FFFFFF;" version="1.1" viewBox="0 0 395 310" width="395px" zoomAndPan="magnify"><defs/><g><!--cluster Bridge--><g id="cluster_Bridge"><rect fill="#F0F8FF" height="164" rx="2.5" ry="2.5" style="stroke:#0000FF;stroke-width:1.0;stroke-dasharray:1.0,3.0;" width="318" x="30.5" y="7"/><path d="M91.5,7 L91.5,16.2969 L81.5,26.2969 L30.5,26.2969 " fill="none" style="stroke:#0000FF;stroke-width:1.0;stroke-dasharray:1.0,3.0;"/><text fill="#0000FF" font-family="sans-serif" font-size="14" font-weight="bold" lengthAdjust="spacing" textLength="51" x="33.5" y="20.9951">Bridge</text></g><!--class Abstraction--><g id="elem_Abstraction"><rect codeLine="11" fill="#F1F1F1" height="113.1875" id="Abstraction" rx="2.5" ry="2.5" style="stroke:#181818;stroke-width:0.5;" width="131" x="47" y="42"/><ellipse cx="71.45" cy="58" fill="#ADD1B2" rx="11" ry="11" style="stroke:#181818;stroke-width:1.0;"/><path d="M74.4188,63.6406 Q73.8406,63.9375 73.2,64.0781 Q72.5594,64.2344 71.8563,64.2344 Q69.3563,64.2344 68.0281,62.5938 Q66.7156,60.9375 66.7156,57.8125 Q66.7156,54.6875 68.0281,53.0313 Q69.3563,51.375 71.8563,51.375 Q72.5594,51.375 73.2,51.5313 Q73.8563,51.6875 74.4188,51.9844 L74.4188,54.7031 Q73.7938,54.125 73.2,53.8594 Q72.6063,53.5781 71.9813,53.5781 Q70.6375,53.5781 69.95,54.6563 Q69.2625,55.7188 69.2625,57.8125 Q69.2625,59.9063 69.95,60.9844 Q70.6375,62.0469 71.9813,62.0469 Q72.6063,62.0469 73.2,61.7813 Q73.7938,61.5 74.4188,60.9219 L74.4188,63.6406 Z " fill="#000000"/><text fill="#000000" font-family="sans-serif" font-size="14" lengthAdjust="spacing" textLength="78" x="87.55" y="62.8467">Abstraction</text><line style="stroke:#181818;stroke-width:0.5;" x1="48" x2="177" y1="74" y2="74"/><text fill="#000000" font-family="sans-serif" font-size="14" lengthAdjust="spacing" textLength="119" x="53" y="90.9951">impl Implementer</text><line style="stroke:#181818;stroke-width:0.5;" x1="48" x2="177" y1="98.2969" y2="98.2969"/><text fill="#000000" font-family="sans-serif" font-size="14" lengthAdjust="spacing" textLength="63" x="53" y="115.292">method1</text><text fill="#000000" font-family="sans-serif" font-size="14" lengthAdjust="spacing" textLength="63" x="53" y="131.5889">method2</text><text fill="#000000" font-family="sans-serif" font-size="14" lengthAdjust="spacing" textLength="63" x="53" y="147.8857">method3</text></g><!--class Implementer--><g id="elem_Implementer"><rect codeLine="17" fill="#F1F1F1" height="80.5938" id="Implementer" rx="2.5" ry="2.5" style="stroke:#181818;stroke-width:0.5;" width="119" x="213" y="58"/><ellipse cx="228" cy="74" fill="#B4A7E5" rx="11" ry="11" style="stroke:#181818;stroke-width:1.0;"/><path d="M223.9219,69.7656 L223.9219,67.6094 L231.3125,67.6094 L231.3125,69.7656 L228.8438,69.7656 L228.8438,77.8438 L231.3125,77.8438 L231.3125,80 L223.9219,80 L223.9219,77.8438 L226.3906,77.8438 L226.3906,69.7656 L223.9219,69.7656 Z " fill="#000000"/><text fill="#000000" font-family="sans-serif" font-size="14" font-style="italic" lengthAdjust="spacing" textLength="87" x="242" y="78.8467">Implementer</text><line style="stroke:#181818;stroke-width:0.5;" x1="214" x2="331" y1="90" y2="90"/><line style="stroke:#181818;stroke-width:0.5;" x1="214" x2="331" y1="98" y2="98"/><text fill="#000000" font-family="sans-serif" font-size="14" lengthAdjust="spacing" textLength="90" x="219" y="114.9951">implMethodX</text><text fill="#000000" font-family="sans-serif" font-size="14" lengthAdjust="spacing" textLength="90" x="219" y="131.292">implMethodY</text></g><!--class RefinedAbstraction--><g id="elem_RefinedAbstraction"><rect codeLine="1" fill="#F1F1F1" height="88.8594" id="RefinedAbstraction" rx="2.5" ry="2.5" style="stroke:#181818;stroke-width:0.5;" width="163" x="7" y="215"/><ellipse cx="22" cy="235.1328" fill="#ADD1B2" rx="11" ry="11" style="stroke:#181818;stroke-width:1.0;"/><path d="M24.9688,240.7734 Q24.3906,241.0703 23.75,241.2109 Q23.1094,241.3672 22.4063,241.3672 Q19.9063,241.3672 18.5781,239.7266 Q17.2656,238.0703 17.2656,234.9453 Q17.2656,231.8203 18.5781,230.1641 Q19.9063,228.5078 22.4063,228.5078 Q23.1094,228.5078 23.75,228.6641 Q24.4063,228.8203 24.9688,229.1172 L24.9688,231.8359 Q24.3438,231.2578 23.75,230.9922 Q23.1563,230.7109 22.5313,230.7109 Q21.1875,230.7109 20.5,231.7891 Q19.8125,232.8516 19.8125,234.9453 Q19.8125,237.0391 20.5,238.1172 Q21.1875,239.1797 22.5313,239.1797 Q23.1563,239.1797 23.75,238.9141 Q24.3438,238.6328 24.9688,238.0547 L24.9688,240.7734 Z " fill="#000000"/><text fill="#000000" font-family="sans-serif" font-size="12" font-style="italic" lengthAdjust="spacing" textLength="103" x="50" y="231.1387">&#171;not necessary&#187;</text><text fill="#000000" font-family="sans-serif" font-size="14" lengthAdjust="spacing" textLength="131" x="36" y="246.9639">RefinedAbstraction</text><line style="stroke:#181818;stroke-width:0.5;" x1="8" x2="169" y1="255.2656" y2="255.2656"/><line style="stroke:#181818;stroke-width:0.5;" x1="8" x2="169" y1="263.2656" y2="263.2656"/><text fill="#000000" font-family="sans-serif" font-size="14" lengthAdjust="spacing" textLength="110" x="13" y="280.2607">refinedMethod1</text><text fill="#000000" font-family="sans-serif" font-size="14" lengthAdjust="spacing" textLength="110" x="13" y="296.5576">refinedMethod2</text></g><!--class ConcreteImplementer--><g id="elem_ConcreteImplementer"><rect codeLine="5" fill="#F1F1F1" height="80.5938" id="ConcreteImplementer" rx="2.5" ry="2.5" style="stroke:#181818;stroke-width:0.5;" width="183" x="205" y="219"/><ellipse cx="220" cy="235" fill="#ADD1B2" rx="11" ry="11" style="stroke:#181818;stroke-width:1.0;"/><path d="M222.9688,240.6406 Q222.3906,240.9375 221.75,241.0781 Q221.1094,241.2344 220.4063,241.2344 Q217.9063,241.2344 216.5781,239.5938 Q215.2656,237.9375 215.2656,234.8125 Q215.2656,231.6875 216.5781,230.0313 Q217.9063,228.375 220.4063,228.375 Q221.1094,228.375 221.75,228.5313 Q222.4063,228.6875 222.9688,228.9844 L222.9688,231.7031 Q222.3438,231.125 221.75,230.8594 Q221.1563,230.5781 220.5313,230.5781 Q219.1875,230.5781 218.5,231.6563 Q217.8125,232.7188 217.8125,234.8125 Q217.8125,236.9063 218.5,237.9844 Q219.1875,239.0469 220.5313,239.0469 Q221.1563,239.0469 221.75,238.7813 Q222.3438,238.5 222.9688,237.9219 L222.9688,240.6406 Z " fill="#000000"/><text fill="#000000" font-family="sans-serif" font-size="14" lengthAdjust="spacing" textLength="151" x="234" y="239.8467">ConcreteImplementer</text><line style="stroke:#181818;stroke-width:0.5;" x1="206" x2="387" y1="251" y2="251"/><line style="stroke:#181818;stroke-width:0.5;" x1="206" x2="387" y1="259" y2="259"/><text fill="#000000" font-family="sans-serif" font-size="14" lengthAdjust="spacing" textLength="90" x="211" y="275.9951">implMethodX</text><text fill="#000000" font-family="sans-serif" font-size="14" lengthAdjust="spacing" textLength="90" x="211" y="292.292">implMethodY</text></g><!--link Abstraction to Implementer--><g id="link_Abstraction_Implementer"><path codeLine="23" d="M192.32,98.5 C194.43,98.5 196.55,98.5 198.66,98.5 " fill="none" id="Abstraction-Implementer" style="stroke:#181818;stroke-width:1.0;"/><polygon fill="none" points="179.44,98.5,185.44,102.5,191.44,98.5,185.44,94.5,179.44,98.5" style="stroke:#181818;stroke-width:1.0;"/><polygon fill="#181818" points="211.61,98.5,202.61,94.5,206.61,98.5,202.61,102.5,211.61,98.5" style="stroke:#181818;stroke-width:1.0;"/><line style="stroke:#181818;stroke-width:1.0;" x1="206.61" x2="198.61" y1="98.5" y2="98.5"/></g><!--reverse link Abstraction to RefinedAbstraction--><g id="link_Abstraction_RefinedAbstraction"><path codeLine="24" d="M100.99,175.78 C98.97,189.13 96.94,202.61 95.11,214.69 " fill="none" id="Abstraction-backto-RefinedAbstraction" style="stroke:#181818;stroke-width:1.0;"/><polygon fill="none" points="94.2,174.84,104.11,156.11,108.04,176.93,94.2,174.84" style="stroke:#181818;stroke-width:1.0;"/></g><!--reverse link Implementer to ConcreteImplementer--><g id="link_Implementer_ConcreteImplementer"><path codeLine="25" d="M281.59,159.73 C284.57,179.47 287.81,200.9 290.5,218.74 " fill="none" id="Implementer-backto-ConcreteImplementer" style="stroke:#181818;stroke-width:1.0;stroke-dasharray:7.0,7.0;"/><polygon fill="none" points="274.56,161.03,278.49,140.21,288.4,158.94,274.56,161.03" style="stroke:#181818;stroke-width:1.0;"/></g><!--SRC=[TP4zoy8m4CVtV8e3vnRKJQNmwEJWugHZJAuQo4j9hg1elxjf2gNrQOT0yZlk_qA4vY706KjbKVxT0dakI3aBknrOHs1HO0ZSlw0euCq0tWRfuMG3ljivfUToTh9Y3HF9vE2iy4XuD9L6WvRGZnLL77HBbsbyZLgizDmWxBsITuG5rqhWJTUurT5pqzzowOXGRWcVb6Yowe8CQxOKaWKCSYNO1p1znNzmDGNN4JRng5Qgv0BXj_9iwPdQhLwiFWpkCg_k3ygAKUw9ZypgAliKmz9iwYVokie_8x4l]--></g></svg>