<?xml version="1.0" encoding="us-ascii" standalone="no"?><svg xmlns="http://www.w3.org/2000/svg" xmlns:xlink="http://www.w3.org/1999/xlink" contentStyleType="text/css" height="394px" preserveAspectRatio="none" style="width:465px;height:394px;background:#FFFFFF;" version="1.1" viewBox="0 0 465 394" width="465px" zoomAndPan="magnify"><defs/><g><!--cluster Bridge--><g id="cluster_Bridge"><rect fill="#F0F8FF" height="132" rx="2.5" ry="2.5" style="stroke:#0000FF;stroke-width:1.0;stroke-dasharray:1.0,3.0;" width="363" x="21" y="7"/><path d="M82,7 L82,16.2969 L72,26.2969 L21,26.2969 " fill="none" style="stroke:#0000FF;stroke-width:1.0;stroke-dasharray:1.0,3.0;"/><text fill="#0000FF" font-family="sans-serif" font-size="14" font-weight="bold" lengthAdjust="spacing" textLength="51" x="24" y="20.9951">Bridge</text></g><!--class AbstractPrintableComputer--><g id="elem_AbstractPrintableComputer"><rect codeLine="19" fill="#F1F1F1" height="80.5938" id="AbstractPrintableComputer" rx="2.5" ry="2.5" style="stroke:#181818;stroke-width:0.5;" width="218" x="37" y="42"/><ellipse cx="52" cy="58" fill="#ADD1B2" rx="11" ry="11" style="stroke:#181818;stroke-width:1.0;"/><path d="M54.9688,63.6406 Q54.3906,63.9375 53.75,64.0781 Q53.1094,64.2344 52.4063,64.2344 Q49.9063,64.2344 48.5781,62.5938 Q47.2656,60.9375 47.2656,57.8125 Q47.2656,54.6875 48.5781,53.0313 Q49.9063,51.375 52.4063,51.375 Q53.1094,51.375 53.75,51.5313 Q54.4063,51.6875 54.9688,51.9844 L54.9688,54.7031 Q54.3438,54.125 53.75,53.8594 Q53.1563,53.5781 52.5313,53.5781 Q51.1875,53.5781 50.5,54.6563 Q49.8125,55.7188 49.8125,57.8125 Q49.8125,59.9063 50.5,60.9844 Q51.1875,62.0469 52.5313,62.0469 Q53.1563,62.0469 53.75,61.7813 Q54.3438,61.5 54.9688,60.9219 L54.9688,63.6406 Z " fill="#000000"/><text fill="#000000" font-family="sans-serif" font-size="14" lengthAdjust="spacing" textLength="186" x="66" y="62.8467">AbstractPrintableComputer</text><line style="stroke:#181818;stroke-width:0.5;" x1="38" x2="254" y1="74" y2="74"/><text fill="#000000" font-family="sans-serif" font-size="14" lengthAdjust="spacing" textLength="94" x="43" y="90.9951">printer Printer</text><line style="stroke:#181818;stroke-width:0.5;" x1="38" x2="254" y1="98.2969" y2="98.2969"/><text fill="#000000" font-family="sans-serif" font-size="14" lengthAdjust="spacing" textLength="172" x="43" y="115.292">SetPrinter(printer Printer)</text></g><!--class Printer--><g id="elem_Printer"><rect codeLine="23" fill="#F1F1F1" height="64.2969" id="Printer" rx="2.5" ry="2.5" style="stroke:#181818;stroke-width:0.5;" width="77" x="290.5" y="50.5"/><ellipse cx="305.5" cy="66.5" fill="#B4A7E5" rx="11" ry="11" style="stroke:#181818;stroke-width:1.0;"/><path d="M301.4219,62.2656 L301.4219,60.1094 L308.8125,60.1094 L308.8125,62.2656 L306.3438,62.2656 L306.3438,70.3438 L308.8125,70.3438 L308.8125,72.5 L301.4219,72.5 L301.4219,70.3438 L303.8906,70.3438 L303.8906,62.2656 L301.4219,62.2656 Z " fill="#000000"/><text fill="#000000" font-family="sans-serif" font-size="14" font-style="italic" lengthAdjust="spacing" textLength="45" x="319.5" y="71.3467">Printer</text><line style="stroke:#181818;stroke-width:0.5;" x1="291.5" x2="366.5" y1="82.5" y2="82.5"/><line style="stroke:#181818;stroke-width:0.5;" x1="291.5" x2="366.5" y1="90.5" y2="90.5"/><text fill="#000000" font-family="sans-serif" font-size="14" lengthAdjust="spacing" textLength="64" x="296.5" y="107.4951">PrintFile()</text></g><!--class PrintableComputer--><g id="elem_PrintableComputer"><rect codeLine="1" fill="#F1F1F1" height="80.5938" id="PrintableComputer" rx="2.5" ry="2.5" style="stroke:#181818;stroke-width:0.5;" width="161" x="29.5" y="307"/><ellipse cx="44.5" cy="323" fill="#B4A7E5" rx="11" ry="11" style="stroke:#181818;stroke-width:1.0;"/><path d="M40.4219,318.7656 L40.4219,316.6094 L47.8125,316.6094 L47.8125,318.7656 L45.3438,318.7656 L45.3438,326.8438 L47.8125,326.8438 L47.8125,329 L40.4219,329 L40.4219,326.8438 L42.8906,326.8438 L42.8906,318.7656 L40.4219,318.7656 Z " fill="#000000"/><text fill="#000000" font-family="sans-serif" font-size="14" font-style="italic" lengthAdjust="spacing" textLength="129" x="58.5" y="327.8467">PrintableComputer</text><line style="stroke:#181818;stroke-width:0.5;" x1="30.5" x2="189.5" y1="339" y2="339"/><line style="stroke:#181818;stroke-width:0.5;" x1="30.5" x2="189.5" y1="347" y2="347"/><text fill="#000000" font-family="sans-serif" font-size="14" lengthAdjust="spacing" textLength="41" x="35.5" y="363.9951">Print()</text><text fill="#000000" font-family="sans-serif" font-size="14" lengthAdjust="spacing" textLength="123" x="35.5" y="380.292">SetPrinter(Printer)</text></g><!--class Windows--><g id="elem_Windows"><rect codeLine="5" fill="#F1F1F1" height="64.2969" id="Windows" rx="2.5" ry="2.5" style="stroke:#181818;stroke-width:0.5;" width="94" x="7" y="183"/><ellipse cx="22" cy="199" fill="#ADD1B2" rx="11" ry="11" style="stroke:#181818;stroke-width:1.0;"/><path d="M24.9688,204.6406 Q24.3906,204.9375 23.75,205.0781 Q23.1094,205.2344 22.4063,205.2344 Q19.9063,205.2344 18.5781,203.5938 Q17.2656,201.9375 17.2656,198.8125 Q17.2656,195.6875 18.5781,194.0313 Q19.9063,192.375 22.4063,192.375 Q23.1094,192.375 23.75,192.5313 Q24.4063,192.6875 24.9688,192.9844 L24.9688,195.7031 Q24.3438,195.125 23.75,194.8594 Q23.1563,194.5781 22.5313,194.5781 Q21.1875,194.5781 20.5,195.6563 Q19.8125,196.7188 19.8125,198.8125 Q19.8125,200.9063 20.5,201.9844 Q21.1875,203.0469 22.5313,203.0469 Q23.1563,203.0469 23.75,202.7813 Q24.3438,202.5 24.9688,201.9219 L24.9688,204.6406 Z " fill="#000000"/><text fill="#000000" font-family="sans-serif" font-size="14" lengthAdjust="spacing" textLength="62" x="36" y="203.8467">Windows</text><line style="stroke:#181818;stroke-width:0.5;" x1="8" x2="100" y1="215" y2="215"/><line style="stroke:#181818;stroke-width:0.5;" x1="8" x2="100" y1="223" y2="223"/><text fill="#000000" font-family="sans-serif" font-size="14" lengthAdjust="spacing" textLength="41" x="13" y="239.9951">Print()</text></g><!--class Mac--><g id="elem_Mac"><rect codeLine="8" fill="#F1F1F1" height="64.2969" id="Mac" rx="2.5" ry="2.5" style="stroke:#181818;stroke-width:0.5;" width="60" x="136" y="183"/><ellipse cx="151" cy="199" fill="#ADD1B2" rx="11" ry="11" style="stroke:#181818;stroke-width:1.0;"/><path d="M153.9688,204.6406 Q153.3906,204.9375 152.75,205.0781 Q152.1094,205.2344 151.4063,205.2344 Q148.9063,205.2344 147.5781,203.5938 Q146.2656,201.9375 146.2656,198.8125 Q146.2656,195.6875 147.5781,194.0313 Q148.9063,192.375 151.4063,192.375 Q152.1094,192.375 152.75,192.5313 Q153.4063,192.6875 153.9688,192.9844 L153.9688,195.7031 Q153.3438,195.125 152.75,194.8594 Q152.1563,194.5781 151.5313,194.5781 Q150.1875,194.5781 149.5,195.6563 Q148.8125,196.7188 148.8125,198.8125 Q148.8125,200.9063 149.5,201.9844 Q150.1875,203.0469 151.5313,203.0469 Q152.1563,203.0469 152.75,202.7813 Q153.3438,202.5 153.9688,201.9219 L153.9688,204.6406 Z " fill="#000000"/><text fill="#000000" font-family="sans-serif" font-size="14" lengthAdjust="spacing" textLength="28" x="165" y="203.8467">Mac</text><line style="stroke:#181818;stroke-width:0.5;" x1="137" x2="195" y1="215" y2="215"/><line style="stroke:#181818;stroke-width:0.5;" x1="137" x2="195" y1="223" y2="223"/><text fill="#000000" font-family="sans-serif" font-size="14" lengthAdjust="spacing" textLength="41" x="142" y="239.9951">Print()</text></g><!--class Epson--><g id="elem_Epson"><rect codeLine="11" fill="#F1F1F1" height="64.2969" id="Epson" rx="2.5" ry="2.5" style="stroke:#181818;stroke-width:0.5;" width="76" x="271" y="183"/><ellipse cx="286" cy="199" fill="#ADD1B2" rx="11" ry="11" style="stroke:#181818;stroke-width:1.0;"/><path d="M288.9688,204.6406 Q288.3906,204.9375 287.75,205.0781 Q287.1094,205.2344 286.4063,205.2344 Q283.9063,205.2344 282.5781,203.5938 Q281.2656,201.9375 281.2656,198.8125 Q281.2656,195.6875 282.5781,194.0313 Q283.9063,192.375 286.4063,192.375 Q287.1094,192.375 287.75,192.5313 Q288.4063,192.6875 288.9688,192.9844 L288.9688,195.7031 Q288.3438,195.125 287.75,194.8594 Q287.1563,194.5781 286.5313,194.5781 Q285.1875,194.5781 284.5,195.6563 Q283.8125,196.7188 283.8125,198.8125 Q283.8125,200.9063 284.5,201.9844 Q285.1875,203.0469 286.5313,203.0469 Q287.1563,203.0469 287.75,202.7813 Q288.3438,202.5 288.9688,201.9219 L288.9688,204.6406 Z " fill="#000000"/><text fill="#000000" font-family="sans-serif" font-size="14" lengthAdjust="spacing" textLength="44" x="300" y="203.8467">Epson</text><line style="stroke:#181818;stroke-width:0.5;" x1="272" x2="346" y1="215" y2="215"/><line style="stroke:#181818;stroke-width:0.5;" x1="272" x2="346" y1="223" y2="223"/><text fill="#000000" font-family="sans-serif" font-size="14" lengthAdjust="spacing" textLength="64" x="277" y="239.9951">PrintFile()</text></g><!--class Hp--><g id="elem_Hp"><rect codeLine="14" fill="#F1F1F1" height="64.2969" id="Hp" rx="2.5" ry="2.5" style="stroke:#181818;stroke-width:0.5;" width="76" x="382" y="183"/><ellipse cx="408.25" cy="199" fill="#ADD1B2" rx="11" ry="11" style="stroke:#181818;stroke-width:1.0;"/><path d="M411.2188,204.6406 Q410.6406,204.9375 410,205.0781 Q409.3594,205.2344 408.6563,205.2344 Q406.1563,205.2344 404.8281,203.5938 Q403.5156,201.9375 403.5156,198.8125 Q403.5156,195.6875 404.8281,194.0313 Q406.1563,192.375 408.6563,192.375 Q409.3594,192.375 410,192.5313 Q410.6563,192.6875 411.2188,192.9844 L411.2188,195.7031 Q410.5938,195.125 410,194.8594 Q409.4063,194.5781 408.7813,194.5781 Q407.4375,194.5781 406.75,195.6563 Q406.0625,196.7188 406.0625,198.8125 Q406.0625,200.9063 406.75,201.9844 Q407.4375,203.0469 408.7813,203.0469 Q409.4063,203.0469 410,202.7813 Q410.5938,202.5 411.2188,201.9219 L411.2188,204.6406 Z " fill="#000000"/><text fill="#000000" font-family="sans-serif" font-size="14" lengthAdjust="spacing" textLength="19" x="424.75" y="203.8467">Hp</text><line style="stroke:#181818;stroke-width:0.5;" x1="383" x2="457" y1="215" y2="215"/><line style="stroke:#181818;stroke-width:0.5;" x1="383" x2="457" y1="223" y2="223"/><text fill="#000000" font-family="sans-serif" font-size="14" lengthAdjust="spacing" textLength="64" x="388" y="239.9951">PrintFile()</text></g><!--link AbstractPrintableComputer to Printer--><g id="link_AbstractPrintableComputer_Printer"><path codeLine="28" d="M269.24,82.5 C271.64,82.5 274.03,82.5 276.43,82.5 " fill="none" id="AbstractPrintableComputer-Printer" style="stroke:#181818;stroke-width:1.0;"/><polygon fill="none" points="256.37,82.5,262.37,86.5,268.37,82.5,262.37,78.5,256.37,82.5" style="stroke:#181818;stroke-width:1.0;"/><polygon fill="#181818" points="289.17,82.5,280.17,78.5,284.17,82.5,280.17,86.5,289.17,82.5" style="stroke:#181818;stroke-width:1.0;"/><line style="stroke:#181818;stroke-width:1.0;" x1="284.17" x2="276.17" y1="82.5" y2="82.5"/></g><!--reverse link AbstractPrintableComputer to Windows--><g id="link_AbstractPrintableComputer_Windows"><path codeLine="29" d="M106.13,140.06 C95.83,154.66 85.12,169.86 76.1,182.65 " fill="none" id="AbstractPrintableComputer-backto-Windows" style="stroke:#181818;stroke-width:1.0;"/><polygon fill="none" points="100.65,136.68,117.9,124.36,112.09,144.74,100.65,136.68" style="stroke:#181818;stroke-width:1.0;"/></g><!--link Windows to PrintableComputer--><g id="link_Windows_PrintableComputer"><path codeLine="30" d="M67.41,247.26 C72.6,259.35 78.72,273.61 84.68,287.49 " fill="none" id="Windows-to-PrintableComputer" style="stroke:#181818;stroke-width:1.0;stroke-dasharray:7.0,7.0;"/><polygon fill="none" points="91.42,284.45,92.87,305.59,78.55,289.97,91.42,284.45" style="stroke:#181818;stroke-width:1.0;"/></g><!--reverse link AbstractPrintableComputer to Mac--><g id="link_AbstractPrintableComputer_Mac"><path codeLine="31" d="M155.25,143.88 C157.31,157.29 159.41,170.98 161.2,182.65 " fill="none" id="AbstractPrintableComputer-backto-Mac" style="stroke:#181818;stroke-width:1.0;"/><polygon fill="none" points="148.22,145.19,152.11,124.36,162.06,143.07,148.22,145.19" style="stroke:#181818;stroke-width:1.0;"/></g><!--link Mac to PrintableComputer--><g id="link_Mac_PrintableComputer"><path codeLine="32" d="M152.59,247.26 C147.4,259.35 141.28,273.61 135.32,287.49 " fill="none" id="Mac-to-PrintableComputer" style="stroke:#181818;stroke-width:1.0;stroke-dasharray:7.0,7.0;"/><polygon fill="none" points="141.45,289.97,127.13,305.59,128.58,284.45,141.45,289.97" style="stroke:#181818;stroke-width:1.0;"/></g><!--reverse link Printer to Epson--><g id="link_Printer_Epson"><path codeLine="33" d="M321.04,135.43 C318.6,151.37 315.99,168.42 313.82,182.54 " fill="none" id="Printer-backto-Epson" style="stroke:#181818;stroke-width:1.0;stroke-dasharray:7.0,7.0;"/><polygon fill="none" points="314.26,134.47,324.21,115.76,328.1,136.59,314.26,134.47" style="stroke:#181818;stroke-width:1.0;"/></g><!--reverse link Printer to Hp--><g id="link_Printer_Hp"><path codeLine="34" d="M362.76,131.92 C374.56,148.83 387.49,167.37 398.07,182.54 " fill="none" id="Printer-backto-Hp" style="stroke:#181818;stroke-width:1.0;stroke-dasharray:7.0,7.0;"/><polygon fill="none" points="356.49,136.17,350.8,115.76,367.98,128.16,356.49,136.17" style="stroke:#181818;stroke-width:1.0;"/></g><!--SRC=[XL71Yi8m4BtdAmQywA7zW1KAkYXxMLZmiESq7NKW9Y6Peh3wxwQjPjlTgeUGvBt9oxnvP1ZzLYg4Bq-6PQdntHvS7L7u4T2XqrayRP3R2_hfRP-9Yr1QXW3mJQQonp1uaiXFgKQ9bGlM_39hqjXZFzm89RPU7X2MdgeTmaHgKbZg6kUQ3BwbKrvPPgpcZ2TkqLQgqrsKWRrKFEuNm7Ncu6QonNhU_z3DP2vnqN2EIQtVVbCPBJnkm6QUTdlEYlJvVQvPxR9pyRZtL1YT7qr-Blx7APeONkeqHKyqkiZosYKwWZ6f8N85]--></g></svg>