<?xml version="1.0" encoding="us-ascii" standalone="no"?><svg xmlns="http://www.w3.org/2000/svg" xmlns:xlink="http://www.w3.org/1999/xlink" contentStyleType="text/css" height="377px" preserveAspectRatio="none" style="width:510px;height:377px;background:#FFFFFF;" version="1.1" viewBox="0 0 510 377" width="510px" zoomAndPan="magnify"><defs/><g><!--class Command--><g id="elem_Command"><rect codeLine="1" fill="#F1F1F1" height="64.2969" id="Command" rx="2.5" ry="2.5" style="stroke:#181818;stroke-width:0.5;" width="103" x="273.5" y="7"/><ellipse cx="288.5" cy="23" fill="#B4A7E5" rx="11" ry="11" style="stroke:#181818;stroke-width:1.0;"/><path d="M284.4219,18.7656 L284.4219,16.6094 L291.8125,16.6094 L291.8125,18.7656 L289.3438,18.7656 L289.3438,26.8438 L291.8125,26.8438 L291.8125,29 L284.4219,29 L284.4219,26.8438 L286.8906,26.8438 L286.8906,18.7656 L284.4219,18.7656 Z " fill="#000000"/><text fill="#000000" font-family="sans-serif" font-size="14" font-style="italic" lengthAdjust="spacing" textLength="71" x="302.5" y="27.8467">Command</text><line style="stroke:#181818;stroke-width:0.5;" x1="274.5" x2="375.5" y1="39" y2="39"/><line style="stroke:#181818;stroke-width:0.5;" x1="274.5" x2="375.5" y1="47" y2="47"/><text fill="#000000" font-family="sans-serif" font-size="14" lengthAdjust="spacing" textLength="56" x="279.5" y="63.9951">execute</text></g><!--class ConcreteCommand--><g id="elem_ConcreteCommand"><rect codeLine="4" fill="#F1F1F1" height="80.5938" id="ConcreteCommand" rx="2.5" ry="2.5" style="stroke:#181818;stroke-width:0.5;" width="167" x="134.5" y="132"/><ellipse cx="149.5" cy="148" fill="#ADD1B2" rx="11" ry="11" style="stroke:#181818;stroke-width:1.0;"/><path d="M152.4688,153.6406 Q151.8906,153.9375 151.25,154.0781 Q150.6094,154.2344 149.9063,154.2344 Q147.4063,154.2344 146.0781,152.5938 Q144.7656,150.9375 144.7656,147.8125 Q144.7656,144.6875 146.0781,143.0313 Q147.4063,141.375 149.9063,141.375 Q150.6094,141.375 151.25,141.5313 Q151.9063,141.6875 152.4688,141.9844 L152.4688,144.7031 Q151.8438,144.125 151.25,143.8594 Q150.6563,143.5781 150.0313,143.5781 Q148.6875,143.5781 148,144.6563 Q147.3125,145.7188 147.3125,147.8125 Q147.3125,149.9063 148,150.9844 Q148.6875,152.0469 150.0313,152.0469 Q150.6563,152.0469 151.25,151.7813 Q151.8438,151.5 152.4688,150.9219 L152.4688,153.6406 Z " fill="#000000"/><text fill="#000000" font-family="sans-serif" font-size="14" lengthAdjust="spacing" textLength="135" x="163.5" y="152.8467">ConcreteCommand</text><line style="stroke:#181818;stroke-width:0.5;" x1="135.5" x2="300.5" y1="164" y2="164"/><rect fill="none" height="6" style="stroke:#C82930;stroke-width:1.0;" width="6" x="142.5" y="174.6484"/><text fill="#000000" font-family="sans-serif" font-size="14" lengthAdjust="spacing" textLength="119" x="154.5" y="180.9951">reciever Reciever</text><line style="stroke:#181818;stroke-width:0.5;" x1="135.5" x2="300.5" y1="188.2969" y2="188.2969"/><text fill="#000000" font-family="sans-serif" font-size="14" lengthAdjust="spacing" textLength="56" x="140.5" y="205.292">execute</text></g><!--class Reciever--><g id="elem_Reciever"><rect codeLine="8" fill="#F1F1F1" height="64.2969" id="Reciever" rx="2.5" ry="2.5" style="stroke:#181818;stroke-width:0.5;" width="92" x="7" y="140.5"/><ellipse cx="22" cy="156.5" fill="#ADD1B2" rx="11" ry="11" style="stroke:#181818;stroke-width:1.0;"/><path d="M24.9688,162.1406 Q24.3906,162.4375 23.75,162.5781 Q23.1094,162.7344 22.4063,162.7344 Q19.9063,162.7344 18.5781,161.0938 Q17.2656,159.4375 17.2656,156.3125 Q17.2656,153.1875 18.5781,151.5313 Q19.9063,149.875 22.4063,149.875 Q23.1094,149.875 23.75,150.0313 Q24.4063,150.1875 24.9688,150.4844 L24.9688,153.2031 Q24.3438,152.625 23.75,152.3594 Q23.1563,152.0781 22.5313,152.0781 Q21.1875,152.0781 20.5,153.1563 Q19.8125,154.2188 19.8125,156.3125 Q19.8125,158.4063 20.5,159.4844 Q21.1875,160.5469 22.5313,160.5469 Q23.1563,160.5469 23.75,160.2813 Q24.3438,160 24.9688,159.4219 L24.9688,162.1406 Z " fill="#000000"/><text fill="#000000" font-family="sans-serif" font-size="14" lengthAdjust="spacing" textLength="60" x="36" y="161.3467">Reciever</text><line style="stroke:#181818;stroke-width:0.5;" x1="8" x2="98" y1="172.5" y2="172.5"/><line style="stroke:#181818;stroke-width:0.5;" x1="8" x2="98" y1="180.5" y2="180.5"/><text fill="#000000" font-family="sans-serif" font-size="14" lengthAdjust="spacing" textLength="42" x="13" y="197.4951">action</text></g><!--class Invoker--><g id="elem_Invoker"><rect codeLine="11" fill="#F1F1F1" height="80.5938" id="Invoker" rx="2.5" ry="2.5" style="stroke:#181818;stroke-width:0.5;" width="170" x="333" y="290"/><ellipse cx="388.75" cy="306" fill="#ADD1B2" rx="11" ry="11" style="stroke:#181818;stroke-width:1.0;"/><path d="M391.7188,311.6406 Q391.1406,311.9375 390.5,312.0781 Q389.8594,312.2344 389.1563,312.2344 Q386.6563,312.2344 385.3281,310.5938 Q384.0156,308.9375 384.0156,305.8125 Q384.0156,302.6875 385.3281,301.0313 Q386.6563,299.375 389.1563,299.375 Q389.8594,299.375 390.5,299.5313 Q391.1563,299.6875 391.7188,299.9844 L391.7188,302.7031 Q391.0938,302.125 390.5,301.8594 Q389.9063,301.5781 389.2813,301.5781 Q387.9375,301.5781 387.25,302.6563 Q386.5625,303.7188 386.5625,305.8125 Q386.5625,307.9063 387.25,308.9844 Q387.9375,310.0469 389.2813,310.0469 Q389.9063,310.0469 390.5,309.7813 Q391.0938,309.5 391.7188,308.9219 L391.7188,311.6406 Z " fill="#000000"/><text fill="#000000" font-family="sans-serif" font-size="14" lengthAdjust="spacing" textLength="50" x="409.25" y="310.8467">Invoker</text><line style="stroke:#181818;stroke-width:0.5;" x1="334" x2="502" y1="322" y2="322"/><rect fill="none" height="6" style="stroke:#C82930;stroke-width:1.0;" width="6" x="341" y="332.6484"/><text fill="#000000" font-family="sans-serif" font-size="14" lengthAdjust="spacing" textLength="144" x="353" y="338.9951">command Command</text><line style="stroke:#181818;stroke-width:0.5;" x1="334" x2="502" y1="346.2969" y2="346.2969"/><text fill="#000000" font-family="sans-serif" font-size="14" lengthAdjust="spacing" textLength="127" x="339" y="363.292">executeCommand</text></g><!--class Client--><g id="elem_Client"><rect fill="#F1F1F1" height="48" id="Client" rx="2.5" ry="2.5" style="stroke:#181818;stroke-width:0.5;" width="71" x="107.5" y="306.5"/><ellipse cx="122.5" cy="322.5" fill="#ADD1B2" rx="11" ry="11" style="stroke:#181818;stroke-width:1.0;"/><path d="M125.4688,328.1406 Q124.8906,328.4375 124.25,328.5781 Q123.6094,328.7344 122.9063,328.7344 Q120.4063,328.7344 119.0781,327.0938 Q117.7656,325.4375 117.7656,322.3125 Q117.7656,319.1875 119.0781,317.5313 Q120.4063,315.875 122.9063,315.875 Q123.6094,315.875 124.25,316.0313 Q124.9063,316.1875 125.4688,316.4844 L125.4688,319.2031 Q124.8438,318.625 124.25,318.3594 Q123.6563,318.0781 123.0313,318.0781 Q121.6875,318.0781 121,319.1563 Q120.3125,320.2188 120.3125,322.3125 Q120.3125,324.4063 121,325.4844 Q121.6875,326.5469 123.0313,326.5469 Q123.6563,326.5469 124.25,326.2813 Q124.8438,326 125.4688,325.4219 L125.4688,328.1406 Z " fill="#000000"/><text fill="#000000" font-family="sans-serif" font-size="14" lengthAdjust="spacing" textLength="39" x="136.5" y="327.3467">Client</text><line style="stroke:#181818;stroke-width:0.5;" x1="108.5" x2="177.5" y1="338.5" y2="338.5"/><line style="stroke:#181818;stroke-width:0.5;" x1="108.5" x2="177.5" y1="346.5" y2="346.5"/></g><!--reverse link ConcreteCommand to Client--><g id="link_ConcreteCommand_Client"><path codeLine="16" d="M196.35,218.54 C182.55,247.23 165.26,283.21 154.16,306.28 " fill="none" id="ConcreteCommand-backto-Client" style="stroke:#181818;stroke-width:1.0;"/><polygon fill="#181818" points="198.88,214.27,191.3826,220.6567,196.7187,218.7787,198.5966,224.1148,198.88,214.27" style="stroke:#181818;stroke-width:1.0;"/><text fill="#000000" font-family="sans-serif" font-size="13" lengthAdjust="spacing" textLength="48" x="184" y="256.0669">creates</text></g><!--link Command to Invoker--><g id="link_Command_Invoker"><path codeLine="17" d="M339.22,84.25 C355.83,135.96 383.3,221.47 401.02,276.63 " fill="none" id="Command-Invoker" style="stroke:#181818;stroke-width:1.0;"/><polygon fill="#181818" points="335.04,72.26,333.9926,82.053,336.5732,77.0191,341.6071,79.5998,335.04,72.26" style="stroke:#181818;stroke-width:1.0;"/><line style="stroke:#181818;stroke-width:1.0;" x1="336.5732" x2="339.02" y1="77.0191" y2="84.635"/><polygon fill="none" points="405.19,288.62,407.1647,281.6845,401.5222,277.1943,399.5475,284.1298,405.19,288.62" style="stroke:#181818;stroke-width:1.0;"/><text fill="#000000" font-family="sans-serif" font-size="13" lengthAdjust="spacing" textLength="51" x="381" y="177.0669">execute</text></g><!--link Client to Invoker--><g id="link_Client_Invoker"><path codeLine="18" d="M178.95,330.5 C216.31,330.5 276.27,330.5 326.79,330.5 " fill="none" id="Client-to-Invoker" style="stroke:#181818;stroke-width:1.0;"/><polygon fill="#181818" points="331.59,330.5,322.59,326.5,326.59,330.5,322.59,334.5,331.59,330.5" style="stroke:#181818;stroke-width:1.0;"/><text fill="#000000" font-family="sans-serif" font-size="13" lengthAdjust="spacing" textLength="118" x="196.75" y="323.5669">executeCommand</text></g><!--reverse link Command to ConcreteCommand--><g id="link_Command_ConcreteCommand"><path codeLine="19" d="M286.18,87.71 C274.41,102.17 261.62,117.89 250.33,131.77 " fill="none" id="Command-backto-ConcreteCommand" style="stroke:#181818;stroke-width:1.0;stroke-dasharray:7.0,7.0;"/><polygon fill="none" points="281.32,83.59,299.37,72.5,292.18,92.43,281.32,83.59" style="stroke:#181818;stroke-width:1.0;"/></g><!--link Reciever to ConcreteCommand--><g id="link_Reciever_ConcreteCommand"><path codeLine="20" d="M113.25,172.5 C115.64,172.5 118.04,172.5 120.43,172.5 " fill="none" id="Reciever-ConcreteCommand" style="stroke:#181818;stroke-width:1.0;"/><polygon fill="#181818" points="100.41,172.5,109.41,176.5,105.41,172.5,109.41,168.5,100.41,172.5" style="stroke:#181818;stroke-width:1.0;"/><line style="stroke:#181818;stroke-width:1.0;" x1="105.41" x2="113.41" y1="172.5" y2="172.5"/><polygon fill="none" points="133.15,172.5,127.15,168.5,121.15,172.5,127.15,176.5,133.15,172.5" style="stroke:#181818;stroke-width:1.0;"/></g><!--SRC=[VP0n3eCm34LdV0fV81o0WOMfQsyG6QD6XGG5WofHxWv2CMfJgPijFxt_4-U5OsU9iGd3O7sBAo2k0yiZj1loYsaMXWsejzDqG9uY2t_21YEJuuKZtjFmJw7CTv0bSS5VqCqluNaoXK5AOIaKYjojXmsWwHrxGJEFfixRLdXiLdW2rGVJSoSdcGXjgvvQgrHvMFuLvJoMxylqSxwYzFqx]--></g></svg>