<?xml version="1.0" encoding="us-ascii" standalone="no"?><svg xmlns="http://www.w3.org/2000/svg" xmlns:xlink="http://www.w3.org/1999/xlink" contentStyleType="text/css" height="446px" preserveAspectRatio="none" style="width:852px;height:446px;background:#FFFFFF;" version="1.1" viewBox="0 0 852 446" width="852px" zoomAndPan="magnify"><defs/><g><!--cluster ConcreteCommand--><g id="cluster_ConcreteCommand"><rect fill="#EEEEEE" height="314" rx="2.5" ry="2.5" style="stroke:#000000;stroke-width:1.0;stroke-dasharray:1.0,3.0;" width="373" x="7" y="126"/><path d="M168,126 L168,135.2969 L158,145.2969 L7,145.2969 " fill="none" style="stroke:#000000;stroke-width:1.0;stroke-dasharray:1.0,3.0;"/><text fill="#000000" font-family="sans-serif" font-size="14" font-weight="bold" lengthAdjust="spacing" textLength="151" x="10" y="139.9951">ConcreteCommand</text></g><!--class CopyCommand--><g id="elem_CopyCommand"><rect codeLine="5" fill="#F1F1F1" height="80.5938" id="CopyCommand" rx="2.5" ry="2.5" style="stroke:#181818;stroke-width:0.5;" width="138" x="33" y="169"/><ellipse cx="48" cy="185" fill="#ADD1B2" rx="11" ry="11" style="stroke:#181818;stroke-width:1.0;"/><path d="M50.9688,190.6406 Q50.3906,190.9375 49.75,191.0781 Q49.1094,191.2344 48.4063,191.2344 Q45.9063,191.2344 44.5781,189.5938 Q43.2656,187.9375 43.2656,184.8125 Q43.2656,181.6875 44.5781,180.0313 Q45.9063,178.375 48.4063,178.375 Q49.1094,178.375 49.75,178.5313 Q50.4063,178.6875 50.9688,178.9844 L50.9688,181.7031 Q50.3438,181.125 49.75,180.8594 Q49.1563,180.5781 48.5313,180.5781 Q47.1875,180.5781 46.5,181.6563 Q45.8125,182.7188 45.8125,184.8125 Q45.8125,186.9063 46.5,187.9844 Q47.1875,189.0469 48.5313,189.0469 Q49.1563,189.0469 49.75,188.7813 Q50.3438,188.5 50.9688,187.9219 L50.9688,190.6406 Z " fill="#000000"/><text fill="#000000" font-family="sans-serif" font-size="14" lengthAdjust="spacing" textLength="106" x="62" y="189.8467">CopyCommand</text><line style="stroke:#181818;stroke-width:0.5;" x1="34" x2="170" y1="201" y2="201"/><text fill="#000000" font-family="sans-serif" font-size="14" lengthAdjust="spacing" textLength="113" x="39" y="217.9951">App *Application</text><line style="stroke:#181818;stroke-width:0.5;" x1="34" x2="170" y1="225.2969" y2="225.2969"/><text fill="#000000" font-family="sans-serif" font-size="14" lengthAdjust="spacing" textLength="56" x="39" y="242.292">Execute</text></g><!--class CutCommand--><g id="elem_CutCommand"><rect codeLine="9" fill="#F1F1F1" height="80.5938" id="CutCommand" rx="2.5" ry="2.5" style="stroke:#181818;stroke-width:0.5;" width="127" x="206.5" y="169"/><ellipse cx="221.5" cy="185" fill="#ADD1B2" rx="11" ry="11" style="stroke:#181818;stroke-width:1.0;"/><path d="M224.4688,190.6406 Q223.8906,190.9375 223.25,191.0781 Q222.6094,191.2344 221.9063,191.2344 Q219.4063,191.2344 218.0781,189.5938 Q216.7656,187.9375 216.7656,184.8125 Q216.7656,181.6875 218.0781,180.0313 Q219.4063,178.375 221.9063,178.375 Q222.6094,178.375 223.25,178.5313 Q223.9063,178.6875 224.4688,178.9844 L224.4688,181.7031 Q223.8438,181.125 223.25,180.8594 Q222.6563,180.5781 222.0313,180.5781 Q220.6875,180.5781 220,181.6563 Q219.3125,182.7188 219.3125,184.8125 Q219.3125,186.9063 220,187.9844 Q220.6875,189.0469 222.0313,189.0469 Q222.6563,189.0469 223.25,188.7813 Q223.8438,188.5 224.4688,187.9219 L224.4688,190.6406 Z " fill="#000000"/><text fill="#000000" font-family="sans-serif" font-size="14" lengthAdjust="spacing" textLength="95" x="235.5" y="189.8467">CutCommand</text><line style="stroke:#181818;stroke-width:0.5;" x1="207.5" x2="332.5" y1="201" y2="201"/><text fill="#000000" font-family="sans-serif" font-size="14" lengthAdjust="spacing" textLength="113" x="212.5" y="217.9951">App *Application</text><line style="stroke:#181818;stroke-width:0.5;" x1="207.5" x2="332.5" y1="225.2969" y2="225.2969"/><text fill="#000000" font-family="sans-serif" font-size="14" lengthAdjust="spacing" textLength="56" x="212.5" y="242.292">Execute</text></g><!--class PasteCommand--><g id="elem_PasteCommand"><rect codeLine="13" fill="#F1F1F1" height="80.5938" id="PasteCommand" rx="2.5" ry="2.5" style="stroke:#181818;stroke-width:0.5;" width="142" x="31" y="335"/><ellipse cx="46" cy="351" fill="#ADD1B2" rx="11" ry="11" style="stroke:#181818;stroke-width:1.0;"/><path d="M48.9688,356.6406 Q48.3906,356.9375 47.75,357.0781 Q47.1094,357.2344 46.4063,357.2344 Q43.9063,357.2344 42.5781,355.5938 Q41.2656,353.9375 41.2656,350.8125 Q41.2656,347.6875 42.5781,346.0313 Q43.9063,344.375 46.4063,344.375 Q47.1094,344.375 47.75,344.5313 Q48.4063,344.6875 48.9688,344.9844 L48.9688,347.7031 Q48.3438,347.125 47.75,346.8594 Q47.1563,346.5781 46.5313,346.5781 Q45.1875,346.5781 44.5,347.6563 Q43.8125,348.7188 43.8125,350.8125 Q43.8125,352.9063 44.5,353.9844 Q45.1875,355.0469 46.5313,355.0469 Q47.1563,355.0469 47.75,354.7813 Q48.3438,354.5 48.9688,353.9219 L48.9688,356.6406 Z " fill="#000000"/><text fill="#000000" font-family="sans-serif" font-size="14" lengthAdjust="spacing" textLength="110" x="60" y="355.8467">PasteCommand</text><line style="stroke:#181818;stroke-width:0.5;" x1="32" x2="172" y1="367" y2="367"/><text fill="#000000" font-family="sans-serif" font-size="14" lengthAdjust="spacing" textLength="113" x="37" y="383.9951">App *Application</text><line style="stroke:#181818;stroke-width:0.5;" x1="32" x2="172" y1="391.2969" y2="391.2969"/><text fill="#000000" font-family="sans-serif" font-size="14" lengthAdjust="spacing" textLength="56" x="37" y="408.292">Execute</text></g><!--class UndoCommand--><g id="elem_UndoCommand"><rect codeLine="17" fill="#F1F1F1" height="80.5938" id="UndoCommand" rx="2.5" ry="2.5" style="stroke:#181818;stroke-width:0.5;" width="140" x="208" y="335"/><ellipse cx="223" cy="351" fill="#ADD1B2" rx="11" ry="11" style="stroke:#181818;stroke-width:1.0;"/><path d="M225.9688,356.6406 Q225.3906,356.9375 224.75,357.0781 Q224.1094,357.2344 223.4063,357.2344 Q220.9063,357.2344 219.5781,355.5938 Q218.2656,353.9375 218.2656,350.8125 Q218.2656,347.6875 219.5781,346.0313 Q220.9063,344.375 223.4063,344.375 Q224.1094,344.375 224.75,344.5313 Q225.4063,344.6875 225.9688,344.9844 L225.9688,347.7031 Q225.3438,347.125 224.75,346.8594 Q224.1563,346.5781 223.5313,346.5781 Q222.1875,346.5781 221.5,347.6563 Q220.8125,348.7188 220.8125,350.8125 Q220.8125,352.9063 221.5,353.9844 Q222.1875,355.0469 223.5313,355.0469 Q224.1563,355.0469 224.75,354.7813 Q225.3438,354.5 225.9688,353.9219 L225.9688,356.6406 Z " fill="#000000"/><text fill="#000000" font-family="sans-serif" font-size="14" lengthAdjust="spacing" textLength="108" x="237" y="355.8467">UndoCommand</text><line style="stroke:#181818;stroke-width:0.5;" x1="209" x2="347" y1="367" y2="367"/><text fill="#000000" font-family="sans-serif" font-size="14" lengthAdjust="spacing" textLength="113" x="214" y="383.9951">App *Application</text><line style="stroke:#181818;stroke-width:0.5;" x1="209" x2="347" y1="391.2969" y2="391.2969"/><text fill="#000000" font-family="sans-serif" font-size="14" lengthAdjust="spacing" textLength="56" x="214" y="408.292">Execute</text></g><!--class Command--><g id="elem_Command"><rect codeLine="1" fill="#F1F1F1" height="64.2969" id="Command" rx="2.5" ry="2.5" style="stroke:#181818;stroke-width:0.5;" width="103" x="477.5" y="7"/><ellipse cx="492.5" cy="23" fill="#B4A7E5" rx="11" ry="11" style="stroke:#181818;stroke-width:1.0;"/><path d="M488.4219,18.7656 L488.4219,16.6094 L495.8125,16.6094 L495.8125,18.7656 L493.3438,18.7656 L493.3438,26.8438 L495.8125,26.8438 L495.8125,29 L488.4219,29 L488.4219,26.8438 L490.8906,26.8438 L490.8906,18.7656 L488.4219,18.7656 Z " fill="#000000"/><text fill="#000000" font-family="sans-serif" font-size="14" font-style="italic" lengthAdjust="spacing" textLength="71" x="506.5" y="27.8467">Command</text><line style="stroke:#181818;stroke-width:0.5;" x1="478.5" x2="579.5" y1="39" y2="39"/><line style="stroke:#181818;stroke-width:0.5;" x1="478.5" x2="579.5" y1="47" y2="47"/><text fill="#000000" font-family="sans-serif" font-size="14" lengthAdjust="spacing" textLength="56" x="483.5" y="63.9951">execute</text></g><!--class Application--><g id="elem_Application"><rect codeLine="22" fill="#F1F1F1" height="96.8906" id="Application" rx="2.5" ry="2.5" style="stroke:#181818;stroke-width:0.5;" width="215" x="630.5" y="327"/><ellipse cx="696.25" cy="343" fill="#ADD1B2" rx="11" ry="11" style="stroke:#181818;stroke-width:1.0;"/><path d="M699.2188,348.6406 Q698.6406,348.9375 698,349.0781 Q697.3594,349.2344 696.6563,349.2344 Q694.1563,349.2344 692.8281,347.5938 Q691.5156,345.9375 691.5156,342.8125 Q691.5156,339.6875 692.8281,338.0313 Q694.1563,336.375 696.6563,336.375 Q697.3594,336.375 698,336.5313 Q698.6563,336.6875 699.2188,336.9844 L699.2188,339.7031 Q698.5938,339.125 698,338.8594 Q697.4063,338.5781 696.7813,338.5781 Q695.4375,338.5781 694.75,339.6563 Q694.0625,340.7188 694.0625,342.8125 Q694.0625,344.9063 694.75,345.9844 Q695.4375,347.0469 696.7813,347.0469 Q697.4063,347.0469 698,346.7813 Q698.5938,346.5 699.2188,345.9219 L699.2188,348.6406 Z " fill="#000000"/><text fill="#000000" font-family="sans-serif" font-size="14" lengthAdjust="spacing" textLength="75" x="716.75" y="347.8467">Application</text><line style="stroke:#181818;stroke-width:0.5;" x1="631.5" x2="844.5" y1="359" y2="359"/><text fill="#000000" font-family="sans-serif" font-size="14" lengthAdjust="spacing" textLength="91" x="636.5" y="375.9951">Editor *Editor</text><text fill="#000000" font-family="sans-serif" font-size="14" lengthAdjust="spacing" textLength="203" x="636.5" y="392.292">CommandHistory Command[]</text><line style="stroke:#181818;stroke-width:0.5;" x1="631.5" x2="844.5" y1="399.5938" y2="399.5938"/><text fill="#000000" font-family="sans-serif" font-size="14" lengthAdjust="spacing" textLength="127" x="636.5" y="416.5889">ExecuteCommand</text></g><!--class Client--><g id="elem_Client"><rect fill="#F1F1F1" height="48" id="Client" rx="2.5" ry="2.5" style="stroke:#181818;stroke-width:0.5;" width="71" x="404.5" y="351.5"/><ellipse cx="419.5" cy="367.5" fill="#ADD1B2" rx="11" ry="11" style="stroke:#181818;stroke-width:1.0;"/><path d="M422.4688,373.1406 Q421.8906,373.4375 421.25,373.5781 Q420.6094,373.7344 419.9063,373.7344 Q417.4063,373.7344 416.0781,372.0938 Q414.7656,370.4375 414.7656,367.3125 Q414.7656,364.1875 416.0781,362.5313 Q417.4063,360.875 419.9063,360.875 Q420.6094,360.875 421.25,361.0313 Q421.9063,361.1875 422.4688,361.4844 L422.4688,364.2031 Q421.8438,363.625 421.25,363.3594 Q420.6563,363.0781 420.0313,363.0781 Q418.6875,363.0781 418,364.1563 Q417.3125,365.2188 417.3125,367.3125 Q417.3125,369.4063 418,370.4844 Q418.6875,371.5469 420.0313,371.5469 Q420.6563,371.5469 421.25,371.2813 Q421.8438,371 422.4688,370.4219 L422.4688,373.1406 Z " fill="#000000"/><text fill="#000000" font-family="sans-serif" font-size="14" lengthAdjust="spacing" textLength="39" x="433.5" y="372.3467">Client</text><line style="stroke:#181818;stroke-width:0.5;" x1="405.5" x2="474.5" y1="383.5" y2="383.5"/><line style="stroke:#181818;stroke-width:0.5;" x1="405.5" x2="474.5" y1="391.5" y2="391.5"/></g><!--reverse link ConcreteCommand to Client--><g id="link_ConcreteCommand_Client"><path codeLine="28" d="M380.0285,229.8636 C380.2961,230.5089 380.569,231.167 380.847,231.8374 C381.403,233.1782 381.9793,234.5681 382.5743,236.0029 C383.7642,238.8725 385.0286,241.9217 386.3537,245.1171 C389.0038,251.5078 391.8963,258.4831 394.92,265.775 C407.015,294.9425 421.21,329.175 430.39,351.32 " fill="none" id="ConcreteCommand-backto-Client" style="stroke:#181818;stroke-width:1.0;"/><polygon fill="#181818" points="380.0285,229.8636,379.7809,239.7093,381.9437,234.4823,387.1708,236.645,380.0285,229.8636" style="stroke:#181818;stroke-width:1.0;"/><text fill="#000000" font-family="sans-serif" font-size="13" lengthAdjust="spacing" textLength="48" x="407" y="293.0669">creates</text></g><!--link Command to Application--><g id="link_Command_Application"><path codeLine="29" d="M556.03,83.26 C592.95,142.34 659.29,248.52 700.85,315.05 " fill="none" id="Command-Application" style="stroke:#181818;stroke-width:1.0;"/><polygon fill="#181818" points="548.66,72.47,550.0335,82.2226,551.308,76.7112,556.8194,77.9858,548.66,72.47" style="stroke:#181818;stroke-width:1.0;"/><line style="stroke:#181818;stroke-width:1.0;" x1="551.308" x2="555.55" y1="76.7112" y2="83.49"/><polygon fill="none" points="708.06,325.58,708.2754,318.3721,701.7048,315.4011,701.4894,322.6089,708.06,325.58" style="stroke:#181818;stroke-width:1.0;"/><text fill="#000000" font-family="sans-serif" font-size="13" lengthAdjust="spacing" textLength="51" x="660" y="214.0669">execute</text></g><!--link Client to Application--><g id="link_Client_Application"><path codeLine="30" d="M475.95,375.5 C512.69,375.5 571.68,375.5 624.4,375.5 " fill="none" id="Client-to-Application" style="stroke:#181818;stroke-width:1.0;"/><polygon fill="#181818" points="629.14,375.5,620.14,371.5,624.14,375.5,620.14,379.5,629.14,375.5" style="stroke:#181818;stroke-width:1.0;"/><text fill="#000000" font-family="sans-serif" font-size="13" lengthAdjust="spacing" textLength="118" x="494" y="368.5669">executeCommand</text></g><!--reverse link Command to ConcreteCommand--><g id="link_Command_ConcreteCommand"><path codeLine="31" d="M485.53,86.66 C462.7,111.16 434.8975,140.9975 412.52,165.0138 C401.3313,177.0219 391.4988,187.5747 384.3222,195.2773 C383.4251,196.2402 382.5695,197.1585 381.758,198.0295 C381.3522,198.465 380.9575,198.8887 380.5741,199.3003 C380.3823,199.5061 380.1935,199.7088 380.0074,199.9085 " fill="none" id="Command-backto-ConcreteCommand" style="stroke:#181818;stroke-width:1.0;stroke-dasharray:7.0,7.0;"/><polygon fill="none" points="480.08,82.16,498.84,72.3,490.32,91.7,480.08,82.16" style="stroke:#181818;stroke-width:1.0;"/></g><!--link ConcreteCommand to Application--><g id="link_ConcreteCommand_Application"><path codeLine="32" d="M380.0538,214.1087 C380.1974,214.173 380.3428,214.2382 380.49,214.3042 C380.7844,214.4361 381.0859,214.5712 381.3944,214.7095 C382.0114,214.986 382.6566,215.2751 383.3293,215.5766 C384.6747,216.1795 386.1299,216.8317 387.6897,217.5306 C390.8091,218.9285 394.3464,220.5137 398.2581,222.2666 C413.905,229.2781 435.5425,238.9738 460.39,250.1075 C510.085,272.375 572.62,300.395 625.75,324.2 " fill="none" id="ConcreteCommand-Application" style="stroke:#181818;stroke-width:1.0;"/><polygon fill="none" points="380.0538,214.1087,383.8932,220.2127,391.0044,219.0163,387.165,212.9123,380.0538,214.1087" style="stroke:#181818;stroke-width:1.0;"/><polygon fill="#181818" points="630.1,326.6,623.5236,319.2685,625.5375,324.5547,620.2512,326.5685,630.1,326.6" style="stroke:#181818;stroke-width:1.0;"/></g><!--SRC=[fPB1gi8m44NNpLSCk1FQ3r0GH0INRbo9YvXCCPWcePc2elrtOzhKlhwTPf5aPYvdRfWeGrYNN21iR5Ln8-7101uLqiNA5l26eY5aBIjhNhr5HjH8cCGpZ6kfbS75MNDnZTT2MYAKIy8RTUc85Pfx7nZkFcu6i7OEvc7JId1IriJau67RUm1eFuo6VaNikV-yurl8mKZxBQDb7MCa3eniAnNP6kRToR8UlrC-XFSqfkE9PLDgNmfWjj4A3K7Uk7mr7Te2GiG9FHjtjhd6agAwLwNP9zPgx7GefwRJdr4qhdWEj7zbc__blG00]--></g></svg>