<?xml version="1.0" encoding="us-ascii" standalone="no"?><svg xmlns="http://www.w3.org/2000/svg" xmlns:xlink="http://www.w3.org/1999/xlink" contentStyleType="text/css" height="326px" preserveAspectRatio="none" style="width:489px;height:326px;background:#FFFFFF;" version="1.1" viewBox="0 0 489 326" width="489px" zoomAndPan="magnify"><defs/><g><!--class Expression--><g id="elem_Expression"><rect codeLine="2" fill="#F1F1F1" height="64.2969" id="Expression" rx="2.5" ry="2.5" style="stroke:#181818;stroke-width:0.5;" width="108" x="271.5" y="115"/><ellipse cx="286.5" cy="131" fill="#B4A7E5" rx="11" ry="11" style="stroke:#181818;stroke-width:1.0;"/><path d="M282.4219,126.7656 L282.4219,124.6094 L289.8125,124.6094 L289.8125,126.7656 L287.3438,126.7656 L287.3438,134.8438 L289.8125,134.8438 L289.8125,137 L282.4219,137 L282.4219,134.8438 L284.8906,134.8438 L284.8906,126.7656 L282.4219,126.7656 Z " fill="#000000"/><text fill="#000000" font-family="sans-serif" font-size="14" font-style="italic" lengthAdjust="spacing" textLength="76" x="300.5" y="135.8467">Expression</text><line style="stroke:#181818;stroke-width:0.5;" x1="272.5" x2="378.5" y1="147" y2="147"/><line style="stroke:#181818;stroke-width:0.5;" x1="272.5" x2="378.5" y1="155" y2="155"/><ellipse cx="282.5" cy="168.6484" fill="#84BE84" rx="3" ry="3" style="stroke:#038048;stroke-width:1.0;"/><text fill="#000000" font-family="sans-serif" font-size="14" lengthAdjust="spacing" textLength="69" x="291.5" y="171.9951">interpret()</text></g><!--class TerminalExpression--><g id="elem_TerminalExpression"><rect codeLine="6" fill="#F1F1F1" height="64.2969" id="TerminalExpression" rx="2.5" ry="2.5" style="stroke:#181818;stroke-width:0.5;" width="167" x="7" y="247.5"/><ellipse cx="22" cy="263.5" fill="#ADD1B2" rx="11" ry="11" style="stroke:#181818;stroke-width:1.0;"/><path d="M24.9688,269.1406 Q24.3906,269.4375 23.75,269.5781 Q23.1094,269.7344 22.4063,269.7344 Q19.9063,269.7344 18.5781,268.0938 Q17.2656,266.4375 17.2656,263.3125 Q17.2656,260.1875 18.5781,258.5313 Q19.9063,256.875 22.4063,256.875 Q23.1094,256.875 23.75,257.0313 Q24.4063,257.1875 24.9688,257.4844 L24.9688,260.2031 Q24.3438,259.625 23.75,259.3594 Q23.1563,259.0781 22.5313,259.0781 Q21.1875,259.0781 20.5,260.1563 Q19.8125,261.2188 19.8125,263.3125 Q19.8125,265.4063 20.5,266.4844 Q21.1875,267.5469 22.5313,267.5469 Q23.1563,267.5469 23.75,267.2813 Q24.3438,267 24.9688,266.4219 L24.9688,269.1406 Z " fill="#000000"/><text fill="#000000" font-family="sans-serif" font-size="14" lengthAdjust="spacing" textLength="135" x="36" y="268.3467">TerminalExpression</text><line style="stroke:#181818;stroke-width:0.5;" x1="8" x2="173" y1="279.5" y2="279.5"/><line style="stroke:#181818;stroke-width:0.5;" x1="8" x2="173" y1="287.5" y2="287.5"/><ellipse cx="18" cy="301.1484" fill="#84BE84" rx="3" ry="3" style="stroke:#038048;stroke-width:1.0;"/><text fill="#000000" font-family="sans-serif" font-size="14" lengthAdjust="spacing" textLength="69" x="27" y="304.4951">interpret()</text></g><!--class NonTerminalExpression--><g id="elem_NonTerminalExpression"><rect codeLine="10" fill="#F1F1F1" height="80.5938" id="NonTerminalExpression" rx="2.5" ry="2.5" style="stroke:#181818;stroke-width:0.5;" width="232" x="209.5" y="239"/><ellipse cx="241.15" cy="255" fill="#ADD1B2" rx="11" ry="11" style="stroke:#181818;stroke-width:1.0;"/><path d="M244.1188,260.6406 Q243.5406,260.9375 242.9,261.0781 Q242.2594,261.2344 241.5563,261.2344 Q239.0563,261.2344 237.7281,259.5938 Q236.4156,257.9375 236.4156,254.8125 Q236.4156,251.6875 237.7281,250.0313 Q239.0563,248.375 241.5563,248.375 Q242.2594,248.375 242.9,248.5313 Q243.5563,248.6875 244.1188,248.9844 L244.1188,251.7031 Q243.4938,251.125 242.9,250.8594 Q242.3063,250.5781 241.6813,250.5781 Q240.3375,250.5781 239.65,251.6563 Q238.9625,252.7188 238.9625,254.8125 Q238.9625,256.9063 239.65,257.9844 Q240.3375,259.0469 241.6813,259.0469 Q242.3063,259.0469 242.9,258.7813 Q243.4938,258.5 244.1188,257.9219 L244.1188,260.6406 Z " fill="#000000"/><text fill="#000000" font-family="sans-serif" font-size="14" lengthAdjust="spacing" textLength="163" x="258.85" y="259.8467">NonTerminalExpression</text><line style="stroke:#181818;stroke-width:0.5;" x1="210.5" x2="440.5" y1="271" y2="271"/><text fill="#000000" font-family="sans-serif" font-size="14" lengthAdjust="spacing" textLength="220" x="215.5" y="287.9951">childrenExressions []Expression</text><line style="stroke:#181818;stroke-width:0.5;" x1="210.5" x2="440.5" y1="295.2969" y2="295.2969"/><ellipse cx="220.5" cy="308.9453" fill="#84BE84" rx="3" ry="3" style="stroke:#038048;stroke-width:1.0;"/><text fill="#000000" font-family="sans-serif" font-size="14" lengthAdjust="spacing" textLength="69" x="229.5" y="312.292">interpret()</text></g><!--class Context--><g id="elem_Context"><rect codeLine="15" fill="#F1F1F1" height="48" id="Context" rx="2.5" ry="2.5" style="stroke:#181818;stroke-width:0.5;" width="86" x="396.5" y="7"/><ellipse cx="411.5" cy="23" fill="#ADD1B2" rx="11" ry="11" style="stroke:#181818;stroke-width:1.0;"/><path d="M414.4688,28.6406 Q413.8906,28.9375 413.25,29.0781 Q412.6094,29.2344 411.9063,29.2344 Q409.4063,29.2344 408.0781,27.5938 Q406.7656,25.9375 406.7656,22.8125 Q406.7656,19.6875 408.0781,18.0313 Q409.4063,16.375 411.9063,16.375 Q412.6094,16.375 413.25,16.5313 Q413.9063,16.6875 414.4688,16.9844 L414.4688,19.7031 Q413.8438,19.125 413.25,18.8594 Q412.6563,18.5781 412.0313,18.5781 Q410.6875,18.5781 410,19.6563 Q409.3125,20.7188 409.3125,22.8125 Q409.3125,24.9063 410,25.9844 Q410.6875,27.0469 412.0313,27.0469 Q412.6563,27.0469 413.25,26.7813 Q413.8438,26.5 414.4688,25.9219 L414.4688,28.6406 Z " fill="#000000"/><text fill="#000000" font-family="sans-serif" font-size="14" lengthAdjust="spacing" textLength="54" x="425.5" y="27.8467">Context</text><line style="stroke:#181818;stroke-width:0.5;" x1="397.5" x2="481.5" y1="39" y2="39"/><line style="stroke:#181818;stroke-width:0.5;" x1="397.5" x2="481.5" y1="47" y2="47"/></g><!--class Client--><g id="elem_Client"><rect fill="#F1F1F1" height="48" id="Client" rx="2.5" ry="2.5" style="stroke:#181818;stroke-width:0.5;" width="71" x="290" y="7"/><ellipse cx="305" cy="23" fill="#ADD1B2" rx="11" ry="11" style="stroke:#181818;stroke-width:1.0;"/><path d="M307.9688,28.6406 Q307.3906,28.9375 306.75,29.0781 Q306.1094,29.2344 305.4063,29.2344 Q302.9063,29.2344 301.5781,27.5938 Q300.2656,25.9375 300.2656,22.8125 Q300.2656,19.6875 301.5781,18.0313 Q302.9063,16.375 305.4063,16.375 Q306.1094,16.375 306.75,16.5313 Q307.4063,16.6875 307.9688,16.9844 L307.9688,19.7031 Q307.3438,19.125 306.75,18.8594 Q306.1563,18.5781 305.5313,18.5781 Q304.1875,18.5781 303.5,19.6563 Q302.8125,20.7188 302.8125,22.8125 Q302.8125,24.9063 303.5,25.9844 Q304.1875,27.0469 305.5313,27.0469 Q306.1563,27.0469 306.75,26.7813 Q307.3438,26.5 307.9688,25.9219 L307.9688,28.6406 Z " fill="#000000"/><text fill="#000000" font-family="sans-serif" font-size="14" lengthAdjust="spacing" textLength="39" x="319" y="27.8467">Client</text><line style="stroke:#181818;stroke-width:0.5;" x1="291" x2="360" y1="39" y2="39"/><line style="stroke:#181818;stroke-width:0.5;" x1="291" x2="360" y1="47" y2="47"/></g><!--link Client to Expression--><g id="link_Client_Expression"><path codeLine="17" d="M325.5,55.32 C325.5,55.32 325.5,108.79 325.5,108.79 " fill="none" id="Client-to-Expression" style="stroke:#181818;stroke-width:1.0;"/><polygon fill="#181818" points="325.5,113.79,329.5,104.79,325.5,108.79,321.5,104.79,325.5,113.79" style="stroke:#181818;stroke-width:1.0;"/><text fill="#000000" font-family="sans-serif" font-size="13" lengthAdjust="spacing" textLength="55" x="269.5" y="78.1169">interpret</text></g><!--link Client to Context--><g id="link_Client_Context"><path codeLine="18" d="M361.26,31 C361.26,31 390.27,31 390.27,31 " fill="none" id="Client-to-Context" style="stroke:#181818;stroke-width:1.0;"/><polygon fill="#181818" points="395.27,31,386.27,27,390.27,31,386.27,35,395.27,31" style="stroke:#181818;stroke-width:1.0;"/><text fill="#000000" font-family="sans-serif" font-size="13" lengthAdjust="spacing" textLength="30" x="360.76" y="44.0669">uses</text></g><!--reverse link Expression to TerminalExpression--><g id="link_Expression_TerminalExpression"><path codeLine="20" d="M250.29,147 C250.29,147 90.5,147 90.5,147 C90.5,147 90.5,207.86 90.5,247.09 " fill="none" id="Expression-backto-TerminalExpression" style="stroke:#181818;stroke-width:1.0;stroke-dasharray:7.0,7.0;"/><polygon fill="none" points="250.29,140,270.29,147,250.29,154,250.29,140" style="stroke:#181818;stroke-width:1.0;"/></g><!--reverse link Expression to NonTerminalExpression--><g id="link_Expression_NonTerminalExpression"><path codeLine="21" d="M307.5,200.41 C307.5,200.41 307.5,238.88 307.5,238.88 " fill="none" id="Expression-backto-NonTerminalExpression" style="stroke:#181818;stroke-width:1.0;stroke-dasharray:7.0,7.0;"/><polygon fill="none" points="300.5,200.41,307.5,180.41,314.5,200.41,300.5,200.41" style="stroke:#181818;stroke-width:1.0;"/></g><!--link NonTerminalExpression to Expression--><g id="link_NonTerminalExpression_Expression"><path codeLine="23" d="M343.5,238.66 C343.5,238.66 343.5,185.08 343.5,185.08 " fill="none" id="NonTerminalExpression-to-Expression" style="stroke:#181818;stroke-width:1.0;"/><polygon fill="#181818" points="343.5,180.08,339.5,189.08,343.5,185.08,347.5,189.08,343.5,180.08" style="stroke:#181818;stroke-width:1.0;"/></g><!--SRC=[ZOz12i9034NtEKMMYjG3575JkdNbJbmCRRJ1QQPCHgnKx-uefHPimUtBo-T_lR0qnfiQBGk5UqFeVAWSi0Jo9rCGvctZIPMTO0U8gyybeh1OmXEWi4OLz-Hh5cF_adTEPloYObjwahpjgUBX-7Lc4pCNQHkmYoIpJ18mATrDakseVeh3xo1vFbSXMdr0YbSb1HZLsZpMxwJrnCH9RN8SmFJctv8l]--></g></svg>