<?xml version="1.0" encoding="us-ascii" standalone="no"?><svg xmlns="http://www.w3.org/2000/svg" xmlns:xlink="http://www.w3.org/1999/xlink" contentStyleType="text/css" height="358px" preserveAspectRatio="none" style="width:695px;height:358px;background:#FFFFFF;" version="1.1" viewBox="0 0 695 358" width="695px" zoomAndPan="magnify"><defs/><g><!--class Expression--><g id="elem_Expression"><rect codeLine="2" fill="#F1F1F1" height="64.2969" id="Expression" rx="2.5" ry="2.5" style="stroke:#181818;stroke-width:0.5;" width="138" x="365" y="131"/><ellipse cx="393.5" cy="147" fill="#B4A7E5" rx="11" ry="11" style="stroke:#181818;stroke-width:1.0;"/><path d="M389.4219,142.7656 L389.4219,140.6094 L396.8125,140.6094 L396.8125,142.7656 L394.3438,142.7656 L394.3438,150.8438 L396.8125,150.8438 L396.8125,153 L389.4219,153 L389.4219,150.8438 L391.8906,150.8438 L391.8906,142.7656 L389.4219,142.7656 Z " fill="#000000"/><text fill="#000000" font-family="sans-serif" font-size="14" font-style="italic" lengthAdjust="spacing" textLength="76" x="410.5" y="151.8467">Expression</text><line style="stroke:#181818;stroke-width:0.5;" x1="366" x2="502" y1="163" y2="163"/><line style="stroke:#181818;stroke-width:0.5;" x1="366" x2="502" y1="171" y2="171"/><ellipse cx="376" cy="184.6484" fill="#84BE84" rx="3" ry="3" style="stroke:#038048;stroke-width:1.0;"/><text fill="#000000" font-family="sans-serif" font-size="14" lengthAdjust="spacing" textLength="112" x="385" y="187.9951">Interpret() : bool</text></g><!--class TrueExpression--><g id="elem_TrueExpression"><rect codeLine="6" fill="#F1F1F1" height="64.2969" id="TrueExpression" rx="2.5" ry="2.5" style="stroke:#181818;stroke-width:0.5;" width="140" x="7" y="271.5"/><ellipse cx="22" cy="287.5" fill="#ADD1B2" rx="11" ry="11" style="stroke:#181818;stroke-width:1.0;"/><path d="M24.9688,293.1406 Q24.3906,293.4375 23.75,293.5781 Q23.1094,293.7344 22.4063,293.7344 Q19.9063,293.7344 18.5781,292.0938 Q17.2656,290.4375 17.2656,287.3125 Q17.2656,284.1875 18.5781,282.5313 Q19.9063,280.875 22.4063,280.875 Q23.1094,280.875 23.75,281.0313 Q24.4063,281.1875 24.9688,281.4844 L24.9688,284.2031 Q24.3438,283.625 23.75,283.3594 Q23.1563,283.0781 22.5313,283.0781 Q21.1875,283.0781 20.5,284.1563 Q19.8125,285.2188 19.8125,287.3125 Q19.8125,289.4063 20.5,290.4844 Q21.1875,291.5469 22.5313,291.5469 Q23.1563,291.5469 23.75,291.2813 Q24.3438,291 24.9688,290.4219 L24.9688,293.1406 Z " fill="#000000"/><text fill="#000000" font-family="sans-serif" font-size="14" lengthAdjust="spacing" textLength="108" x="36" y="292.3467">TrueExpression</text><line style="stroke:#181818;stroke-width:0.5;" x1="8" x2="146" y1="303.5" y2="303.5"/><line style="stroke:#181818;stroke-width:0.5;" x1="8" x2="146" y1="311.5" y2="311.5"/><ellipse cx="18" cy="325.1484" fill="#84BE84" rx="3" ry="3" style="stroke:#038048;stroke-width:1.0;"/><text fill="#000000" font-family="sans-serif" font-size="14" lengthAdjust="spacing" textLength="112" x="27" y="328.4951">Interpret() : bool</text></g><!--class FalseExpression--><g id="elem_FalseExpression"><rect codeLine="10" fill="#F1F1F1" height="64.2969" id="FalseExpression" rx="2.5" ry="2.5" style="stroke:#181818;stroke-width:0.5;" width="144" x="182" y="271.5"/><ellipse cx="197" cy="287.5" fill="#ADD1B2" rx="11" ry="11" style="stroke:#181818;stroke-width:1.0;"/><path d="M199.9688,293.1406 Q199.3906,293.4375 198.75,293.5781 Q198.1094,293.7344 197.4063,293.7344 Q194.9063,293.7344 193.5781,292.0938 Q192.2656,290.4375 192.2656,287.3125 Q192.2656,284.1875 193.5781,282.5313 Q194.9063,280.875 197.4063,280.875 Q198.1094,280.875 198.75,281.0313 Q199.4063,281.1875 199.9688,281.4844 L199.9688,284.2031 Q199.3438,283.625 198.75,283.3594 Q198.1563,283.0781 197.5313,283.0781 Q196.1875,283.0781 195.5,284.1563 Q194.8125,285.2188 194.8125,287.3125 Q194.8125,289.4063 195.5,290.4844 Q196.1875,291.5469 197.5313,291.5469 Q198.1563,291.5469 198.75,291.2813 Q199.3438,291 199.9688,290.4219 L199.9688,293.1406 Z " fill="#000000"/><text fill="#000000" font-family="sans-serif" font-size="14" lengthAdjust="spacing" textLength="112" x="211" y="292.3467">FalseExpression</text><line style="stroke:#181818;stroke-width:0.5;" x1="183" x2="325" y1="303.5" y2="303.5"/><line style="stroke:#181818;stroke-width:0.5;" x1="183" x2="325" y1="311.5" y2="311.5"/><ellipse cx="193" cy="325.1484" fill="#84BE84" rx="3" ry="3" style="stroke:#038048;stroke-width:1.0;"/><text fill="#000000" font-family="sans-serif" font-size="14" lengthAdjust="spacing" textLength="112" x="202" y="328.4951">Interpret() : bool</text></g><!--class AndExpression--><g id="elem_AndExpression"><rect codeLine="14" fill="#F1F1F1" height="96.8906" id="AndExpression" rx="2.5" ry="2.5" style="stroke:#181818;stroke-width:0.5;" width="146" x="361" y="255"/><ellipse cx="380.95" cy="271" fill="#ADD1B2" rx="11" ry="11" style="stroke:#181818;stroke-width:1.0;"/><path d="M383.9188,276.6406 Q383.3406,276.9375 382.7,277.0781 Q382.0594,277.2344 381.3563,277.2344 Q378.8563,277.2344 377.5281,275.5938 Q376.2156,273.9375 376.2156,270.8125 Q376.2156,267.6875 377.5281,266.0313 Q378.8563,264.375 381.3563,264.375 Q382.0594,264.375 382.7,264.5313 Q383.3563,264.6875 383.9188,264.9844 L383.9188,267.7031 Q383.2938,267.125 382.7,266.8594 Q382.1063,266.5781 381.4813,266.5781 Q380.1375,266.5781 379.45,267.6563 Q378.7625,268.7188 378.7625,270.8125 Q378.7625,272.9063 379.45,273.9844 Q380.1375,275.0469 381.4813,275.0469 Q382.1063,275.0469 382.7,274.7813 Q383.2938,274.5 383.9188,273.9219 L383.9188,276.6406 Z " fill="#000000"/><text fill="#000000" font-family="sans-serif" font-size="14" lengthAdjust="spacing" textLength="103" x="396.05" y="275.8467">AndExpression</text><line style="stroke:#181818;stroke-width:0.5;" x1="362" x2="506" y1="287" y2="287"/><rect fill="none" height="6" style="stroke:#C82930;stroke-width:1.0;" width="6" x="369" y="297.6484"/><text fill="#000000" font-family="sans-serif" font-size="14" lengthAdjust="spacing" textLength="110" x="381" y="303.9951">left : Expression</text><rect fill="none" height="6" style="stroke:#C82930;stroke-width:1.0;" width="6" x="369" y="313.9453"/><text fill="#000000" font-family="sans-serif" font-size="14" lengthAdjust="spacing" textLength="120" x="381" y="320.292">right : Expression</text><line style="stroke:#181818;stroke-width:0.5;" x1="362" x2="506" y1="327.5938" y2="327.5938"/><ellipse cx="372" cy="341.2422" fill="#84BE84" rx="3" ry="3" style="stroke:#038048;stroke-width:1.0;"/><text fill="#000000" font-family="sans-serif" font-size="14" lengthAdjust="spacing" textLength="112" x="381" y="344.5889">Interpret() : bool</text></g><!--class OrExpression--><g id="elem_OrExpression"><rect codeLine="20" fill="#F1F1F1" height="96.8906" id="OrExpression" rx="2.5" ry="2.5" style="stroke:#181818;stroke-width:0.5;" width="146" x="542" y="255"/><ellipse cx="566.9" cy="271" fill="#ADD1B2" rx="11" ry="11" style="stroke:#181818;stroke-width:1.0;"/><path d="M569.8688,276.6406 Q569.2906,276.9375 568.65,277.0781 Q568.0094,277.2344 567.3063,277.2344 Q564.8063,277.2344 563.4781,275.5938 Q562.1656,273.9375 562.1656,270.8125 Q562.1656,267.6875 563.4781,266.0313 Q564.8063,264.375 567.3063,264.375 Q568.0094,264.375 568.65,264.5313 Q569.3063,264.6875 569.8688,264.9844 L569.8688,267.7031 Q569.2438,267.125 568.65,266.8594 Q568.0563,266.5781 567.4313,266.5781 Q566.0875,266.5781 565.4,267.6563 Q564.7125,268.7188 564.7125,270.8125 Q564.7125,272.9063 565.4,273.9844 Q566.0875,275.0469 567.4313,275.0469 Q568.0563,275.0469 568.65,274.7813 Q569.2438,274.5 569.8688,273.9219 L569.8688,276.6406 Z " fill="#000000"/><text fill="#000000" font-family="sans-serif" font-size="14" lengthAdjust="spacing" textLength="92" x="583.1" y="275.8467">OrExpression</text><line style="stroke:#181818;stroke-width:0.5;" x1="543" x2="687" y1="287" y2="287"/><rect fill="none" height="6" style="stroke:#C82930;stroke-width:1.0;" width="6" x="550" y="297.6484"/><text fill="#000000" font-family="sans-serif" font-size="14" lengthAdjust="spacing" textLength="110" x="562" y="303.9951">left : Expression</text><rect fill="none" height="6" style="stroke:#C82930;stroke-width:1.0;" width="6" x="550" y="313.9453"/><text fill="#000000" font-family="sans-serif" font-size="14" lengthAdjust="spacing" textLength="120" x="562" y="320.292">right : Expression</text><line style="stroke:#181818;stroke-width:0.5;" x1="543" x2="687" y1="327.5938" y2="327.5938"/><ellipse cx="553" cy="341.2422" fill="#84BE84" rx="3" ry="3" style="stroke:#038048;stroke-width:1.0;"/><text fill="#000000" font-family="sans-serif" font-size="14" lengthAdjust="spacing" textLength="112" x="562" y="344.5889">Interpret() : bool</text></g><!--class Client--><g id="elem_Client"><rect codeLine="26" fill="#F1F1F1" height="64.2969" id="Client" rx="2.5" ry="2.5" style="stroke:#181818;stroke-width:0.5;" width="123" x="372.5" y="7"/><ellipse cx="410.9" cy="23" fill="#ADD1B2" rx="11" ry="11" style="stroke:#181818;stroke-width:1.0;"/><path d="M413.8688,28.6406 Q413.2906,28.9375 412.65,29.0781 Q412.0094,29.2344 411.3063,29.2344 Q408.8063,29.2344 407.4781,27.5938 Q406.1656,25.9375 406.1656,22.8125 Q406.1656,19.6875 407.4781,18.0313 Q408.8063,16.375 411.3063,16.375 Q412.0094,16.375 412.65,16.5313 Q413.3063,16.6875 413.8688,16.9844 L413.8688,19.7031 Q413.2438,19.125 412.65,18.8594 Q412.0563,18.5781 411.4313,18.5781 Q410.0875,18.5781 409.4,19.6563 Q408.7125,20.7188 408.7125,22.8125 Q408.7125,24.9063 409.4,25.9844 Q410.0875,27.0469 411.4313,27.0469 Q412.0563,27.0469 412.65,26.7813 Q413.2438,26.5 413.8688,25.9219 L413.8688,28.6406 Z " fill="#000000"/><text fill="#000000" font-family="sans-serif" font-size="14" lengthAdjust="spacing" textLength="39" x="430.1" y="27.8467">Client</text><line style="stroke:#181818;stroke-width:0.5;" x1="373.5" x2="494.5" y1="39" y2="39"/><line style="stroke:#181818;stroke-width:0.5;" x1="373.5" x2="494.5" y1="47" y2="47"/><ellipse cx="383.5" cy="60.6484" fill="#84BE84" rx="3" ry="3" style="stroke:#038048;stroke-width:1.0;"/><text fill="#000000" font-family="sans-serif" font-size="14" lengthAdjust="spacing" textLength="97" x="392.5" y="63.9951">Parse(toknes)</text></g><!--class tokens--><g id="elem_tokens"><rect codeLine="30" fill="#F1F1F1" height="42.2969" id="tokens" rx="2.5" ry="2.5" style="stroke:#181818;stroke-width:0.5;" width="54" x="531" y="18"/><text fill="#000000" font-family="sans-serif" font-size="14" lengthAdjust="spacing" textLength="48" x="534" y="35.9951">tokens</text><line style="stroke:#181818;stroke-width:0.5;" x1="532" x2="584" y1="44.2969" y2="44.2969"/><line style="stroke:#181818;stroke-width:0.5;" x1="532" x2="584" y1="52.2969" y2="52.2969"/></g><!--link Client to Expression--><g id="link_Client_Expression"><path codeLine="33" d="M434,71.26 C434,71.26 434,124.91 434,124.91 " fill="none" id="Client-to-Expression" style="stroke:#181818;stroke-width:1.0;"/><polygon fill="#181818" points="434,129.91,438,120.91,434,124.91,430,120.91,434,129.91" style="stroke:#181818;stroke-width:1.0;"/><text fill="#000000" font-family="sans-serif" font-size="13" lengthAdjust="spacing" textLength="55" x="378" y="94.1469">Interpret</text></g><!--link Client to tokens--><g id="link_Client_tokens"><path codeLine="34" d="M496,39 C496,39 524.79,39 524.79,39 " fill="none" id="Client-to-tokens" style="stroke:#181818;stroke-width:1.0;"/><polygon fill="#181818" points="529.79,39,520.79,35,524.79,39,520.79,43,529.79,39" style="stroke:#181818;stroke-width:1.0;"/><text fill="#000000" font-family="sans-serif" font-size="13" lengthAdjust="spacing" textLength="30" x="495.39" y="52.0669">uses</text></g><!--reverse link Expression to TrueExpression--><g id="link_Expression_TrueExpression"><path codeLine="36" d="M343.74,153 C343.74,153 77,153 77,153 C77,153 77,226.99 77,271.21 " fill="none" id="Expression-backto-TrueExpression" style="stroke:#181818;stroke-width:1.0;stroke-dasharray:7.0,7.0;"/><polygon fill="none" points="343.74,146,363.74,153,343.74,160,343.74,146" style="stroke:#181818;stroke-width:1.0;"/></g><!--reverse link Expression to FalseExpression--><g id="link_Expression_FalseExpression"><path codeLine="37" d="M343.66,174 C343.66,174 254,174 254,174 C254,174 254,232.8 254,271.16 " fill="none" id="Expression-backto-FalseExpression" style="stroke:#181818;stroke-width:1.0;stroke-dasharray:7.0,7.0;"/><polygon fill="none" points="343.66,167,363.66,174,343.66,181,343.66,167" style="stroke:#181818;stroke-width:1.0;"/></g><!--reverse link Expression to AndExpression--><g id="link_Expression_AndExpression"><path codeLine="38" d="M411,216.23 C411,216.23 411,254.6 411,254.6 " fill="none" id="Expression-backto-AndExpression" style="stroke:#181818;stroke-width:1.0;stroke-dasharray:7.0,7.0;"/><polygon fill="none" points="404,216.23,411,196.23,418,216.23,404,216.23" style="stroke:#181818;stroke-width:1.0;"/></g><!--link AndExpression to Expression--><g id="link_AndExpression_Expression"><path codeLine="41" d="M457,254.75 C457,254.75 457,201.35 457,201.35 " fill="none" id="AndExpression-to-Expression" style="stroke:#181818;stroke-width:1.0;"/><polygon fill="#181818" points="457,196.35,453,205.35,457,201.35,461,205.35,457,196.35" style="stroke:#181818;stroke-width:1.0;"/></g><!--reverse link Expression to OrExpression--><g id="link_Expression_OrExpression"><path codeLine="39" d="M524.13,153 C524.13,153 570.67,153 570.67,153 C570.67,153 570.67,210.69 570.67,254.64 " fill="none" id="Expression-backto-OrExpression" style="stroke:#181818;stroke-width:1.0;stroke-dasharray:7.0,7.0;"/><polygon fill="none" points="524.13,160,504.13,153,524.13,146,524.13,160" style="stroke:#181818;stroke-width:1.0;"/></g><!--link OrExpression to Expression--><g id="link_OrExpression_Expression"><path codeLine="42" d="M556.33,254.54 C556.33,217.87 556.33,174 556.33,174 C556.33,174 509.39,174 509.39,174 " fill="none" id="OrExpression-to-Expression" style="stroke:#181818;stroke-width:1.0;"/><polygon fill="#181818" points="504.39,174,513.39,178,509.39,174,513.39,170,504.39,174" style="stroke:#181818;stroke-width:1.0;"/></g><!--SRC=[jP5DRi8m48NtSufPWb1oWAX2GXL8NRKBBk0cayR27KSpHhG2xjwaGCYVaB9WwJUVt_ZvwSvoQSHyexDCuRSaz18A3vO3IMvImlLFAQHgFUCH41TlzQIImcoE2Nvwx-0Ca3gZYblPqnH-OvnEkh3Yh8T7Zl9GSNUv5iL-5GFreVExFCdurLdYS8c67qQKPi7lc7H-Pog1MF5uXi9cT3kcLb9705U7AFC7ZfQjrGasYnle_u4LTV58SA-a0AriBwUuDefxPOqYlNv6cKubeqJxQm6w5Gv3GQU9uVmF]--></g></svg>