<?xml version="1.0" encoding="us-ascii" standalone="no"?><svg xmlns="http://www.w3.org/2000/svg" xmlns:xlink="http://www.w3.org/1999/xlink" contentStyleType="text/css" height="252px" preserveAspectRatio="none" style="width:392px;height:252px;background:#FFFFFF;" version="1.1" viewBox="0 0 392 252" width="392px" zoomAndPan="magnify"><defs/><g><!--class Target--><g id="elem_Target"><rect codeLine="1" fill="#F1F1F1" height="80.5938" id="Target" rx="2.5" ry="2.5" style="stroke:#181818;stroke-width:0.5;" width="115" x="145" y="7"/><ellipse cx="177.1" cy="23" fill="#B4A7E5" rx="11" ry="11" style="stroke:#181818;stroke-width:1.0;"/><path d="M173.0219,18.7656 L173.0219,16.6094 L180.4125,16.6094 L180.4125,18.7656 L177.9438,18.7656 L177.9438,26.8438 L180.4125,26.8438 L180.4125,29 L173.0219,29 L173.0219,26.8438 L175.4906,26.8438 L175.4906,18.7656 L173.0219,18.7656 Z " fill="#000000"/><text fill="#000000" font-family="sans-serif" font-size="14" font-style="italic" lengthAdjust="spacing" textLength="45" x="194.9" y="27.8467">Target</text><line style="stroke:#181818;stroke-width:0.5;" x1="146" x2="259" y1="39" y2="39"/><line style="stroke:#181818;stroke-width:0.5;" x1="146" x2="259" y1="47" y2="47"/><text fill="#000000" font-family="sans-serif" font-size="14" lengthAdjust="spacing" textLength="103" x="151" y="63.9951">targetMethod1</text><text fill="#000000" font-family="sans-serif" font-size="14" lengthAdjust="spacing" textLength="103" x="151" y="80.292">targetMethod2</text></g><!--class Adapter--><g id="elem_Adapter"><rect codeLine="5" fill="#F1F1F1" height="96.8906" id="Adapter" rx="2.5" ry="2.5" style="stroke:#181818;stroke-width:0.5;" width="115" x="145" y="149"/><ellipse cx="173.05" cy="165" fill="#ADD1B2" rx="11" ry="11" style="stroke:#181818;stroke-width:1.0;"/><path d="M176.0188,170.6406 Q175.4406,170.9375 174.8,171.0781 Q174.1594,171.2344 173.4563,171.2344 Q170.9563,171.2344 169.6281,169.5938 Q168.3156,167.9375 168.3156,164.8125 Q168.3156,161.6875 169.6281,160.0313 Q170.9563,158.375 173.4563,158.375 Q174.1594,158.375 174.8,158.5313 Q175.4563,158.6875 176.0188,158.9844 L176.0188,161.7031 Q175.3938,161.125 174.8,160.8594 Q174.2063,160.5781 173.5813,160.5781 Q172.2375,160.5781 171.55,161.6563 Q170.8625,162.7188 170.8625,164.8125 Q170.8625,166.9063 171.55,167.9844 Q172.2375,169.0469 173.5813,169.0469 Q174.2063,169.0469 174.8,168.7813 Q175.3938,168.5 176.0188,167.9219 L176.0188,170.6406 Z " fill="#000000"/><text fill="#000000" font-family="sans-serif" font-size="14" lengthAdjust="spacing" textLength="54" x="189.95" y="169.8467">Adapter</text><line style="stroke:#181818;stroke-width:0.5;" x1="146" x2="259" y1="181" y2="181"/><text fill="#000000" font-family="sans-serif" font-size="14" lengthAdjust="spacing" textLength="57" x="151" y="197.9951">adaptee</text><line style="stroke:#181818;stroke-width:0.5;" x1="146" x2="259" y1="205.2969" y2="205.2969"/><text fill="#000000" font-family="sans-serif" font-size="14" lengthAdjust="spacing" textLength="103" x="151" y="222.292">targetMethod1</text><text fill="#000000" font-family="sans-serif" font-size="14" lengthAdjust="spacing" textLength="103" x="151" y="238.5889">targetMethod2</text></g><!--class Adaptee--><g id="elem_Adaptee"><rect codeLine="10" fill="#F1F1F1" height="96.8906" id="Adaptee" rx="2.5" ry="2.5" style="stroke:#181818;stroke-width:0.5;" width="90" x="295.5" y="149"/><ellipse cx="310.5" cy="165" fill="#ADD1B2" rx="11" ry="11" style="stroke:#181818;stroke-width:1.0;"/><path d="M313.4688,170.6406 Q312.8906,170.9375 312.25,171.0781 Q311.6094,171.2344 310.9063,171.2344 Q308.4063,171.2344 307.0781,169.5938 Q305.7656,167.9375 305.7656,164.8125 Q305.7656,161.6875 307.0781,160.0313 Q308.4063,158.375 310.9063,158.375 Q311.6094,158.375 312.25,158.5313 Q312.9063,158.6875 313.4688,158.9844 L313.4688,161.7031 Q312.8438,161.125 312.25,160.8594 Q311.6563,160.5781 311.0313,160.5781 Q309.6875,160.5781 309,161.6563 Q308.3125,162.7188 308.3125,164.8125 Q308.3125,166.9063 309,167.9844 Q309.6875,169.0469 311.0313,169.0469 Q311.6563,169.0469 312.25,168.7813 Q312.8438,168.5 313.4688,167.9219 L313.4688,170.6406 Z " fill="#000000"/><text fill="#000000" font-family="sans-serif" font-size="14" lengthAdjust="spacing" textLength="58" x="324.5" y="169.8467">Adaptee</text><line style="stroke:#181818;stroke-width:0.5;" x1="296.5" x2="384.5" y1="181" y2="181"/><line style="stroke:#181818;stroke-width:0.5;" x1="296.5" x2="384.5" y1="189" y2="189"/><text fill="#000000" font-family="sans-serif" font-size="14" lengthAdjust="spacing" textLength="63" x="301.5" y="205.9951">methodA</text><text fill="#000000" font-family="sans-serif" font-size="14" lengthAdjust="spacing" textLength="64" x="301.5" y="222.292">methodB</text><text fill="#000000" font-family="sans-serif" font-size="14" lengthAdjust="spacing" textLength="64" x="301.5" y="238.5889">methodC</text></g><!--class Client--><g id="elem_Client"><rect fill="#F1F1F1" height="48" id="Client" rx="2.5" ry="2.5" style="stroke:#181818;stroke-width:0.5;" width="71" x="7" y="23.5"/><ellipse cx="22" cy="39.5" fill="#ADD1B2" rx="11" ry="11" style="stroke:#181818;stroke-width:1.0;"/><path d="M24.9688,45.1406 Q24.3906,45.4375 23.75,45.5781 Q23.1094,45.7344 22.4063,45.7344 Q19.9063,45.7344 18.5781,44.0938 Q17.2656,42.4375 17.2656,39.3125 Q17.2656,36.1875 18.5781,34.5313 Q19.9063,32.875 22.4063,32.875 Q23.1094,32.875 23.75,33.0313 Q24.4063,33.1875 24.9688,33.4844 L24.9688,36.2031 Q24.3438,35.625 23.75,35.3594 Q23.1563,35.0781 22.5313,35.0781 Q21.1875,35.0781 20.5,36.1563 Q19.8125,37.2188 19.8125,39.3125 Q19.8125,41.4063 20.5,42.4844 Q21.1875,43.5469 22.5313,43.5469 Q23.1563,43.5469 23.75,43.2813 Q24.3438,43 24.9688,42.4219 L24.9688,45.1406 Z " fill="#000000"/><text fill="#000000" font-family="sans-serif" font-size="14" lengthAdjust="spacing" textLength="39" x="36" y="44.3467">Client</text><line style="stroke:#181818;stroke-width:0.5;" x1="8" x2="77" y1="55.5" y2="55.5"/><line style="stroke:#181818;stroke-width:0.5;" x1="8" x2="77" y1="63.5" y2="63.5"/></g><!--link Client to Target--><g id="link_Client_Target"><path codeLine="16" d="M78.41,47.5 C96.26,47.5 118.38,47.5 138.97,47.5 " fill="none" id="Client-to-Target" style="stroke:#181818;stroke-width:1.0;"/><polygon fill="#181818" points="143.73,47.5,134.73,43.5,138.73,47.5,134.73,51.5,143.73,47.5" style="stroke:#181818;stroke-width:1.0;"/><text fill="#000000" font-family="sans-serif" font-size="13" lengthAdjust="spacing" textLength="30" x="96.5" y="40.5669">uses</text></g><!--reverse link Target to Adapter--><g id="link_Target_Adapter"><path codeLine="17" d="M202.5,108.85 C202.5,122.07 202.5,135.9 202.5,148.55 " fill="none" id="Target-backto-Adapter" style="stroke:#181818;stroke-width:1.0;stroke-dasharray:7.0,7.0;"/><polygon fill="none" points="195.5,109.16,202.5,89.16,209.5,109.16,195.5,109.16" style="stroke:#181818;stroke-width:1.0;"/></g><!--link Adapter to Adaptee--><g id="link_Adapter_Adaptee"><path codeLine="18" d="M274.28,197.5 C276.67,197.5 279.06,197.5 281.46,197.5 " fill="none" id="Adapter-Adaptee" style="stroke:#181818;stroke-width:1.0;stroke-dasharray:7.0,7.0;"/><polygon fill="none" points="261.45,197.5,267.45,201.5,273.45,197.5,267.45,193.5,261.45,197.5" style="stroke:#181818;stroke-width:1.0;"/><polygon fill="#181818" points="294.16,197.5,285.16,193.5,289.16,197.5,285.16,201.5,294.16,197.5" style="stroke:#181818;stroke-width:1.0;"/><line style="stroke:#181818;stroke-width:1.0;" x1="289.16" x2="281.16" y1="197.5" y2="197.5"/></g><!--SRC=[oymhIIrAIqnELGX9B4fFBL6evb9GgCvDBSd8JwbLA06B-O9vXhWaZBXgkP9p4ekB5HnJ4Wk0ne7DI0IpKoasBHNLHH3Q4LF82LF86MWKbtDEPcfUYOAk7So3LWgbnQd5N52UJOsU7ipTN33tv-lPmMm70000]--></g></svg>