<?xml version="1.0" encoding="us-ascii" standalone="no"?><svg xmlns="http://www.w3.org/2000/svg" xmlns:xlink="http://www.w3.org/1999/xlink" contentStyleType="text/css" height="252px" preserveAspectRatio="none" style="width:406px;height:252px;background:#FFFFFF;" version="1.1" viewBox="0 0 406 252" width="406px" zoomAndPan="magnify"><defs/><g><!--class Printer--><g id="elem_Printer"><rect codeLine="1" fill="#F1F1F1" height="80.5938" id="Printer" rx="2.5" ry="2.5" style="stroke:#181818;stroke-width:0.5;" width="89" x="139" y="7"/><ellipse cx="159.4" cy="23" fill="#B4A7E5" rx="11" ry="11" style="stroke:#181818;stroke-width:1.0;"/><path d="M155.3219,18.7656 L155.3219,16.6094 L162.7125,16.6094 L162.7125,18.7656 L160.2438,18.7656 L160.2438,26.8438 L162.7125,26.8438 L162.7125,29 L155.3219,29 L155.3219,26.8438 L157.7906,26.8438 L157.7906,18.7656 L155.3219,18.7656 Z " fill="#000000"/><text fill="#000000" font-family="sans-serif" font-size="14" font-style="italic" lengthAdjust="spacing" textLength="45" x="174.6" y="27.8467">Printer</text><line style="stroke:#181818;stroke-width:0.5;" x1="140" x2="227" y1="39" y2="39"/><line style="stroke:#181818;stroke-width:0.5;" x1="140" x2="227" y1="47" y2="47"/><text fill="#000000" font-family="sans-serif" font-size="14" lengthAdjust="spacing" textLength="69" x="145" y="63.9951">PrintWeak</text><text fill="#000000" font-family="sans-serif" font-size="14" lengthAdjust="spacing" textLength="77" x="145" y="80.292">PrintStrong</text></g><!--class PrinteBanner--><g id="elem_PrinteBanner"><rect codeLine="5" fill="#F1F1F1" height="96.8906" id="PrinteBanner" rx="2.5" ry="2.5" style="stroke:#181818;stroke-width:0.5;" width="122" x="122.5" y="149"/><ellipse cx="137.5" cy="165" fill="#ADD1B2" rx="11" ry="11" style="stroke:#181818;stroke-width:1.0;"/><path d="M140.4688,170.6406 Q139.8906,170.9375 139.25,171.0781 Q138.6094,171.2344 137.9063,171.2344 Q135.4063,171.2344 134.0781,169.5938 Q132.7656,167.9375 132.7656,164.8125 Q132.7656,161.6875 134.0781,160.0313 Q135.4063,158.375 137.9063,158.375 Q138.6094,158.375 139.25,158.5313 Q139.9063,158.6875 140.4688,158.9844 L140.4688,161.7031 Q139.8438,161.125 139.25,160.8594 Q138.6563,160.5781 138.0313,160.5781 Q136.6875,160.5781 136,161.6563 Q135.3125,162.7188 135.3125,164.8125 Q135.3125,166.9063 136,167.9844 Q136.6875,169.0469 138.0313,169.0469 Q138.6563,169.0469 139.25,168.7813 Q139.8438,168.5 140.4688,167.9219 L140.4688,170.6406 Z " fill="#000000"/><text fill="#000000" font-family="sans-serif" font-size="14" lengthAdjust="spacing" textLength="90" x="151.5" y="169.8467">PrinteBanner</text><line style="stroke:#181818;stroke-width:0.5;" x1="123.5" x2="243.5" y1="181" y2="181"/><text fill="#000000" font-family="sans-serif" font-size="14" lengthAdjust="spacing" textLength="49" x="128.5" y="197.9951">banner</text><line style="stroke:#181818;stroke-width:0.5;" x1="123.5" x2="243.5" y1="205.2969" y2="205.2969"/><text fill="#000000" font-family="sans-serif" font-size="14" lengthAdjust="spacing" textLength="69" x="128.5" y="222.292">PrintWeak</text><text fill="#000000" font-family="sans-serif" font-size="14" lengthAdjust="spacing" textLength="77" x="128.5" y="238.5889">PrintStrong</text></g><!--class Banner--><g id="elem_Banner"><rect codeLine="10" fill="#F1F1F1" height="80.5938" id="Banner" rx="2.5" ry="2.5" style="stroke:#181818;stroke-width:0.5;" width="120" x="279.5" y="157"/><ellipse cx="311.6" cy="173" fill="#ADD1B2" rx="11" ry="11" style="stroke:#181818;stroke-width:1.0;"/><path d="M314.5688,178.6406 Q313.9906,178.9375 313.35,179.0781 Q312.7094,179.2344 312.0063,179.2344 Q309.5063,179.2344 308.1781,177.5938 Q306.8656,175.9375 306.8656,172.8125 Q306.8656,169.6875 308.1781,168.0313 Q309.5063,166.375 312.0063,166.375 Q312.7094,166.375 313.35,166.5313 Q314.0063,166.6875 314.5688,166.9844 L314.5688,169.7031 Q313.9438,169.125 313.35,168.8594 Q312.7563,168.5781 312.1313,168.5781 Q310.7875,168.5781 310.1,169.6563 Q309.4125,170.7188 309.4125,172.8125 Q309.4125,174.9063 310.1,175.9844 Q310.7875,177.0469 312.1313,177.0469 Q312.7563,177.0469 313.35,176.7813 Q313.9438,176.5 314.5688,175.9219 L314.5688,178.6406 Z " fill="#000000"/><text fill="#000000" font-family="sans-serif" font-size="14" lengthAdjust="spacing" textLength="50" x="329.4" y="177.8467">Banner</text><line style="stroke:#181818;stroke-width:0.5;" x1="280.5" x2="398.5" y1="189" y2="189"/><line style="stroke:#181818;stroke-width:0.5;" x1="280.5" x2="398.5" y1="197" y2="197"/><text fill="#000000" font-family="sans-serif" font-size="14" lengthAdjust="spacing" textLength="108" x="285.5" y="213.9951">ShowWithParen</text><text fill="#000000" font-family="sans-serif" font-size="14" lengthAdjust="spacing" textLength="104" x="285.5" y="230.292">ShowWithAster</text></g><!--class main--><g id="elem_main"><rect fill="#F1F1F1" height="48" id="main" rx="2.5" ry="2.5" style="stroke:#181818;stroke-width:0.5;" width="65" x="7" y="23.5"/><ellipse cx="22" cy="39.5" fill="#ADD1B2" rx="11" ry="11" style="stroke:#181818;stroke-width:1.0;"/><path d="M24.9688,45.1406 Q24.3906,45.4375 23.75,45.5781 Q23.1094,45.7344 22.4063,45.7344 Q19.9063,45.7344 18.5781,44.0938 Q17.2656,42.4375 17.2656,39.3125 Q17.2656,36.1875 18.5781,34.5313 Q19.9063,32.875 22.4063,32.875 Q23.1094,32.875 23.75,33.0313 Q24.4063,33.1875 24.9688,33.4844 L24.9688,36.2031 Q24.3438,35.625 23.75,35.3594 Q23.1563,35.0781 22.5313,35.0781 Q21.1875,35.0781 20.5,36.1563 Q19.8125,37.2188 19.8125,39.3125 Q19.8125,41.4063 20.5,42.4844 Q21.1875,43.5469 22.5313,43.5469 Q23.1563,43.5469 23.75,43.2813 Q24.3438,43 24.9688,42.4219 L24.9688,45.1406 Z " fill="#000000"/><text fill="#000000" font-family="sans-serif" font-size="14" lengthAdjust="spacing" textLength="33" x="36" y="44.3467">main</text><line style="stroke:#181818;stroke-width:0.5;" x1="8" x2="71" y1="55.5" y2="55.5"/><line style="stroke:#181818;stroke-width:0.5;" x1="8" x2="71" y1="63.5" y2="63.5"/></g><!--link main to Printer--><g id="link_main_Printer"><path codeLine="15" d="M72.18,47.5 C90.08,47.5 112.65,47.5 132.79,47.5 " fill="none" id="main-to-Printer" style="stroke:#181818;stroke-width:1.0;"/><polygon fill="#181818" points="137.67,47.5,128.67,43.5,132.67,47.5,128.67,51.5,137.67,47.5" style="stroke:#181818;stroke-width:1.0;"/><text fill="#000000" font-family="sans-serif" font-size="13" lengthAdjust="spacing" textLength="30" x="90.5" y="40.5669">uses</text></g><!--reverse link Printer to PrinteBanner--><g id="link_Printer_PrinteBanner"><path codeLine="16" d="M183.5,108.85 C183.5,122.07 183.5,135.9 183.5,148.55 " fill="none" id="Printer-backto-PrinteBanner" style="stroke:#181818;stroke-width:1.0;stroke-dasharray:7.0,7.0;"/><polygon fill="none" points="176.5,109.16,183.5,89.16,190.5,109.16,176.5,109.16" style="stroke:#181818;stroke-width:1.0;"/></g><!--link PrinteBanner to Banner--><g id="link_PrinteBanner_Banner"><path codeLine="17" d="M258.73,197.5 C260.96,197.5 263.2,197.5 265.43,197.5 " fill="none" id="PrinteBanner-Banner" style="stroke:#181818;stroke-width:1.0;stroke-dasharray:7.0,7.0;"/><polygon fill="none" points="245.74,197.5,251.74,201.5,257.74,197.5,251.74,193.5,245.74,197.5" style="stroke:#181818;stroke-width:1.0;"/><polygon fill="#181818" points="278.17,197.5,269.17,193.5,273.17,197.5,269.17,201.5,278.17,197.5" style="stroke:#181818;stroke-width:1.0;"/><line style="stroke:#181818;stroke-width:1.0;" x1="273.17" x2="265.17" y1="197.5" y2="197.5"/></g><!--SRC=[oymhIIrAIqnELGWeoWIn5Qgv51IgSrDBCl9JQY62uQc9sHY2mIL5-NdfNBLSoJc9nSLGtKw9UNbG8vB0JBBCGZ85hYuu8xyyFBCa8o2nA3KFcuHZCT3nG2EuSXCpynHqxU3-iL8eBKujve9nRMhqz51SouNYz7mzEwZz0000]--></g></svg>