<?xml version="1.0" encoding="us-ascii" standalone="no"?><svg xmlns="http://www.w3.org/2000/svg" xmlns:xlink="http://www.w3.org/1999/xlink" contentStyleType="text/css" height="171px" preserveAspectRatio="none" style="width:317px;height:171px;background:#FFFFFF;" version="1.1" viewBox="0 0 317 171" width="317px" zoomAndPan="magnify"><defs/><g><!--class Facade--><g id="elem_Facade"><rect codeLine="1" fill="#F1F1F1" height="48" id="Facade" rx="2.5" ry="2.5" style="stroke:#181818;stroke-width:0.5;" width="82" x="118.5" y="7"/><ellipse cx="133.5" cy="23" fill="#ADD1B2" rx="11" ry="11" style="stroke:#181818;stroke-width:1.0;"/><path d="M136.4688,28.6406 Q135.8906,28.9375 135.25,29.0781 Q134.6094,29.2344 133.9063,29.2344 Q131.4063,29.2344 130.0781,27.5938 Q128.7656,25.9375 128.7656,22.8125 Q128.7656,19.6875 130.0781,18.0313 Q131.4063,16.375 133.9063,16.375 Q134.6094,16.375 135.25,16.5313 Q135.9063,16.6875 136.4688,16.9844 L136.4688,19.7031 Q135.8438,19.125 135.25,18.8594 Q134.6563,18.5781 134.0313,18.5781 Q132.6875,18.5781 132,19.6563 Q131.3125,20.7188 131.3125,22.8125 Q131.3125,24.9063 132,25.9844 Q132.6875,27.0469 134.0313,27.0469 Q134.6563,27.0469 135.25,26.7813 Q135.8438,26.5 136.4688,25.9219 L136.4688,28.6406 Z " fill="#000000"/><text fill="#000000" font-family="sans-serif" font-size="14" lengthAdjust="spacing" textLength="50" x="147.5" y="27.8467">Facade</text><line style="stroke:#181818;stroke-width:0.5;" x1="119.5" x2="199.5" y1="39" y2="39"/><line style="stroke:#181818;stroke-width:0.5;" x1="119.5" x2="199.5" y1="47" y2="47"/></g><!--class classA--><g id="elem_classA"><rect codeLine="2" fill="#F1F1F1" height="48" id="classA" rx="2.5" ry="2.5" style="stroke:#181818;stroke-width:0.5;" width="76" x="9.5" y="116"/><ellipse cx="24.5" cy="132" fill="#ADD1B2" rx="11" ry="11" style="stroke:#181818;stroke-width:1.0;"/><path d="M27.4688,137.6406 Q26.8906,137.9375 26.25,138.0781 Q25.6094,138.2344 24.9063,138.2344 Q22.4063,138.2344 21.0781,136.5938 Q19.7656,134.9375 19.7656,131.8125 Q19.7656,128.6875 21.0781,127.0313 Q22.4063,125.375 24.9063,125.375 Q25.6094,125.375 26.25,125.5313 Q26.9063,125.6875 27.4688,125.9844 L27.4688,128.7031 Q26.8438,128.125 26.25,127.8594 Q25.6563,127.5781 25.0313,127.5781 Q23.6875,127.5781 23,128.6563 Q22.3125,129.7188 22.3125,131.8125 Q22.3125,133.9063 23,134.9844 Q23.6875,136.0469 25.0313,136.0469 Q25.6563,136.0469 26.25,135.7813 Q26.8438,135.5 27.4688,134.9219 L27.4688,137.6406 Z " fill="#000000"/><text fill="#000000" font-family="sans-serif" font-size="14" lengthAdjust="spacing" textLength="44" x="38.5" y="136.8467">classA</text><line style="stroke:#181818;stroke-width:0.5;" x1="10.5" x2="84.5" y1="148" y2="148"/><line style="stroke:#181818;stroke-width:0.5;" x1="10.5" x2="84.5" y1="156" y2="156"/></g><!--class classB--><g id="elem_classB"><rect codeLine="3" fill="#F1F1F1" height="48" id="classB" rx="2.5" ry="2.5" style="stroke:#181818;stroke-width:0.5;" width="77" x="121" y="116"/><ellipse cx="136" cy="132" fill="#ADD1B2" rx="11" ry="11" style="stroke:#181818;stroke-width:1.0;"/><path d="M138.9688,137.6406 Q138.3906,137.9375 137.75,138.0781 Q137.1094,138.2344 136.4063,138.2344 Q133.9063,138.2344 132.5781,136.5938 Q131.2656,134.9375 131.2656,131.8125 Q131.2656,128.6875 132.5781,127.0313 Q133.9063,125.375 136.4063,125.375 Q137.1094,125.375 137.75,125.5313 Q138.4063,125.6875 138.9688,125.9844 L138.9688,128.7031 Q138.3438,128.125 137.75,127.8594 Q137.1563,127.5781 136.5313,127.5781 Q135.1875,127.5781 134.5,128.6563 Q133.8125,129.7188 133.8125,131.8125 Q133.8125,133.9063 134.5,134.9844 Q135.1875,136.0469 136.5313,136.0469 Q137.1563,136.0469 137.75,135.7813 Q138.3438,135.5 138.9688,134.9219 L138.9688,137.6406 Z " fill="#000000"/><text fill="#000000" font-family="sans-serif" font-size="14" lengthAdjust="spacing" textLength="45" x="150" y="136.8467">classB</text><line style="stroke:#181818;stroke-width:0.5;" x1="122" x2="197" y1="148" y2="148"/><line style="stroke:#181818;stroke-width:0.5;" x1="122" x2="197" y1="156" y2="156"/></g><!--class classC--><g id="elem_classC"><rect codeLine="4" fill="#F1F1F1" height="48" id="classC" rx="2.5" ry="2.5" style="stroke:#181818;stroke-width:0.5;" width="77" x="233" y="116"/><ellipse cx="248" cy="132" fill="#ADD1B2" rx="11" ry="11" style="stroke:#181818;stroke-width:1.0;"/><path d="M250.9688,137.6406 Q250.3906,137.9375 249.75,138.0781 Q249.1094,138.2344 248.4063,138.2344 Q245.9063,138.2344 244.5781,136.5938 Q243.2656,134.9375 243.2656,131.8125 Q243.2656,128.6875 244.5781,127.0313 Q245.9063,125.375 248.4063,125.375 Q249.1094,125.375 249.75,125.5313 Q250.4063,125.6875 250.9688,125.9844 L250.9688,128.7031 Q250.3438,128.125 249.75,127.8594 Q249.1563,127.5781 248.5313,127.5781 Q247.1875,127.5781 246.5,128.6563 Q245.8125,129.7188 245.8125,131.8125 Q245.8125,133.9063 246.5,134.9844 Q247.1875,136.0469 248.5313,136.0469 Q249.1563,136.0469 249.75,135.7813 Q250.3438,135.5 250.9688,134.9219 L250.9688,137.6406 Z " fill="#000000"/><text fill="#000000" font-family="sans-serif" font-size="14" lengthAdjust="spacing" textLength="45" x="262" y="136.8467">classC</text><line style="stroke:#181818;stroke-width:0.5;" x1="234" x2="309" y1="148" y2="148"/><line style="stroke:#181818;stroke-width:0.5;" x1="234" x2="309" y1="156" y2="156"/></g><!--class Client--><g id="elem_Client"><rect codeLine="6" fill="#F1F1F1" height="42.2969" id="Client" rx="2.5" ry="2.5" style="stroke:#181818;stroke-width:0.5;" width="45" x="7" y="10"/><text fill="#000000" font-family="sans-serif" font-size="14" lengthAdjust="spacing" textLength="39" x="10" y="27.9951">Client</text><line style="stroke:#181818;stroke-width:0.5;" x1="8" x2="51" y1="36.2969" y2="36.2969"/><line style="stroke:#181818;stroke-width:0.5;" x1="8" x2="51" y1="44.2969" y2="44.2969"/></g><!--link Client to Facade--><g id="link_Client_Facade"><path codeLine="9" d="M52.44,31 C68.96,31 91.83,31 112.19,31 " fill="none" id="Client-to-Facade" style="stroke:#181818;stroke-width:1.0;"/><polygon fill="#181818" points="117.14,31,108.14,27,112.14,31,108.14,35,117.14,31" style="stroke:#181818;stroke-width:1.0;"/><text fill="#000000" font-family="sans-serif" font-size="13" lengthAdjust="spacing" textLength="30" x="70.25" y="24.0669">uses</text></g><!--link Facade to classA--><g id="link_Facade_classA"><path codeLine="10" d="M134.92,55.48 C117.56,72.07 94.24,94.34 76.06,111.72 " fill="none" id="Facade-to-classA" style="stroke:#181818;stroke-width:1.0;"/><polygon fill="#181818" points="73.02,114.57,82.2887,111.2396,76.6332,111.1139,76.7589,105.4584,73.02,114.57" style="stroke:#181818;stroke-width:1.0;"/></g><!--link Facade to classB--><g id="link_Facade_classB"><path codeLine="11" d="M159.5,55.48 C159.5,71.51 159.5,92.85 159.5,109.95 " fill="none" id="Facade-to-classB" style="stroke:#181818;stroke-width:1.0;"/><polygon fill="#181818" points="159.5,114.57,163.5,105.57,159.5,109.57,155.5,105.57,159.5,114.57" style="stroke:#181818;stroke-width:1.0;"/></g><!--link Facade to classC--><g id="link_Facade_classC"><path codeLine="12" d="M184.08,55.48 C201.44,72.07 224.76,94.34 242.94,111.72 " fill="none" id="Facade-to-classC" style="stroke:#181818;stroke-width:1.0;"/><polygon fill="#181818" points="245.98,114.57,242.2411,105.4584,242.3668,111.1139,236.7113,111.2396,245.98,114.57" style="stroke:#181818;stroke-width:1.0;"/></g><!--link classA to classB--><g id="link_classA_classB"><path codeLine="13" d="M86,156.24 C95.68,158.19 105.36,158.52 115.04,157.24 " fill="none" id="classA-to-classB" style="stroke:#181818;stroke-width:1.0;"/><polygon fill="#181818" points="119.74,156.29,110.2095,153.8061,114.8065,157.1027,111.5099,161.6997,119.74,156.29" style="stroke:#181818;stroke-width:1.0;"/></g><!--reverse link classA to classB--><g id="link_classA_classB"><path codeLine="15" d="M91.7,122.8 C101.38,121.49 111.06,121.79 120.74,123.71 " fill="none" id="classA-backto-classB" style="stroke:#181818;stroke-width:1.0;"/><polygon fill="#181818" points="87,123.76,96.5386,126.2125,91.9308,122.9311,95.2123,118.3233,87,123.76" style="stroke:#181818;stroke-width:1.0;"/></g><!--link classA to classC--><g id="link_classA_classC"><path codeLine="14" d="M72.03,115.55 C85.33,104.03 102.75,91.53 121,85.5 C153.5,74.77 165.5,74.77 198,85.5 C214.26,90.87 229.85,101.38 242.46,111.74 " fill="none" id="classA-to-classC" style="stroke:#181818;stroke-width:1.0;"/><polygon fill="#181818" points="245.97,115.55,241.6491,106.6996,242.1406,112.335,236.5052,112.8266,245.97,115.55" style="stroke:#181818;stroke-width:1.0;"/></g><!--link classB to classC--><g id="link_classB_classC"><path codeLine="16" d="M198.44,156.33 C207.89,158.18 217.35,158.49 226.8,157.27 " fill="none" id="classB-to-classC" style="stroke:#181818;stroke-width:1.0;"/><polygon fill="#181818" points="231.69,156.3,222.1665,153.7893,226.7542,157.0989,223.4447,161.6866,231.69,156.3" style="stroke:#181818;stroke-width:1.0;"/></g><!--reverse link classB to classC--><g id="link_classB_classC"><path codeLine="17" d="M204.32,122.72 C213.78,121.5 223.23,121.83 232.69,123.7 " fill="none" id="classB-backto-classC" style="stroke:#181818;stroke-width:1.0;"/><polygon fill="#181818" points="199.44,123.67,208.9635,126.1807,204.3758,122.8711,207.6853,118.2834,199.44,123.67" style="stroke:#181818;stroke-width:1.0;"/></g><!--SRC=[ROx12O0m34NlcI8BT04FWYsuHubH2qN1LZo8krirAaelWVVooGzv6mBMbcp3k6v09v-p-h7-iJbOXF6EXvYuT-dEHKXk8iy0WcfoNHzLAMq5pe43IBLgncL8kwivQtNM6f1dd_CIpcf9QrIUs_ZstJONDj-mXXq0]--></g></svg>