<?xml version="1.0" encoding="us-ascii" standalone="no"?><svg xmlns="http://www.w3.org/2000/svg" xmlns:xlink="http://www.w3.org/1999/xlink" contentStyleType="text/css" height="171px" preserveAspectRatio="none" style="width:489px;height:171px;background:#FFFFFF;" version="1.1" viewBox="0 0 489 171" width="489px" zoomAndPan="magnify"><defs/><g><!--class OrderFacade--><g id="elem_OrderFacade"><rect codeLine="1" fill="#F1F1F1" height="48" id="OrderFacade" rx="2.5" ry="2.5" style="stroke:#181818;stroke-width:0.5;" width="121" x="174" y="7"/><ellipse cx="189" cy="23" fill="#ADD1B2" rx="11" ry="11" style="stroke:#181818;stroke-width:1.0;"/><path d="M191.9688,28.6406 Q191.3906,28.9375 190.75,29.0781 Q190.1094,29.2344 189.4063,29.2344 Q186.9063,29.2344 185.5781,27.5938 Q184.2656,25.9375 184.2656,22.8125 Q184.2656,19.6875 185.5781,18.0313 Q186.9063,16.375 189.4063,16.375 Q190.1094,16.375 190.75,16.5313 Q191.4063,16.6875 191.9688,16.9844 L191.9688,19.7031 Q191.3438,19.125 190.75,18.8594 Q190.1563,18.5781 189.5313,18.5781 Q188.1875,18.5781 187.5,19.6563 Q186.8125,20.7188 186.8125,22.8125 Q186.8125,24.9063 187.5,25.9844 Q188.1875,27.0469 189.5313,27.0469 Q190.1563,27.0469 190.75,26.7813 Q191.3438,26.5 191.9688,25.9219 L191.9688,28.6406 Z " fill="#000000"/><text fill="#000000" font-family="sans-serif" font-size="14" lengthAdjust="spacing" textLength="89" x="203" y="27.8467">OrderFacade</text><line style="stroke:#181818;stroke-width:0.5;" x1="175" x2="294" y1="39" y2="39"/><line style="stroke:#181818;stroke-width:0.5;" x1="175" x2="294" y1="47" y2="47"/></g><!--class OrderService--><g id="elem_OrderService"><rect codeLine="2" fill="#F1F1F1" height="48" id="OrderService" rx="2.5" ry="2.5" style="stroke:#181818;stroke-width:0.5;" width="121" x="7" y="116"/><ellipse cx="22" cy="132" fill="#ADD1B2" rx="11" ry="11" style="stroke:#181818;stroke-width:1.0;"/><path d="M24.9688,137.6406 Q24.3906,137.9375 23.75,138.0781 Q23.1094,138.2344 22.4063,138.2344 Q19.9063,138.2344 18.5781,136.5938 Q17.2656,134.9375 17.2656,131.8125 Q17.2656,128.6875 18.5781,127.0313 Q19.9063,125.375 22.4063,125.375 Q23.1094,125.375 23.75,125.5313 Q24.4063,125.6875 24.9688,125.9844 L24.9688,128.7031 Q24.3438,128.125 23.75,127.8594 Q23.1563,127.5781 22.5313,127.5781 Q21.1875,127.5781 20.5,128.6563 Q19.8125,129.7188 19.8125,131.8125 Q19.8125,133.9063 20.5,134.9844 Q21.1875,136.0469 22.5313,136.0469 Q23.1563,136.0469 23.75,135.7813 Q24.3438,135.5 24.9688,134.9219 L24.9688,137.6406 Z " fill="#000000"/><text fill="#000000" font-family="sans-serif" font-size="14" lengthAdjust="spacing" textLength="89" x="36" y="136.8467">OrderService</text><line style="stroke:#181818;stroke-width:0.5;" x1="8" x2="127" y1="148" y2="148"/><line style="stroke:#181818;stroke-width:0.5;" x1="8" x2="127" y1="156" y2="156"/></g><!--class PaymentService--><g id="elem_PaymentService"><rect codeLine="3" fill="#F1F1F1" height="48" id="PaymentService" rx="2.5" ry="2.5" style="stroke:#181818;stroke-width:0.5;" width="142" x="163.5" y="116"/><ellipse cx="178.5" cy="132" fill="#ADD1B2" rx="11" ry="11" style="stroke:#181818;stroke-width:1.0;"/><path d="M181.4688,137.6406 Q180.8906,137.9375 180.25,138.0781 Q179.6094,138.2344 178.9063,138.2344 Q176.4063,138.2344 175.0781,136.5938 Q173.7656,134.9375 173.7656,131.8125 Q173.7656,128.6875 175.0781,127.0313 Q176.4063,125.375 178.9063,125.375 Q179.6094,125.375 180.25,125.5313 Q180.9063,125.6875 181.4688,125.9844 L181.4688,128.7031 Q180.8438,128.125 180.25,127.8594 Q179.6563,127.5781 179.0313,127.5781 Q177.6875,127.5781 177,128.6563 Q176.3125,129.7188 176.3125,131.8125 Q176.3125,133.9063 177,134.9844 Q177.6875,136.0469 179.0313,136.0469 Q179.6563,136.0469 180.25,135.7813 Q180.8438,135.5 181.4688,134.9219 L181.4688,137.6406 Z " fill="#000000"/><text fill="#000000" font-family="sans-serif" font-size="14" lengthAdjust="spacing" textLength="110" x="192.5" y="136.8467">PaymentService</text><line style="stroke:#181818;stroke-width:0.5;" x1="164.5" x2="304.5" y1="148" y2="148"/><line style="stroke:#181818;stroke-width:0.5;" x1="164.5" x2="304.5" y1="156" y2="156"/></g><!--class ShippingService--><g id="elem_ShippingService"><rect codeLine="4" fill="#F1F1F1" height="48" id="ShippingService" rx="2.5" ry="2.5" style="stroke:#181818;stroke-width:0.5;" width="142" x="340.5" y="116"/><ellipse cx="355.5" cy="132" fill="#ADD1B2" rx="11" ry="11" style="stroke:#181818;stroke-width:1.0;"/><path d="M358.4688,137.6406 Q357.8906,137.9375 357.25,138.0781 Q356.6094,138.2344 355.9063,138.2344 Q353.4063,138.2344 352.0781,136.5938 Q350.7656,134.9375 350.7656,131.8125 Q350.7656,128.6875 352.0781,127.0313 Q353.4063,125.375 355.9063,125.375 Q356.6094,125.375 357.25,125.5313 Q357.9063,125.6875 358.4688,125.9844 L358.4688,128.7031 Q357.8438,128.125 357.25,127.8594 Q356.6563,127.5781 356.0313,127.5781 Q354.6875,127.5781 354,128.6563 Q353.3125,129.7188 353.3125,131.8125 Q353.3125,133.9063 354,134.9844 Q354.6875,136.0469 356.0313,136.0469 Q356.6563,136.0469 357.25,135.7813 Q357.8438,135.5 358.4688,134.9219 L358.4688,137.6406 Z " fill="#000000"/><text fill="#000000" font-family="sans-serif" font-size="14" lengthAdjust="spacing" textLength="110" x="369.5" y="136.8467">ShippingService</text><line style="stroke:#181818;stroke-width:0.5;" x1="341.5" x2="481.5" y1="148" y2="148"/><line style="stroke:#181818;stroke-width:0.5;" x1="341.5" x2="481.5" y1="156" y2="156"/></g><!--class Client--><g id="elem_Client"><rect codeLine="6" fill="#F1F1F1" height="42.2969" id="Client" rx="2.5" ry="2.5" style="stroke:#181818;stroke-width:0.5;" width="45" x="62" y="10"/><text fill="#000000" font-family="sans-serif" font-size="14" lengthAdjust="spacing" textLength="39" x="65" y="27.9951">Client</text><line style="stroke:#181818;stroke-width:0.5;" x1="63" x2="106" y1="36.2969" y2="36.2969"/><line style="stroke:#181818;stroke-width:0.5;" x1="63" x2="106" y1="44.2969" y2="44.2969"/></g><!--link Client to OrderFacade--><g id="link_Client_OrderFacade"><path codeLine="9" d="M107.28,31 C123.46,31 146.07,31 167.74,31 " fill="none" id="Client-to-OrderFacade" style="stroke:#181818;stroke-width:1.0;"/><polygon fill="#181818" points="172.53,31,163.53,27,167.53,31,163.53,35,172.53,31" style="stroke:#181818;stroke-width:1.0;"/><text fill="#000000" font-family="sans-serif" font-size="13" lengthAdjust="spacing" textLength="30" x="125.5" y="24.0669">uses</text></g><!--link OrderFacade to OrderService--><g id="link_OrderFacade_OrderService"><path codeLine="10" d="M197.85,55.48 C171.64,72.28 136.32,94.91 109.06,112.37 " fill="none" id="OrderFacade-to-OrderService" style="stroke:#181818;stroke-width:1.0;"/><polygon fill="#181818" points="105.06,115.57,114.7959,114.0829,109.2701,112.8727,110.4803,107.3468,105.06,115.57" style="stroke:#181818;stroke-width:1.0;"/></g><!--link OrderFacade to PaymentService--><g id="link_OrderFacade_PaymentService"><path codeLine="11" d="M234.5,55.48 C234.5,71.51 234.5,92.85 234.5,109.95 " fill="none" id="OrderFacade-to-PaymentService" style="stroke:#181818;stroke-width:1.0;"/><polygon fill="#181818" points="234.5,114.57,238.5,105.57,234.5,109.57,230.5,105.57,234.5,114.57" style="stroke:#181818;stroke-width:1.0;"/></g><!--link OrderFacade to ShippingService--><g id="link_OrderFacade_ShippingService"><path codeLine="12" d="M273.34,55.48 C301.24,72.35 338.87,95.09 367.81,112.59 " fill="none" id="OrderFacade-to-ShippingService" style="stroke:#181818;stroke-width:1.0;"/><polygon fill="#181818" points="371.75,115.57,366.1222,107.4874,367.4727,112.9807,361.9794,114.3311,371.75,115.57" style="stroke:#181818;stroke-width:1.0;"/></g><!--SRC=[Iyv9B2vMy2zAIIroIqnEJ4bLgAxbIaO81gSMbMKc8ua695RcfkQLO8W7PsGM56JcfID9G6MSSpA16e3yZ4oWyH2UGd9cKN9EAXSNbAjRb9cUKQ9hX-mIAuNIujHYBcItwQRab-V1L45jmge0rPLObQ0v6000]--></g></svg>