<?xml version="1.0" encoding="us-ascii" standalone="no"?><svg xmlns="http://www.w3.org/2000/svg" xmlns:xlink="http://www.w3.org/1999/xlink" contentStyleType="text/css" height="268px" preserveAspectRatio="none" style="width:395px;height:268px;background:#FFFFFF;" version="1.1" viewBox="0 0 395 268" width="395px" zoomAndPan="magnify"><defs/><g><!--class Creator--><g id="elem_Creator"><rect codeLine="1" fill="#F1F1F1" height="80.5938" id="Creator" rx="2.5" ry="2.5" style="stroke:#181818;stroke-width:0.5;" width="111" x="62" y="15"/><ellipse cx="89.6" cy="31" fill="#A9DCDF" rx="11" ry="11" style="stroke:#181818;stroke-width:1.0;"/><path d="M89.7094,26.3438 L88.5531,31.4219 L90.8813,31.4219 L89.7094,26.3438 Z M88.225,24.1094 L91.2094,24.1094 L94.5688,36.5 L92.1156,36.5 L91.35,33.4375 L88.0688,33.4375 L87.3188,36.5 L84.8813,36.5 L88.225,24.1094 Z " fill="#000000"/><text fill="#000000" font-family="sans-serif" font-size="14" font-style="italic" lengthAdjust="spacing" textLength="51" x="106.4" y="35.8467">Creator</text><line style="stroke:#181818;stroke-width:0.5;" x1="63" x2="172" y1="47" y2="47"/><line style="stroke:#181818;stroke-width:0.5;" x1="63" x2="172" y1="55" y2="55"/><text fill="#000000" font-family="sans-serif" font-size="14" lengthAdjust="spacing" textLength="44" x="68" y="71.9951">create</text><text fill="#000000" font-family="sans-serif" font-size="14" font-style="italic" lengthAdjust="spacing" textLength="99" x="68" y="88.292">factoryMethod</text></g><!--class Product--><g id="elem_Product"><rect codeLine="5" fill="#F1F1F1" height="96.8906" id="Product" rx="2.5" ry="2.5" style="stroke:#181818;stroke-width:0.5;" width="86" x="263.5" y="7"/><ellipse cx="278.5" cy="23" fill="#A9DCDF" rx="11" ry="11" style="stroke:#181818;stroke-width:1.0;"/><path d="M278.6094,18.3438 L277.4531,23.4219 L279.7813,23.4219 L278.6094,18.3438 Z M277.125,16.1094 L280.1094,16.1094 L283.4688,28.5 L281.0156,28.5 L280.25,25.4375 L276.9688,25.4375 L276.2188,28.5 L273.7813,28.5 L277.125,16.1094 Z " fill="#000000"/><text fill="#000000" font-family="sans-serif" font-size="14" font-style="italic" lengthAdjust="spacing" textLength="54" x="292.5" y="27.8467">Product</text><line style="stroke:#181818;stroke-width:0.5;" x1="264.5" x2="348.5" y1="39" y2="39"/><line style="stroke:#181818;stroke-width:0.5;" x1="264.5" x2="348.5" y1="47" y2="47"/><text fill="#000000" font-family="sans-serif" font-size="14" lengthAdjust="spacing" textLength="63" x="269.5" y="63.9951">method1</text><text fill="#000000" font-family="sans-serif" font-size="14" lengthAdjust="spacing" textLength="63" x="269.5" y="80.292">method2</text><text fill="#000000" font-family="sans-serif" font-size="14" lengthAdjust="spacing" textLength="63" x="269.5" y="96.5889">method3</text></g><!--class ConcreteCreator--><g id="elem_ConcreteCreator"><rect codeLine="10" fill="#F1F1F1" height="64.2969" id="ConcreteCreator" rx="2.5" ry="2.5" style="stroke:#181818;stroke-width:0.5;" width="147" x="7" y="181.5"/><ellipse cx="22" cy="197.5" fill="#ADD1B2" rx="11" ry="11" style="stroke:#181818;stroke-width:1.0;"/><path d="M24.9688,203.1406 Q24.3906,203.4375 23.75,203.5781 Q23.1094,203.7344 22.4063,203.7344 Q19.9063,203.7344 18.5781,202.0938 Q17.2656,200.4375 17.2656,197.3125 Q17.2656,194.1875 18.5781,192.5313 Q19.9063,190.875 22.4063,190.875 Q23.1094,190.875 23.75,191.0313 Q24.4063,191.1875 24.9688,191.4844 L24.9688,194.2031 Q24.3438,193.625 23.75,193.3594 Q23.1563,193.0781 22.5313,193.0781 Q21.1875,193.0781 20.5,194.1563 Q19.8125,195.2188 19.8125,197.3125 Q19.8125,199.4063 20.5,200.4844 Q21.1875,201.5469 22.5313,201.5469 Q23.1563,201.5469 23.75,201.2813 Q24.3438,201 24.9688,200.4219 L24.9688,203.1406 Z " fill="#000000"/><text fill="#000000" font-family="sans-serif" font-size="14" lengthAdjust="spacing" textLength="115" x="36" y="202.3467">ConcreteCreator</text><line style="stroke:#181818;stroke-width:0.5;" x1="8" x2="153" y1="213.5" y2="213.5"/><line style="stroke:#181818;stroke-width:0.5;" x1="8" x2="153" y1="221.5" y2="221.5"/><text fill="#000000" font-family="sans-serif" font-size="14" lengthAdjust="spacing" textLength="99" x="13" y="238.4951">factoryMethod</text></g><!--class ConcreteProduct--><g id="elem_ConcreteProduct"><rect codeLine="13" fill="#F1F1F1" height="96.8906" id="ConcreteProduct" rx="2.5" ry="2.5" style="stroke:#181818;stroke-width:0.5;" width="150" x="238.5" y="165"/><ellipse cx="253.5" cy="181" fill="#ADD1B2" rx="11" ry="11" style="stroke:#181818;stroke-width:1.0;"/><path d="M256.4688,186.6406 Q255.8906,186.9375 255.25,187.0781 Q254.6094,187.2344 253.9063,187.2344 Q251.4063,187.2344 250.0781,185.5938 Q248.7656,183.9375 248.7656,180.8125 Q248.7656,177.6875 250.0781,176.0313 Q251.4063,174.375 253.9063,174.375 Q254.6094,174.375 255.25,174.5313 Q255.9063,174.6875 256.4688,174.9844 L256.4688,177.7031 Q255.8438,177.125 255.25,176.8594 Q254.6563,176.5781 254.0313,176.5781 Q252.6875,176.5781 252,177.6563 Q251.3125,178.7188 251.3125,180.8125 Q251.3125,182.9063 252,183.9844 Q252.6875,185.0469 254.0313,185.0469 Q254.6563,185.0469 255.25,184.7813 Q255.8438,184.5 256.4688,183.9219 L256.4688,186.6406 Z " fill="#000000"/><text fill="#000000" font-family="sans-serif" font-size="14" lengthAdjust="spacing" textLength="118" x="267.5" y="185.8467">ConcreteProduct</text><line style="stroke:#181818;stroke-width:0.5;" x1="239.5" x2="387.5" y1="197" y2="197"/><line style="stroke:#181818;stroke-width:0.5;" x1="239.5" x2="387.5" y1="205" y2="205"/><text fill="#000000" font-family="sans-serif" font-size="14" lengthAdjust="spacing" textLength="63" x="244.5" y="221.9951">method1</text><text fill="#000000" font-family="sans-serif" font-size="14" lengthAdjust="spacing" textLength="63" x="244.5" y="238.292">method2</text><text fill="#000000" font-family="sans-serif" font-size="14" lengthAdjust="spacing" textLength="63" x="244.5" y="254.5889">method3</text></g><!--link Creator to Product--><g id="link_Creator_Product"><path codeLine="19" d="M173.44,55.5 C200.05,55.5 231.59,55.5 257.29,55.5 " fill="none" id="Creator-to-Product" style="stroke:#181818;stroke-width:1.0;"/><polygon fill="#181818" points="262.01,55.5,253.01,51.5,257.01,55.5,253.01,59.5,262.01,55.5" style="stroke:#181818;stroke-width:1.0;"/><text fill="#000000" font-family="sans-serif" font-size="13" lengthAdjust="spacing" textLength="48" x="194.25" y="48.5669">creates</text></g><!--reverse link Creator to ConcreteCreator--><g id="link_Creator_ConcreteCreator"><path codeLine="20" d="M103.26,116.54 C98.03,138.58 92.32,162.64 87.93,181.16 " fill="none" id="Creator-backto-ConcreteCreator" style="stroke:#181818;stroke-width:1.0;"/><polygon fill="none" points="96.64,115.11,108.07,97.27,110.26,118.34,96.64,115.11" style="stroke:#181818;stroke-width:1.0;"/></g><!--reverse link Product to ConcreteProduct--><g id="link_Product_ConcreteProduct"><path codeLine="21" d="M309.56,124.72 C310.16,138.16 310.79,152 311.35,164.6 " fill="none" id="Product-backto-ConcreteProduct" style="stroke:#181818;stroke-width:1.0;"/><polygon fill="none" points="302.54,125.45,308.64,105.15,316.53,124.82,302.54,125.45" style="stroke:#181818;stroke-width:1.0;"/></g><!--link ConcreteCreator to ConcreteProduct--><g id="link_ConcreteCreator_ConcreteProduct"><path codeLine="22" d="M154.22,213.5 C179.14,213.5 207.08,213.5 232.53,213.5 " fill="none" id="ConcreteCreator-to-ConcreteProduct" style="stroke:#181818;stroke-width:1.0;"/><polygon fill="#181818" points="237.25,213.5,228.25,209.5,232.25,213.5,228.25,217.5,237.25,213.5" style="stroke:#181818;stroke-width:1.0;"/><text fill="#000000" font-family="sans-serif" font-size="13" lengthAdjust="spacing" textLength="48" x="172.25" y="206.5669">creates</text></g><!--SRC=[IqmgBYbAJ2vHS2vAJIp9BrAevb9GgCvDBSd8JwbLI0O9fYABL2T2DTGgf079_A9ANx0CLoqNJ4OXe2W_fHH8enW5eGqnXOmmXOo1fYNd91ONApZdvm7TK9AArNNe3a3LGXLNSC4irhM3UyiA6Yp5S4cR6brTTATomPIZI485kT3z1JGUtTrmQm00]--></g></svg>