<?xml version="1.0" encoding="us-ascii" standalone="no"?><svg xmlns="http://www.w3.org/2000/svg" xmlns:xlink="http://www.w3.org/1999/xlink" contentStyleType="text/css" height="268px" preserveAspectRatio="none" style="width:359px;height:268px;background:#FFFFFF;" version="1.1" viewBox="0 0 359 268" width="359px" zoomAndPan="magnify"><defs/><g><!--class Factory--><g id="elem_Factory"><rect codeLine="1" fill="#F1F1F1" height="96.8906" id="Factory" rx="2.5" ry="2.5" style="stroke:#181818;stroke-width:0.5;" width="124" x="27" y="7"/><ellipse cx="60.9" cy="23" fill="#A9DCDF" rx="11" ry="11" style="stroke:#181818;stroke-width:1.0;"/><path d="M61.0094,18.3438 L59.8531,23.4219 L62.1813,23.4219 L61.0094,18.3438 Z M59.525,16.1094 L62.5094,16.1094 L65.8688,28.5 L63.4156,28.5 L62.65,25.4375 L59.3688,25.4375 L58.6188,28.5 L56.1813,28.5 L59.525,16.1094 Z " fill="#000000"/><text fill="#000000" font-family="sans-serif" font-size="14" font-style="italic" lengthAdjust="spacing" textLength="50" x="79.1" y="27.8467">Factory</text><line style="stroke:#181818;stroke-width:0.5;" x1="28" x2="150" y1="39" y2="39"/><line style="stroke:#181818;stroke-width:0.5;" x1="28" x2="150" y1="47" y2="47"/><text fill="#000000" font-family="sans-serif" font-size="14" lengthAdjust="spacing" textLength="46" x="33" y="63.9951">Create</text><text fill="#000000" font-family="sans-serif" font-size="14" font-style="italic" lengthAdjust="spacing" textLength="100" x="33" y="80.292">CreateProduct</text><text fill="#000000" font-family="sans-serif" font-size="14" font-style="italic" lengthAdjust="spacing" textLength="112" x="33" y="96.5889">RegisterProduct</text></g><!--class Product--><g id="elem_Product"><rect codeLine="6" fill="#F1F1F1" height="64.2969" id="Product" rx="2.5" ry="2.5" style="stroke:#181818;stroke-width:0.5;" width="86" x="239" y="23.5"/><ellipse cx="254" cy="39.5" fill="#A9DCDF" rx="11" ry="11" style="stroke:#181818;stroke-width:1.0;"/><path d="M254.1094,34.8438 L252.9531,39.9219 L255.2813,39.9219 L254.1094,34.8438 Z M252.625,32.6094 L255.6094,32.6094 L258.9688,45 L256.5156,45 L255.75,41.9375 L252.4688,41.9375 L251.7188,45 L249.2813,45 L252.625,32.6094 Z " fill="#000000"/><text fill="#000000" font-family="sans-serif" font-size="14" font-style="italic" lengthAdjust="spacing" textLength="54" x="268" y="44.3467">Product</text><line style="stroke:#181818;stroke-width:0.5;" x1="240" x2="324" y1="55.5" y2="55.5"/><line style="stroke:#181818;stroke-width:0.5;" x1="240" x2="324" y1="63.5" y2="63.5"/><text fill="#000000" font-family="sans-serif" font-size="14" font-style="italic" lengthAdjust="spacing" textLength="27" x="245" y="80.4951">Use</text></g><!--class IDCardFactory--><g id="elem_IDCardFactory"><rect codeLine="9" fill="#F1F1F1" height="96.8906" id="IDCardFactory" rx="2.5" ry="2.5" style="stroke:#181818;stroke-width:0.5;" width="128" x="7" y="165"/><ellipse cx="22" cy="181" fill="#ADD1B2" rx="11" ry="11" style="stroke:#181818;stroke-width:1.0;"/><path d="M24.9688,186.6406 Q24.3906,186.9375 23.75,187.0781 Q23.1094,187.2344 22.4063,187.2344 Q19.9063,187.2344 18.5781,185.5938 Q17.2656,183.9375 17.2656,180.8125 Q17.2656,177.6875 18.5781,176.0313 Q19.9063,174.375 22.4063,174.375 Q23.1094,174.375 23.75,174.5313 Q24.4063,174.6875 24.9688,174.9844 L24.9688,177.7031 Q24.3438,177.125 23.75,176.8594 Q23.1563,176.5781 22.5313,176.5781 Q21.1875,176.5781 20.5,177.6563 Q19.8125,178.7188 19.8125,180.8125 Q19.8125,182.9063 20.5,183.9844 Q21.1875,185.0469 22.5313,185.0469 Q23.1563,185.0469 23.75,184.7813 Q24.3438,184.5 24.9688,183.9219 L24.9688,186.6406 Z " fill="#000000"/><text fill="#000000" font-family="sans-serif" font-size="14" lengthAdjust="spacing" textLength="96" x="36" y="185.8467">IDCardFactory</text><line style="stroke:#181818;stroke-width:0.5;" x1="8" x2="134" y1="197" y2="197"/><text fill="#000000" font-family="sans-serif" font-size="14" lengthAdjust="spacing" textLength="51" x="13" y="213.9951">owners</text><line style="stroke:#181818;stroke-width:0.5;" x1="8" x2="134" y1="221.2969" y2="221.2969"/><text fill="#000000" font-family="sans-serif" font-size="14" lengthAdjust="spacing" textLength="100" x="13" y="238.292">CreateProduct</text><text fill="#000000" font-family="sans-serif" font-size="14" lengthAdjust="spacing" textLength="112" x="13" y="254.5889">RegisterProduct</text></g><!--class IDCardProduct--><g id="elem_IDCardProduct"><rect codeLine="14" fill="#F1F1F1" height="80.5938" id="IDCardProduct" rx="2.5" ry="2.5" style="stroke:#181818;stroke-width:0.5;" width="132" x="220" y="173"/><ellipse cx="235" cy="189" fill="#ADD1B2" rx="11" ry="11" style="stroke:#181818;stroke-width:1.0;"/><path d="M237.9688,194.6406 Q237.3906,194.9375 236.75,195.0781 Q236.1094,195.2344 235.4063,195.2344 Q232.9063,195.2344 231.5781,193.5938 Q230.2656,191.9375 230.2656,188.8125 Q230.2656,185.6875 231.5781,184.0313 Q232.9063,182.375 235.4063,182.375 Q236.1094,182.375 236.75,182.5313 Q237.4063,182.6875 237.9688,182.9844 L237.9688,185.7031 Q237.3438,185.125 236.75,184.8594 Q236.1563,184.5781 235.5313,184.5781 Q234.1875,184.5781 233.5,185.6563 Q232.8125,186.7188 232.8125,188.8125 Q232.8125,190.9063 233.5,191.9844 Q234.1875,193.0469 235.5313,193.0469 Q236.1563,193.0469 236.75,192.7813 Q237.3438,192.5 237.9688,191.9219 L237.9688,194.6406 Z " fill="#000000"/><text fill="#000000" font-family="sans-serif" font-size="14" lengthAdjust="spacing" textLength="100" x="249" y="193.8467">IDCardProduct</text><line style="stroke:#181818;stroke-width:0.5;" x1="221" x2="351" y1="205" y2="205"/><text fill="#000000" font-family="sans-serif" font-size="14" lengthAdjust="spacing" textLength="43" x="226" y="221.9951">owner</text><line style="stroke:#181818;stroke-width:0.5;" x1="221" x2="351" y1="229.2969" y2="229.2969"/><text fill="#000000" font-family="sans-serif" font-size="14" lengthAdjust="spacing" textLength="27" x="226" y="246.292">Use</text></g><!--link Factory to Product--><g id="link_Factory_Product"><path codeLine="19" d="M151.4,55.5 C177.8,55.5 208.12,55.5 232.89,55.5 " fill="none" id="Factory-to-Product" style="stroke:#181818;stroke-width:1.0;"/><polygon fill="#181818" points="237.74,55.5,228.74,51.5,232.74,55.5,228.74,59.5,237.74,55.5" style="stroke:#181818;stroke-width:1.0;"/><text fill="#000000" font-family="sans-serif" font-size="13" lengthAdjust="spacing" textLength="48" x="171" y="48.5669">creates</text></g><!--reverse link Factory to IDCardFactory--><g id="link_Factory_IDCardFactory"><path codeLine="20" d="M81.13,124.72 C79.58,138.16 77.98,152 76.53,164.6 " fill="none" id="Factory-backto-IDCardFactory" style="stroke:#181818;stroke-width:1.0;"/><polygon fill="none" points="74.26,124.22,83.5,105.15,88.16,125.82,74.26,124.22" style="stroke:#181818;stroke-width:1.0;"/></g><!--reverse link Product to IDCardProduct--><g id="link_Product_IDCardProduct"><path codeLine="21" d="M283.34,108.58 C283.87,129.51 284.48,153.25 284.98,172.75 " fill="none" id="Product-backto-IDCardProduct" style="stroke:#181818;stroke-width:1.0;"/><polygon fill="none" points="276.31,108.87,282.8,88.69,290.31,108.51,276.31,108.87" style="stroke:#181818;stroke-width:1.0;"/></g><!--link IDCardFactory to IDCardProduct--><g id="link_IDCardFactory_IDCardProduct"><path codeLine="22" d="M135.22,213.5 C159.95,213.5 188.35,213.5 213.79,213.5 " fill="none" id="IDCardFactory-to-IDCardProduct" style="stroke:#181818;stroke-width:1.0;"/><polygon fill="#181818" points="218.51,213.5,209.51,209.5,213.51,213.5,209.51,217.5,218.51,213.5" style="stroke:#181818;stroke-width:1.0;"/><text fill="#000000" font-family="sans-serif" font-size="13" lengthAdjust="spacing" textLength="48" x="153.5" y="206.5669">creates</text></g><!--SRC=[TOzB2W8n38RtFKKkC1SGSJCYk1F10zGsgA0MaeX8dRjRnab96TrqaV_rrHzPo0U1JNaIlI0xW7n3EQSuG4_e1Uqb-ocWuevIV0JvuzdZwSA2fAx1gGRJgHqqqGDZiOUhPuRjklSKBM9wtf5uple3PyvWIot6M6gZNmQdmzsgKYyWZ7jSnUMxwrfGfsOZAKJxerBSqjJw3m00]--></g></svg>