<?xml version="1.0" encoding="us-ascii" standalone="no"?><svg xmlns="http://www.w3.org/2000/svg" xmlns:xlink="http://www.w3.org/1999/xlink" contentStyleType="text/css" height="285px" preserveAspectRatio="none" style="width:357px;height:285px;background:#FFFFFF;" version="1.1" viewBox="0 0 357 285" width="357px" zoomAndPan="magnify"><defs/><g><!--class Abstract--><g id="elem_Abstract"><rect codeLine="1" fill="#F1F1F1" height="113.1875" id="Abstract" rx="2.5" ry="2.5" style="stroke:#181818;stroke-width:0.5;" width="126" x="224" y="165"/><ellipse cx="255.65" cy="181" fill="#A9DCDF" rx="11" ry="11" style="stroke:#181818;stroke-width:1.0;"/><path d="M255.7594,176.3438 L254.6031,181.4219 L256.9313,181.4219 L255.7594,176.3438 Z M254.275,174.1094 L257.2594,174.1094 L260.6188,186.5 L258.1656,186.5 L257.4,183.4375 L254.1188,183.4375 L253.3688,186.5 L250.9313,186.5 L254.275,174.1094 Z " fill="#000000"/><text fill="#000000" font-family="sans-serif" font-size="14" font-style="italic" lengthAdjust="spacing" textLength="57" x="273.35" y="185.8467">Abstract</text><line style="stroke:#181818;stroke-width:0.5;" x1="225" x2="349" y1="197" y2="197"/><line style="stroke:#181818;stroke-width:0.5;" x1="225" x2="349" y1="205" y2="205"/><text fill="#000000" font-family="sans-serif" font-size="14" lengthAdjust="spacing" textLength="63" x="230" y="221.9951">method1</text><text fill="#000000" font-family="sans-serif" font-size="14" lengthAdjust="spacing" textLength="63" x="230" y="238.292">method2</text><text fill="#000000" font-family="sans-serif" font-size="14" lengthAdjust="spacing" textLength="63" x="230" y="254.5889">method3</text><text fill="#000000" font-family="sans-serif" font-size="14" lengthAdjust="spacing" textLength="114" x="230" y="270.8857">templateMethod</text></g><!--class Concrete--><g id="elem_Concrete"><rect codeLine="7" fill="#F1F1F1" height="96.8906" id="Concrete" rx="2.5" ry="2.5" style="stroke:#181818;stroke-width:0.5;" width="96" x="239" y="7"/><ellipse cx="254" cy="23" fill="#ADD1B2" rx="11" ry="11" style="stroke:#181818;stroke-width:1.0;"/><path d="M256.9688,28.6406 Q256.3906,28.9375 255.75,29.0781 Q255.1094,29.2344 254.4063,29.2344 Q251.9063,29.2344 250.5781,27.5938 Q249.2656,25.9375 249.2656,22.8125 Q249.2656,19.6875 250.5781,18.0313 Q251.9063,16.375 254.4063,16.375 Q255.1094,16.375 255.75,16.5313 Q256.4063,16.6875 256.9688,16.9844 L256.9688,19.7031 Q256.3438,19.125 255.75,18.8594 Q255.1563,18.5781 254.5313,18.5781 Q253.1875,18.5781 252.5,19.6563 Q251.8125,20.7188 251.8125,22.8125 Q251.8125,24.9063 252.5,25.9844 Q253.1875,27.0469 254.5313,27.0469 Q255.1563,27.0469 255.75,26.7813 Q256.3438,26.5 256.9688,25.9219 L256.9688,28.6406 Z " fill="#000000"/><text fill="#000000" font-family="sans-serif" font-size="14" lengthAdjust="spacing" textLength="64" x="268" y="27.8467">Concrete</text><line style="stroke:#181818;stroke-width:0.5;" x1="240" x2="334" y1="39" y2="39"/><line style="stroke:#181818;stroke-width:0.5;" x1="240" x2="334" y1="47" y2="47"/><text fill="#000000" font-family="sans-serif" font-size="14" lengthAdjust="spacing" textLength="63" x="245" y="63.9951">method1</text><text fill="#000000" font-family="sans-serif" font-size="14" lengthAdjust="spacing" textLength="63" x="245" y="80.292">method2</text><text fill="#000000" font-family="sans-serif" font-size="14" lengthAdjust="spacing" textLength="63" x="245" y="96.5889">method3</text></g><!--class Main--><g id="elem_Main"><rect fill="#F1F1F1" height="48" id="Main" rx="2.5" ry="2.5" style="stroke:#181818;stroke-width:0.5;" width="64" x="7" y="31.5"/><ellipse cx="22" cy="47.5" fill="#ADD1B2" rx="11" ry="11" style="stroke:#181818;stroke-width:1.0;"/><path d="M24.9688,53.1406 Q24.3906,53.4375 23.75,53.5781 Q23.1094,53.7344 22.4063,53.7344 Q19.9063,53.7344 18.5781,52.0938 Q17.2656,50.4375 17.2656,47.3125 Q17.2656,44.1875 18.5781,42.5313 Q19.9063,40.875 22.4063,40.875 Q23.1094,40.875 23.75,41.0313 Q24.4063,41.1875 24.9688,41.4844 L24.9688,44.2031 Q24.3438,43.625 23.75,43.3594 Q23.1563,43.0781 22.5313,43.0781 Q21.1875,43.0781 20.5,44.1563 Q19.8125,45.2188 19.8125,47.3125 Q19.8125,49.4063 20.5,50.4844 Q21.1875,51.5469 22.5313,51.5469 Q23.1563,51.5469 23.75,51.2813 Q24.3438,51 24.9688,50.4219 L24.9688,53.1406 Z " fill="#000000"/><text fill="#000000" font-family="sans-serif" font-size="14" lengthAdjust="spacing" textLength="32" x="36" y="52.3467">Main</text><line style="stroke:#181818;stroke-width:0.5;" x1="8" x2="70" y1="63.5" y2="63.5"/><line style="stroke:#181818;stroke-width:0.5;" x1="8" x2="70" y1="71.5" y2="71.5"/></g><!--link Main to Concrete--><g id="link_Main_Concrete"><path codeLine="13" d="M71.42,55.5 C112.43,55.5 183.62,55.5 232.91,55.5 " fill="none" id="Main-to-Concrete" style="stroke:#181818;stroke-width:1.0;"/><polygon fill="#181818" points="237.81,55.5,228.81,51.5,232.81,55.5,228.81,59.5,237.81,55.5" style="stroke:#181818;stroke-width:1.0;"/><text fill="#000000" font-family="sans-serif" font-size="13" lengthAdjust="spacing" textLength="131" x="89.5" y="48.5669">call templateMethod</text></g><!--link Concrete to Abstract--><g id="link_Concrete_Abstract"><path codeLine="14" d="M287,104.38 C287,116.79 287,130.46 287,143.94 " fill="none" id="Concrete-to-Abstract" style="stroke:#181818;stroke-width:1.0;"/><polygon fill="none" points="294,143.76,287,163.76,280,143.76,294,143.76" style="stroke:#181818;stroke-width:1.0;"/></g><!--SRC=[IqmgBYbAJ2vHS8GnghaK5AfpKqioybDg5I2q8QQG4QQGCR9GIMfkGKvYIQelcCzLovMSarXShE2SdvTSb5gIIeajjLnSlecPURfsCCEi598JStBGhOHRfQjROmVt7W00]--></g></svg>