<?xml version="1.0" encoding="us-ascii" standalone="no"?><svg xmlns="http://www.w3.org/2000/svg" xmlns:xlink="http://www.w3.org/1999/xlink" contentStyleType="text/css" height="117px" preserveAspectRatio="none" style="width:129px;height:117px;background:#FFFFFF;" version="1.1" viewBox="0 0 129 117" width="129px" zoomAndPan="magnify"><defs/><g><!--class Singleton--><g id="elem_Singleton"><rect codeLine="1" fill="#F1F1F1" height="96.8906" id="Singleton" rx="2.5" ry="2.5" style="stroke:#181818;stroke-width:0.5;" width="108" x="7" y="7"/><ellipse cx="26.95" cy="23" fill="#ADD1B2" rx="11" ry="11" style="stroke:#181818;stroke-width:1.0;"/><path d="M29.9188,28.6406 Q29.3406,28.9375 28.7,29.0781 Q28.0594,29.2344 27.3563,29.2344 Q24.8563,29.2344 23.5281,27.5938 Q22.2156,25.9375 22.2156,22.8125 Q22.2156,19.6875 23.5281,18.0313 Q24.8563,16.375 27.3563,16.375 Q28.0594,16.375 28.7,16.5313 Q29.3563,16.6875 29.9188,16.9844 L29.9188,19.7031 Q29.2938,19.125 28.7,18.8594 Q28.1063,18.5781 27.4813,18.5781 Q26.1375,18.5781 25.45,19.6563 Q24.7625,20.7188 24.7625,22.8125 Q24.7625,24.9063 25.45,25.9844 Q26.1375,27.0469 27.4813,27.0469 Q28.1063,27.0469 28.7,26.7813 Q29.2938,26.5 29.9188,25.9219 L29.9188,28.6406 Z " fill="#000000"/><text fill="#000000" font-family="sans-serif" font-size="14" lengthAdjust="spacing" textLength="65" x="42.05" y="27.8467">Singleton</text><line style="stroke:#181818;stroke-width:0.5;" x1="8" x2="114" y1="39" y2="39"/><rect fill="none" height="6" style="stroke:#C82930;stroke-width:1.0;" width="6" x="15" y="49.6484"/><text fill="#000000" font-family="sans-serif" font-size="14" lengthAdjust="spacing" textLength="64" x="27" y="55.9951">singleton</text><line style="stroke:#181818;stroke-width:0.5;" x1="8" x2="114" y1="63.2969" y2="63.2969"/><rect fill="#F24D5C" height="6" style="stroke:#C82930;stroke-width:1.0;" width="6" x="15" y="73.9453"/><text fill="#000000" font-family="sans-serif" font-size="14" lengthAdjust="spacing" textLength="80" x="27" y="80.292">constructor</text><text fill="#000000" font-family="sans-serif" font-size="14" lengthAdjust="spacing" text-decoration="underline" textLength="82" x="27" y="96.5889">getInstance</text></g><!--SRC=[Iyv9B2vM2CxCIyz9BSdFKwZcKb3GBOPnWPpgtDIIZFoKMWNTvFoyufAYqkII_29ayUhYaiIIpEHQXVJK4a-WYiIyv5IkMW00]--></g></svg>