<?xml version="1.0" encoding="us-ascii" standalone="no"?><svg xmlns="http://www.w3.org/2000/svg" xmlns:xlink="http://www.w3.org/1999/xlink" contentStyleType="text/css" height="219px" preserveAspectRatio="none" style="width:517px;height:219px;background:#FFFFFF;" version="1.1" viewBox="0 0 517 219" width="517px" zoomAndPan="magnify"><defs/><g><!--class User--><g id="elem_User"><rect codeLine="1" fill="#F1F1F1" height="80.5938" id="User" rx="2.5" ry="2.5" style="stroke:#181818;stroke-width:0.5;" width="64" x="446" y="132"/><ellipse cx="461" cy="148" fill="#ADD1B2" rx="11" ry="11" style="stroke:#181818;stroke-width:1.0;"/><path d="M463.9688,153.6406 Q463.3906,153.9375 462.75,154.0781 Q462.1094,154.2344 461.4063,154.2344 Q458.9063,154.2344 457.5781,152.5938 Q456.2656,150.9375 456.2656,147.8125 Q456.2656,144.6875 457.5781,143.0313 Q458.9063,141.375 461.4063,141.375 Q462.1094,141.375 462.75,141.5313 Q463.4063,141.6875 463.9688,141.9844 L463.9688,144.7031 Q463.3438,144.125 462.75,143.8594 Q462.1563,143.5781 461.5313,143.5781 Q460.1875,143.5781 459.5,144.6563 Q458.8125,145.7188 458.8125,147.8125 Q458.8125,149.9063 459.5,150.9844 Q460.1875,152.0469 461.5313,152.0469 Q462.1563,152.0469 462.75,151.7813 Q463.3438,151.5 463.9688,150.9219 L463.9688,153.6406 Z " fill="#000000"/><text fill="#000000" font-family="sans-serif" font-size="14" lengthAdjust="spacing" textLength="32" x="475" y="152.8467">User</text><line style="stroke:#181818;stroke-width:0.5;" x1="447" x2="509" y1="164" y2="164"/><text fill="#000000" font-family="sans-serif" font-size="14" lengthAdjust="spacing" textLength="12" x="452" y="180.9951">id</text><text fill="#000000" font-family="sans-serif" font-size="14" lengthAdjust="spacing" textLength="39" x="452" y="197.292">name</text><line style="stroke:#181818;stroke-width:0.5;" x1="447" x2="509" y1="204.5938" y2="204.5938"/></g><!--class DBClient--><g id="elem_DBClient"><rect codeLine="5" fill="#F1F1F1" height="64.2969" id="DBClient" rx="2.5" ry="2.5" style="stroke:#181818;stroke-width:0.5;" width="92" x="267" y="7"/><ellipse cx="282" cy="23" fill="#B4A7E5" rx="11" ry="11" style="stroke:#181818;stroke-width:1.0;"/><path d="M277.9219,18.7656 L277.9219,16.6094 L285.3125,16.6094 L285.3125,18.7656 L282.8438,18.7656 L282.8438,26.8438 L285.3125,26.8438 L285.3125,29 L277.9219,29 L277.9219,26.8438 L280.3906,26.8438 L280.3906,18.7656 L277.9219,18.7656 Z " fill="#000000"/><text fill="#000000" font-family="sans-serif" font-size="14" font-style="italic" lengthAdjust="spacing" textLength="60" x="296" y="27.8467">DBClient</text><line style="stroke:#181818;stroke-width:0.5;" x1="268" x2="358" y1="39" y2="39"/><line style="stroke:#181818;stroke-width:0.5;" x1="268" x2="358" y1="47" y2="47"/><text fill="#000000" font-family="sans-serif" font-size="14" lengthAdjust="spacing" textLength="57" x="273" y="63.9951">GetUser</text></g><!--class MySqlDBClient--><g id="elem_MySqlDBClient"><rect codeLine="8" fill="#F1F1F1" height="64.2969" id="MySqlDBClient" rx="2.5" ry="2.5" style="stroke:#181818;stroke-width:0.5;" width="132" x="247" y="140.5"/><ellipse cx="262" cy="156.5" fill="#ADD1B2" rx="11" ry="11" style="stroke:#181818;stroke-width:1.0;"/><path d="M264.9688,162.1406 Q264.3906,162.4375 263.75,162.5781 Q263.1094,162.7344 262.4063,162.7344 Q259.9063,162.7344 258.5781,161.0938 Q257.2656,159.4375 257.2656,156.3125 Q257.2656,153.1875 258.5781,151.5313 Q259.9063,149.875 262.4063,149.875 Q263.1094,149.875 263.75,150.0313 Q264.4063,150.1875 264.9688,150.4844 L264.9688,153.2031 Q264.3438,152.625 263.75,152.3594 Q263.1563,152.0781 262.5313,152.0781 Q261.1875,152.0781 260.5,153.1563 Q259.8125,154.2188 259.8125,156.3125 Q259.8125,158.4063 260.5,159.4844 Q261.1875,160.5469 262.5313,160.5469 Q263.1563,160.5469 263.75,160.2813 Q264.3438,160 264.9688,159.4219 L264.9688,162.1406 Z " fill="#000000"/><text fill="#000000" font-family="sans-serif" font-size="14" lengthAdjust="spacing" textLength="100" x="276" y="161.3467">MySqlDBClient</text><line style="stroke:#181818;stroke-width:0.5;" x1="248" x2="378" y1="172.5" y2="172.5"/><line style="stroke:#181818;stroke-width:0.5;" x1="248" x2="378" y1="180.5" y2="180.5"/><text fill="#000000" font-family="sans-serif" font-size="14" lengthAdjust="spacing" textLength="57" x="253" y="197.4951">GetUser</text></g><!--class Main--><g id="elem_Main"><rect fill="#F1F1F1" height="48" id="Main" rx="2.5" ry="2.5" style="stroke:#181818;stroke-width:0.5;" width="64" x="7" y="15"/><ellipse cx="22" cy="31" fill="#ADD1B2" rx="11" ry="11" style="stroke:#181818;stroke-width:1.0;"/><path d="M24.9688,36.6406 Q24.3906,36.9375 23.75,37.0781 Q23.1094,37.2344 22.4063,37.2344 Q19.9063,37.2344 18.5781,35.5938 Q17.2656,33.9375 17.2656,30.8125 Q17.2656,27.6875 18.5781,26.0313 Q19.9063,24.375 22.4063,24.375 Q23.1094,24.375 23.75,24.5313 Q24.4063,24.6875 24.9688,24.9844 L24.9688,27.7031 Q24.3438,27.125 23.75,26.8594 Q23.1563,26.5781 22.5313,26.5781 Q21.1875,26.5781 20.5,27.6563 Q19.8125,28.7188 19.8125,30.8125 Q19.8125,32.9063 20.5,33.9844 Q21.1875,35.0469 22.5313,35.0469 Q23.1563,35.0469 23.75,34.7813 Q24.3438,34.5 24.9688,33.9219 L24.9688,36.6406 Z " fill="#000000"/><text fill="#000000" font-family="sans-serif" font-size="14" lengthAdjust="spacing" textLength="32" x="36" y="35.8467">Main</text><line style="stroke:#181818;stroke-width:0.5;" x1="8" x2="70" y1="47" y2="47"/><line style="stroke:#181818;stroke-width:0.5;" x1="8" x2="70" y1="55" y2="55"/></g><!--link Main to DBClient--><g id="link_Main_DBClient"><path codeLine="12" d="M71.24,39 C117.92,39 204.85,39 260.76,39 " fill="none" id="Main-to-DBClient" style="stroke:#181818;stroke-width:1.0;"/><polygon fill="#181818" points="265.74,39,256.74,35,260.74,39,256.74,43,265.74,39" style="stroke:#181818;stroke-width:1.0;"/><text fill="#000000" font-family="sans-serif" font-size="13" lengthAdjust="spacing" textLength="159" x="89.5" y="32.0669">getDBClient(constructor)</text></g><!--reverse link DBClient to MySqlDBClient--><g id="link_DBClient_MySqlDBClient"><path codeLine="13" d="M313,92.49 C313,108.68 313,125.98 313,140.26 " fill="none" id="DBClient-backto-MySqlDBClient" style="stroke:#181818;stroke-width:1.0;stroke-dasharray:7.0,7.0;"/><polygon fill="none" points="306,92.5,313,72.5,320,92.5,306,92.5" style="stroke:#181818;stroke-width:1.0;"/></g><!--link MySqlDBClient to User--><g id="link_MySqlDBClient_User"><path codeLine="14" d="M379.16,172.5 C399.78,172.5 421.82,172.5 439.84,172.5 " fill="none" id="MySqlDBClient-to-User" style="stroke:#181818;stroke-width:1.0;"/><polygon fill="#181818" points="444.79,172.5,435.79,168.5,439.79,172.5,435.79,176.5,444.79,172.5" style="stroke:#181818;stroke-width:1.0;"/><text fill="#000000" font-family="sans-serif" font-size="13" lengthAdjust="spacing" textLength="30" x="397.5" y="165.5669">uses</text></g><!--SRC=[Iyv9B2vM22rEBLAevb9Go4m14dc9kQbSjLoPUIMfHMc9oQaABaxEEPcfUILW9TMvgIKP-Icr2kwf9I1zG9N9O4DyAuCBSmWfvV9DpCnJqBM3cscba9vQ0kDe9EVd5PSKbIQNv1TfSi7DigdHqqCrdWlLCg1v8FEj54gBKui1]--></g></svg>