<?xml version="1.0" encoding="us-ascii" standalone="no"?><svg xmlns="http://www.w3.org/2000/svg" xmlns:xlink="http://www.w3.org/1999/xlink" contentStyleType="text/css" height="213px" preserveAspectRatio="none" style="width:565px;height:213px;background:#FFFFFF;" version="1.1" viewBox="0 0 565 213" width="565px" zoomAndPan="magnify"><defs/><g><!--class Flyweight--><g id="elem_Flyweight"><rect codeLine="1" fill="#F1F1F1" height="80.5938" id="Flyweight" rx="2.5" ry="2.5" style="stroke:#181818;stroke-width:0.5;" width="246" x="312" y="126"/><ellipse cx="398.75" cy="142" fill="#ADD1B2" rx="11" ry="11" style="stroke:#181818;stroke-width:1.0;"/><path d="M401.7188,147.6406 Q401.1406,147.9375 400.5,148.0781 Q399.8594,148.2344 399.1563,148.2344 Q396.6563,148.2344 395.3281,146.5938 Q394.0156,144.9375 394.0156,141.8125 Q394.0156,138.6875 395.3281,137.0313 Q396.6563,135.375 399.1563,135.375 Q399.8594,135.375 400.5,135.5313 Q401.1563,135.6875 401.7188,135.9844 L401.7188,138.7031 Q401.0938,138.125 400.5,137.8594 Q399.9063,137.5781 399.2813,137.5781 Q397.9375,137.5781 397.25,138.6563 Q396.5625,139.7188 396.5625,141.8125 Q396.5625,143.9063 397.25,144.9844 Q397.9375,146.0469 399.2813,146.0469 Q399.9063,146.0469 400.5,145.7813 Q401.0938,145.5 401.7188,144.9219 L401.7188,147.6406 Z " fill="#000000"/><text fill="#000000" font-family="sans-serif" font-size="14" lengthAdjust="spacing" textLength="64" x="419.25" y="146.8467">Flyweight</text><line style="stroke:#181818;stroke-width:0.5;" x1="313" x2="557" y1="158" y2="158"/><rect fill="none" height="6" style="stroke:#C82930;stroke-width:1.0;" width="6" x="320" y="168.6484"/><text fill="#000000" font-family="sans-serif" font-size="14" lengthAdjust="spacing" textLength="138" x="332" y="174.9951">intrinsicState: String</text><line style="stroke:#181818;stroke-width:0.5;" x1="313" x2="557" y1="182.2969" y2="182.2969"/><ellipse cx="323" cy="195.9453" fill="#84BE84" rx="3" ry="3" style="stroke:#038048;stroke-width:1.0;"/><text fill="#000000" font-family="sans-serif" font-size="14" lengthAdjust="spacing" textLength="220" x="332" y="199.292">Operation(extrinsicState: String)</text></g><!--class FlyweightFactory--><g id="elem_FlyweightFactory"><rect codeLine="6" fill="#F1F1F1" height="80.5938" id="FlyweightFactory" rx="2.5" ry="2.5" style="stroke:#181818;stroke-width:0.5;" width="270" x="7" y="126"/><ellipse cx="80.75" cy="142" fill="#ADD1B2" rx="11" ry="11" style="stroke:#181818;stroke-width:1.0;"/><path d="M83.7188,147.6406 Q83.1406,147.9375 82.5,148.0781 Q81.8594,148.2344 81.1563,148.2344 Q78.6563,148.2344 77.3281,146.5938 Q76.0156,144.9375 76.0156,141.8125 Q76.0156,138.6875 77.3281,137.0313 Q78.6563,135.375 81.1563,135.375 Q81.8594,135.375 82.5,135.5313 Q83.1563,135.6875 83.7188,135.9844 L83.7188,138.7031 Q83.0938,138.125 82.5,137.8594 Q81.9063,137.5781 81.2813,137.5781 Q79.9375,137.5781 79.25,138.6563 Q78.5625,139.7188 78.5625,141.8125 Q78.5625,143.9063 79.25,144.9844 Q79.9375,146.0469 81.2813,146.0469 Q81.9063,146.0469 82.5,145.7813 Q83.0938,145.5 83.7188,144.9219 L83.7188,147.6406 Z " fill="#000000"/><text fill="#000000" font-family="sans-serif" font-size="14" lengthAdjust="spacing" textLength="114" x="101.25" y="146.8467">FlyweightFactory</text><line style="stroke:#181818;stroke-width:0.5;" x1="8" x2="276" y1="158" y2="158"/><rect fill="none" height="6" style="stroke:#C82930;stroke-width:1.0;" width="6" x="15" y="168.6484"/><text fill="#000000" font-family="sans-serif" font-size="14" lengthAdjust="spacing" textLength="242" x="27" y="174.9951">flyweights: map&lt;string, Flyweight&gt;</text><line style="stroke:#181818;stroke-width:0.5;" x1="8" x2="276" y1="182.2969" y2="182.2969"/><ellipse cx="18" cy="195.9453" fill="#84BE84" rx="3" ry="3" style="stroke:#038048;stroke-width:1.0;"/><text fill="#000000" font-family="sans-serif" font-size="14" lengthAdjust="spacing" textLength="244" x="27" y="199.292">GetFlyweight(key: string): Flyweight</text></g><!--class Client--><g id="elem_Client"><rect codeLine="11" fill="#F1F1F1" height="42.2969" id="Client" rx="2.5" ry="2.5" style="stroke:#181818;stroke-width:0.5;" width="45" x="265.5" y="7"/><text fill="#000000" font-family="sans-serif" font-size="14" lengthAdjust="spacing" textLength="39" x="268.5" y="24.9951">Client</text><line style="stroke:#181818;stroke-width:0.5;" x1="266.5" x2="309.5" y1="33.2969" y2="33.2969"/><line style="stroke:#181818;stroke-width:0.5;" x1="266.5" x2="309.5" y1="41.2969" y2="41.2969"/></g><!--link Client to Flyweight--><g id="link_Client_Flyweight"><path codeLine="14" d="M310.01,49.44 C330.53,68.5 361.83,97.56 387.97,121.83 " fill="none" id="Client-to-Flyweight" style="stroke:#181818;stroke-width:1.0;"/><polygon fill="#181818" points="391.12,124.68,387.271,115.6144,387.4652,121.2679,381.8117,121.4621,391.12,124.68" style="stroke:#181818;stroke-width:1.0;"/><text fill="#000000" font-family="sans-serif" font-size="13" lengthAdjust="spacing" textLength="63" x="358" y="92.0669">Operation</text></g><!--link Client to FlyweightFactory--><g id="link_Client_FlyweightFactory"><path codeLine="15" d="M266.14,49.44 C245.75,68.5 214.67,97.56 188.71,121.83 " fill="none" id="Client-to-FlyweightFactory" style="stroke:#181818;stroke-width:1.0;"/><polygon fill="#181818" points="185.59,124.68,194.8983,121.4621,189.2448,121.2679,189.439,115.6144,185.59,124.68" style="stroke:#181818;stroke-width:1.0;"/><text fill="#000000" font-family="sans-serif" font-size="13" lengthAdjust="spacing" textLength="81" x="234" y="92.0669">GetFlyweight</text></g><!--link FlyweightFactory to Flyweight--><g id="link_FlyweightFactory_Flyweight"><path codeLine="16" d="M291.23,166.5 C293.34,166.5 295.45,166.5 297.57,166.5 " fill="none" id="FlyweightFactory-Flyweight" style="stroke:#181818;stroke-width:1.0;"/><polygon fill="none" points="278.34,166.5,284.34,170.5,290.34,166.5,284.34,162.5,278.34,166.5" style="stroke:#181818;stroke-width:1.0;"/><polygon fill="#181818" points="310.52,166.5,301.52,162.5,305.52,166.5,301.52,170.5,310.52,166.5" style="stroke:#181818;stroke-width:1.0;"/><line style="stroke:#181818;stroke-width:1.0;" x1="305.52" x2="297.52" y1="166.5" y2="166.5"/></g><!--SRC=[RKz13e8m4BplA_O8KJxG62ucUFJ02vgwmiPQIBk94iFV1GMAaUFipEpC6Aj3mC9s3-Ag5dm1OiPEFBl0fXGjfB0SOJKmktDBNWitBg7dbYQ57i3y_YoqaSPttzVN-HeKtdLx21_RFghpCUP4iXoI6tKAlxfKHM5CEbecDrJleUOBpT2mDvOGOC9PbaUpmcN99ZzrLhXk0d-JchK7tW00]--></g></svg>