<?xml version="1.0" encoding="us-ascii" standalone="no"?><svg xmlns="http://www.w3.org/2000/svg" xmlns:xlink="http://www.w3.org/1999/xlink" contentStyleType="text/css" height="481px" preserveAspectRatio="none" style="width:439px;height:481px;background:#FFFFFF;" version="1.1" viewBox="0 0 439 481" width="439px" zoomAndPan="magnify"><defs/><g><!--class Flyweight--><g id="elem_Flyweight"><rect codeLine="1" fill="#F1F1F1" height="64.2969" id="Flyweight" rx="2.5" ry="2.5" style="stroke:#181818;stroke-width:0.5;" width="246" x="102" y="410"/><ellipse cx="188.75" cy="426" fill="#B4A7E5" rx="11" ry="11" style="stroke:#181818;stroke-width:1.0;"/><path d="M184.6719,421.7656 L184.6719,419.6094 L192.0625,419.6094 L192.0625,421.7656 L189.5938,421.7656 L189.5938,429.8438 L192.0625,429.8438 L192.0625,432 L184.6719,432 L184.6719,429.8438 L187.1406,429.8438 L187.1406,421.7656 L184.6719,421.7656 Z " fill="#000000"/><text fill="#000000" font-family="sans-serif" font-size="14" font-style="italic" lengthAdjust="spacing" textLength="64" x="209.25" y="430.8467">Flyweight</text><line style="stroke:#181818;stroke-width:0.5;" x1="103" x2="347" y1="442" y2="442"/><line style="stroke:#181818;stroke-width:0.5;" x1="103" x2="347" y1="450" y2="450"/><ellipse cx="113" cy="463.6484" fill="#84BE84" rx="3" ry="3" style="stroke:#038048;stroke-width:1.0;"/><text fill="#000000" font-family="sans-serif" font-size="14" lengthAdjust="spacing" textLength="220" x="122" y="466.9951">Operation(extrinsicState: String)</text></g><!--class ConcreteFlyweight--><g id="elem_ConcreteFlyweight"><rect codeLine="5" fill="#F1F1F1" height="80.5938" id="ConcreteFlyweight" rx="2.5" ry="2.5" style="stroke:#181818;stroke-width:0.5;" width="246" x="186" y="126"/><ellipse cx="240.75" cy="142" fill="#ADD1B2" rx="11" ry="11" style="stroke:#181818;stroke-width:1.0;"/><path d="M243.7188,147.6406 Q243.1406,147.9375 242.5,148.0781 Q241.8594,148.2344 241.1563,148.2344 Q238.6563,148.2344 237.3281,146.5938 Q236.0156,144.9375 236.0156,141.8125 Q236.0156,138.6875 237.3281,137.0313 Q238.6563,135.375 241.1563,135.375 Q241.8594,135.375 242.5,135.5313 Q243.1563,135.6875 243.7188,135.9844 L243.7188,138.7031 Q243.0938,138.125 242.5,137.8594 Q241.9063,137.5781 241.2813,137.5781 Q239.9375,137.5781 239.25,138.6563 Q238.5625,139.7188 238.5625,141.8125 Q238.5625,143.9063 239.25,144.9844 Q239.9375,146.0469 241.2813,146.0469 Q241.9063,146.0469 242.5,145.7813 Q243.0938,145.5 243.7188,144.9219 L243.7188,147.6406 Z " fill="#000000"/><text fill="#000000" font-family="sans-serif" font-size="14" lengthAdjust="spacing" textLength="128" x="261.25" y="146.8467">ConcreteFlyweight</text><line style="stroke:#181818;stroke-width:0.5;" x1="187" x2="431" y1="158" y2="158"/><rect fill="none" height="6" style="stroke:#C82930;stroke-width:1.0;" width="6" x="194" y="168.6484"/><text fill="#000000" font-family="sans-serif" font-size="14" lengthAdjust="spacing" textLength="138" x="206" y="174.9951">intrinsicState: String</text><line style="stroke:#181818;stroke-width:0.5;" x1="187" x2="431" y1="182.2969" y2="182.2969"/><ellipse cx="197" cy="195.9453" fill="#84BE84" rx="3" ry="3" style="stroke:#038048;stroke-width:1.0;"/><text fill="#000000" font-family="sans-serif" font-size="14" lengthAdjust="spacing" textLength="220" x="206" y="199.292">Operation(extrinsicState: String)</text></g><!--class FlyweightFactory--><g id="elem_FlyweightFactory"><rect codeLine="10" fill="#F1F1F1" height="80.5938" id="FlyweightFactory" rx="2.5" ry="2.5" style="stroke:#181818;stroke-width:0.5;" width="270" x="7" y="237"/><ellipse cx="80.75" cy="253" fill="#ADD1B2" rx="11" ry="11" style="stroke:#181818;stroke-width:1.0;"/><path d="M83.7188,258.6406 Q83.1406,258.9375 82.5,259.0781 Q81.8594,259.2344 81.1563,259.2344 Q78.6563,259.2344 77.3281,257.5938 Q76.0156,255.9375 76.0156,252.8125 Q76.0156,249.6875 77.3281,248.0313 Q78.6563,246.375 81.1563,246.375 Q81.8594,246.375 82.5,246.5313 Q83.1563,246.6875 83.7188,246.9844 L83.7188,249.7031 Q83.0938,249.125 82.5,248.8594 Q81.9063,248.5781 81.2813,248.5781 Q79.9375,248.5781 79.25,249.6563 Q78.5625,250.7188 78.5625,252.8125 Q78.5625,254.9063 79.25,255.9844 Q79.9375,257.0469 81.2813,257.0469 Q81.9063,257.0469 82.5,256.7813 Q83.0938,256.5 83.7188,255.9219 L83.7188,258.6406 Z " fill="#000000"/><text fill="#000000" font-family="sans-serif" font-size="14" lengthAdjust="spacing" textLength="114" x="101.25" y="257.8467">FlyweightFactory</text><line style="stroke:#181818;stroke-width:0.5;" x1="8" x2="276" y1="269" y2="269"/><rect fill="none" height="6" style="stroke:#C82930;stroke-width:1.0;" width="6" x="15" y="279.6484"/><text fill="#000000" font-family="sans-serif" font-size="14" lengthAdjust="spacing" textLength="242" x="27" y="285.9951">flyweights: map&lt;string, Flyweight&gt;</text><line style="stroke:#181818;stroke-width:0.5;" x1="8" x2="276" y1="293.2969" y2="293.2969"/><ellipse cx="18" cy="306.9453" fill="#84BE84" rx="3" ry="3" style="stroke:#038048;stroke-width:1.0;"/><text fill="#000000" font-family="sans-serif" font-size="14" lengthAdjust="spacing" textLength="244" x="27" y="310.292">GetFlyweight(key: string): Flyweight</text></g><!--class Client--><g id="elem_Client"><rect codeLine="15" fill="#F1F1F1" height="42.2969" id="Client" rx="2.5" ry="2.5" style="stroke:#181818;stroke-width:0.5;" width="45" x="171.5" y="7"/><text fill="#000000" font-family="sans-serif" font-size="14" lengthAdjust="spacing" textLength="39" x="174.5" y="24.9951">Client</text><line style="stroke:#181818;stroke-width:0.5;" x1="172.5" x2="215.5" y1="33.2969" y2="33.2969"/><line style="stroke:#181818;stroke-width:0.5;" x1="172.5" x2="215.5" y1="41.2969" y2="41.2969"/></g><!--link ConcreteFlyweight to Flyweight--><g id="link_ConcreteFlyweight_Flyweight"><path codeLine="18" d="M304.67,207.46 C300.66,238.19 293.55,281.42 282,318 C274.19,342.74 262.53,368.99 251.8,390.85 " fill="none" id="ConcreteFlyweight-to-Flyweight" style="stroke:#181818;stroke-width:1.0;stroke-dasharray:7.0,7.0;"/><polygon fill="none" points="257.61,393.86,242.33,408.53,245.13,387.53,257.61,393.86" style="stroke:#181818;stroke-width:1.0;"/></g><!--link Client to ConcreteFlyweight--><g id="link_Client_ConcreteFlyweight"><path codeLine="19" d="M211.22,49.44 C227.14,68.34 251.36,97.08 271.7,121.23 " fill="none" id="Client-to-ConcreteFlyweight" style="stroke:#181818;stroke-width:1.0;"/><polygon fill="#181818" points="275.45,124.68,272.7059,115.2211,272.2267,120.8577,266.5902,120.3784,275.45,124.68" style="stroke:#181818;stroke-width:1.0;"/><text fill="#000000" font-family="sans-serif" font-size="13" lengthAdjust="spacing" textLength="63" x="249" y="92.0669">Operation</text></g><!--link Client to FlyweightFactory--><g id="link_Client_FlyweightFactory"><path codeLine="20" d="M171.17,46.16 C161.52,54.83 151.29,66.21 146,79 C125.8,127.77 128.45,189.3 133.77,230.61 " fill="none" id="Client-to-FlyweightFactory" style="stroke:#181818;stroke-width:1.0;"/><polygon fill="#181818" points="134.57,235.55,137.3258,226.0946,133.8989,230.5952,129.3982,227.1683,134.57,235.55" style="stroke:#181818;stroke-width:1.0;"/><text fill="#000000" font-family="sans-serif" font-size="13" lengthAdjust="spacing" textLength="81" x="147" y="92.0669">GetFlyweight</text></g><!--link FlyweightFactory to Flyweight--><g id="link_FlyweightFactory_Flyweight"><path codeLine="21" d="M168.6,330.59 C179.6,352.11 192.2,376.78 202.69,397.33 " fill="none" id="FlyweightFactory-Flyweight" style="stroke:#181818;stroke-width:1.0;"/><polygon fill="none" points="162.3,319.25,161.4689,326.4131,167.7613,329.9352,168.5924,322.7722,162.3,319.25" style="stroke:#181818;stroke-width:1.0;"/><polygon fill="#181818" points="208.93,408.53,208.4007,398.6954,206.6567,404.0767,201.2754,402.3327,208.93,408.53" style="stroke:#181818;stroke-width:1.0;"/><line style="stroke:#181818;stroke-width:1.0;" x1="206.6567" x2="203.015" y1="404.0767" y2="396.95"/></g><!--SRC=[bP113e9034NtFKMN68K3J0mR4rswu0IJeM0Zpf2P9agKkoiYYEB6PTl_N_lBLiWNsX1kg-PCN1u4hu2utDVajR2p4Lt4imriCj522hEkB1VG0fXAXu0RPuqdeKz2pFQNxq_soDng8yutFReOka7XITVhyBIjtkgqMxCZ6HlHaHg5lMwXti99Yeh9FavluS0v3QLXRof2W7d89CdTsIQtT49xkU9k4gVppoWSitzhlvCgdDuFiqUugGVk]--></g></svg>