<?xml version="1.0" encoding="us-ascii" standalone="no"?><svg xmlns="http://www.w3.org/2000/svg" xmlns:xlink="http://www.w3.org/1999/xlink" contentStyleType="text/css" height="301px" preserveAspectRatio="none" style="width:378px;height:301px;background:#FFFFFF;" version="1.1" viewBox="0 0 378 301" width="378px" zoomAndPan="magnify"><defs/><g><!--class Builder--><g id="elem_Builder"><rect codeLine="1" fill="#F1F1F1" height="96.8906" id="Builder" rx="2.5" ry="2.5" style="stroke:#181818;stroke-width:0.5;" width="80" x="291.5" y="7"/><ellipse cx="306.5" cy="23" fill="#B4A7E5" rx="11" ry="11" style="stroke:#181818;stroke-width:1.0;"/><path d="M302.4219,18.7656 L302.4219,16.6094 L309.8125,16.6094 L309.8125,18.7656 L307.3438,18.7656 L307.3438,26.8438 L309.8125,26.8438 L309.8125,29 L302.4219,29 L302.4219,26.8438 L304.8906,26.8438 L304.8906,18.7656 L302.4219,18.7656 Z " fill="#000000"/><text fill="#000000" font-family="sans-serif" font-size="14" font-style="italic" lengthAdjust="spacing" textLength="48" x="320.5" y="27.8467">Builder</text><line style="stroke:#181818;stroke-width:0.5;" x1="292.5" x2="370.5" y1="39" y2="39"/><line style="stroke:#181818;stroke-width:0.5;" x1="292.5" x2="370.5" y1="47" y2="47"/><text fill="#000000" font-family="sans-serif" font-size="14" lengthAdjust="spacing" textLength="42" x="297.5" y="63.9951">build1</text><text fill="#000000" font-family="sans-serif" font-size="14" lengthAdjust="spacing" textLength="42" x="297.5" y="80.292">build2</text><text fill="#000000" font-family="sans-serif" font-size="14" lengthAdjust="spacing" textLength="42" x="297.5" y="96.5889">build3</text></g><!--class ConcreteBuilder--><g id="elem_ConcreteBuilder"><rect codeLine="6" fill="#F1F1F1" height="113.1875" id="ConcreteBuilder" rx="2.5" ry="2.5" style="stroke:#181818;stroke-width:0.5;" width="147" x="113" y="181"/><ellipse cx="129.35" cy="197" fill="#ADD1B2" rx="11" ry="11" style="stroke:#181818;stroke-width:1.0;"/><path d="M132.3188,202.6406 Q131.7406,202.9375 131.1,203.0781 Q130.4594,203.2344 129.7563,203.2344 Q127.2563,203.2344 125.9281,201.5938 Q124.6156,199.9375 124.6156,196.8125 Q124.6156,193.6875 125.9281,192.0313 Q127.2563,190.375 129.7563,190.375 Q130.4594,190.375 131.1,190.5313 Q131.7563,190.6875 132.3188,190.9844 L132.3188,193.7031 Q131.6938,193.125 131.1,192.8594 Q130.5063,192.5781 129.8813,192.5781 Q128.5375,192.5781 127.85,193.6563 Q127.1625,194.7188 127.1625,196.8125 Q127.1625,198.9063 127.85,199.9844 Q128.5375,201.0469 129.8813,201.0469 Q130.5063,201.0469 131.1,200.7813 Q131.6938,200.5 132.3188,199.9219 L132.3188,202.6406 Z " fill="#000000"/><text fill="#000000" font-family="sans-serif" font-size="14" lengthAdjust="spacing" textLength="112" x="143.65" y="201.8467">ConcreteBuilder</text><line style="stroke:#181818;stroke-width:0.5;" x1="114" x2="259" y1="213" y2="213"/><line style="stroke:#181818;stroke-width:0.5;" x1="114" x2="259" y1="221" y2="221"/><text fill="#000000" font-family="sans-serif" font-size="14" lengthAdjust="spacing" textLength="42" x="119" y="237.9951">build1</text><text fill="#000000" font-family="sans-serif" font-size="14" lengthAdjust="spacing" textLength="42" x="119" y="254.292">build2</text><text fill="#000000" font-family="sans-serif" font-size="14" lengthAdjust="spacing" textLength="42" x="119" y="270.5889">build3</text><text fill="#000000" font-family="sans-serif" font-size="14" lengthAdjust="spacing" textLength="135" x="119" y="286.8857">getConstructResult</text></g><!--class Director--><g id="elem_Director"><rect codeLine="12" fill="#F1F1F1" height="80.5938" id="Director" rx="2.5" ry="2.5" style="stroke:#181818;stroke-width:0.5;" width="111" x="145" y="15"/><ellipse cx="170.8" cy="31" fill="#ADD1B2" rx="11" ry="11" style="stroke:#181818;stroke-width:1.0;"/><path d="M173.7688,36.6406 Q173.1906,36.9375 172.55,37.0781 Q171.9094,37.2344 171.2063,37.2344 Q168.7063,37.2344 167.3781,35.5938 Q166.0656,33.9375 166.0656,30.8125 Q166.0656,27.6875 167.3781,26.0313 Q168.7063,24.375 171.2063,24.375 Q171.9094,24.375 172.55,24.5313 Q173.2063,24.6875 173.7688,24.9844 L173.7688,27.7031 Q173.1438,27.125 172.55,26.8594 Q171.9563,26.5781 171.3313,26.5781 Q169.9875,26.5781 169.3,27.6563 Q168.6125,28.7188 168.6125,30.8125 Q168.6125,32.9063 169.3,33.9844 Q169.9875,35.0469 171.3313,35.0469 Q171.9563,35.0469 172.55,34.7813 Q173.1438,34.5 173.7688,33.9219 L173.7688,36.6406 Z " fill="#000000"/><text fill="#000000" font-family="sans-serif" font-size="14" lengthAdjust="spacing" textLength="55" x="187.2" y="35.8467">Director</text><line style="stroke:#181818;stroke-width:0.5;" x1="146" x2="255" y1="47" y2="47"/><text fill="#000000" font-family="sans-serif" font-size="14" lengthAdjust="spacing" textLength="99" x="151" y="63.9951">builder Builder</text><line style="stroke:#181818;stroke-width:0.5;" x1="146" x2="255" y1="71.2969" y2="71.2969"/><text fill="#000000" font-family="sans-serif" font-size="14" lengthAdjust="spacing" textLength="66" x="151" y="88.292">construct</text></g><!--class Client--><g id="elem_Client"><rect fill="#F1F1F1" height="48" id="Client" rx="2.5" ry="2.5" style="stroke:#181818;stroke-width:0.5;" width="71" x="7" y="31.5"/><ellipse cx="22" cy="47.5" fill="#ADD1B2" rx="11" ry="11" style="stroke:#181818;stroke-width:1.0;"/><path d="M24.9688,53.1406 Q24.3906,53.4375 23.75,53.5781 Q23.1094,53.7344 22.4063,53.7344 Q19.9063,53.7344 18.5781,52.0938 Q17.2656,50.4375 17.2656,47.3125 Q17.2656,44.1875 18.5781,42.5313 Q19.9063,40.875 22.4063,40.875 Q23.1094,40.875 23.75,41.0313 Q24.4063,41.1875 24.9688,41.4844 L24.9688,44.2031 Q24.3438,43.625 23.75,43.3594 Q23.1563,43.0781 22.5313,43.0781 Q21.1875,43.0781 20.5,44.1563 Q19.8125,45.2188 19.8125,47.3125 Q19.8125,49.4063 20.5,50.4844 Q21.1875,51.5469 22.5313,51.5469 Q23.1563,51.5469 23.75,51.2813 Q24.3438,51 24.9688,50.4219 L24.9688,53.1406 Z " fill="#000000"/><text fill="#000000" font-family="sans-serif" font-size="14" lengthAdjust="spacing" textLength="39" x="36" y="52.3467">Client</text><line style="stroke:#181818;stroke-width:0.5;" x1="8" x2="77" y1="63.5" y2="63.5"/><line style="stroke:#181818;stroke-width:0.5;" x1="8" x2="77" y1="71.5" y2="71.5"/></g><!--link Client to Director--><g id="link_Client_Director"><path codeLine="17" d="M78.35,55.5 C96.17,55.5 118.21,55.5 138.64,55.5 " fill="none" id="Client-to-Director" style="stroke:#181818;stroke-width:1.0;"/><polygon fill="#181818" points="143.64,55.5,134.64,51.5,138.64,55.5,134.64,59.5,143.64,55.5" style="stroke:#181818;stroke-width:1.0;"/><text fill="#000000" font-family="sans-serif" font-size="13" lengthAdjust="spacing" textLength="30" x="96.5" y="48.5669">uses</text></g><!--link Client to ConcreteBuilder--><g id="link_Client_ConcreteBuilder"><path codeLine="18" d="M61.03,79.66 C80.44,103.93 111.73,143.04 138.2,176.13 " fill="none" id="Client-to-ConcreteBuilder" style="stroke:#181818;stroke-width:1.0;"/><polygon fill="#181818" points="141.74,179.55,139.2285,170.0268,138.6113,175.6498,132.9882,175.0327,141.74,179.55" style="stroke:#181818;stroke-width:1.0;"/><text fill="#000000" font-family="sans-serif" font-size="13" lengthAdjust="spacing" textLength="30" x="115.5" y="147.0669">uses</text></g><!--link Director to Builder--><g id="link_Director_Builder"><path codeLine="19" d="M270.21,55.5 C272.62,55.5 275.03,55.5 277.44,55.5 " fill="none" id="Director-Builder" style="stroke:#181818;stroke-width:1.0;"/><polygon fill="none" points="257.28,55.5,263.28,59.5,269.28,55.5,263.28,51.5,257.28,55.5" style="stroke:#181818;stroke-width:1.0;"/><polygon fill="#181818" points="290.24,55.5,281.24,51.5,285.24,55.5,281.24,59.5,290.24,55.5" style="stroke:#181818;stroke-width:1.0;"/><line style="stroke:#181818;stroke-width:1.0;" x1="285.24" x2="277.24" y1="55.5" y2="55.5"/></g><!--reverse link Builder to ConcreteBuilder--><g id="link_Builder_ConcreteBuilder"><path codeLine="20" d="M279.9,120.55 C264.12,140.14 246.9,161.52 231.59,180.52 " fill="none" id="Builder-backto-ConcreteBuilder" style="stroke:#181818;stroke-width:1.0;stroke-dasharray:7.0,7.0;"/><polygon fill="none" points="275.03,116.45,293.02,105.26,285.93,125.23,275.03,116.45" style="stroke:#181818;stroke-width:1.0;"/></g><!--SRC=[fOyn3i8m34NtdC8Ne1Am8SH0EG4tQ5q3aK8YsSvKUdU2I4hKZgpV__qdMw_4jmu9pj6wWHX60p0-IHzXcA3_XDjLibibUpCPT9q8jC4ZazA_UrLo9qsheXnHhoJHwMoxM2RKyDNqMPdLzGGMFf6cTPQymkRqmmyGXQIwBD_8XHa8gLCyfNDyDSqIV0C0]--></g></svg>