<?xml version="1.0" encoding="us-ascii" standalone="no"?><svg xmlns="http://www.w3.org/2000/svg" xmlns:xlink="http://www.w3.org/1999/xlink" contentStyleType="text/css" height="349px" preserveAspectRatio="none" style="width:381px;height:349px;background:#FFFFFF;" version="1.1" viewBox="0 0 381 349" width="381px" zoomAndPan="magnify"><defs/><g><!--class Builder--><g id="elem_Builder"><rect codeLine="1" fill="#F1F1F1" height="113.1875" id="Builder" rx="2.5" ry="2.5" style="stroke:#181818;stroke-width:0.5;" width="90" x="284" y="7"/><ellipse cx="303.5" cy="23" fill="#B4A7E5" rx="11" ry="11" style="stroke:#181818;stroke-width:1.0;"/><path d="M299.4219,18.7656 L299.4219,16.6094 L306.8125,16.6094 L306.8125,18.7656 L304.3438,18.7656 L304.3438,26.8438 L306.8125,26.8438 L306.8125,29 L299.4219,29 L299.4219,26.8438 L301.8906,26.8438 L301.8906,18.7656 L299.4219,18.7656 Z " fill="#000000"/><text fill="#000000" font-family="sans-serif" font-size="14" font-style="italic" lengthAdjust="spacing" textLength="48" x="318.5" y="27.8467">Builder</text><line style="stroke:#181818;stroke-width:0.5;" x1="285" x2="373" y1="39" y2="39"/><line style="stroke:#181818;stroke-width:0.5;" x1="285" x2="373" y1="47" y2="47"/><text fill="#000000" font-family="sans-serif" font-size="14" lengthAdjust="spacing" textLength="67" x="290" y="63.9951">makeTitle</text><text fill="#000000" font-family="sans-serif" font-size="14" lengthAdjust="spacing" textLength="78" x="290" y="80.292">makeString</text><text fill="#000000" font-family="sans-serif" font-size="14" lengthAdjust="spacing" textLength="76" x="290" y="96.5889">makeItems</text><text fill="#000000" font-family="sans-serif" font-size="14" lengthAdjust="spacing" textLength="33" x="290" y="112.8857">build</text></g><!--class TextBuilder--><g id="elem_TextBuilder"><rect codeLine="7" fill="#F1F1F1" height="145.7813" id="TextBuilder" rx="2.5" ry="2.5" style="stroke:#181818;stroke-width:0.5;" width="132" x="34" y="197"/><ellipse cx="58.9" cy="213" fill="#ADD1B2" rx="11" ry="11" style="stroke:#181818;stroke-width:1.0;"/><path d="M61.8688,218.6406 Q61.2906,218.9375 60.65,219.0781 Q60.0094,219.2344 59.3063,219.2344 Q56.8063,219.2344 55.4781,217.5938 Q54.1656,215.9375 54.1656,212.8125 Q54.1656,209.6875 55.4781,208.0313 Q56.8063,206.375 59.3063,206.375 Q60.0094,206.375 60.65,206.5313 Q61.3063,206.6875 61.8688,206.9844 L61.8688,209.7031 Q61.2438,209.125 60.65,208.8594 Q60.0563,208.5781 59.4313,208.5781 Q58.0875,208.5781 57.4,209.6563 Q56.7125,210.7188 56.7125,212.8125 Q56.7125,214.9063 57.4,215.9844 Q58.0875,217.0469 59.4313,217.0469 Q60.0563,217.0469 60.65,216.7813 Q61.2438,216.5 61.8688,215.9219 L61.8688,218.6406 Z " fill="#000000"/><text fill="#000000" font-family="sans-serif" font-size="14" lengthAdjust="spacing" textLength="78" x="75.1" y="217.8467">TextBuilder</text><line style="stroke:#181818;stroke-width:0.5;" x1="35" x2="165" y1="229" y2="229"/><text fill="#000000" font-family="sans-serif" font-size="14" lengthAdjust="spacing" textLength="120" x="40" y="245.9951">sb strings.Builder</text><line style="stroke:#181818;stroke-width:0.5;" x1="35" x2="165" y1="253.2969" y2="253.2969"/><text fill="#000000" font-family="sans-serif" font-size="14" lengthAdjust="spacing" textLength="67" x="40" y="270.292">makeTitle</text><text fill="#000000" font-family="sans-serif" font-size="14" lengthAdjust="spacing" textLength="78" x="40" y="286.5889">makeString</text><text fill="#000000" font-family="sans-serif" font-size="14" lengthAdjust="spacing" textLength="76" x="40" y="302.8857">makeItems</text><text fill="#000000" font-family="sans-serif" font-size="14" lengthAdjust="spacing" textLength="33" x="40" y="319.1826">build</text><text fill="#000000" font-family="sans-serif" font-size="14" lengthAdjust="spacing" textLength="67" x="40" y="335.4795">getResult</text></g><!--class HTMLBuilder--><g id="elem_HTMLBuilder"><rect codeLine="15" fill="#F1F1F1" height="145.7813" id="HTMLBuilder" rx="2.5" ry="2.5" style="stroke:#181818;stroke-width:0.5;" width="132" x="230" y="197"/><ellipse cx="251.3" cy="213" fill="#ADD1B2" rx="11" ry="11" style="stroke:#181818;stroke-width:1.0;"/><path d="M254.2688,218.6406 Q253.6906,218.9375 253.05,219.0781 Q252.4094,219.2344 251.7063,219.2344 Q249.2063,219.2344 247.8781,217.5938 Q246.5656,215.9375 246.5656,212.8125 Q246.5656,209.6875 247.8781,208.0313 Q249.2063,206.375 251.7063,206.375 Q252.4094,206.375 253.05,206.5313 Q253.7063,206.6875 254.2688,206.9844 L254.2688,209.7031 Q253.6438,209.125 253.05,208.8594 Q252.4563,208.5781 251.8313,208.5781 Q250.4875,208.5781 249.8,209.6563 Q249.1125,210.7188 249.1125,212.8125 Q249.1125,214.9063 249.8,215.9844 Q250.4875,217.0469 251.8313,217.0469 Q252.4563,217.0469 253.05,216.7813 Q253.6438,216.5 254.2688,215.9219 L254.2688,218.6406 Z " fill="#000000"/><text fill="#000000" font-family="sans-serif" font-size="14" lengthAdjust="spacing" textLength="86" x="266.7" y="217.8467">HTMLBuilder</text><line style="stroke:#181818;stroke-width:0.5;" x1="231" x2="361" y1="229" y2="229"/><text fill="#000000" font-family="sans-serif" font-size="14" lengthAdjust="spacing" textLength="120" x="236" y="245.9951">sb strings.Builder</text><line style="stroke:#181818;stroke-width:0.5;" x1="231" x2="361" y1="253.2969" y2="253.2969"/><text fill="#000000" font-family="sans-serif" font-size="14" lengthAdjust="spacing" textLength="67" x="236" y="270.292">makeTitle</text><text fill="#000000" font-family="sans-serif" font-size="14" lengthAdjust="spacing" textLength="78" x="236" y="286.5889">makeString</text><text fill="#000000" font-family="sans-serif" font-size="14" lengthAdjust="spacing" textLength="76" x="236" y="302.8857">makeItems</text><text fill="#000000" font-family="sans-serif" font-size="14" lengthAdjust="spacing" textLength="33" x="236" y="319.1826">build</text><text fill="#000000" font-family="sans-serif" font-size="14" lengthAdjust="spacing" textLength="67" x="236" y="335.4795">getResult</text></g><!--class Director--><g id="elem_Director"><rect codeLine="23" fill="#F1F1F1" height="80.5938" id="Director" rx="2.5" ry="2.5" style="stroke:#181818;stroke-width:0.5;" width="111" x="137.5" y="23"/><ellipse cx="163.3" cy="39" fill="#ADD1B2" rx="11" ry="11" style="stroke:#181818;stroke-width:1.0;"/><path d="M166.2688,44.6406 Q165.6906,44.9375 165.05,45.0781 Q164.4094,45.2344 163.7063,45.2344 Q161.2063,45.2344 159.8781,43.5938 Q158.5656,41.9375 158.5656,38.8125 Q158.5656,35.6875 159.8781,34.0313 Q161.2063,32.375 163.7063,32.375 Q164.4094,32.375 165.05,32.5313 Q165.7063,32.6875 166.2688,32.9844 L166.2688,35.7031 Q165.6438,35.125 165.05,34.8594 Q164.4563,34.5781 163.8313,34.5781 Q162.4875,34.5781 161.8,35.6563 Q161.1125,36.7188 161.1125,38.8125 Q161.1125,40.9063 161.8,41.9844 Q162.4875,43.0469 163.8313,43.0469 Q164.4563,43.0469 165.05,42.7813 Q165.6438,42.5 166.2688,41.9219 L166.2688,44.6406 Z " fill="#000000"/><text fill="#000000" font-family="sans-serif" font-size="14" lengthAdjust="spacing" textLength="55" x="179.7" y="43.8467">Director</text><line style="stroke:#181818;stroke-width:0.5;" x1="138.5" x2="247.5" y1="55" y2="55"/><text fill="#000000" font-family="sans-serif" font-size="14" lengthAdjust="spacing" textLength="99" x="143.5" y="71.9951">builder Builder</text><line style="stroke:#181818;stroke-width:0.5;" x1="138.5" x2="247.5" y1="79.2969" y2="79.2969"/><text fill="#000000" font-family="sans-serif" font-size="14" lengthAdjust="spacing" textLength="66" x="143.5" y="96.292">construct</text></g><!--class Main--><g id="elem_Main"><rect fill="#F1F1F1" height="48" id="Main" rx="2.5" ry="2.5" style="stroke:#181818;stroke-width:0.5;" width="64" x="7" y="39.5"/><ellipse cx="22" cy="55.5" fill="#ADD1B2" rx="11" ry="11" style="stroke:#181818;stroke-width:1.0;"/><path d="M24.9688,61.1406 Q24.3906,61.4375 23.75,61.5781 Q23.1094,61.7344 22.4063,61.7344 Q19.9063,61.7344 18.5781,60.0938 Q17.2656,58.4375 17.2656,55.3125 Q17.2656,52.1875 18.5781,50.5313 Q19.9063,48.875 22.4063,48.875 Q23.1094,48.875 23.75,49.0313 Q24.4063,49.1875 24.9688,49.4844 L24.9688,52.2031 Q24.3438,51.625 23.75,51.3594 Q23.1563,51.0781 22.5313,51.0781 Q21.1875,51.0781 20.5,52.1563 Q19.8125,53.2188 19.8125,55.3125 Q19.8125,57.4063 20.5,58.4844 Q21.1875,59.5469 22.5313,59.5469 Q23.1563,59.5469 23.75,59.2813 Q24.3438,59 24.9688,58.4219 L24.9688,61.1406 Z " fill="#000000"/><text fill="#000000" font-family="sans-serif" font-size="14" lengthAdjust="spacing" textLength="32" x="36" y="60.3467">Main</text><line style="stroke:#181818;stroke-width:0.5;" x1="8" x2="70" y1="71.5" y2="71.5"/><line style="stroke:#181818;stroke-width:0.5;" x1="8" x2="70" y1="79.5" y2="79.5"/></g><!--link Main to Director--><g id="link_Main_Director"><path codeLine="28" d="M71.28,63.5 C88.7,63.5 110.78,63.5 131.34,63.5 " fill="none" id="Main-to-Director" style="stroke:#181818;stroke-width:1.0;"/><polygon fill="#181818" points="136.1,63.5,127.1,59.5,131.1,63.5,127.1,67.5,136.1,63.5" style="stroke:#181818;stroke-width:1.0;"/><text fill="#000000" font-family="sans-serif" font-size="13" lengthAdjust="spacing" textLength="30" x="89.25" y="56.5669">uses</text></g><!--link Main to TextBuilder--><g id="link_Main_TextBuilder"><path codeLine="29" d="M46,87.96 C53.51,113.16 65.86,154.56 76.86,191.41 " fill="none" id="Main-to-TextBuilder" style="stroke:#181818;stroke-width:1.0;"/><polygon fill="#181818" points="78.47,195.81,79.7286,186.0419,77.0398,191.0189,72.0628,188.3302,78.47,195.81" style="stroke:#181818;stroke-width:1.0;"/><text fill="#000000" font-family="sans-serif" font-size="13" lengthAdjust="spacing" textLength="60" x="71" y="163.0669">getResult</text></g><!--link Main to HTMLBuilder--><g id="link_Main_HTMLBuilder"><path codeLine="30" d="M68.48,87.96 C106.36,118.1 173.38,171.43 224.9,212.43 " fill="none" id="Main-to-HTMLBuilder" style="stroke:#181818;stroke-width:1.0;"/><polygon fill="#181818" points="228.52,216.1,223.9676,207.3664,224.6073,212.987,218.9867,213.6267,228.52,216.1" style="stroke:#181818;stroke-width:1.0;"/><text fill="#000000" font-family="sans-serif" font-size="13" lengthAdjust="spacing" textLength="60" x="169" y="163.0669">getResult</text></g><!--link Director to Builder--><g id="link_Director_Builder"><path codeLine="31" d="M262.64,63.5 C265.04,63.5 267.43,63.5 269.83,63.5 " fill="none" id="Director-Builder" style="stroke:#181818;stroke-width:1.0;"/><polygon fill="none" points="249.78,63.5,255.78,67.5,261.78,63.5,255.78,59.5,249.78,63.5" style="stroke:#181818;stroke-width:1.0;"/><polygon fill="#181818" points="282.56,63.5,273.56,59.5,277.56,63.5,273.56,67.5,282.56,63.5" style="stroke:#181818;stroke-width:1.0;"/><line style="stroke:#181818;stroke-width:1.0;" x1="277.56" x2="269.56" y1="63.5" y2="63.5"/></g><!--reverse link Builder to TextBuilder--><g id="link_Builder_TextBuilder"><path codeLine="32" d="M283.28,137.14 C275.15,147.71 266.3,158.03 257,167 C254.95,168.97 208.19,199.29 166.23,226.37 " fill="none" id="Builder-backto-TextBuilder" style="stroke:#181818;stroke-width:1.0;stroke-dasharray:7.0,7.0;"/><polygon fill="none" points="277.96,133.55,295.39,121.5,289.28,141.79,277.96,133.55" style="stroke:#181818;stroke-width:1.0;"/></g><!--reverse link Builder to HTMLBuilder--><g id="link_Builder_HTMLBuilder"><path codeLine="33" d="M316.64,141.07 C313.71,159.28 310.58,178.65 307.67,196.67 " fill="none" id="Builder-backto-HTMLBuilder" style="stroke:#181818;stroke-width:1.0;stroke-dasharray:7.0,7.0;"/><polygon fill="none" points="309.89,140.01,319.98,121.38,323.71,142.24,309.89,140.01" style="stroke:#181818;stroke-width:1.0;"/></g><!--SRC=[pP0z3i8m38LdSWfVW1u08GR4019Te1T8KrCYqaIA7GcfzEwqq9yKCJ8m-ZtxlK_Mbj5Vf4BO1cqAz50BWBf2lhgYWKhUCDDiK2ncsfczjkM7U62iADBoBb4qGXb911dUEUwW7EYLGaal_xXucala4r8mFCBii_JuDp0xxL6nUvFaFTKN3ELi2nbKTobIgIqiDzFn2W8XZNhyxbLKElZn1s9_p7FjqW0nBAuVIH8dpuqeyWa0]--></g></svg>