<?xml version="1.0" encoding="us-ascii" standalone="no"?><svg xmlns="http://www.w3.org/2000/svg" xmlns:xlink="http://www.w3.org/1999/xlink" contentStyleType="text/css" height="203px" preserveAspectRatio="none" style="width:283px;height:203px;background:#FFFFFF;" version="1.1" viewBox="0 0 283 203" width="283px" zoomAndPan="magnify"><defs/><g><!--class Prototype--><g id="elem_Prototype"><rect codeLine="1" fill="#F1F1F1" height="64.2969" id="Prototype" rx="2.5" ry="2.5" style="stroke:#181818;stroke-width:0.5;" width="99" x="145" y="7"/><ellipse cx="160" cy="23" fill="#B4A7E5" rx="11" ry="11" style="stroke:#181818;stroke-width:1.0;"/><path d="M155.9219,18.7656 L155.9219,16.6094 L163.3125,16.6094 L163.3125,18.7656 L160.8438,18.7656 L160.8438,26.8438 L163.3125,26.8438 L163.3125,29 L155.9219,29 L155.9219,26.8438 L158.3906,26.8438 L158.3906,18.7656 L155.9219,18.7656 Z " fill="#000000"/><text fill="#000000" font-family="sans-serif" font-size="14" font-style="italic" lengthAdjust="spacing" textLength="67" x="174" y="27.8467">Prototype</text><line style="stroke:#181818;stroke-width:0.5;" x1="146" x2="243" y1="39" y2="39"/><line style="stroke:#181818;stroke-width:0.5;" x1="146" x2="243" y1="47" y2="47"/><text fill="#000000" font-family="sans-serif" font-size="14" lengthAdjust="spacing" textLength="38" x="151" y="63.9951">clone</text></g><!--class ConcretePrototype--><g id="elem_ConcretePrototype"><rect codeLine="4" fill="#F1F1F1" height="64.2969" id="ConcretePrototype" rx="2.5" ry="2.5" style="stroke:#181818;stroke-width:0.5;" width="163" x="113" y="132"/><ellipse cx="128" cy="148" fill="#ADD1B2" rx="11" ry="11" style="stroke:#181818;stroke-width:1.0;"/><path d="M130.9688,153.6406 Q130.3906,153.9375 129.75,154.0781 Q129.1094,154.2344 128.4063,154.2344 Q125.9063,154.2344 124.5781,152.5938 Q123.2656,150.9375 123.2656,147.8125 Q123.2656,144.6875 124.5781,143.0313 Q125.9063,141.375 128.4063,141.375 Q129.1094,141.375 129.75,141.5313 Q130.4063,141.6875 130.9688,141.9844 L130.9688,144.7031 Q130.3438,144.125 129.75,143.8594 Q129.1563,143.5781 128.5313,143.5781 Q127.1875,143.5781 126.5,144.6563 Q125.8125,145.7188 125.8125,147.8125 Q125.8125,149.9063 126.5,150.9844 Q127.1875,152.0469 128.5313,152.0469 Q129.1563,152.0469 129.75,151.7813 Q130.3438,151.5 130.9688,150.9219 L130.9688,153.6406 Z " fill="#000000"/><text fill="#000000" font-family="sans-serif" font-size="14" lengthAdjust="spacing" textLength="131" x="142" y="152.8467">ConcretePrototype</text><line style="stroke:#181818;stroke-width:0.5;" x1="114" x2="275" y1="164" y2="164"/><line style="stroke:#181818;stroke-width:0.5;" x1="114" x2="275" y1="172" y2="172"/><text fill="#000000" font-family="sans-serif" font-size="14" lengthAdjust="spacing" textLength="38" x="119" y="188.9951">clone</text></g><!--class Client--><g id="elem_Client"><rect fill="#F1F1F1" height="48" id="Client" rx="2.5" ry="2.5" style="stroke:#181818;stroke-width:0.5;" width="71" x="7" y="15"/><ellipse cx="22" cy="31" fill="#ADD1B2" rx="11" ry="11" style="stroke:#181818;stroke-width:1.0;"/><path d="M24.9688,36.6406 Q24.3906,36.9375 23.75,37.0781 Q23.1094,37.2344 22.4063,37.2344 Q19.9063,37.2344 18.5781,35.5938 Q17.2656,33.9375 17.2656,30.8125 Q17.2656,27.6875 18.5781,26.0313 Q19.9063,24.375 22.4063,24.375 Q23.1094,24.375 23.75,24.5313 Q24.4063,24.6875 24.9688,24.9844 L24.9688,27.7031 Q24.3438,27.125 23.75,26.8594 Q23.1563,26.5781 22.5313,26.5781 Q21.1875,26.5781 20.5,27.6563 Q19.8125,28.7188 19.8125,30.8125 Q19.8125,32.9063 20.5,33.9844 Q21.1875,35.0469 22.5313,35.0469 Q23.1563,35.0469 23.75,34.7813 Q24.3438,34.5 24.9688,33.9219 L24.9688,36.6406 Z " fill="#000000"/><text fill="#000000" font-family="sans-serif" font-size="14" lengthAdjust="spacing" textLength="39" x="36" y="35.8467">Client</text><line style="stroke:#181818;stroke-width:0.5;" x1="8" x2="77" y1="47" y2="47"/><line style="stroke:#181818;stroke-width:0.5;" x1="8" x2="77" y1="55" y2="55"/></g><!--link Client to Prototype--><g id="link_Client_Prototype"><path codeLine="8" d="M78.14,39 C96.19,39 118.51,39 138.77,39 " fill="none" id="Client-to-Prototype" style="stroke:#181818;stroke-width:1.0;"/><polygon fill="#181818" points="143.7,39,134.7,35,138.7,39,134.7,43,143.7,39" style="stroke:#181818;stroke-width:1.0;"/><text fill="#000000" font-family="sans-serif" font-size="13" lengthAdjust="spacing" textLength="30" x="96.5" y="32.0669">uses</text></g><!--reverse link Prototype to ConcretePrototype--><g id="link_Prototype_ConcretePrototype"><path codeLine="9" d="M194.5,92.25 C194.5,105.68 194.5,119.71 194.5,131.7 " fill="none" id="Prototype-backto-ConcretePrototype" style="stroke:#181818;stroke-width:1.0;"/><polygon fill="none" points="187.5,92.36,194.5,72.36,201.5,92.36,187.5,92.36" style="stroke:#181818;stroke-width:1.0;"/></g><!--SRC=[oymhIIrAIqnELGWeoY_9BwaiI5Mevb9GgCvDBSd8JwbLICx9pqlbgkLApaaiBbPmpizBBaejIIMWcCiv9pCrhqH1rmx9M2k5qkBKOYw4W4sDhYwcYG00]--></g></svg>
