<?xml version="1.0" encoding="us-ascii" standalone="no"?><svg xmlns="http://www.w3.org/2000/svg" xmlns:xlink="http://www.w3.org/1999/xlink" contentStyleType="text/css" height="269px" preserveAspectRatio="none" style="width:324px;height:269px;background:#FFFFFF;" version="1.1" viewBox="0 0 324 269" width="324px" zoomAndPan="magnify"><defs/><g><!--class Inode--><g id="elem_Inode"><rect codeLine="1" fill="#F1F1F1" height="80.5938" id="Inode" rx="2.5" ry="2.5" style="stroke:#181818;stroke-width:0.5;" width="71" x="145" y="7"/><ellipse cx="160" cy="23" fill="#B4A7E5" rx="11" ry="11" style="stroke:#181818;stroke-width:1.0;"/><path d="M155.9219,18.7656 L155.9219,16.6094 L163.3125,16.6094 L163.3125,18.7656 L160.8438,18.7656 L160.8438,26.8438 L163.3125,26.8438 L163.3125,29 L155.9219,29 L155.9219,26.8438 L158.3906,26.8438 L158.3906,18.7656 L155.9219,18.7656 Z " fill="#000000"/><text fill="#000000" font-family="sans-serif" font-size="14" font-style="italic" lengthAdjust="spacing" textLength="39" x="174" y="27.8467">Inode</text><line style="stroke:#181818;stroke-width:0.5;" x1="146" x2="215" y1="39" y2="39"/><line style="stroke:#181818;stroke-width:0.5;" x1="146" x2="215" y1="47" y2="47"/><text fill="#000000" font-family="sans-serif" font-size="14" lengthAdjust="spacing" textLength="31" x="151" y="63.9951">print</text><text fill="#000000" font-family="sans-serif" font-size="14" lengthAdjust="spacing" textLength="40" x="151" y="80.292">Clone</text></g><!--class File--><g id="elem_File"><rect codeLine="6" fill="#F1F1F1" height="96.8906" id="File" rx="2.5" ry="2.5" style="stroke:#181818;stroke-width:0.5;" width="100" x="56.5" y="157"/><ellipse cx="91.75" cy="173" fill="#ADD1B2" rx="11" ry="11" style="stroke:#181818;stroke-width:1.0;"/><path d="M94.7188,178.6406 Q94.1406,178.9375 93.5,179.0781 Q92.8594,179.2344 92.1563,179.2344 Q89.6563,179.2344 88.3281,177.5938 Q87.0156,175.9375 87.0156,172.8125 Q87.0156,169.6875 88.3281,168.0313 Q89.6563,166.375 92.1563,166.375 Q92.8594,166.375 93.5,166.5313 Q94.1563,166.6875 94.7188,166.9844 L94.7188,169.7031 Q94.0938,169.125 93.5,168.8594 Q92.9063,168.5781 92.2813,168.5781 Q90.9375,168.5781 90.25,169.6563 Q89.5625,170.7188 89.5625,172.8125 Q89.5625,174.9063 90.25,175.9844 Q90.9375,177.0469 92.2813,177.0469 Q92.9063,177.0469 93.5,176.7813 Q94.0938,176.5 94.7188,175.9219 L94.7188,178.6406 Z " fill="#000000"/><text fill="#000000" font-family="sans-serif" font-size="14" lengthAdjust="spacing" textLength="23" x="110.25" y="177.8467">File</text><line style="stroke:#181818;stroke-width:0.5;" x1="57.5" x2="155.5" y1="189" y2="189"/><text fill="#000000" font-family="sans-serif" font-size="14" lengthAdjust="spacing" textLength="39" x="62.5" y="205.9951">name</text><line style="stroke:#181818;stroke-width:0.5;" x1="57.5" x2="155.5" y1="213.2969" y2="213.2969"/><text fill="#000000" font-family="sans-serif" font-size="14" lengthAdjust="spacing" textLength="31" x="62.5" y="230.292">print</text><text fill="#000000" font-family="sans-serif" font-size="14" lengthAdjust="spacing" textLength="88" x="62.5" y="246.5889">Clone: Inode</text></g><!--class Folder--><g id="elem_Folder"><rect codeLine="12" fill="#F1F1F1" height="113.1875" id="Folder" rx="2.5" ry="2.5" style="stroke:#181818;stroke-width:0.5;" width="125" x="192" y="149"/><ellipse cx="229.5" cy="165" fill="#ADD1B2" rx="11" ry="11" style="stroke:#181818;stroke-width:1.0;"/><path d="M232.4688,170.6406 Q231.8906,170.9375 231.25,171.0781 Q230.6094,171.2344 229.9063,171.2344 Q227.4063,171.2344 226.0781,169.5938 Q224.7656,167.9375 224.7656,164.8125 Q224.7656,161.6875 226.0781,160.0313 Q227.4063,158.375 229.9063,158.375 Q230.6094,158.375 231.25,158.5313 Q231.9063,158.6875 232.4688,158.9844 L232.4688,161.7031 Q231.8438,161.125 231.25,160.8594 Q230.6563,160.5781 230.0313,160.5781 Q228.6875,160.5781 228,161.6563 Q227.3125,162.7188 227.3125,164.8125 Q227.3125,166.9063 228,167.9844 Q228.6875,169.0469 230.0313,169.0469 Q230.6563,169.0469 231.25,168.7813 Q231.8438,168.5 232.4688,167.9219 L232.4688,170.6406 Z " fill="#000000"/><text fill="#000000" font-family="sans-serif" font-size="14" lengthAdjust="spacing" textLength="43" x="248.5" y="169.8467">Folder</text><line style="stroke:#181818;stroke-width:0.5;" x1="193" x2="316" y1="181" y2="181"/><text fill="#000000" font-family="sans-serif" font-size="14" lengthAdjust="spacing" textLength="39" x="198" y="197.9951">name</text><text fill="#000000" font-family="sans-serif" font-size="14" lengthAdjust="spacing" textLength="113" x="198" y="214.292">children: Inode[]</text><line style="stroke:#181818;stroke-width:0.5;" x1="193" x2="316" y1="221.5938" y2="221.5938"/><text fill="#000000" font-family="sans-serif" font-size="14" lengthAdjust="spacing" textLength="31" x="198" y="238.5889">print</text><text fill="#000000" font-family="sans-serif" font-size="14" lengthAdjust="spacing" textLength="88" x="198" y="254.8857">Clone: Inode</text></g><!--class Client--><g id="elem_Client"><rect fill="#F1F1F1" height="48" id="Client" rx="2.5" ry="2.5" style="stroke:#181818;stroke-width:0.5;" width="71" x="7" y="23.5"/><ellipse cx="22" cy="39.5" fill="#ADD1B2" rx="11" ry="11" style="stroke:#181818;stroke-width:1.0;"/><path d="M24.9688,45.1406 Q24.3906,45.4375 23.75,45.5781 Q23.1094,45.7344 22.4063,45.7344 Q19.9063,45.7344 18.5781,44.0938 Q17.2656,42.4375 17.2656,39.3125 Q17.2656,36.1875 18.5781,34.5313 Q19.9063,32.875 22.4063,32.875 Q23.1094,32.875 23.75,33.0313 Q24.4063,33.1875 24.9688,33.4844 L24.9688,36.2031 Q24.3438,35.625 23.75,35.3594 Q23.1563,35.0781 22.5313,35.0781 Q21.1875,35.0781 20.5,36.1563 Q19.8125,37.2188 19.8125,39.3125 Q19.8125,41.4063 20.5,42.4844 Q21.1875,43.5469 22.5313,43.5469 Q23.1563,43.5469 23.75,43.2813 Q24.3438,43 24.9688,42.4219 L24.9688,45.1406 Z " fill="#000000"/><text fill="#000000" font-family="sans-serif" font-size="14" lengthAdjust="spacing" textLength="39" x="36" y="44.3467">Client</text><line style="stroke:#181818;stroke-width:0.5;" x1="8" x2="77" y1="55.5" y2="55.5"/><line style="stroke:#181818;stroke-width:0.5;" x1="8" x2="77" y1="63.5" y2="63.5"/></g><!--link Client to Inode--><g id="link_Client_Inode"><path codeLine="19" d="M78.4,47.5 C96.93,47.5 119.63,47.5 138.91,47.5 " fill="none" id="Client-to-Inode" style="stroke:#181818;stroke-width:1.0;"/><polygon fill="#181818" points="143.78,47.5,134.78,43.5,138.78,47.5,134.78,51.5,143.78,47.5" style="stroke:#181818;stroke-width:1.0;"/><text fill="#000000" font-family="sans-serif" font-size="13" lengthAdjust="spacing" textLength="30" x="96.5" y="40.5669">uses</text></g><!--reverse link Inode to File--><g id="link_Inode_File"><path codeLine="20" d="M152.71,107.09 C144.94,123.47 136.59,141.07 129.15,156.74 " fill="none" id="Inode-backto-File" style="stroke:#181818;stroke-width:1.0;"/><polygon fill="none" points="146.74,104.34,161.64,89.27,159.39,110.34,146.74,104.34" style="stroke:#181818;stroke-width:1.0;"/></g><!--reverse link Inode to Folder--><g id="link_Inode_Folder"><path codeLine="21" d="M208.17,106.84 C214.66,120.51 221.56,135.05 227.99,148.62 " fill="none" id="Inode-backto-Folder" style="stroke:#181818;stroke-width:1.0;"/><polygon fill="none" points="201.61,110.34,199.36,89.27,214.26,104.34,201.61,110.34" style="stroke:#181818;stroke-width:1.0;"/></g><!--SRC=[oymhIIrAIqnELV3Coqz9LQZcKb2epaqjoSXFgLKeAChCAq4MSCx9pqlbgkNYIiv9B2vMSClCWUZ8IynD9QpH2c87alxyd9JK8cGJaZCoSrAAKlEWIgDZIJBLEISpDQz4GTSEwXahXTBYr68k2CUcHbSNx68KFjW50000]--></g></svg>