<?xml version="1.0" encoding="us-ascii" standalone="no"?><svg xmlns="http://www.w3.org/2000/svg" xmlns:xlink="http://www.w3.org/1999/xlink" contentStyleType="text/css" height="267px" preserveAspectRatio="none" style="width:387px;height:267px;background:#FFFFFF;" version="1.1" viewBox="0 0 387 267" width="387px" zoomAndPan="magnify"><defs/><g><!--class Originator--><g id="elem_Originator"><rect codeLine="2" fill="#F1F1F1" height="96.8906" id="Originator" rx="2.5" ry="2.5" style="stroke:#181818;stroke-width:0.5;" width="228" x="7" y="164"/><ellipse cx="83.25" cy="180" fill="#ADD1B2" rx="11" ry="11" style="stroke:#181818;stroke-width:1.0;"/><path d="M86.2188,185.6406 Q85.6406,185.9375 85,186.0781 Q84.3594,186.2344 83.6563,186.2344 Q81.1563,186.2344 79.8281,184.5938 Q78.5156,182.9375 78.5156,179.8125 Q78.5156,176.6875 79.8281,175.0313 Q81.1563,173.375 83.6563,173.375 Q84.3594,173.375 85,173.5313 Q85.6563,173.6875 86.2188,173.9844 L86.2188,176.7031 Q85.5938,176.125 85,175.8594 Q84.4063,175.5781 83.7813,175.5781 Q82.4375,175.5781 81.75,176.6563 Q81.0625,177.7188 81.0625,179.8125 Q81.0625,181.9063 81.75,182.9844 Q82.4375,184.0469 83.7813,184.0469 Q84.4063,184.0469 85,183.7813 Q85.5938,183.5 86.2188,182.9219 L86.2188,185.6406 Z " fill="#000000"/><text fill="#000000" font-family="sans-serif" font-size="14" lengthAdjust="spacing" textLength="67" x="103.75" y="184.8467">Originator</text><line style="stroke:#181818;stroke-width:0.5;" x1="8" x2="234" y1="196" y2="196"/><rect fill="none" height="6" style="stroke:#C82930;stroke-width:1.0;" width="6" x="15" y="206.6484"/><text fill="#000000" font-family="sans-serif" font-size="14" lengthAdjust="spacing" textLength="84" x="27" y="212.9951">state: String</text><line style="stroke:#181818;stroke-width:0.5;" x1="8" x2="234" y1="220.2969" y2="220.2969"/><ellipse cx="18" cy="233.9453" fill="#84BE84" rx="3" ry="3" style="stroke:#038048;stroke-width:1.0;"/><text fill="#000000" font-family="sans-serif" font-size="14" lengthAdjust="spacing" textLength="117" x="27" y="237.292">save(): Memento</text><ellipse cx="18" cy="250.2422" fill="#84BE84" rx="3" ry="3" style="stroke:#038048;stroke-width:1.0;"/><text fill="#000000" font-family="sans-serif" font-size="14" lengthAdjust="spacing" textLength="202" x="27" y="253.5889">restore(memento: Memento)</text></g><!--class Memento--><g id="elem_Memento"><rect codeLine="8" fill="#F1F1F1" height="64.2969" id="Memento" rx="2.5" ry="2.5" style="stroke:#181818;stroke-width:0.5;" width="110" x="270" y="180.5"/><ellipse cx="290.4" cy="196.5" fill="#ADD1B2" rx="11" ry="11" style="stroke:#181818;stroke-width:1.0;"/><path d="M293.3688,202.1406 Q292.7906,202.4375 292.15,202.5781 Q291.5094,202.7344 290.8063,202.7344 Q288.3063,202.7344 286.9781,201.0938 Q285.6656,199.4375 285.6656,196.3125 Q285.6656,193.1875 286.9781,191.5313 Q288.3063,189.875 290.8063,189.875 Q291.5094,189.875 292.15,190.0313 Q292.8063,190.1875 293.3688,190.4844 L293.3688,193.2031 Q292.7438,192.625 292.15,192.3594 Q291.5563,192.0781 290.9313,192.0781 Q289.5875,192.0781 288.9,193.1563 Q288.2125,194.2188 288.2125,196.3125 Q288.2125,198.4063 288.9,199.4844 Q289.5875,200.5469 290.9313,200.5469 Q291.5563,200.5469 292.15,200.2813 Q292.7438,200 293.3688,199.4219 L293.3688,202.1406 Z " fill="#000000"/><text fill="#000000" font-family="sans-serif" font-size="14" lengthAdjust="spacing" textLength="66" x="305.6" y="201.3467">Memento</text><line style="stroke:#181818;stroke-width:0.5;" x1="271" x2="379" y1="212.5" y2="212.5"/><rect fill="none" height="6" style="stroke:#C82930;stroke-width:1.0;" width="6" x="278" y="223.1484"/><text fill="#000000" font-family="sans-serif" font-size="14" lengthAdjust="spacing" textLength="84" x="290" y="229.4951">state: String</text><line style="stroke:#181818;stroke-width:0.5;" x1="271" x2="379" y1="236.7969" y2="236.7969"/></g><!--class Caretaker--><g id="elem_Caretaker"><rect codeLine="12" fill="#F1F1F1" height="96.8906" id="Caretaker" rx="2.5" ry="2.5" style="stroke:#181818;stroke-width:0.5;" width="167" x="139.5" y="7"/><ellipse cx="185.25" cy="23" fill="#ADD1B2" rx="11" ry="11" style="stroke:#181818;stroke-width:1.0;"/><path d="M188.2188,28.6406 Q187.6406,28.9375 187,29.0781 Q186.3594,29.2344 185.6563,29.2344 Q183.1563,29.2344 181.8281,27.5938 Q180.5156,25.9375 180.5156,22.8125 Q180.5156,19.6875 181.8281,18.0313 Q183.1563,16.375 185.6563,16.375 Q186.3594,16.375 187,16.5313 Q187.6563,16.6875 188.2188,16.9844 L188.2188,19.7031 Q187.5938,19.125 187,18.8594 Q186.4063,18.5781 185.7813,18.5781 Q184.4375,18.5781 183.75,19.6563 Q183.0625,20.7188 183.0625,22.8125 Q183.0625,24.9063 183.75,25.9844 Q184.4375,27.0469 185.7813,27.0469 Q186.4063,27.0469 187,26.7813 Q187.5938,26.5 188.2188,25.9219 L188.2188,28.6406 Z " fill="#000000"/><text fill="#000000" font-family="sans-serif" font-size="14" lengthAdjust="spacing" textLength="67" x="205.75" y="27.8467">Caretaker</text><line style="stroke:#181818;stroke-width:0.5;" x1="140.5" x2="305.5" y1="39" y2="39"/><rect fill="none" height="6" style="stroke:#C82930;stroke-width:1.0;" width="6" x="147.5" y="49.6484"/><text fill="#000000" font-family="sans-serif" font-size="14" lengthAdjust="spacing" textLength="141" x="159.5" y="55.9951">originator: Originator</text><rect fill="none" height="6" style="stroke:#C82930;stroke-width:1.0;" width="6" x="147.5" y="65.9453"/><text fill="#000000" font-family="sans-serif" font-size="14" lengthAdjust="spacing" textLength="131" x="159.5" y="72.292">history: Memento[]</text><line style="stroke:#181818;stroke-width:0.5;" x1="140.5" x2="305.5" y1="79.5938" y2="79.5938"/><ellipse cx="150.5" cy="93.2422" fill="#84BE84" rx="3" ry="3" style="stroke:#038048;stroke-width:1.0;"/><text fill="#000000" font-family="sans-serif" font-size="14" lengthAdjust="spacing" textLength="46" x="159.5" y="96.5889">undo()</text></g><!--link Originator to Memento--><g id="link_Originator_Memento"><path codeLine="18" d="M235.23,213 C235.23,213 263.91,213 263.91,213 " fill="none" id="Originator-to-Memento" style="stroke:#181818;stroke-width:1.0;"/><polygon fill="#181818" points="268.91,213,259.91,209,263.91,213,259.91,217,268.91,213" style="stroke:#181818;stroke-width:1.0;"/><text fill="#000000" font-family="sans-serif" font-size="13" lengthAdjust="spacing" textLength="30" x="234.57" y="226.0669">save</text></g><!--link Caretaker to Memento--><g id="link_Caretaker_Memento"><path codeLine="19" d="M288.25,118.32 C288.25,118.32 288.25,166.09 288.25,166.09 " fill="none" id="Caretaker-Memento" style="stroke:#181818;stroke-width:1.0;"/><polygon fill="none" points="288.25,105.32,284.25,111.32,288.25,117.32,292.25,111.32,288.25,105.32" style="stroke:#181818;stroke-width:1.0;"/><polygon fill="#181818" points="288.25,179.09,292.25,170.09,288.25,174.09,284.25,170.09,288.25,179.09" style="stroke:#181818;stroke-width:1.0;"/><line style="stroke:#181818;stroke-width:1.0;" x1="288.25" x2="288.25" y1="174.09" y2="166.09"/></g><!--link Caretaker to Originator--><g id="link_Caretaker_Originator"><path codeLine="20" d="M187.25,104.32 C187.25,104.32 187.25,157.72 187.25,157.72 " fill="none" id="Caretaker-to-Originator" style="stroke:#181818;stroke-width:1.0;"/><polygon fill="#181818" points="187.25,162.72,191.2757,153.7315,187.2643,157.72,183.2757,153.7086,187.25,162.72" style="stroke:#181818;stroke-width:1.0;"/><text fill="#000000" font-family="sans-serif" font-size="13" lengthAdjust="spacing" textLength="32" x="154.25" y="127.0869">undo</text></g><!--SRC=[RO-n3i8m34JtV8N7LYW_a8656NLWH0mMM6tKDguIWrGX_fqqj6a6DkkTVNSElNKJUXnXi8vadWZOIyVgFc08q7ZRMeV27juAG4CG539m4MzT6ya10hwegWsSQIGdd9Yd44-e6dyiYxNwgDLv9Nzjyz89FGdsjALphcEAQadgx18vvwZhBJLvkWTNARPuHSUn4ttSTarwGkrfl6i5rP4sHOF5-mi0]--></g></svg>