<?xml version="1.0" encoding="us-ascii" standalone="no"?><svg xmlns="http://www.w3.org/2000/svg" xmlns:xlink="http://www.w3.org/1999/xlink" contentStyleType="text/css" height="316px" preserveAspectRatio="none" style="width:618px;height:316px;background:#FFFFFF;" version="1.1" viewBox="0 0 618 316" width="618px" zoomAndPan="magnify"><defs/><g><!--class Editor--><g id="elem_Editor"><rect codeLine="2" fill="#F1F1F1" height="129.4844" id="Editor" rx="2.5" ry="2.5" style="stroke:#181818;stroke-width:0.5;" width="287" x="7" y="180"/><ellipse cx="126.25" cy="196" fill="#ADD1B2" rx="11" ry="11" style="stroke:#181818;stroke-width:1.0;"/><path d="M129.2188,201.6406 Q128.6406,201.9375 128,202.0781 Q127.3594,202.2344 126.6563,202.2344 Q124.1563,202.2344 122.8281,200.5938 Q121.5156,198.9375 121.5156,195.8125 Q121.5156,192.6875 122.8281,191.0313 Q124.1563,189.375 126.6563,189.375 Q127.3594,189.375 128,189.5313 Q128.6563,189.6875 129.2188,189.9844 L129.2188,192.7031 Q128.5938,192.125 128,191.8594 Q127.4063,191.5781 126.7813,191.5781 Q125.4375,191.5781 124.75,192.6563 Q124.0625,193.7188 124.0625,195.8125 Q124.0625,197.9063 124.75,198.9844 Q125.4375,200.0469 126.7813,200.0469 Q127.4063,200.0469 128,199.7813 Q128.5938,199.5 129.2188,198.9219 L129.2188,201.6406 Z " fill="#000000"/><text fill="#000000" font-family="sans-serif" font-size="14" lengthAdjust="spacing" textLength="40" x="146.75" y="200.8467">Editor</text><line style="stroke:#181818;stroke-width:0.5;" x1="8" x2="293" y1="212" y2="212"/><rect fill="none" height="6" style="stroke:#C82930;stroke-width:1.0;" width="6" x="15" y="222.6484"/><text fill="#000000" font-family="sans-serif" font-size="14" lengthAdjust="spacing" textLength="74" x="27" y="228.9951">text: string</text><line style="stroke:#181818;stroke-width:0.5;" x1="8" x2="293" y1="236.2969" y2="236.2969"/><ellipse cx="18" cy="249.9453" fill="#84BE84" rx="3" ry="3" style="stroke:#038048;stroke-width:1.0;"/><text fill="#000000" font-family="sans-serif" font-size="14" lengthAdjust="spacing" textLength="122" x="27" y="253.292">CreateMemento()</text><ellipse cx="18" cy="266.2422" fill="#84BE84" rx="3" ry="3" style="stroke:#038048;stroke-width:1.0;"/><text fill="#000000" font-family="sans-serif" font-size="14" lengthAdjust="spacing" textLength="261" x="27" y="269.5889">RestoreMemento(m *EditorMemento)</text><ellipse cx="18" cy="282.5391" fill="#84BE84" rx="3" ry="3" style="stroke:#038048;stroke-width:1.0;"/><text fill="#000000" font-family="sans-serif" font-size="14" lengthAdjust="spacing" textLength="132" x="27" y="285.8857">SetText(text string)</text><ellipse cx="18" cy="298.8359" fill="#84BE84" rx="3" ry="3" style="stroke:#038048;stroke-width:1.0;"/><text fill="#000000" font-family="sans-serif" font-size="14" lengthAdjust="spacing" textLength="78" x="27" y="302.1826">ShowText()</text></g><!--class EditorMemento--><g id="elem_EditorMemento"><rect codeLine="10" fill="#F1F1F1" height="64.2969" id="EditorMemento" rx="2.5" ry="2.5" style="stroke:#181818;stroke-width:0.5;" width="138" x="335.5" y="212.5"/><ellipse cx="350.5" cy="228.5" fill="#ADD1B2" rx="11" ry="11" style="stroke:#181818;stroke-width:1.0;"/><path d="M353.4688,234.1406 Q352.8906,234.4375 352.25,234.5781 Q351.6094,234.7344 350.9063,234.7344 Q348.4063,234.7344 347.0781,233.0938 Q345.7656,231.4375 345.7656,228.3125 Q345.7656,225.1875 347.0781,223.5313 Q348.4063,221.875 350.9063,221.875 Q351.6094,221.875 352.25,222.0313 Q352.9063,222.1875 353.4688,222.4844 L353.4688,225.2031 Q352.8438,224.625 352.25,224.3594 Q351.6563,224.0781 351.0313,224.0781 Q349.6875,224.0781 349,225.1563 Q348.3125,226.2188 348.3125,228.3125 Q348.3125,230.4063 349,231.4844 Q349.6875,232.5469 351.0313,232.5469 Q351.6563,232.5469 352.25,232.2813 Q352.8438,232 353.4688,231.4219 L353.4688,234.1406 Z " fill="#000000"/><text fill="#000000" font-family="sans-serif" font-size="14" lengthAdjust="spacing" textLength="106" x="364.5" y="233.3467">EditorMemento</text><line style="stroke:#181818;stroke-width:0.5;" x1="336.5" x2="472.5" y1="244.5" y2="244.5"/><rect fill="none" height="6" style="stroke:#C82930;stroke-width:1.0;" width="6" x="343.5" y="255.1484"/><text fill="#000000" font-family="sans-serif" font-size="14" lengthAdjust="spacing" textLength="74" x="355.5" y="261.4951">text: string</text><line style="stroke:#181818;stroke-width:0.5;" x1="336.5" x2="472.5" y1="268.7969" y2="268.7969"/></g><!--class History--><g id="elem_History"><rect codeLine="14" fill="#F1F1F1" height="113.1875" id="History" rx="2.5" ry="2.5" style="stroke:#181818;stroke-width:0.5;" width="402" x="209.5" y="7"/><ellipse cx="382.75" cy="23" fill="#ADD1B2" rx="11" ry="11" style="stroke:#181818;stroke-width:1.0;"/><path d="M385.7188,28.6406 Q385.1406,28.9375 384.5,29.0781 Q383.8594,29.2344 383.1563,29.2344 Q380.6563,29.2344 379.3281,27.5938 Q378.0156,25.9375 378.0156,22.8125 Q378.0156,19.6875 379.3281,18.0313 Q380.6563,16.375 383.1563,16.375 Q383.8594,16.375 384.5,16.5313 Q385.1563,16.6875 385.7188,16.9844 L385.7188,19.7031 Q385.0938,19.125 384.5,18.8594 Q383.9063,18.5781 383.2813,18.5781 Q381.9375,18.5781 381.25,19.6563 Q380.5625,20.7188 380.5625,22.8125 Q380.5625,24.9063 381.25,25.9844 Q381.9375,27.0469 383.2813,27.0469 Q383.9063,27.0469 384.5,26.7813 Q385.0938,26.5 385.7188,25.9219 L385.7188,28.6406 Z " fill="#000000"/><text fill="#000000" font-family="sans-serif" font-size="14" lengthAdjust="spacing" textLength="47" x="403.25" y="27.8467">History</text><line style="stroke:#181818;stroke-width:0.5;" x1="210.5" x2="610.5" y1="39" y2="39"/><rect fill="none" height="6" style="stroke:#C82930;stroke-width:1.0;" width="6" x="217.5" y="49.6484"/><text fill="#000000" font-family="sans-serif" font-size="14" lengthAdjust="spacing" textLength="207" x="229.5" y="55.9951">mementos: []*EditorMemento</text><line style="stroke:#181818;stroke-width:0.5;" x1="210.5" x2="610.5" y1="63.2969" y2="63.2969"/><ellipse cx="220.5" cy="76.9453" fill="#84BE84" rx="3" ry="3" style="stroke:#038048;stroke-width:1.0;"/><text fill="#000000" font-family="sans-serif" font-size="14" lengthAdjust="spacing" textLength="233" x="229.5" y="80.292">AddMemento(m *EditorMemento)</text><ellipse cx="220.5" cy="93.2422" fill="#84BE84" rx="3" ry="3" style="stroke:#038048;stroke-width:1.0;"/><text fill="#000000" font-family="sans-serif" font-size="14" lengthAdjust="spacing" textLength="276" x="229.5" y="96.5889">GetMemento(index int) *EditorMemento</text><ellipse cx="220.5" cy="109.5391" fill="#84BE84" rx="3" ry="3" style="stroke:#038048;stroke-width:1.0;"/><text fill="#000000" font-family="sans-serif" font-size="14" lengthAdjust="spacing" textLength="376" x="229.5" y="112.8857">GetLastMemento(m *EditorMemento) *EditorMemento</text></g><!--class clinet--><g id="elem_clinet"><rect fill="#F1F1F1" height="48" id="clinet" rx="2.5" ry="2.5" style="stroke:#181818;stroke-width:0.5;" width="69" x="105" y="39.5"/><ellipse cx="120" cy="55.5" fill="#ADD1B2" rx="11" ry="11" style="stroke:#181818;stroke-width:1.0;"/><path d="M122.9688,61.1406 Q122.3906,61.4375 121.75,61.5781 Q121.1094,61.7344 120.4063,61.7344 Q117.9063,61.7344 116.5781,60.0938 Q115.2656,58.4375 115.2656,55.3125 Q115.2656,52.1875 116.5781,50.5313 Q117.9063,48.875 120.4063,48.875 Q121.1094,48.875 121.75,49.0313 Q122.4063,49.1875 122.9688,49.4844 L122.9688,52.2031 Q122.3438,51.625 121.75,51.3594 Q121.1563,51.0781 120.5313,51.0781 Q119.1875,51.0781 118.5,52.1563 Q117.8125,53.2188 117.8125,55.3125 Q117.8125,57.4063 118.5,58.4844 Q119.1875,59.5469 120.5313,59.5469 Q121.1563,59.5469 121.75,59.2813 Q122.3438,59 122.9688,58.4219 L122.9688,61.1406 Z " fill="#000000"/><text fill="#000000" font-family="sans-serif" font-size="14" lengthAdjust="spacing" textLength="37" x="134" y="60.3467">clinet</text><line style="stroke:#181818;stroke-width:0.5;" x1="106" x2="173" y1="71.5" y2="71.5"/><line style="stroke:#181818;stroke-width:0.5;" x1="106" x2="173" y1="79.5" y2="79.5"/></g><!--link Editor to EditorMemento--><g id="link_Editor_EditorMemento"><path codeLine="21" d="M294.2,245 C294.2,245 329.07,245 329.07,245 " fill="none" id="Editor-to-EditorMemento" style="stroke:#181818;stroke-width:1.0;"/><polygon fill="#181818" points="334.07,245,325.07,241,329.07,245,325.07,249,334.07,245" style="stroke:#181818;stroke-width:1.0;"/></g><!--link History to EditorMemento--><g id="link_History_EditorMemento"><path codeLine="22" d="M404.5,134.27 C404.5,134.27 404.5,198.17 404.5,198.17 " fill="none" id="History-EditorMemento" style="stroke:#181818;stroke-width:1.0;"/><polygon fill="none" points="404.5,121.27,400.5,127.27,404.5,133.27,408.5,127.27,404.5,121.27" style="stroke:#181818;stroke-width:1.0;"/><polygon fill="#181818" points="404.5,211.17,408.5,202.17,404.5,206.17,400.5,202.17,404.5,211.17" style="stroke:#181818;stroke-width:1.0;"/><line style="stroke:#181818;stroke-width:1.0;" x1="404.5" x2="404.5" y1="206.17" y2="198.17"/></g><!--link clinet to History--><g id="link_clinet_History"><path codeLine="23" d="M174.37,64 C174.37,64 203.05,64 203.05,64 " fill="none" id="clinet-to-History" style="stroke:#181818;stroke-width:1.0;"/><polygon fill="#181818" points="208.05,64,199.05,60,203.05,64,199.05,68,208.05,64" style="stroke:#181818;stroke-width:1.0;"/></g><!--link clinet to Editor--><g id="link_clinet_Editor"><path codeLine="24" d="M139.5,87.91 C139.5,87.91 139.5,173.66 139.5,173.66 " fill="none" id="clinet-to-Editor" style="stroke:#181818;stroke-width:1.0;"/><polygon fill="#181818" points="139.5,178.66,143.5,169.66,139.5,173.66,135.5,169.66,139.5,178.66" style="stroke:#181818;stroke-width:1.0;"/><text fill="#000000" font-family="sans-serif" font-size="13" lengthAdjust="spacing" textLength="110" x="28.5" y="126.8569">RestoreMemento</text></g><!--SRC=[VP7D3e8m48JlVOezWeONu61YZD63NjIRyT3G3JHAIzfDW1ZVNNvA3Q1UPx-PpdRjNQg26vx3Gogaka3GXZBDaWUt5hP2aZRmP00H45OKWoKZLTe8IzWOv8H7p56H3i9EEw5j75xCOT5dEA67paYN9Yne4rsW6sIwx2OXUx5H1-V_LiMJUzc-NJicxnqsXkjjNA9xQYt4_v8xf06GIc05Kb4u8M4W3zpIpxYPgMdiVZOoCiqeMestPCCcUZP9kZjzV8xqkj2bygPuSeut]--></g></svg>