<?xml version="1.0" encoding="us-ascii" standalone="no"?><svg xmlns="http://www.w3.org/2000/svg" xmlns:xlink="http://www.w3.org/1999/xlink" contentStyleType="text/css" height="292px" preserveAspectRatio="none" style="width:317px;height:292px;background:#FFFFFF;" version="1.1" viewBox="0 0 317 292" width="317px" zoomAndPan="magnify"><defs/><g><!--class Component--><g id="elem_Component"><rect codeLine="1" fill="#F1F1F1" height="80.5938" id="Component" rx="2.5" ry="2.5" style="stroke:#181818;stroke-width:0.5;" width="114" x="126.5" y="7"/><ellipse cx="141.5" cy="23" fill="#B4A7E5" rx="11" ry="11" style="stroke:#181818;stroke-width:1.0;"/><path d="M137.4219,18.7656 L137.4219,16.6094 L144.8125,16.6094 L144.8125,18.7656 L142.3438,18.7656 L142.3438,26.8438 L144.8125,26.8438 L144.8125,29 L137.4219,29 L137.4219,26.8438 L139.8906,26.8438 L139.8906,18.7656 L137.4219,18.7656 Z " fill="#000000"/><text fill="#000000" font-family="sans-serif" font-size="14" font-style="italic" lengthAdjust="spacing" textLength="82" x="155.5" y="27.8467">Component</text><line style="stroke:#181818;stroke-width:0.5;" x1="127.5" x2="239.5" y1="39" y2="39"/><line style="stroke:#181818;stroke-width:0.5;" x1="127.5" x2="239.5" y1="47" y2="47"/><text fill="#000000" font-family="sans-serif" font-size="14" lengthAdjust="spacing" textLength="63" x="132.5" y="63.9951">method1</text><text fill="#000000" font-family="sans-serif" font-size="14" lengthAdjust="spacing" textLength="63" x="132.5" y="80.292">method2</text></g><!--class Leaf--><g id="elem_Leaf"><rect codeLine="5" fill="#F1F1F1" height="80.5938" id="Leaf" rx="2.5" ry="2.5" style="stroke:#181818;stroke-width:0.5;" width="75" x="20" y="180"/><ellipse cx="41.75" cy="196" fill="#ADD1B2" rx="11" ry="11" style="stroke:#181818;stroke-width:1.0;"/><path d="M44.7188,201.6406 Q44.1406,201.9375 43.5,202.0781 Q42.8594,202.2344 42.1563,202.2344 Q39.6563,202.2344 38.3281,200.5938 Q37.0156,198.9375 37.0156,195.8125 Q37.0156,192.6875 38.3281,191.0313 Q39.6563,189.375 42.1563,189.375 Q42.8594,189.375 43.5,189.5313 Q44.1563,189.6875 44.7188,189.9844 L44.7188,192.7031 Q44.0938,192.125 43.5,191.8594 Q42.9063,191.5781 42.2813,191.5781 Q40.9375,191.5781 40.25,192.6563 Q39.5625,193.7188 39.5625,195.8125 Q39.5625,197.9063 40.25,198.9844 Q40.9375,200.0469 42.2813,200.0469 Q42.9063,200.0469 43.5,199.7813 Q44.0938,199.5 44.7188,198.9219 L44.7188,201.6406 Z " fill="#000000"/><text fill="#000000" font-family="sans-serif" font-size="14" lengthAdjust="spacing" textLength="28" x="57.25" y="200.8467">Leaf</text><line style="stroke:#181818;stroke-width:0.5;" x1="21" x2="94" y1="212" y2="212"/><line style="stroke:#181818;stroke-width:0.5;" x1="21" x2="94" y1="220" y2="220"/><text fill="#000000" font-family="sans-serif" font-size="14" lengthAdjust="spacing" textLength="63" x="26" y="236.9951">method1</text><text fill="#000000" font-family="sans-serif" font-size="14" lengthAdjust="spacing" textLength="63" x="26" y="253.292">method2</text></g><!--class Composite--><g id="elem_Composite"><rect codeLine="9" fill="#F1F1F1" height="129.4844" id="Composite" rx="2.5" ry="2.5" style="stroke:#181818;stroke-width:0.5;" width="172" x="138.5" y="156"/><ellipse cx="182.75" cy="172" fill="#ADD1B2" rx="11" ry="11" style="stroke:#181818;stroke-width:1.0;"/><path d="M185.7188,177.6406 Q185.1406,177.9375 184.5,178.0781 Q183.8594,178.2344 183.1563,178.2344 Q180.6563,178.2344 179.3281,176.5938 Q178.0156,174.9375 178.0156,171.8125 Q178.0156,168.6875 179.3281,167.0313 Q180.6563,165.375 183.1563,165.375 Q183.8594,165.375 184.5,165.5313 Q185.1563,165.6875 185.7188,165.9844 L185.7188,168.7031 Q185.0938,168.125 184.5,167.8594 Q183.9063,167.5781 183.2813,167.5781 Q181.9375,167.5781 181.25,168.6563 Q180.5625,169.7188 180.5625,171.8125 Q180.5625,173.9063 181.25,174.9844 Q181.9375,176.0469 183.2813,176.0469 Q183.9063,176.0469 184.5,175.7813 Q185.0938,175.5 185.7188,174.9219 L185.7188,177.6406 Z " fill="#000000"/><text fill="#000000" font-family="sans-serif" font-size="14" lengthAdjust="spacing" textLength="75" x="203.25" y="176.8467">Composite</text><line style="stroke:#181818;stroke-width:0.5;" x1="139.5" x2="309.5" y1="188" y2="188"/><text fill="#000000" font-family="sans-serif" font-size="14" lengthAdjust="spacing" textLength="160" x="144.5" y="204.9951">childeren Component[]</text><line style="stroke:#181818;stroke-width:0.5;" x1="139.5" x2="309.5" y1="212.2969" y2="212.2969"/><text fill="#000000" font-family="sans-serif" font-size="14" lengthAdjust="spacing" textLength="63" x="144.5" y="229.292">method1</text><text fill="#000000" font-family="sans-serif" font-size="14" lengthAdjust="spacing" textLength="63" x="144.5" y="245.5889">method2</text><text fill="#000000" font-family="sans-serif" font-size="14" lengthAdjust="spacing" textLength="130" x="144.5" y="261.8857">add(c Component)</text><text fill="#000000" font-family="sans-serif" font-size="14" lengthAdjust="spacing" textLength="156" x="144.5" y="278.1826">remove(c Component)</text></g><!--class Client--><g id="elem_Client"><rect codeLine="17" fill="#F1F1F1" height="42.2969" id="Client" rx="2.5" ry="2.5" style="stroke:#181818;stroke-width:0.5;" width="45" x="7" y="26"/><text fill="#000000" font-family="sans-serif" font-size="14" lengthAdjust="spacing" textLength="39" x="10" y="43.9951">Client</text><line style="stroke:#181818;stroke-width:0.5;" x1="8" x2="51" y1="52.2969" y2="52.2969"/><line style="stroke:#181818;stroke-width:0.5;" x1="8" x2="51" y1="60.2969" y2="60.2969"/></g><!--link Client to Component--><g id="link_Client_Component"><path codeLine="20" d="M52.22,47 C68.35,47 90.95,47 112.85,47 " fill="none" id="Client-to-Component" style="stroke:#181818;stroke-width:1.0;"/><polygon fill="#181818" points="117.7,47,108.7,43,112.7,47,108.7,51,117.7,47" style="stroke:#181818;stroke-width:1.0;"/><text fill="#000000" font-family="sans-serif" font-size="13" lengthAdjust="spacing" textLength="30" x="70.25" y="40.0669">uses</text></g><!--reverse link Component to Leaf--><g id="link_Component_Leaf"><path codeLine="21" d="M139.76,107.53 C122.26,131.35 102.57,158.15 86.84,179.56 " fill="none" id="Component-backto-Leaf" style="stroke:#181818;stroke-width:1.0;stroke-dasharray:7.0,7.0;"/><polygon fill="none" points="134.55,103.81,152.03,91.83,145.83,112.1,134.55,103.81" style="stroke:#181818;stroke-width:1.0;"/></g><!--reverse link Component to Composite--><g id="link_Component_Composite"><path codeLine="22" d="M198.57,111.04 C201.78,124.45 205.17,138.65 208.41,152.21 " fill="none" id="Component-backto-Composite" style="stroke:#181818;stroke-width:1.0;stroke-dasharray:7.0,7.0;"/><polygon fill="none" points="191.58,112.91,193.74,91.83,205.2,109.66,191.58,112.91" style="stroke:#181818;stroke-width:1.0;"/></g><!--link Component to Composite--><g id="link_Component_Composite"><path codeLine="23" d="M260.97,65.52 C273.81,77.57 270.5,104.68 261.93,132.86 " fill="none" id="Component-Composite" style="stroke:#181818;stroke-width:1.0;"/><polygon fill="none" points="259.24,71.99,242.5,59,263.69,58.71,259.24,71.99" style="stroke:#181818;stroke-width:1.0;"/><polygon fill="none" points="255.28,151.36,261.0019,146.9715,259.1517,140.0018,253.4298,144.3903,255.28,151.36" style="stroke:#181818;stroke-width:1.0;"/></g><!--SRC=[bP0n3i8m34Ltdy8Z3462CGCBApT0357Y4ajfKYKfIydTWT2gHGW99ilV_hQVsMUAZTA4Xz1smPFFE03Yq5AsmHHynUsdj8C2sgcKy4Yg-TjKroNEL9tQiZCKoSzddCu_JaHKngpqx5m_f4XjkDAxMc3QxRXo5h1iQ4erH-q8O4n5v8lDOhzuZCG-KOBAk-cxpMrHX1deUqdA2lha3ABlnB9Bof7n3W00]--></g></svg>