<?xml version="1.0" encoding="us-ascii" standalone="no"?><svg xmlns="http://www.w3.org/2000/svg" xmlns:xlink="http://www.w3.org/1999/xlink" contentStyleType="text/css" height="260px" preserveAspectRatio="none" style="width:312px;height:260px;background:#FFFFFF;" version="1.1" viewBox="0 0 312 260" width="312px" zoomAndPan="magnify"><defs/><g><!--class Component--><g id="elem_Component"><rect codeLine="1" fill="#F1F1F1" height="64.2969" id="Component" rx="2.5" ry="2.5" style="stroke:#181818;stroke-width:0.5;" width="114" x="120.5" y="7"/><ellipse cx="135.5" cy="23" fill="#B4A7E5" rx="11" ry="11" style="stroke:#181818;stroke-width:1.0;"/><path d="M131.4219,18.7656 L131.4219,16.6094 L138.8125,16.6094 L138.8125,18.7656 L136.3438,18.7656 L136.3438,26.8438 L138.8125,26.8438 L138.8125,29 L131.4219,29 L131.4219,26.8438 L133.8906,26.8438 L133.8906,18.7656 L131.4219,18.7656 Z " fill="#000000"/><text fill="#000000" font-family="sans-serif" font-size="14" font-style="italic" lengthAdjust="spacing" textLength="82" x="149.5" y="27.8467">Component</text><line style="stroke:#181818;stroke-width:0.5;" x1="121.5" x2="233.5" y1="39" y2="39"/><line style="stroke:#181818;stroke-width:0.5;" x1="121.5" x2="233.5" y1="47" y2="47"/><text fill="#000000" font-family="sans-serif" font-size="14" lengthAdjust="spacing" textLength="68" x="126.5" y="63.9951">Operation</text></g><!--class Leaf--><g id="elem_Leaf"><rect codeLine="4" fill="#F1F1F1" height="64.2969" id="Leaf" rx="2.5" ry="2.5" style="stroke:#181818;stroke-width:0.5;" width="80" x="8.5" y="164.5"/><ellipse cx="32.5" cy="180.5" fill="#ADD1B2" rx="11" ry="11" style="stroke:#181818;stroke-width:1.0;"/><path d="M35.4688,186.1406 Q34.8906,186.4375 34.25,186.5781 Q33.6094,186.7344 32.9063,186.7344 Q30.4063,186.7344 29.0781,185.0938 Q27.7656,183.4375 27.7656,180.3125 Q27.7656,177.1875 29.0781,175.5313 Q30.4063,173.875 32.9063,173.875 Q33.6094,173.875 34.25,174.0313 Q34.9063,174.1875 35.4688,174.4844 L35.4688,177.2031 Q34.8438,176.625 34.25,176.3594 Q33.6563,176.0781 33.0313,176.0781 Q31.6875,176.0781 31,177.1563 Q30.3125,178.2188 30.3125,180.3125 Q30.3125,182.4063 31,183.4844 Q31.6875,184.5469 33.0313,184.5469 Q33.6563,184.5469 34.25,184.2813 Q34.8438,184 35.4688,183.4219 L35.4688,186.1406 Z " fill="#000000"/><text fill="#000000" font-family="sans-serif" font-size="14" lengthAdjust="spacing" textLength="28" x="48.5" y="185.3467">Leaf</text><line style="stroke:#181818;stroke-width:0.5;" x1="9.5" x2="87.5" y1="196.5" y2="196.5"/><line style="stroke:#181818;stroke-width:0.5;" x1="9.5" x2="87.5" y1="204.5" y2="204.5"/><text fill="#000000" font-family="sans-serif" font-size="14" lengthAdjust="spacing" textLength="68" x="14.5" y="221.4951">Operation</text></g><!--class Composite--><g id="elem_Composite"><rect codeLine="7" fill="#F1F1F1" height="113.1875" id="Composite" rx="2.5" ry="2.5" style="stroke:#181818;stroke-width:0.5;" width="173" x="132" y="140"/><ellipse cx="176.75" cy="156" fill="#ADD1B2" rx="11" ry="11" style="stroke:#181818;stroke-width:1.0;"/><path d="M179.7188,161.6406 Q179.1406,161.9375 178.5,162.0781 Q177.8594,162.2344 177.1563,162.2344 Q174.6563,162.2344 173.3281,160.5938 Q172.0156,158.9375 172.0156,155.8125 Q172.0156,152.6875 173.3281,151.0313 Q174.6563,149.375 177.1563,149.375 Q177.8594,149.375 178.5,149.5313 Q179.1563,149.6875 179.7188,149.9844 L179.7188,152.7031 Q179.0938,152.125 178.5,151.8594 Q177.9063,151.5781 177.2813,151.5781 Q175.9375,151.5781 175.25,152.6563 Q174.5625,153.7188 174.5625,155.8125 Q174.5625,157.9063 175.25,158.9844 Q175.9375,160.0469 177.2813,160.0469 Q177.9063,160.0469 178.5,159.7813 Q179.0938,159.5 179.7188,158.9219 L179.7188,161.6406 Z " fill="#000000"/><text fill="#000000" font-family="sans-serif" font-size="14" lengthAdjust="spacing" textLength="75" x="197.25" y="160.8467">Composite</text><line style="stroke:#181818;stroke-width:0.5;" x1="133" x2="304" y1="172" y2="172"/><text fill="#000000" font-family="sans-serif" font-size="14" lengthAdjust="spacing" textLength="160" x="138" y="188.9951">childeren Component[]</text><line style="stroke:#181818;stroke-width:0.5;" x1="133" x2="304" y1="196.2969" y2="196.2969"/><text fill="#000000" font-family="sans-serif" font-size="14" lengthAdjust="spacing" textLength="68" x="138" y="213.292">Operation</text><text fill="#000000" font-family="sans-serif" font-size="14" lengthAdjust="spacing" textLength="131" x="138" y="229.5889">Add(c Component)</text><text fill="#000000" font-family="sans-serif" font-size="14" lengthAdjust="spacing" textLength="161" x="138" y="245.8857">Remove(c Component)</text></g><!--class main--><g id="elem_main"><rect codeLine="14" fill="#F1F1F1" height="42.2969" id="main" rx="2.5" ry="2.5" style="stroke:#181818;stroke-width:0.5;" width="39" x="7" y="18"/><text fill="#000000" font-family="sans-serif" font-size="14" lengthAdjust="spacing" textLength="33" x="10" y="35.9951">main</text><line style="stroke:#181818;stroke-width:0.5;" x1="8" x2="45" y1="44.2969" y2="44.2969"/><line style="stroke:#181818;stroke-width:0.5;" x1="8" x2="45" y1="52.2969" y2="52.2969"/></g><!--link main to Component--><g id="link_main_Component"><path codeLine="17" d="M46.24,39 C61.8,39 84.49,39 106.65,39 " fill="none" id="main-to-Component" style="stroke:#181818;stroke-width:1.0;"/><polygon fill="#181818" points="111.57,39,102.57,35,106.57,39,102.57,43,111.57,39" style="stroke:#181818;stroke-width:1.0;"/><text fill="#000000" font-family="sans-serif" font-size="13" lengthAdjust="spacing" textLength="30" x="64.25" y="32.0669">uses</text></g><!--reverse link Component to Leaf--><g id="link_Component_Leaf"><path codeLine="18" d="M135.31,90.86 C115.26,115.03 91.93,143.15 74.51,164.15 " fill="none" id="Component-backto-Leaf" style="stroke:#181818;stroke-width:1.0;stroke-dasharray:7.0,7.0;"/><polygon fill="none" points="130.39,86.82,148.55,75.9,141.17,95.76,130.39,86.82" style="stroke:#181818;stroke-width:1.0;"/></g><!--reverse link Component to Composite--><g id="link_Component_Composite"><path codeLine="19" d="M191.97,94.89 C195.51,108.29 199.3,122.7 202.89,136.29 " fill="none" id="Component-backto-Composite" style="stroke:#181818;stroke-width:1.0;stroke-dasharray:7.0,7.0;"/><polygon fill="none" points="185.03,97.02,186.7,75.9,198.57,93.45,185.03,97.02" style="stroke:#181818;stroke-width:1.0;"/></g><!--link Component to Composite--><g id="link_Component_Composite"><path codeLine="20" d="M254.54,67.58 C261.5,77.97 259.28,96.57 253.42,116.42 " fill="none" id="Component-Composite" style="stroke:#181818;stroke-width:1.0;"/><polygon fill="none" points="251.86,73.6,236.5,59,257.61,60.83,251.86,73.6" style="stroke:#181818;stroke-width:1.0;"/><polygon fill="none" points="246.71,135.03,252.4369,130.648,250.5947,123.6762,244.8677,128.0582,246.71,135.03" style="stroke:#181818;stroke-width:1.0;"/></g><!--SRC=[XO-z2W8n48JxVOejjOWFa48GMq6m5OkGx9c5omz9pkRCkwjHl1CKovqPPlPZNoXrIXDkWul1aoyu0kBegDXWAkuZ9LKuUAYWUvKpxaXr_pAjB7EX5jIMUqE9_3HoF7qlGDmOiz1JS7cN3kJ2XJxL2gyffzZZMC6oeUUXEUcU0DeX4fzj4UiPdyGXKuR6iHhYwZepOVhyjoLb8te01J54CKz9-OQv0G00]--></g></svg>