<?xml version="1.0" encoding="us-ascii" standalone="no"?><svg xmlns="http://www.w3.org/2000/svg" xmlns:xlink="http://www.w3.org/1999/xlink" contentStyleType="text/css" height="220px" preserveAspectRatio="none" style="width:250px;height:220px;background:#FFFFFF;" version="1.1" viewBox="0 0 250 220" width="250px" zoomAndPan="magnify"><defs/><g><!--class Handler--><g id="elem_Handler"><rect codeLine="1" fill="#F1F1F1" height="80.5938" id="Handler" rx="2.5" ry="2.5" style="stroke:#181818;stroke-width:0.5;" width="99" x="119" y="7"/><ellipse cx="140.3" cy="23" fill="#A9DCDF" rx="11" ry="11" style="stroke:#181818;stroke-width:1.0;"/><path d="M140.4094,18.3438 L139.2531,23.4219 L141.5813,23.4219 L140.4094,18.3438 Z M138.925,16.1094 L141.9094,16.1094 L145.2688,28.5 L142.8156,28.5 L142.05,25.4375 L138.7688,25.4375 L138.0188,28.5 L135.5813,28.5 L138.925,16.1094 Z " fill="#000000"/><text fill="#000000" font-family="sans-serif" font-size="14" font-style="italic" lengthAdjust="spacing" textLength="53" x="155.7" y="27.8467">Handler</text><line style="stroke:#181818;stroke-width:0.5;" x1="120" x2="217" y1="39" y2="39"/><text fill="#000000" font-family="sans-serif" font-size="14" lengthAdjust="spacing" textLength="87" x="125" y="55.9951">next Handler</text><line style="stroke:#181818;stroke-width:0.5;" x1="120" x2="217" y1="63.2969" y2="63.2969"/><text fill="#000000" font-family="sans-serif" font-size="14" font-style="italic" lengthAdjust="spacing" textLength="54" x="125" y="80.292">request</text></g><!--class ConcreteHandler--><g id="elem_ConcreteHandler"><rect codeLine="5" fill="#F1F1F1" height="64.2969" id="ConcreteHandler" rx="2.5" ry="2.5" style="stroke:#181818;stroke-width:0.5;" width="149" x="94" y="149"/><ellipse cx="109" cy="165" fill="#ADD1B2" rx="11" ry="11" style="stroke:#181818;stroke-width:1.0;"/><path d="M111.9688,170.6406 Q111.3906,170.9375 110.75,171.0781 Q110.1094,171.2344 109.4063,171.2344 Q106.9063,171.2344 105.5781,169.5938 Q104.2656,167.9375 104.2656,164.8125 Q104.2656,161.6875 105.5781,160.0313 Q106.9063,158.375 109.4063,158.375 Q110.1094,158.375 110.75,158.5313 Q111.4063,158.6875 111.9688,158.9844 L111.9688,161.7031 Q111.3438,161.125 110.75,160.8594 Q110.1563,160.5781 109.5313,160.5781 Q108.1875,160.5781 107.5,161.6563 Q106.8125,162.7188 106.8125,164.8125 Q106.8125,166.9063 107.5,167.9844 Q108.1875,169.0469 109.5313,169.0469 Q110.1563,169.0469 110.75,168.7813 Q111.3438,168.5 111.9688,167.9219 L111.9688,170.6406 Z " fill="#000000"/><text fill="#000000" font-family="sans-serif" font-size="14" lengthAdjust="spacing" textLength="117" x="123" y="169.8467">ConcreteHandler</text><line style="stroke:#181818;stroke-width:0.5;" x1="95" x2="242" y1="181" y2="181"/><line style="stroke:#181818;stroke-width:0.5;" x1="95" x2="242" y1="189" y2="189"/><text fill="#000000" font-family="sans-serif" font-size="14" lengthAdjust="spacing" textLength="54" x="100" y="205.9951">request</text></g><!--class Client--><g id="elem_Client"><rect codeLine="8" fill="#F1F1F1" height="42.2969" id="Client" rx="2.5" ry="2.5" style="stroke:#181818;stroke-width:0.5;" width="45" x="7" y="26.5"/><text fill="#000000" font-family="sans-serif" font-size="14" lengthAdjust="spacing" textLength="39" x="10" y="44.4951">Client</text><line style="stroke:#181818;stroke-width:0.5;" x1="8" x2="51" y1="52.7969" y2="52.7969"/><line style="stroke:#181818;stroke-width:0.5;" x1="8" x2="51" y1="60.7969" y2="60.7969"/></g><!--link Client to Handler--><g id="link_Client_Handler"><path codeLine="11" d="M52.45,47.5 C68.88,47.5 91.72,47.5 112.79,47.5 " fill="none" id="Client-to-Handler" style="stroke:#181818;stroke-width:1.0;"/><polygon fill="#181818" points="117.68,47.5,108.68,43.5,112.68,47.5,108.68,51.5,117.68,47.5" style="stroke:#181818;stroke-width:1.0;"/><text fill="#000000" font-family="sans-serif" font-size="13" lengthAdjust="spacing" textLength="30" x="70.5" y="40.5669">uses</text></g><!--reverse link Handler to ConcreteHandler--><g id="link_Handler_ConcreteHandler"><path codeLine="12" d="M168.5,109.19 C168.5,122.85 168.5,136.8 168.5,148.67 " fill="none" id="Handler-backto-ConcreteHandler" style="stroke:#181818;stroke-width:1.0;"/><polygon fill="none" points="161.5,109.31,168.5,89.31,175.5,109.31,161.5,109.31" style="stroke:#181818;stroke-width:1.0;"/></g><!--SRC=[POv13a8X34JtFKKlm0LSk77ZDH0cGe9yRKjYWjnT5tnYTFacRwRr5pNnmVZiQomGxiHSyLp11_iDbhOukFjf3nOy6jHeK2XUbKzR3GB3zypg_SabereVb7B490vPGW7HH2VvcimTzpyEt1HAltTSkxlNaju0]--></g></svg>