<?xml version="1.0" encoding="us-ascii" standalone="no"?><svg xmlns="http://www.w3.org/2000/svg" xmlns:xlink="http://www.w3.org/1999/xlink" contentStyleType="text/css" height="252px" preserveAspectRatio="none" style="width:243px;height:252px;background:#FFFFFF;" version="1.1" viewBox="0 0 243 252" width="243px" zoomAndPan="magnify"><defs/><g><!--class Handler--><g id="elem_Handler"><rect codeLine="1" fill="#F1F1F1" height="64.2969" id="Handler" rx="2.5" ry="2.5" style="stroke:#181818;stroke-width:0.5;" width="85" x="119" y="7"/><ellipse cx="134" cy="23" fill="#B4A7E5" rx="11" ry="11" style="stroke:#181818;stroke-width:1.0;"/><path d="M129.9219,18.7656 L129.9219,16.6094 L137.3125,16.6094 L137.3125,18.7656 L134.8438,18.7656 L134.8438,26.8438 L137.3125,26.8438 L137.3125,29 L129.9219,29 L129.9219,26.8438 L132.3906,26.8438 L132.3906,18.7656 L129.9219,18.7656 Z " fill="#000000"/><text fill="#000000" font-family="sans-serif" font-size="14" font-style="italic" lengthAdjust="spacing" textLength="53" x="148" y="27.8467">Handler</text><line style="stroke:#181818;stroke-width:0.5;" x1="120" x2="203" y1="39" y2="39"/><line style="stroke:#181818;stroke-width:0.5;" x1="120" x2="203" y1="47" y2="47"/><text fill="#000000" font-family="sans-serif" font-size="14" lengthAdjust="spacing" textLength="47" x="125" y="63.9951">handle</text></g><!--class ConcreteHandler--><g id="elem_ConcreteHandler"><rect codeLine="4" fill="#F1F1F1" height="113.1875" id="ConcreteHandler" rx="2.5" ry="2.5" style="stroke:#181818;stroke-width:0.5;" width="149" x="87" y="132"/><ellipse cx="102" cy="148" fill="#ADD1B2" rx="11" ry="11" style="stroke:#181818;stroke-width:1.0;"/><path d="M104.9688,153.6406 Q104.3906,153.9375 103.75,154.0781 Q103.1094,154.2344 102.4063,154.2344 Q99.9063,154.2344 98.5781,152.5938 Q97.2656,150.9375 97.2656,147.8125 Q97.2656,144.6875 98.5781,143.0313 Q99.9063,141.375 102.4063,141.375 Q103.1094,141.375 103.75,141.5313 Q104.4063,141.6875 104.9688,141.9844 L104.9688,144.7031 Q104.3438,144.125 103.75,143.8594 Q103.1563,143.5781 102.5313,143.5781 Q101.1875,143.5781 100.5,144.6563 Q99.8125,145.7188 99.8125,147.8125 Q99.8125,149.9063 100.5,150.9844 Q101.1875,152.0469 102.5313,152.0469 Q103.1563,152.0469 103.75,151.7813 Q104.3438,151.5 104.9688,150.9219 L104.9688,153.6406 Z " fill="#000000"/><text fill="#000000" font-family="sans-serif" font-size="14" lengthAdjust="spacing" textLength="117" x="116" y="152.8467">ConcreteHandler</text><line style="stroke:#181818;stroke-width:0.5;" x1="88" x2="235" y1="164" y2="164"/><text fill="#000000" font-family="sans-serif" font-size="14" lengthAdjust="spacing" textLength="55" x="93" y="180.9951">id string</text><line style="stroke:#181818;stroke-width:0.5;" x1="88" x2="235" y1="188.2969" y2="188.2969"/><text fill="#000000" font-family="sans-serif" font-size="14" lengthAdjust="spacing" textLength="97" x="93" y="205.292">next() Handler</text><text fill="#000000" font-family="sans-serif" font-size="14" lengthAdjust="spacing" textLength="116" x="93" y="221.5889">setNext(Handler)</text><text fill="#000000" font-family="sans-serif" font-size="14" lengthAdjust="spacing" textLength="57" x="93" y="237.8857">handle()</text></g><!--class Client--><g id="elem_Client"><rect codeLine="10" fill="#F1F1F1" height="42.2969" id="Client" rx="2.5" ry="2.5" style="stroke:#181818;stroke-width:0.5;" width="45" x="7" y="18"/><text fill="#000000" font-family="sans-serif" font-size="14" lengthAdjust="spacing" textLength="39" x="10" y="35.9951">Client</text><line style="stroke:#181818;stroke-width:0.5;" x1="8" x2="51" y1="44.2969" y2="44.2969"/><line style="stroke:#181818;stroke-width:0.5;" x1="8" x2="51" y1="52.2969" y2="52.2969"/></g><!--link Client to Handler--><g id="link_Client_Handler"><path codeLine="13" d="M52.49,39 C69.1,39 92.15,39 112.77,39 " fill="none" id="Client-to-Handler" style="stroke:#181818;stroke-width:1.0;"/><polygon fill="#181818" points="117.52,39,108.52,35,112.52,39,108.52,43,117.52,39" style="stroke:#181818;stroke-width:1.0;"/><text fill="#000000" font-family="sans-serif" font-size="13" lengthAdjust="spacing" textLength="30" x="70.5" y="32.0669">uses</text></g><!--reverse link Handler to ConcreteHandler--><g id="link_Handler_ConcreteHandler"><path codeLine="14" d="M161.5,92.19 C161.5,104.94 161.5,118.63 161.5,131.55 " fill="none" id="Handler-backto-ConcreteHandler" style="stroke:#181818;stroke-width:1.0;"/><polygon fill="none" points="154.5,92.28,161.5,72.28,168.5,92.28,154.5,92.28" style="stroke:#181818;stroke-width:1.0;"/></g><!--SRC=[POux3W8n34HxdyBbfiW5A6XegBX3b9YDfP15iLT22hax7sKXWdByPZp3MQcSdISykXmI5Qo0M2-aSGaDu_i83Nno8dXOiY-aD7eve6ZXF8-vJ3UTpFPp949wUi6Ep7_RPBvzYIbhRH0vK5VekVZd9kZI5fwZslrMjiDLIE1tgbslzlunFG00]--></g></svg>