<?xml version="1.0" encoding="us-ascii" standalone="no"?><svg xmlns="http://www.w3.org/2000/svg" xmlns:xlink="http://www.w3.org/1999/xlink" contentStyleType="text/css" height="213px" preserveAspectRatio="none" style="width:417px;height:213px;background:#FFFFFF;" version="1.1" viewBox="0 0 417 213" width="417px" zoomAndPan="magnify"><defs/><g><!--class Context--><g id="elem_Context"><rect codeLine="1" fill="#F1F1F1" height="74.8906" id="Context" rx="2.5" ry="2.5" style="stroke:#181818;stroke-width:0.5;" width="129" x="7" y="7"/><text fill="#000000" font-family="sans-serif" font-size="14" lengthAdjust="spacing" textLength="54" x="44.5" y="24.9951">Context</text><line style="stroke:#181818;stroke-width:0.5;" x1="8" x2="135" y1="33.2969" y2="33.2969"/><text fill="#000000" font-family="sans-serif" font-size="14" lengthAdjust="spacing" textLength="117" x="13" y="50.292">strategy Strategy</text><line style="stroke:#181818;stroke-width:0.5;" x1="8" x2="135" y1="57.5938" y2="57.5938"/><text fill="#000000" font-family="sans-serif" font-size="14" lengthAdjust="spacing" textLength="105" x="13" y="74.5889">contextMethod</text></g><!--class Strategy--><g id="elem_Strategy"><rect codeLine="5" fill="#F1F1F1" height="64.2969" id="Strategy" rx="2.5" ry="2.5" style="stroke:#181818;stroke-width:0.5;" width="121" x="171" y="12.5"/><ellipse cx="200.4" cy="28.5" fill="#B4A7E5" rx="11" ry="11" style="stroke:#181818;stroke-width:1.0;"/><path d="M196.3219,24.2656 L196.3219,22.1094 L203.7125,22.1094 L203.7125,24.2656 L201.2438,24.2656 L201.2438,32.3438 L203.7125,32.3438 L203.7125,34.5 L196.3219,34.5 L196.3219,32.3438 L198.7906,32.3438 L198.7906,24.2656 L196.3219,24.2656 Z " fill="#000000"/><text fill="#000000" font-family="sans-serif" font-size="14" font-style="italic" lengthAdjust="spacing" textLength="57" x="217.6" y="33.3467">Strategy</text><line style="stroke:#181818;stroke-width:0.5;" x1="172" x2="291" y1="44.5" y2="44.5"/><line style="stroke:#181818;stroke-width:0.5;" x1="172" x2="291" y1="52.5" y2="52.5"/><text fill="#000000" font-family="sans-serif" font-size="14" lengthAdjust="spacing" textLength="109" x="177" y="69.4951">strategyMethod</text></g><!--class ConcreteStrategy1--><g id="elem_ConcreteStrategy1"><rect codeLine="8" fill="#F1F1F1" height="64.2969" id="ConcreteStrategy1" rx="2.5" ry="2.5" style="stroke:#181818;stroke-width:0.5;" width="162" x="51.5" y="142"/><ellipse cx="66.5" cy="158" fill="#ADD1B2" rx="11" ry="11" style="stroke:#181818;stroke-width:1.0;"/><path d="M69.4688,163.6406 Q68.8906,163.9375 68.25,164.0781 Q67.6094,164.2344 66.9063,164.2344 Q64.4063,164.2344 63.0781,162.5938 Q61.7656,160.9375 61.7656,157.8125 Q61.7656,154.6875 63.0781,153.0313 Q64.4063,151.375 66.9063,151.375 Q67.6094,151.375 68.25,151.5313 Q68.9063,151.6875 69.4688,151.9844 L69.4688,154.7031 Q68.8438,154.125 68.25,153.8594 Q67.6563,153.5781 67.0313,153.5781 Q65.6875,153.5781 65,154.6563 Q64.3125,155.7188 64.3125,157.8125 Q64.3125,159.9063 65,160.9844 Q65.6875,162.0469 67.0313,162.0469 Q67.6563,162.0469 68.25,161.7813 Q68.8438,161.5 69.4688,160.9219 L69.4688,163.6406 Z " fill="#000000"/><text fill="#000000" font-family="sans-serif" font-size="14" lengthAdjust="spacing" textLength="130" x="80.5" y="162.8467">ConcreteStrategy1</text><line style="stroke:#181818;stroke-width:0.5;" x1="52.5" x2="212.5" y1="174" y2="174"/><line style="stroke:#181818;stroke-width:0.5;" x1="52.5" x2="212.5" y1="182" y2="182"/><text fill="#000000" font-family="sans-serif" font-size="14" lengthAdjust="spacing" textLength="109" x="57.5" y="198.9951">strategyMethod</text></g><!--class ConcreteStrategy2--><g id="elem_ConcreteStrategy2"><rect codeLine="11" fill="#F1F1F1" height="64.2969" id="ConcreteStrategy2" rx="2.5" ry="2.5" style="stroke:#181818;stroke-width:0.5;" width="162" x="248.5" y="142"/><ellipse cx="263.5" cy="158" fill="#ADD1B2" rx="11" ry="11" style="stroke:#181818;stroke-width:1.0;"/><path d="M266.4688,163.6406 Q265.8906,163.9375 265.25,164.0781 Q264.6094,164.2344 263.9063,164.2344 Q261.4063,164.2344 260.0781,162.5938 Q258.7656,160.9375 258.7656,157.8125 Q258.7656,154.6875 260.0781,153.0313 Q261.4063,151.375 263.9063,151.375 Q264.6094,151.375 265.25,151.5313 Q265.9063,151.6875 266.4688,151.9844 L266.4688,154.7031 Q265.8438,154.125 265.25,153.8594 Q264.6563,153.5781 264.0313,153.5781 Q262.6875,153.5781 262,154.6563 Q261.3125,155.7188 261.3125,157.8125 Q261.3125,159.9063 262,160.9844 Q262.6875,162.0469 264.0313,162.0469 Q264.6563,162.0469 265.25,161.7813 Q265.8438,161.5 266.4688,160.9219 L266.4688,163.6406 Z " fill="#000000"/><text fill="#000000" font-family="sans-serif" font-size="14" lengthAdjust="spacing" textLength="130" x="277.5" y="162.8467">ConcreteStrategy2</text><line style="stroke:#181818;stroke-width:0.5;" x1="249.5" x2="409.5" y1="174" y2="174"/><line style="stroke:#181818;stroke-width:0.5;" x1="249.5" x2="409.5" y1="182" y2="182"/><text fill="#000000" font-family="sans-serif" font-size="14" lengthAdjust="spacing" textLength="109" x="254.5" y="198.9951">strategyMethod</text></g><!--link Context to Strategy--><g id="link_Context_Strategy"><path codeLine="17" d="M150.37,44.5 C152.48,44.5 154.59,44.5 156.7,44.5 " fill="none" id="Context-Strategy" style="stroke:#181818;stroke-width:1.0;"/><polygon fill="none" points="137.5,44.5,143.5,48.5,149.5,44.5,143.5,40.5,137.5,44.5" style="stroke:#181818;stroke-width:1.0;"/><polygon fill="#181818" points="169.64,44.5,160.64,40.5,164.64,44.5,160.64,48.5,169.64,44.5" style="stroke:#181818;stroke-width:1.0;"/><line style="stroke:#181818;stroke-width:1.0;" x1="164.64" x2="156.64" y1="44.5" y2="44.5"/></g><!--reverse link Strategy to ConcreteStrategy1--><g id="link_Strategy_ConcreteStrategy1"><path codeLine="18" d="M194.48,93.17 C181.89,109.39 168.15,127.09 156.81,141.69 " fill="none" id="Strategy-backto-ConcreteStrategy1" style="stroke:#181818;stroke-width:1.0;stroke-dasharray:7.0,7.0;"/><polygon fill="none" points="189.49,89.19,207.28,77.69,200.54,97.78,189.49,89.19" style="stroke:#181818;stroke-width:1.0;"/></g><!--reverse link Strategy to ConcreteStrategy2--><g id="link_Strategy_ConcreteStrategy2"><path codeLine="19" d="M268.14,93.17 C280.6,109.39 294.21,127.09 305.43,141.69 " fill="none" id="Strategy-backto-ConcreteStrategy2" style="stroke:#181818;stroke-width:1.0;stroke-dasharray:7.0,7.0;"/><polygon fill="none" points="262.11,97.81,255.47,77.69,273.21,89.28,262.11,97.81" style="stroke:#181818;stroke-width:1.0;"/></g><!--SRC=[Iyv9B2vMSCxFAqcjA56evb9GA2ufIYn9JQzK28OoW6BLkQab6VafjGh948M-O2vNBLSca5kKbfYS2bSDDWEk7cOON4CopBxaejIIL9WcGx9q6H7GnPMHcP8AzrjoPb5oJYeN5uoVhrkKcPvHeck7y2Yci_HA2_HgyAWmGbS10000]--></g></svg>