<?xml version="1.0" encoding="us-ascii" standalone="no"?><svg xmlns="http://www.w3.org/2000/svg" xmlns:xlink="http://www.w3.org/1999/xlink" contentStyleType="text/css" height="219px" preserveAspectRatio="none" style="width:486px;height:219px;background:#FFFFFF;" version="1.1" viewBox="0 0 486 219" width="486px" zoomAndPan="magnify"><defs/><g><!--class Navigator--><g id="elem_Navigator"><rect codeLine="1" fill="#F1F1F1" height="80.5938" id="Navigator" rx="2.5" ry="2.5" style="stroke:#181818;stroke-width:0.5;" width="171" x="7" y="7"/><ellipse cx="56.25" cy="23" fill="#ADD1B2" rx="11" ry="11" style="stroke:#181818;stroke-width:1.0;"/><path d="M59.2188,28.6406 Q58.6406,28.9375 58,29.0781 Q57.3594,29.2344 56.6563,29.2344 Q54.1563,29.2344 52.8281,27.5938 Q51.5156,25.9375 51.5156,22.8125 Q51.5156,19.6875 52.8281,18.0313 Q54.1563,16.375 56.6563,16.375 Q57.3594,16.375 58,16.5313 Q58.6563,16.6875 59.2188,16.9844 L59.2188,19.7031 Q58.5938,19.125 58,18.8594 Q57.4063,18.5781 56.7813,18.5781 Q55.4375,18.5781 54.75,19.6563 Q54.0625,20.7188 54.0625,22.8125 Q54.0625,24.9063 54.75,25.9844 Q55.4375,27.0469 56.7813,27.0469 Q57.4063,27.0469 58,26.7813 Q58.5938,26.5 59.2188,25.9219 L59.2188,28.6406 Z " fill="#000000"/><text fill="#000000" font-family="sans-serif" font-size="14" lengthAdjust="spacing" textLength="64" x="76.75" y="27.8467">Navigator</text><line style="stroke:#181818;stroke-width:0.5;" x1="8" x2="177" y1="39" y2="39"/><text fill="#000000" font-family="sans-serif" font-size="14" lengthAdjust="spacing" textLength="159" x="13" y="55.9951">strategy RouteStrategy</text><line style="stroke:#181818;stroke-width:0.5;" x1="8" x2="177" y1="63.2969" y2="63.2969"/><text fill="#000000" font-family="sans-serif" font-size="14" lengthAdjust="spacing" textLength="42" x="13" y="80.292">Route</text></g><!--class RouteStrategy--><g id="elem_RouteStrategy"><rect codeLine="5" fill="#F1F1F1" height="64.2969" id="RouteStrategy" rx="2.5" ry="2.5" style="stroke:#181818;stroke-width:0.5;" width="131" x="213" y="15.5"/><ellipse cx="228" cy="31.5" fill="#B4A7E5" rx="11" ry="11" style="stroke:#181818;stroke-width:1.0;"/><path d="M223.9219,27.2656 L223.9219,25.1094 L231.3125,25.1094 L231.3125,27.2656 L228.8438,27.2656 L228.8438,35.3438 L231.3125,35.3438 L231.3125,37.5 L223.9219,37.5 L223.9219,35.3438 L226.3906,35.3438 L226.3906,27.2656 L223.9219,27.2656 Z " fill="#000000"/><text fill="#000000" font-family="sans-serif" font-size="14" font-style="italic" lengthAdjust="spacing" textLength="99" x="242" y="36.3467">RouteStrategy</text><line style="stroke:#181818;stroke-width:0.5;" x1="214" x2="343" y1="47.5" y2="47.5"/><line style="stroke:#181818;stroke-width:0.5;" x1="214" x2="343" y1="55.5" y2="55.5"/><text fill="#000000" font-family="sans-serif" font-size="14" lengthAdjust="spacing" textLength="42" x="219" y="72.4951">Route</text></g><!--class WalkingStrategy--><g id="elem_WalkingStrategy"><rect codeLine="8" fill="#F1F1F1" height="64.2969" id="WalkingStrategy" rx="2.5" ry="2.5" style="stroke:#181818;stroke-width:0.5;" width="142" x="104.5" y="148"/><ellipse cx="119.5" cy="164" fill="#ADD1B2" rx="11" ry="11" style="stroke:#181818;stroke-width:1.0;"/><path d="M122.4688,169.6406 Q121.8906,169.9375 121.25,170.0781 Q120.6094,170.2344 119.9063,170.2344 Q117.4063,170.2344 116.0781,168.5938 Q114.7656,166.9375 114.7656,163.8125 Q114.7656,160.6875 116.0781,159.0313 Q117.4063,157.375 119.9063,157.375 Q120.6094,157.375 121.25,157.5313 Q121.9063,157.6875 122.4688,157.9844 L122.4688,160.7031 Q121.8438,160.125 121.25,159.8594 Q120.6563,159.5781 120.0313,159.5781 Q118.6875,159.5781 118,160.6563 Q117.3125,161.7188 117.3125,163.8125 Q117.3125,165.9063 118,166.9844 Q118.6875,168.0469 120.0313,168.0469 Q120.6563,168.0469 121.25,167.7813 Q121.8438,167.5 122.4688,166.9219 L122.4688,169.6406 Z " fill="#000000"/><text fill="#000000" font-family="sans-serif" font-size="14" lengthAdjust="spacing" textLength="110" x="133.5" y="168.8467">WalkingStrategy</text><line style="stroke:#181818;stroke-width:0.5;" x1="105.5" x2="245.5" y1="180" y2="180"/><line style="stroke:#181818;stroke-width:0.5;" x1="105.5" x2="245.5" y1="188" y2="188"/><text fill="#000000" font-family="sans-serif" font-size="14" lengthAdjust="spacing" textLength="42" x="110.5" y="204.9951">Route</text></g><!--class PublicTransportStrategy--><g id="elem_PublicTransportStrategy"><rect codeLine="11" fill="#F1F1F1" height="64.2969" id="PublicTransportStrategy" rx="2.5" ry="2.5" style="stroke:#181818;stroke-width:0.5;" width="197" x="282" y="148"/><ellipse cx="297" cy="164" fill="#ADD1B2" rx="11" ry="11" style="stroke:#181818;stroke-width:1.0;"/><path d="M299.9688,169.6406 Q299.3906,169.9375 298.75,170.0781 Q298.1094,170.2344 297.4063,170.2344 Q294.9063,170.2344 293.5781,168.5938 Q292.2656,166.9375 292.2656,163.8125 Q292.2656,160.6875 293.5781,159.0313 Q294.9063,157.375 297.4063,157.375 Q298.1094,157.375 298.75,157.5313 Q299.4063,157.6875 299.9688,157.9844 L299.9688,160.7031 Q299.3438,160.125 298.75,159.8594 Q298.1563,159.5781 297.5313,159.5781 Q296.1875,159.5781 295.5,160.6563 Q294.8125,161.7188 294.8125,163.8125 Q294.8125,165.9063 295.5,166.9844 Q296.1875,168.0469 297.5313,168.0469 Q298.1563,168.0469 298.75,167.7813 Q299.3438,167.5 299.9688,166.9219 L299.9688,169.6406 Z " fill="#000000"/><text fill="#000000" font-family="sans-serif" font-size="14" lengthAdjust="spacing" textLength="165" x="311" y="168.8467">PublicTransportStrategy</text><line style="stroke:#181818;stroke-width:0.5;" x1="283" x2="478" y1="180" y2="180"/><line style="stroke:#181818;stroke-width:0.5;" x1="283" x2="478" y1="188" y2="188"/><text fill="#000000" font-family="sans-serif" font-size="14" lengthAdjust="spacing" textLength="42" x="288" y="204.9951">Route</text></g><!--link Navigator to RouteStrategy--><g id="link_Navigator_RouteStrategy"><path codeLine="15" d="M191.97,47.5 C194.23,47.5 196.5,47.5 198.77,47.5 " fill="none" id="Navigator-RouteStrategy" style="stroke:#181818;stroke-width:1.0;"/><polygon fill="none" points="179.23,47.5,185.23,51.5,191.23,47.5,185.23,43.5,179.23,47.5" style="stroke:#181818;stroke-width:1.0;"/><polygon fill="#181818" points="211.7,47.5,202.7,43.5,206.7,47.5,202.7,51.5,211.7,47.5" style="stroke:#181818;stroke-width:1.0;"/><line style="stroke:#181818;stroke-width:1.0;" x1="206.7" x2="198.7" y1="47.5" y2="47.5"/></g><!--reverse link RouteStrategy to WalkingStrategy--><g id="link_RouteStrategy_WalkingStrategy"><path codeLine="16" d="M240.92,96.11 C227.4,113.25 212.49,132.13 200.33,147.54 " fill="none" id="RouteStrategy-backto-WalkingStrategy" style="stroke:#181818;stroke-width:1.0;stroke-dasharray:7.0,7.0;"/><polygon fill="none" points="235.94,92.12,253.83,80.76,246.93,100.79,235.94,92.12" style="stroke:#181818;stroke-width:1.0;"/></g><!--reverse link RouteStrategy to PublicTransportStrategy--><g id="link_RouteStrategy_PublicTransportStrategy"><path codeLine="17" d="M315.71,96.11 C329.11,113.25 343.87,132.13 355.91,147.54 " fill="none" id="RouteStrategy-backto-PublicTransportStrategy" style="stroke:#181818;stroke-width:1.0;stroke-dasharray:7.0,7.0;"/><polygon fill="none" points="309.73,100.83,302.93,80.76,320.76,92.21,309.73,100.83" style="stroke:#181818;stroke-width:1.0;"/></g><!--SRC=[Iyv9B2vMy4iioqnFBCalKgZcKb0eBYbAB4bDhrG8oYyjIGs6ye0IrRcf9HdvARKG2QvQhioyajIYjCJaL5IbO5Cm52U3hGfFpCdEp4idHcb0QL9EPd98KM9USK5-KGb-BLm8F-Jh5cMcPvJesg5v0DrglT82lHfqHRWinQOO0000]--></g></svg>