<?xml version="1.0" encoding="us-ascii" standalone="no"?><svg xmlns="http://www.w3.org/2000/svg" xmlns:xlink="http://www.w3.org/1999/xlink" contentStyleType="text/css" height="424px" preserveAspectRatio="none" style="width:588px;height:424px;background:#FFFFFF;" version="1.1" viewBox="0 0 588 424" width="588px" zoomAndPan="magnify"><defs/><g><!--class Meditator--><g id="elem_Meditator"><rect codeLine="2" fill="#F1F1F1" height="80.5938" id="Meditator" rx="2.5" ry="2.5" style="stroke:#181818;stroke-width:0.5;" width="142" x="128" y="15"/><ellipse cx="163.25" cy="31" fill="#B4A7E5" rx="11" ry="11" style="stroke:#181818;stroke-width:1.0;"/><path d="M159.1719,26.7656 L159.1719,24.6094 L166.5625,24.6094 L166.5625,26.7656 L164.0938,26.7656 L164.0938,34.8438 L166.5625,34.8438 L166.5625,37 L159.1719,37 L159.1719,34.8438 L161.6406,34.8438 L161.6406,26.7656 L159.1719,26.7656 Z " fill="#000000"/><text fill="#000000" font-family="sans-serif" font-size="14" font-style="italic" lengthAdjust="spacing" textLength="65" x="181.75" y="35.8467">Meditator</text><line style="stroke:#181818;stroke-width:0.5;" x1="129" x2="269" y1="47" y2="47"/><line style="stroke:#181818;stroke-width:0.5;" x1="129" x2="269" y1="55" y2="55"/><text fill="#000000" font-family="sans-serif" font-size="14" lengthAdjust="spacing" textLength="121" x="134" y="71.9951">createColleagues</text><text fill="#000000" font-family="sans-serif" font-size="14" lengthAdjust="spacing" textLength="130" x="134" y="88.292">colleagueChanged</text></g><!--class Colleague--><g id="elem_Colleague"><rect codeLine="6" fill="#F1F1F1" height="96.8906" id="Colleague" rx="2.5" ry="2.5" style="stroke:#181818;stroke-width:0.5;" width="147" x="315.5" y="7"/><ellipse cx="351.2" cy="23" fill="#A9DCDF" rx="11" ry="11" style="stroke:#181818;stroke-width:1.0;"/><path d="M351.3094,18.3438 L350.1531,23.4219 L352.4813,23.4219 L351.3094,18.3438 Z M349.825,16.1094 L352.8094,16.1094 L356.1688,28.5 L353.7156,28.5 L352.95,25.4375 L349.6688,25.4375 L348.9188,28.5 L346.4813,28.5 L349.825,16.1094 Z " fill="#000000"/><text fill="#000000" font-family="sans-serif" font-size="14" font-style="italic" lengthAdjust="spacing" textLength="69" x="369.8" y="27.8467">Colleague</text><line style="stroke:#181818;stroke-width:0.5;" x1="316.5" x2="461.5" y1="39" y2="39"/><text fill="#000000" font-family="sans-serif" font-size="14" lengthAdjust="spacing" textLength="135" x="321.5" y="55.9951">meditator Meditator</text><line style="stroke:#181818;stroke-width:0.5;" x1="316.5" x2="461.5" y1="63.2969" y2="63.2969"/><text fill="#000000" font-family="sans-serif" font-size="14" lengthAdjust="spacing" textLength="87" x="321.5" y="80.292">setMeditator</text><text fill="#000000" font-family="sans-serif" font-size="14" font-style="italic" lengthAdjust="spacing" textLength="117" x="321.5" y="96.5889">controlColleague</text></g><!--class ConcreteColleague1--><g id="elem_ConcreteColleague1"><rect codeLine="11" fill="#F1F1F1" height="64.2969" id="ConcreteColleague1" rx="2.5" ry="2.5" style="stroke:#181818;stroke-width:0.5;" width="174" x="198" y="196.5"/><ellipse cx="213" cy="212.5" fill="#ADD1B2" rx="11" ry="11" style="stroke:#181818;stroke-width:1.0;"/><path d="M215.9688,218.1406 Q215.3906,218.4375 214.75,218.5781 Q214.1094,218.7344 213.4063,218.7344 Q210.9063,218.7344 209.5781,217.0938 Q208.2656,215.4375 208.2656,212.3125 Q208.2656,209.1875 209.5781,207.5313 Q210.9063,205.875 213.4063,205.875 Q214.1094,205.875 214.75,206.0313 Q215.4063,206.1875 215.9688,206.4844 L215.9688,209.2031 Q215.3438,208.625 214.75,208.3594 Q214.1563,208.0781 213.5313,208.0781 Q212.1875,208.0781 211.5,209.1563 Q210.8125,210.2188 210.8125,212.3125 Q210.8125,214.4063 211.5,215.4844 Q212.1875,216.5469 213.5313,216.5469 Q214.1563,216.5469 214.75,216.2813 Q215.3438,216 215.9688,215.4219 L215.9688,218.1406 Z " fill="#000000"/><text fill="#000000" font-family="sans-serif" font-size="14" lengthAdjust="spacing" textLength="142" x="227" y="217.3467">ConcreteColleague1</text><line style="stroke:#181818;stroke-width:0.5;" x1="199" x2="371" y1="228.5" y2="228.5"/><line style="stroke:#181818;stroke-width:0.5;" x1="199" x2="371" y1="236.5" y2="236.5"/><text fill="#000000" font-family="sans-serif" font-size="14" lengthAdjust="spacing" textLength="117" x="204" y="253.4951">controlColleague</text></g><!--class ConcreteColleague2--><g id="elem_ConcreteColleague2"><rect codeLine="14" fill="#F1F1F1" height="64.2969" id="ConcreteColleague2" rx="2.5" ry="2.5" style="stroke:#181818;stroke-width:0.5;" width="174" x="272" y="353"/><ellipse cx="287" cy="369" fill="#ADD1B2" rx="11" ry="11" style="stroke:#181818;stroke-width:1.0;"/><path d="M289.9688,374.6406 Q289.3906,374.9375 288.75,375.0781 Q288.1094,375.2344 287.4063,375.2344 Q284.9063,375.2344 283.5781,373.5938 Q282.2656,371.9375 282.2656,368.8125 Q282.2656,365.6875 283.5781,364.0313 Q284.9063,362.375 287.4063,362.375 Q288.1094,362.375 288.75,362.5313 Q289.4063,362.6875 289.9688,362.9844 L289.9688,365.7031 Q289.3438,365.125 288.75,364.8594 Q288.1563,364.5781 287.5313,364.5781 Q286.1875,364.5781 285.5,365.6563 Q284.8125,366.7188 284.8125,368.8125 Q284.8125,370.9063 285.5,371.9844 Q286.1875,373.0469 287.5313,373.0469 Q288.1563,373.0469 288.75,372.7813 Q289.3438,372.5 289.9688,371.9219 L289.9688,374.6406 Z " fill="#000000"/><text fill="#000000" font-family="sans-serif" font-size="14" lengthAdjust="spacing" textLength="142" x="301" y="373.8467">ConcreteColleague2</text><line style="stroke:#181818;stroke-width:0.5;" x1="273" x2="445" y1="385" y2="385"/><line style="stroke:#181818;stroke-width:0.5;" x1="273" x2="445" y1="393" y2="393"/><text fill="#000000" font-family="sans-serif" font-size="14" lengthAdjust="spacing" textLength="117" x="278" y="409.9951">controlColleague</text></g><!--class ConcreteColleague3--><g id="elem_ConcreteColleague3"><rect codeLine="17" fill="#F1F1F1" height="64.2969" id="ConcreteColleague3" rx="2.5" ry="2.5" style="stroke:#181818;stroke-width:0.5;" width="174" x="407" y="196.5"/><ellipse cx="422" cy="212.5" fill="#ADD1B2" rx="11" ry="11" style="stroke:#181818;stroke-width:1.0;"/><path d="M424.9688,218.1406 Q424.3906,218.4375 423.75,218.5781 Q423.1094,218.7344 422.4063,218.7344 Q419.9063,218.7344 418.5781,217.0938 Q417.2656,215.4375 417.2656,212.3125 Q417.2656,209.1875 418.5781,207.5313 Q419.9063,205.875 422.4063,205.875 Q423.1094,205.875 423.75,206.0313 Q424.4063,206.1875 424.9688,206.4844 L424.9688,209.2031 Q424.3438,208.625 423.75,208.3594 Q423.1563,208.0781 422.5313,208.0781 Q421.1875,208.0781 420.5,209.1563 Q419.8125,210.2188 419.8125,212.3125 Q419.8125,214.4063 420.5,215.4844 Q421.1875,216.5469 422.5313,216.5469 Q423.1563,216.5469 423.75,216.2813 Q424.3438,216 424.9688,215.4219 L424.9688,218.1406 Z " fill="#000000"/><text fill="#000000" font-family="sans-serif" font-size="14" lengthAdjust="spacing" textLength="142" x="436" y="217.3467">ConcreteColleague3</text><line style="stroke:#181818;stroke-width:0.5;" x1="408" x2="580" y1="228.5" y2="228.5"/><line style="stroke:#181818;stroke-width:0.5;" x1="408" x2="580" y1="236.5" y2="236.5"/><text fill="#000000" font-family="sans-serif" font-size="14" lengthAdjust="spacing" textLength="117" x="413" y="253.4951">controlColleague</text></g><!--class ConcreteMeditaor--><g id="elem_ConcreteMeditaor"><rect codeLine="20" fill="#F1F1F1" height="129.4844" id="ConcreteMeditaor" rx="2.5" ry="2.5" style="stroke:#181818;stroke-width:0.5;" width="156" x="7" y="164"/><ellipse cx="22" cy="180" fill="#ADD1B2" rx="11" ry="11" style="stroke:#181818;stroke-width:1.0;"/><path d="M24.9688,185.6406 Q24.3906,185.9375 23.75,186.0781 Q23.1094,186.2344 22.4063,186.2344 Q19.9063,186.2344 18.5781,184.5938 Q17.2656,182.9375 17.2656,179.8125 Q17.2656,176.6875 18.5781,175.0313 Q19.9063,173.375 22.4063,173.375 Q23.1094,173.375 23.75,173.5313 Q24.4063,173.6875 24.9688,173.9844 L24.9688,176.7031 Q24.3438,176.125 23.75,175.8594 Q23.1563,175.5781 22.5313,175.5781 Q21.1875,175.5781 20.5,176.6563 Q19.8125,177.7188 19.8125,179.8125 Q19.8125,181.9063 20.5,182.9844 Q21.1875,184.0469 22.5313,184.0469 Q23.1563,184.0469 23.75,183.7813 Q24.3438,183.5 24.9688,182.9219 L24.9688,185.6406 Z " fill="#000000"/><text fill="#000000" font-family="sans-serif" font-size="14" lengthAdjust="spacing" textLength="124" x="36" y="184.8467">ConcreteMeditaor</text><line style="stroke:#181818;stroke-width:0.5;" x1="8" x2="162" y1="196" y2="196"/><text fill="#000000" font-family="sans-serif" font-size="14" lengthAdjust="spacing" textLength="126" x="13" y="212.9951">controlColleague1</text><text fill="#000000" font-family="sans-serif" font-size="14" lengthAdjust="spacing" textLength="126" x="13" y="229.292">controlColleague2</text><text fill="#000000" font-family="sans-serif" font-size="14" lengthAdjust="spacing" textLength="126" x="13" y="245.5889">controlColleague3</text><line style="stroke:#181818;stroke-width:0.5;" x1="8" x2="162" y1="252.8906" y2="252.8906"/><text fill="#000000" font-family="sans-serif" font-size="14" lengthAdjust="spacing" textLength="121" x="13" y="269.8857">createColleagues</text><text fill="#000000" font-family="sans-serif" font-size="14" lengthAdjust="spacing" textLength="130" x="13" y="286.1826">colleagueChanged</text></g><!--link Meditator to Colleague--><g id="link_Meditator_Colleague"><path codeLine="28" d="M284.29,56 C284.29,56 301.09,56 301.09,56 " fill="none" id="Meditator-Colleague" style="stroke:#181818;stroke-width:1.0;"/><polygon fill="#181818" points="271.29,56,280.29,60,276.29,56,280.29,52,271.29,56" style="stroke:#181818;stroke-width:1.0;"/><line style="stroke:#181818;stroke-width:1.0;" x1="276.29" x2="284.29" y1="56" y2="56"/><polygon fill="none" points="314.09,56,308.09,52,302.09,56,308.09,60,314.09,56" style="stroke:#181818;stroke-width:1.0;"/></g><!--reverse link Meditator to ConcreteMeditaor--><g id="link_Meditator_ConcreteMeditaor"><path codeLine="29" d="M145.5,117.5 C145.5,117.5 145.5,163.79 145.5,163.79 " fill="none" id="Meditator-backto-ConcreteMeditaor" style="stroke:#181818;stroke-width:1.0;stroke-dasharray:7.0,7.0;"/><polygon fill="none" points="138.5,117.5,145.5,97.5,152.5,117.5,138.5,117.5" style="stroke:#181818;stroke-width:1.0;"/></g><!--link ConcreteMeditaor to ConcreteColleague3--><g id="link_ConcreteMeditaor_ConcreteColleague3"><path codeLine="30" d="M184.35,272 C184.35,272 426.5,272 426.5,272 C426.5,272 426.5,270.86 426.5,270.86 " fill="none" id="ConcreteMeditaor-ConcreteColleague3" style="stroke:#181818;stroke-width:1.0;"/><polygon fill="none" points="164.35,272,170.35,276,176.35,272,170.35,268,164.35,272" style="stroke:#181818;stroke-width:1.0;"/><polygon fill="none" points="419.5,281.57,426.5,261.57,433.5,281.57,419.5,281.57" style="stroke:#181818;stroke-width:1.0;"/></g><!--link ConcreteMeditaor to ConcreteColleague2--><g id="link_ConcreteMeditaor_ConcreteColleague2"><path codeLine="31" d="M184.26,283 C184.26,283 322,283 322,283 C322,283 322,331.73 322,331.73 " fill="none" id="ConcreteMeditaor-ConcreteColleague2" style="stroke:#181818;stroke-width:1.0;"/><polygon fill="none" points="164.26,283,170.26,287,176.26,283,170.26,279,164.26,283" style="stroke:#181818;stroke-width:1.0;"/><polygon fill="none" points="329,331.73,322,351.73,315,331.73,329,331.73" style="stroke:#181818;stroke-width:1.0;"/></g><!--link ConcreteMeditaor to ConcreteColleague1--><g id="link_ConcreteMeditaor_ConcreteColleague1"><path codeLine="32" d="M174.92,229 C174.92,229 186.37,229 186.37,229 " fill="none" id="ConcreteMeditaor-ConcreteColleague1" style="stroke:#181818;stroke-width:1.0;"/><polygon fill="none" points="164.47,229,170.47,233,176.47,229,170.47,225,164.47,229" style="stroke:#181818;stroke-width:1.0;"/><polygon fill="none" points="176.83,222,196.83,229,176.83,236,176.83,222" style="stroke:#181818;stroke-width:1.0;"/></g><!--reverse link Colleague to ConcreteColleague1--><g id="link_Colleague_ConcreteColleague1"><path codeLine="33" d="M343.75,125.15 C343.75,125.15 343.75,196.05 343.75,196.05 " fill="none" id="Colleague-backto-ConcreteColleague1" style="stroke:#181818;stroke-width:1.0;"/><polygon fill="none" points="336.75,125.15,343.75,105.15,350.75,125.15,336.75,125.15" style="stroke:#181818;stroke-width:1.0;"/></g><!--reverse link Colleague to ConcreteColleague2--><g id="link_Colleague_ConcreteColleague2"><path codeLine="34" d="M389.5,125.47 C389.5,125.47 389.5,352.72 389.5,352.72 " fill="none" id="Colleague-backto-ConcreteColleague2" style="stroke:#181818;stroke-width:1.0;"/><polygon fill="none" points="382.5,125.47,389.5,105.47,396.5,125.47,382.5,125.47" style="stroke:#181818;stroke-width:1.0;"/></g><!--reverse link Colleague to ConcreteColleague3--><g id="link_Colleague_ConcreteColleague3"><path codeLine="35" d="M434.75,125.15 C434.75,125.15 434.75,196.05 434.75,196.05 " fill="none" id="Colleague-backto-ConcreteColleague3" style="stroke:#181818;stroke-width:1.0;"/><polygon fill="none" points="427.75,125.15,434.75,105.15,441.75,125.15,427.75,125.15" style="stroke:#181818;stroke-width:1.0;"/></g><!--SRC=[fL8x4e8m4ErpYbmWp02z3RM7M661Z25XagLmaBiRHH0bewBjo_lixeixIjs2XOOhgP5EBN9ZgJPCQa9RGevyZuKa86DvppZl6_JFnS1pYq2O6QKGgWxTqzk4PZNe2WisC3Wuif0JdnKtksOsdsEMHWufYFUJtJLBapLgjlLPkGBdV93sCov6Z5yM-5gO_2fCDmh7NU-NVcN70Im9OEaVBR57EqOeB4di5iMineowDZg_PHWXhAng4fwsFiz6VhAH7xF07n1TEvAd4W9rYy-aT6Lq0G00]--></g></svg>