<?xml version="1.0" encoding="us-ascii" standalone="no"?><svg xmlns="http://www.w3.org/2000/svg" xmlns:xlink="http://www.w3.org/1999/xlink" contentStyleType="text/css" height="236px" preserveAspectRatio="none" style="width:600px;height:236px;background:#FFFFFF;" version="1.1" viewBox="0 0 600 236" width="600px" zoomAndPan="magnify"><defs/><g><!--class Visitor--><g id="elem_Visitor"><rect codeLine="2" fill="#F1F1F1" height="80.5938" id="Visitor" rx="2.5" ry="2.5" style="stroke:#181818;stroke-width:0.5;" width="179" x="7" y="7"/><ellipse cx="71.25" cy="23" fill="#B4A7E5" rx="11" ry="11" style="stroke:#181818;stroke-width:1.0;"/><path d="M67.1719,18.7656 L67.1719,16.6094 L74.5625,16.6094 L74.5625,18.7656 L72.0938,18.7656 L72.0938,26.8438 L74.5625,26.8438 L74.5625,29 L67.1719,29 L67.1719,26.8438 L69.6406,26.8438 L69.6406,18.7656 L67.1719,18.7656 Z " fill="#000000"/><text fill="#000000" font-family="sans-serif" font-size="14" font-style="italic" lengthAdjust="spacing" textLength="42" x="91.75" y="27.8467">Visitor</text><line style="stroke:#181818;stroke-width:0.5;" x1="8" x2="185" y1="39" y2="39"/><line style="stroke:#181818;stroke-width:0.5;" x1="8" x2="185" y1="47" y2="47"/><text fill="#000000" font-family="sans-serif" font-size="14" lengthAdjust="spacing" textLength="166" x="13" y="63.9951">visit(ConcreteElementA)</text><text fill="#000000" font-family="sans-serif" font-size="14" lengthAdjust="spacing" textLength="167" x="13" y="80.292">visit(ConcreteElementB)</text></g><!--class ConcreteVisitor--><g id="elem_ConcreteVisitor"><rect codeLine="6" fill="#F1F1F1" height="80.5938" id="ConcreteVisitor" rx="2.5" ry="2.5" style="stroke:#181818;stroke-width:0.5;" width="179" x="7" y="149"/><ellipse cx="40.45" cy="165" fill="#ADD1B2" rx="11" ry="11" style="stroke:#181818;stroke-width:1.0;"/><path d="M43.4188,170.6406 Q42.8406,170.9375 42.2,171.0781 Q41.5594,171.2344 40.8563,171.2344 Q38.3563,171.2344 37.0281,169.5938 Q35.7156,167.9375 35.7156,164.8125 Q35.7156,161.6875 37.0281,160.0313 Q38.3563,158.375 40.8563,158.375 Q41.5594,158.375 42.2,158.5313 Q42.8563,158.6875 43.4188,158.9844 L43.4188,161.7031 Q42.7938,161.125 42.2,160.8594 Q41.6063,160.5781 40.9813,160.5781 Q39.6375,160.5781 38.95,161.6563 Q38.2625,162.7188 38.2625,164.8125 Q38.2625,166.9063 38.95,167.9844 Q39.6375,169.0469 40.9813,169.0469 Q41.6063,169.0469 42.2,168.7813 Q42.7938,168.5 43.4188,167.9219 L43.4188,170.6406 Z " fill="#000000"/><text fill="#000000" font-family="sans-serif" font-size="14" lengthAdjust="spacing" textLength="106" x="58.55" y="169.8467">ConcreteVisitor</text><line style="stroke:#181818;stroke-width:0.5;" x1="8" x2="185" y1="181" y2="181"/><line style="stroke:#181818;stroke-width:0.5;" x1="8" x2="185" y1="189" y2="189"/><text fill="#000000" font-family="sans-serif" font-size="14" lengthAdjust="spacing" textLength="166" x="13" y="205.9951">visit(ConcreteElementA)</text><text fill="#000000" font-family="sans-serif" font-size="14" lengthAdjust="spacing" textLength="167" x="13" y="222.292">visit(ConcreteElementB)</text></g><!--class Element--><g id="elem_Element"><rect codeLine="10" fill="#F1F1F1" height="64.2969" id="Element" rx="2.5" ry="2.5" style="stroke:#181818;stroke-width:0.5;" width="111" x="270" y="15.5"/><ellipse cx="294.9" cy="31.5" fill="#B4A7E5" rx="11" ry="11" style="stroke:#181818;stroke-width:1.0;"/><path d="M290.8219,27.2656 L290.8219,25.1094 L298.2125,25.1094 L298.2125,27.2656 L295.7438,27.2656 L295.7438,35.3438 L298.2125,35.3438 L298.2125,37.5 L290.8219,37.5 L290.8219,35.3438 L293.2906,35.3438 L293.2906,27.2656 L290.8219,27.2656 Z " fill="#000000"/><text fill="#000000" font-family="sans-serif" font-size="14" font-style="italic" lengthAdjust="spacing" textLength="57" x="311.1" y="36.3467">Element</text><line style="stroke:#181818;stroke-width:0.5;" x1="271" x2="380" y1="47.5" y2="47.5"/><line style="stroke:#181818;stroke-width:0.5;" x1="271" x2="380" y1="55.5" y2="55.5"/><text fill="#000000" font-family="sans-serif" font-size="14" lengthAdjust="spacing" textLength="99" x="276" y="72.4951">accept(Visitor)</text></g><!--class ConcreteElementB--><g id="elem_ConcreteElementB"><rect codeLine="13" fill="#F1F1F1" height="64.2969" id="ConcreteElementB" rx="2.5" ry="2.5" style="stroke:#181818;stroke-width:0.5;" width="163" x="430" y="157.5"/><ellipse cx="445" cy="173.5" fill="#ADD1B2" rx="11" ry="11" style="stroke:#181818;stroke-width:1.0;"/><path d="M447.9688,179.1406 Q447.3906,179.4375 446.75,179.5781 Q446.1094,179.7344 445.4063,179.7344 Q442.9063,179.7344 441.5781,178.0938 Q440.2656,176.4375 440.2656,173.3125 Q440.2656,170.1875 441.5781,168.5313 Q442.9063,166.875 445.4063,166.875 Q446.1094,166.875 446.75,167.0313 Q447.4063,167.1875 447.9688,167.4844 L447.9688,170.2031 Q447.3438,169.625 446.75,169.3594 Q446.1563,169.0781 445.5313,169.0781 Q444.1875,169.0781 443.5,170.1563 Q442.8125,171.2188 442.8125,173.3125 Q442.8125,175.4063 443.5,176.4844 Q444.1875,177.5469 445.5313,177.5469 Q446.1563,177.5469 446.75,177.2813 Q447.3438,177 447.9688,176.4219 L447.9688,179.1406 Z " fill="#000000"/><text fill="#000000" font-family="sans-serif" font-size="14" lengthAdjust="spacing" textLength="131" x="459" y="178.3467">ConcreteElementB</text><line style="stroke:#181818;stroke-width:0.5;" x1="431" x2="592" y1="189.5" y2="189.5"/><line style="stroke:#181818;stroke-width:0.5;" x1="431" x2="592" y1="197.5" y2="197.5"/><text fill="#000000" font-family="sans-serif" font-size="14" lengthAdjust="spacing" textLength="99" x="436" y="214.4951">accept(Visitor)</text></g><!--class ConcreteElementA--><g id="elem_ConcreteElementA"><rect codeLine="16" fill="#F1F1F1" height="64.2969" id="ConcreteElementA" rx="2.5" ry="2.5" style="stroke:#181818;stroke-width:0.5;" width="162" x="232.5" y="157.5"/><ellipse cx="247.5" cy="173.5" fill="#ADD1B2" rx="11" ry="11" style="stroke:#181818;stroke-width:1.0;"/><path d="M250.4688,179.1406 Q249.8906,179.4375 249.25,179.5781 Q248.6094,179.7344 247.9063,179.7344 Q245.4063,179.7344 244.0781,178.0938 Q242.7656,176.4375 242.7656,173.3125 Q242.7656,170.1875 244.0781,168.5313 Q245.4063,166.875 247.9063,166.875 Q248.6094,166.875 249.25,167.0313 Q249.9063,167.1875 250.4688,167.4844 L250.4688,170.2031 Q249.8438,169.625 249.25,169.3594 Q248.6563,169.0781 248.0313,169.0781 Q246.6875,169.0781 246,170.1563 Q245.3125,171.2188 245.3125,173.3125 Q245.3125,175.4063 246,176.4844 Q246.6875,177.5469 248.0313,177.5469 Q248.6563,177.5469 249.25,177.2813 Q249.8438,177 250.4688,176.4219 L250.4688,179.1406 Z " fill="#000000"/><text fill="#000000" font-family="sans-serif" font-size="14" lengthAdjust="spacing" textLength="130" x="261.5" y="178.3467">ConcreteElementA</text><line style="stroke:#181818;stroke-width:0.5;" x1="233.5" x2="393.5" y1="189.5" y2="189.5"/><line style="stroke:#181818;stroke-width:0.5;" x1="233.5" x2="393.5" y1="197.5" y2="197.5"/><text fill="#000000" font-family="sans-serif" font-size="14" lengthAdjust="spacing" textLength="99" x="238.5" y="214.4951">accept(Visitor)</text></g><!--reverse link Visitor to ConcreteVisitor--><g id="link_Visitor_ConcreteVisitor"><path codeLine="28" d="M96.5,109.23 C96.5,122.58 96.5,136.38 96.5,148.66 " fill="none" id="Visitor-backto-ConcreteVisitor" style="stroke:#181818;stroke-width:1.0;stroke-dasharray:7.0,7.0;"/><polygon fill="none" points="89.5,109.24,96.5,89.24,103.5,109.24,89.5,109.24" style="stroke:#181818;stroke-width:1.0;"/></g><!--reverse link Visitor to Element--><g id="link_Visitor_Element"><path codeLine="29" d="M192.3,47.5 C218.63,47.5 246.32,47.5 269.59,47.5 " fill="none" id="Visitor-backto-Element" style="stroke:#181818;stroke-width:1.0;"/><polygon fill="#181818" points="187.35,47.5,196.35,51.5,192.35,47.5,196.35,43.5,187.35,47.5" style="stroke:#181818;stroke-width:1.0;"/><text fill="#000000" font-family="sans-serif" font-size="13" lengthAdjust="spacing" textLength="47" x="204.5" y="40.5669">call vist</text></g><!--reverse link Element to ConcreteElementA--><g id="link_Element_ConcreteElementA"><path codeLine="30" d="M321.03,100.63 C319.4,119.64 317.61,140.54 316.18,157.19 " fill="none" id="Element-backto-ConcreteElementA" style="stroke:#181818;stroke-width:1.0;stroke-dasharray:7.0,7.0;"/><polygon fill="none" points="314.12,100.25,322.81,80.92,328.07,101.44,314.12,100.25" style="stroke:#181818;stroke-width:1.0;"/></g><!--reverse link Element to ConcreteElementB--><g id="link_Element_ConcreteElementB"><path codeLine="31" d="M383.88,92.44 C411.79,113.45 444.56,138.11 469.9,157.19 " fill="none" id="Element-backto-ConcreteElementB" style="stroke:#181818;stroke-width:1.0;stroke-dasharray:7.0,7.0;"/><polygon fill="none" points="380.01,97.54,368.24,79.92,388.43,86.35,380.01,97.54" style="stroke:#181818;stroke-width:1.0;"/></g><!--SRC=[hL7B3e8m4BplL-nDEC07U211uozuRyeI6aiXPTKOvDy5QPN7WSHuQDBCx4odiyr5cLfOKQ9MXlXHq_i2oZ3PN4Z2iseKLnPRG6nBugBAEhmDO72iZBJ4TD9Kak4qt1mvXD21rA9fq3F_z_zcT-ZSMqX9DGVktNKWR_MJAjrImGwTKAinsWud0XfjOYTSb1Jsmrr_2fMHDv3AIas3hmEYhBgRAF6Vdn2UMRW2B7SHN-lucVZLWwynqfHpzC7tA8NMmo8OLZKu2nzYLUwSVm40]--></g></svg>