<?xml version="1.0" encoding="us-ascii" standalone="no"?><svg xmlns="http://www.w3.org/2000/svg" xmlns:xlink="http://www.w3.org/1999/xlink" contentStyleType="text/css" height="268px" preserveAspectRatio="none" style="width:667px;height:268px;background:#FFFFFF;" version="1.1" viewBox="0 0 667 268" width="667px" zoomAndPan="magnify"><defs/><g><!--class Visitor--><g id="elem_Visitor"><rect codeLine="2" fill="#F1F1F1" height="96.8906" id="Visitor" rx="2.5" ry="2.5" style="stroke:#181818;stroke-width:0.5;" width="212" x="25" y="7"/><ellipse cx="105.75" cy="23" fill="#B4A7E5" rx="11" ry="11" style="stroke:#181818;stroke-width:1.0;"/><path d="M101.6719,18.7656 L101.6719,16.6094 L109.0625,16.6094 L109.0625,18.7656 L106.5938,18.7656 L106.5938,26.8438 L109.0625,26.8438 L109.0625,29 L101.6719,29 L101.6719,26.8438 L104.1406,26.8438 L104.1406,18.7656 L101.6719,18.7656 Z " fill="#000000"/><text fill="#000000" font-family="sans-serif" font-size="14" font-style="italic" lengthAdjust="spacing" textLength="42" x="126.25" y="27.8467">Visitor</text><line style="stroke:#181818;stroke-width:0.5;" x1="26" x2="236" y1="39" y2="39"/><line style="stroke:#181818;stroke-width:0.5;" x1="26" x2="236" y1="47" y2="47"/><text fill="#000000" font-family="sans-serif" font-size="14" lengthAdjust="spacing" textLength="158" x="31" y="63.9951">VisitForSquare(Square)</text><text fill="#000000" font-family="sans-serif" font-size="14" lengthAdjust="spacing" textLength="136" x="31" y="80.292">VisitForCircle(Circle)</text><text fill="#000000" font-family="sans-serif" font-size="14" lengthAdjust="spacing" textLength="200" x="31" y="96.5889">VisitForRectangle(Rectangle)</text></g><!--class AreaCalculator--><g id="elem_AreaCalculator"><rect codeLine="7" fill="#F1F1F1" height="96.8906" id="AreaCalculator" rx="2.5" ry="2.5" style="stroke:#181818;stroke-width:0.5;" width="212" x="7" y="165"/><ellipse cx="59.25" cy="181" fill="#ADD1B2" rx="11" ry="11" style="stroke:#181818;stroke-width:1.0;"/><path d="M62.2188,186.6406 Q61.6406,186.9375 61,187.0781 Q60.3594,187.2344 59.6563,187.2344 Q57.1563,187.2344 55.8281,185.5938 Q54.5156,183.9375 54.5156,180.8125 Q54.5156,177.6875 55.8281,176.0313 Q57.1563,174.375 59.6563,174.375 Q60.3594,174.375 61,174.5313 Q61.6563,174.6875 62.2188,174.9844 L62.2188,177.7031 Q61.5938,177.125 61,176.8594 Q60.4063,176.5781 59.7813,176.5781 Q58.4375,176.5781 57.75,177.6563 Q57.0625,178.7188 57.0625,180.8125 Q57.0625,182.9063 57.75,183.9844 Q58.4375,185.0469 59.7813,185.0469 Q60.4063,185.0469 61,184.7813 Q61.5938,184.5 62.2188,183.9219 L62.2188,186.6406 Z " fill="#000000"/><text fill="#000000" font-family="sans-serif" font-size="14" lengthAdjust="spacing" textLength="99" x="79.75" y="185.8467">AreaCalculator</text><line style="stroke:#181818;stroke-width:0.5;" x1="8" x2="218" y1="197" y2="197"/><line style="stroke:#181818;stroke-width:0.5;" x1="8" x2="218" y1="205" y2="205"/><text fill="#000000" font-family="sans-serif" font-size="14" lengthAdjust="spacing" textLength="158" x="13" y="221.9951">VisitForSquare(Square)</text><text fill="#000000" font-family="sans-serif" font-size="14" lengthAdjust="spacing" textLength="136" x="13" y="238.292">VisitForCircle(Circle)</text><text fill="#000000" font-family="sans-serif" font-size="14" lengthAdjust="spacing" textLength="200" x="13" y="254.5889">VisitForRectangle(Rectangle)</text></g><!--class Shape--><g id="elem_Shape"><rect codeLine="12" fill="#F1F1F1" height="64.2969" id="Shape" rx="2.5" ry="2.5" style="stroke:#181818;stroke-width:0.5;" width="112" x="383" y="23.5"/><ellipse cx="414.2" cy="39.5" fill="#B4A7E5" rx="11" ry="11" style="stroke:#181818;stroke-width:1.0;"/><path d="M410.1219,35.2656 L410.1219,33.1094 L417.5125,33.1094 L417.5125,35.2656 L415.0438,35.2656 L415.0438,43.3438 L417.5125,43.3438 L417.5125,45.5 L410.1219,45.5 L410.1219,43.3438 L412.5906,43.3438 L412.5906,35.2656 L410.1219,35.2656 Z " fill="#000000"/><text fill="#000000" font-family="sans-serif" font-size="14" font-style="italic" lengthAdjust="spacing" textLength="44" x="431.8" y="44.3467">Shape</text><line style="stroke:#181818;stroke-width:0.5;" x1="384" x2="494" y1="55.5" y2="55.5"/><line style="stroke:#181818;stroke-width:0.5;" x1="384" x2="494" y1="63.5" y2="63.5"/><text fill="#000000" font-family="sans-serif" font-size="14" lengthAdjust="spacing" textLength="100" x="389" y="80.4951">Accept(Visitor)</text></g><!--class Rectangle--><g id="elem_Rectangle"><rect codeLine="15" fill="#F1F1F1" height="96.8906" id="Rectangle" rx="2.5" ry="2.5" style="stroke:#181818;stroke-width:0.5;" width="112" x="548" y="165"/><ellipse cx="567.5" cy="181" fill="#ADD1B2" rx="11" ry="11" style="stroke:#181818;stroke-width:1.0;"/><path d="M570.4688,186.6406 Q569.8906,186.9375 569.25,187.0781 Q568.6094,187.2344 567.9063,187.2344 Q565.4063,187.2344 564.0781,185.5938 Q562.7656,183.9375 562.7656,180.8125 Q562.7656,177.6875 564.0781,176.0313 Q565.4063,174.375 567.9063,174.375 Q568.6094,174.375 569.25,174.5313 Q569.9063,174.6875 570.4688,174.9844 L570.4688,177.7031 Q569.8438,177.125 569.25,176.8594 Q568.6563,176.5781 568.0313,176.5781 Q566.6875,176.5781 566,177.6563 Q565.3125,178.7188 565.3125,180.8125 Q565.3125,182.9063 566,183.9844 Q566.6875,185.0469 568.0313,185.0469 Q568.6563,185.0469 569.25,184.7813 Q569.8438,184.5 570.4688,183.9219 L570.4688,186.6406 Z " fill="#000000"/><text fill="#000000" font-family="sans-serif" font-size="14" lengthAdjust="spacing" textLength="70" x="582.5" y="185.8467">Rectangle</text><line style="stroke:#181818;stroke-width:0.5;" x1="549" x2="659" y1="197" y2="197"/><text fill="#000000" font-family="sans-serif" font-size="14" lengthAdjust="spacing" textLength="54" x="554" y="213.9951">l float64</text><text fill="#000000" font-family="sans-serif" font-size="14" lengthAdjust="spacing" textLength="60" x="554" y="230.292">b float64</text><line style="stroke:#181818;stroke-width:0.5;" x1="549" x2="659" y1="237.5938" y2="237.5938"/><text fill="#000000" font-family="sans-serif" font-size="14" lengthAdjust="spacing" textLength="100" x="554" y="254.5889">Accept(Visitor)</text></g><!--class Square--><g id="elem_Square"><rect codeLine="20" fill="#F1F1F1" height="80.5938" id="Square" rx="2.5" ry="2.5" style="stroke:#181818;stroke-width:0.5;" width="112" x="254" y="173"/><ellipse cx="282.95" cy="189" fill="#ADD1B2" rx="11" ry="11" style="stroke:#181818;stroke-width:1.0;"/><path d="M285.9188,194.6406 Q285.3406,194.9375 284.7,195.0781 Q284.0594,195.2344 283.3563,195.2344 Q280.8563,195.2344 279.5281,193.5938 Q278.2156,191.9375 278.2156,188.8125 Q278.2156,185.6875 279.5281,184.0313 Q280.8563,182.375 283.3563,182.375 Q284.0594,182.375 284.7,182.5313 Q285.3563,182.6875 285.9188,182.9844 L285.9188,185.7031 Q285.2938,185.125 284.7,184.8594 Q284.1063,184.5781 283.4813,184.5781 Q282.1375,184.5781 281.45,185.6563 Q280.7625,186.7188 280.7625,188.8125 Q280.7625,190.9063 281.45,191.9844 Q282.1375,193.0469 283.4813,193.0469 Q284.1063,193.0469 284.7,192.7813 Q285.2938,192.5 285.9188,191.9219 L285.9188,194.6406 Z " fill="#000000"/><text fill="#000000" font-family="sans-serif" font-size="14" lengthAdjust="spacing" textLength="49" x="300.05" y="193.8467">Square</text><line style="stroke:#181818;stroke-width:0.5;" x1="255" x2="365" y1="205" y2="205"/><text fill="#000000" font-family="sans-serif" font-size="14" lengthAdjust="spacing" textLength="79" x="260" y="221.9951">size float64</text><line style="stroke:#181818;stroke-width:0.5;" x1="255" x2="365" y1="229.2969" y2="229.2969"/><text fill="#000000" font-family="sans-serif" font-size="14" lengthAdjust="spacing" textLength="100" x="260" y="246.292">Accept(Visitor)</text></g><!--class Circle--><g id="elem_Circle"><rect codeLine="24" fill="#F1F1F1" height="80.5938" id="Circle" rx="2.5" ry="2.5" style="stroke:#181818;stroke-width:0.5;" width="112" x="401" y="173"/><ellipse cx="434.9" cy="189" fill="#ADD1B2" rx="11" ry="11" style="stroke:#181818;stroke-width:1.0;"/><path d="M437.8688,194.6406 Q437.2906,194.9375 436.65,195.0781 Q436.0094,195.2344 435.3063,195.2344 Q432.8063,195.2344 431.4781,193.5938 Q430.1656,191.9375 430.1656,188.8125 Q430.1656,185.6875 431.4781,184.0313 Q432.8063,182.375 435.3063,182.375 Q436.0094,182.375 436.65,182.5313 Q437.3063,182.6875 437.8688,182.9844 L437.8688,185.7031 Q437.2438,185.125 436.65,184.8594 Q436.0563,184.5781 435.4313,184.5781 Q434.0875,184.5781 433.4,185.6563 Q432.7125,186.7188 432.7125,188.8125 Q432.7125,190.9063 433.4,191.9844 Q434.0875,193.0469 435.4313,193.0469 Q436.0563,193.0469 436.65,192.7813 Q437.2438,192.5 437.8688,191.9219 L437.8688,194.6406 Z " fill="#000000"/><text fill="#000000" font-family="sans-serif" font-size="14" lengthAdjust="spacing" textLength="38" x="453.1" y="193.8467">Circle</text><line style="stroke:#181818;stroke-width:0.5;" x1="402" x2="512" y1="205" y2="205"/><text fill="#000000" font-family="sans-serif" font-size="14" lengthAdjust="spacing" textLength="93" x="407" y="221.9951">radius float64</text><line style="stroke:#181818;stroke-width:0.5;" x1="402" x2="512" y1="229.2969" y2="229.2969"/><text fill="#000000" font-family="sans-serif" font-size="14" lengthAdjust="spacing" textLength="100" x="407" y="246.292">Accept(Visitor)</text></g><!--reverse link Visitor to AreaCalculator--><g id="link_Visitor_AreaCalculator"><path codeLine="29" d="M123.13,124.72 C121.58,138.16 119.98,152 118.53,164.6 " fill="none" id="Visitor-backto-AreaCalculator" style="stroke:#181818;stroke-width:1.0;stroke-dasharray:7.0,7.0;"/><polygon fill="none" points="116.26,124.22,125.5,105.15,130.16,125.82,116.26,124.22" style="stroke:#181818;stroke-width:1.0;"/></g><!--reverse link Visitor to Shape--><g id="link_Visitor_Shape"><path codeLine="30" d="M243.18,55.5 C290.63,55.5 343.82,55.5 382.77,55.5 " fill="none" id="Visitor-backto-Shape" style="stroke:#181818;stroke-width:1.0;"/><polygon fill="#181818" points="238.43,55.5,247.43,59.5,243.43,55.5,247.43,51.5,238.43,55.5" style="stroke:#181818;stroke-width:1.0;"/><text fill="#000000" font-family="sans-serif" font-size="13" lengthAdjust="spacing" textLength="73" x="273.5" y="48.5669">call VistXXX</text></g><!--reverse link Shape to Square--><g id="link_Shape_Square"><path codeLine="31" d="M400.01,103.65 C381.76,125.71 360.28,151.7 342.87,172.75 " fill="none" id="Shape-backto-Square" style="stroke:#181818;stroke-width:1.0;stroke-dasharray:7.0,7.0;"/><polygon fill="none" points="395.07,99.65,413.2,88.69,405.85,108.57,395.07,99.65" style="stroke:#181818;stroke-width:1.0;"/></g><!--reverse link Shape to Circle--><g id="link_Shape_Circle"><path codeLine="32" d="M444.97,108.25 C447.4,129.26 450.15,153.15 452.41,172.75 " fill="none" id="Shape-backto-Circle" style="stroke:#181818;stroke-width:1.0;stroke-dasharray:7.0,7.0;"/><polygon fill="none" points="437.94,109.36,442.6,88.69,451.85,107.76,437.94,109.36" style="stroke:#181818;stroke-width:1.0;"/></g><!--reverse link Shape to Rectangle--><g id="link_Shape_Rectangle"><path codeLine="33" d="M487.13,102 C507.98,121.72 532.4,144.8 553.51,164.76 " fill="none" id="Shape-backto-Rectangle" style="stroke:#181818;stroke-width:1.0;stroke-dasharray:7.0,7.0;"/><polygon fill="none" points="482.72,107.52,472.99,88.69,492.34,97.35,482.72,107.52" style="stroke:#181818;stroke-width:1.0;"/></g><!--SRC=[nLAx3i8m4Dlp5HdBG2V4m824aFW0Ag6kHxX2nFL1SXsWzDyfIMa1LG8cfZYMVV5PiKUT5M0WbQGpv7E13WYTCPe45CgDjffp8oiXPPKY7_9TxSbLRg9J2GO3Vuo654jj567WZq756XL3jcz47Hg9MYW2Q-N282o1L4dmZn1z3T41ccvUtbyeXGK7RK5zvcw2avDCA0UUJXgyVS8Vn_Xzt0ohB_YBrI_gh0PskhJVcSLRss5PXDVvumS8Ny6OCE5nnywa0gBxZUCu5cterkaSeatpmlKTFTCt]--></g></svg>