<?xml version="1.0" encoding="us-ascii" standalone="no"?><svg xmlns="http://www.w3.org/2000/svg" xmlns:xlink="http://www.w3.org/1999/xlink" contentStyleType="text/css" height="267px" preserveAspectRatio="none" style="width:338px;height:267px;background:#FFFFFF;" version="1.1" viewBox="0 0 338 267" width="338px" zoomAndPan="magnify"><defs/><g><!--class Context--><g id="elem_Context"><rect codeLine="2" fill="#F1F1F1" height="80.5938" id="Context" rx="2.5" ry="2.5" style="stroke:#181818;stroke-width:0.5;" width="87" x="7" y="15"/><ellipse cx="22.45" cy="31" fill="#ADD1B2" rx="11" ry="11" style="stroke:#181818;stroke-width:1.0;"/><path d="M25.4188,36.6406 Q24.8406,36.9375 24.2,37.0781 Q23.5594,37.2344 22.8563,37.2344 Q20.3563,37.2344 19.0281,35.5938 Q17.7156,33.9375 17.7156,30.8125 Q17.7156,27.6875 19.0281,26.0313 Q20.3563,24.375 22.8563,24.375 Q23.5594,24.375 24.2,24.5313 Q24.8563,24.6875 25.4188,24.9844 L25.4188,27.7031 Q24.7938,27.125 24.2,26.8594 Q23.6063,26.5781 22.9813,26.5781 Q21.6375,26.5781 20.95,27.6563 Q20.2625,28.7188 20.2625,30.8125 Q20.2625,32.9063 20.95,33.9844 Q21.6375,35.0469 22.9813,35.0469 Q23.6063,35.0469 24.2,34.7813 Q24.7938,34.5 25.4188,33.9219 L25.4188,36.6406 Z " fill="#000000"/><text fill="#000000" font-family="sans-serif" font-size="14" lengthAdjust="spacing" textLength="54" x="36.55" y="35.8467">Context</text><line style="stroke:#181818;stroke-width:0.5;" x1="8" x2="93" y1="47" y2="47"/><text fill="#000000" font-family="sans-serif" font-size="14" lengthAdjust="spacing" textLength="75" x="13" y="63.9951">state State</text><line style="stroke:#181818;stroke-width:0.5;" x1="8" x2="93" y1="71.2969" y2="71.2969"/><text fill="#000000" font-family="sans-serif" font-size="14" lengthAdjust="spacing" textLength="68" x="13" y="88.292">setState()</text></g><!--class State--><g id="elem_State"><rect codeLine="6" fill="#F1F1F1" height="96.8906" id="State" rx="2.5" ry="2.5" style="stroke:#181818;stroke-width:0.5;" width="86" x="129.5" y="7"/><ellipse cx="152.6" cy="23" fill="#B4A7E5" rx="11" ry="11" style="stroke:#181818;stroke-width:1.0;"/><path d="M148.5219,18.7656 L148.5219,16.6094 L155.9125,16.6094 L155.9125,18.7656 L153.4438,18.7656 L153.4438,26.8438 L155.9125,26.8438 L155.9125,29 L148.5219,29 L148.5219,26.8438 L150.9906,26.8438 L150.9906,18.7656 L148.5219,18.7656 Z " fill="#000000"/><text fill="#000000" font-family="sans-serif" font-size="14" font-style="italic" lengthAdjust="spacing" textLength="36" x="168.4" y="27.8467">State</text><line style="stroke:#181818;stroke-width:0.5;" x1="130.5" x2="214.5" y1="39" y2="39"/><line style="stroke:#181818;stroke-width:0.5;" x1="130.5" x2="214.5" y1="47" y2="47"/><text fill="#000000" font-family="sans-serif" font-size="14" lengthAdjust="spacing" textLength="73" x="135.5" y="63.9951">methodA()</text><text fill="#000000" font-family="sans-serif" font-size="14" lengthAdjust="spacing" textLength="74" x="135.5" y="80.292">methodB()</text><text fill="#000000" font-family="sans-serif" font-size="14" lengthAdjust="spacing" textLength="74" x="135.5" y="96.5889">methodC()</text></g><!--class ConcreteState1--><g id="elem_ConcreteState1"><rect codeLine="11" fill="#F1F1F1" height="96.8906" id="ConcreteState1" rx="2.5" ry="2.5" style="stroke:#181818;stroke-width:0.5;" width="141" x="14" y="164"/><ellipse cx="29" cy="180" fill="#ADD1B2" rx="11" ry="11" style="stroke:#181818;stroke-width:1.0;"/><path d="M31.9688,185.6406 Q31.3906,185.9375 30.75,186.0781 Q30.1094,186.2344 29.4063,186.2344 Q26.9063,186.2344 25.5781,184.5938 Q24.2656,182.9375 24.2656,179.8125 Q24.2656,176.6875 25.5781,175.0313 Q26.9063,173.375 29.4063,173.375 Q30.1094,173.375 30.75,173.5313 Q31.4063,173.6875 31.9688,173.9844 L31.9688,176.7031 Q31.3438,176.125 30.75,175.8594 Q30.1563,175.5781 29.5313,175.5781 Q28.1875,175.5781 27.5,176.6563 Q26.8125,177.7188 26.8125,179.8125 Q26.8125,181.9063 27.5,182.9844 Q28.1875,184.0469 29.5313,184.0469 Q30.1563,184.0469 30.75,183.7813 Q31.3438,183.5 31.9688,182.9219 L31.9688,185.6406 Z " fill="#000000"/><text fill="#000000" font-family="sans-serif" font-size="14" lengthAdjust="spacing" textLength="109" x="43" y="184.8467">ConcreteState1</text><line style="stroke:#181818;stroke-width:0.5;" x1="15" x2="154" y1="196" y2="196"/><line style="stroke:#181818;stroke-width:0.5;" x1="15" x2="154" y1="204" y2="204"/><text fill="#000000" font-family="sans-serif" font-size="14" lengthAdjust="spacing" textLength="73" x="20" y="220.9951">methodA()</text><text fill="#000000" font-family="sans-serif" font-size="14" lengthAdjust="spacing" textLength="74" x="20" y="237.292">methodB()</text><text fill="#000000" font-family="sans-serif" font-size="14" lengthAdjust="spacing" textLength="74" x="20" y="253.5889">methodC()</text></g><!--class ConcreteState2--><g id="elem_ConcreteState2"><rect codeLine="16" fill="#F1F1F1" height="96.8906" id="ConcreteState2" rx="2.5" ry="2.5" style="stroke:#181818;stroke-width:0.5;" width="141" x="190" y="164"/><ellipse cx="205" cy="180" fill="#ADD1B2" rx="11" ry="11" style="stroke:#181818;stroke-width:1.0;"/><path d="M207.9688,185.6406 Q207.3906,185.9375 206.75,186.0781 Q206.1094,186.2344 205.4063,186.2344 Q202.9063,186.2344 201.5781,184.5938 Q200.2656,182.9375 200.2656,179.8125 Q200.2656,176.6875 201.5781,175.0313 Q202.9063,173.375 205.4063,173.375 Q206.1094,173.375 206.75,173.5313 Q207.4063,173.6875 207.9688,173.9844 L207.9688,176.7031 Q207.3438,176.125 206.75,175.8594 Q206.1563,175.5781 205.5313,175.5781 Q204.1875,175.5781 203.5,176.6563 Q202.8125,177.7188 202.8125,179.8125 Q202.8125,181.9063 203.5,182.9844 Q204.1875,184.0469 205.5313,184.0469 Q206.1563,184.0469 206.75,183.7813 Q207.3438,183.5 207.9688,182.9219 L207.9688,185.6406 Z " fill="#000000"/><text fill="#000000" font-family="sans-serif" font-size="14" lengthAdjust="spacing" textLength="109" x="219" y="184.8467">ConcreteState2</text><line style="stroke:#181818;stroke-width:0.5;" x1="191" x2="330" y1="196" y2="196"/><line style="stroke:#181818;stroke-width:0.5;" x1="191" x2="330" y1="204" y2="204"/><text fill="#000000" font-family="sans-serif" font-size="14" lengthAdjust="spacing" textLength="73" x="196" y="220.9951">methodA()</text><text fill="#000000" font-family="sans-serif" font-size="14" lengthAdjust="spacing" textLength="74" x="196" y="237.292">methodB()</text><text fill="#000000" font-family="sans-serif" font-size="14" lengthAdjust="spacing" textLength="74" x="196" y="253.5889">methodC()</text></g><!--link Context to State--><g id="link_Context_State"><path codeLine="21" d="M108.2,56 C108.2,56 115.1,56 115.1,56 " fill="none" id="Context-State" style="stroke:#181818;stroke-width:1.0;"/><polygon fill="none" points="95.2,56,101.2,60,107.2,56,101.2,52,95.2,56" style="stroke:#181818;stroke-width:1.0;"/><polygon fill="#181818" points="128.1,56,119.1,52,123.1,56,119.1,60,128.1,56" style="stroke:#181818;stroke-width:1.0;"/><line style="stroke:#181818;stroke-width:1.0;" x1="123.1" x2="115.1" y1="56" y2="56"/></g><!--reverse link State to ConcreteState1--><g id="link_State_ConcreteState1"><path codeLine="22" d="M142.25,125.32 C142.25,125.32 142.25,163.72 142.25,163.72 " fill="none" id="State-backto-ConcreteState1" style="stroke:#181818;stroke-width:1.0;"/><polygon fill="none" points="135.25,125.32,142.25,105.32,149.25,125.32,135.25,125.32" style="stroke:#181818;stroke-width:1.0;"/></g><!--reverse link State to ConcreteState2--><g id="link_State_ConcreteState2"><path codeLine="23" d="M202.75,125.32 C202.75,125.32 202.75,163.72 202.75,163.72 " fill="none" id="State-backto-ConcreteState2" style="stroke:#181818;stroke-width:1.0;"/><polygon fill="none" points="195.75,125.32,202.75,105.32,209.75,125.32,195.75,125.32" style="stroke:#181818;stroke-width:1.0;"/></g><!--SRC=[AyxEp2j8B4hCLSZ9p4ijgIn8LSWlAid8vqhEIImkLd3Epoj9hIXHgEPIK2WkIIn9LGW6aI1UQWcOgQ79LSkL2LHLb9QO39K6AyzD1HgJuWYKXx6TaDZEO7rmIvABKajImNeDAT5iHBHccCVoTOioqpDATEsW7aDpYsvfWMuDLZaZ53a0]--></g></svg>