<?xml version="1.0" encoding="us-ascii" standalone="no"?><svg xmlns="http://www.w3.org/2000/svg" xmlns:xlink="http://www.w3.org/1999/xlink" contentStyleType="text/css" height="267px" preserveAspectRatio="none" style="width:396px;height:267px;background:#FFFFFF;" version="1.1" viewBox="0 0 396 267" width="396px" zoomAndPan="magnify"><defs/><g><!--class VendingMachine--><g id="elem_VendingMachine"><rect codeLine="2" fill="#F1F1F1" height="64.2969" id="VendingMachine" rx="2.5" ry="2.5" style="stroke:#181818;stroke-width:0.5;" width="147" x="7" y="23.5"/><ellipse cx="22" cy="39.5" fill="#ADD1B2" rx="11" ry="11" style="stroke:#181818;stroke-width:1.0;"/><path d="M24.9688,45.1406 Q24.3906,45.4375 23.75,45.5781 Q23.1094,45.7344 22.4063,45.7344 Q19.9063,45.7344 18.5781,44.0938 Q17.2656,42.4375 17.2656,39.3125 Q17.2656,36.1875 18.5781,34.5313 Q19.9063,32.875 22.4063,32.875 Q23.1094,32.875 23.75,33.0313 Q24.4063,33.1875 24.9688,33.4844 L24.9688,36.2031 Q24.3438,35.625 23.75,35.3594 Q23.1563,35.0781 22.5313,35.0781 Q21.1875,35.0781 20.5,36.1563 Q19.8125,37.2188 19.8125,39.3125 Q19.8125,41.4063 20.5,42.4844 Q21.1875,43.5469 22.5313,43.5469 Q23.1563,43.5469 23.75,43.2813 Q24.3438,43 24.9688,42.4219 L24.9688,45.1406 Z " fill="#000000"/><text fill="#000000" font-family="sans-serif" font-size="14" lengthAdjust="spacing" textLength="115" x="36" y="44.3467">VendingMachine</text><line style="stroke:#181818;stroke-width:0.5;" x1="8" x2="153" y1="55.5" y2="55.5"/><text fill="#000000" font-family="sans-serif" font-size="14" lengthAdjust="spacing" textLength="75" x="13" y="72.4951">state State</text><line style="stroke:#181818;stroke-width:0.5;" x1="8" x2="153" y1="79.7969" y2="79.7969"/></g><!--class State--><g id="elem_State"><rect codeLine="5" fill="#F1F1F1" height="96.8906" id="State" rx="2.5" ry="2.5" style="stroke:#181818;stroke-width:0.5;" width="119" x="189" y="7"/><ellipse cx="226.95" cy="23" fill="#B4A7E5" rx="11" ry="11" style="stroke:#181818;stroke-width:1.0;"/><path d="M222.8719,18.7656 L222.8719,16.6094 L230.2625,16.6094 L230.2625,18.7656 L227.7938,18.7656 L227.7938,26.8438 L230.2625,26.8438 L230.2625,29 L222.8719,29 L222.8719,26.8438 L225.3406,26.8438 L225.3406,18.7656 L222.8719,18.7656 Z " fill="#000000"/><text fill="#000000" font-family="sans-serif" font-size="14" font-style="italic" lengthAdjust="spacing" textLength="36" x="246.05" y="27.8467">State</text><line style="stroke:#181818;stroke-width:0.5;" x1="190" x2="307" y1="39" y2="39"/><line style="stroke:#181818;stroke-width:0.5;" x1="190" x2="307" y1="47" y2="47"/><text fill="#000000" font-family="sans-serif" font-size="14" lengthAdjust="spacing" textLength="80" x="195" y="63.9951">InsertCoin()</text><text fill="#000000" font-family="sans-serif" font-size="14" lengthAdjust="spacing" textLength="107" x="195" y="80.292">SelectProduct()</text><text fill="#000000" font-family="sans-serif" font-size="14" lengthAdjust="spacing" textLength="76" x="195" y="96.5889">Dispense()</text></g><!--class NoCoinState--><g id="elem_NoCoinState"><rect codeLine="10" fill="#F1F1F1" height="96.8906" id="NoCoinState" rx="2.5" ry="2.5" style="stroke:#181818;stroke-width:0.5;" width="119" x="110" y="164"/><ellipse cx="125.45" cy="180" fill="#ADD1B2" rx="11" ry="11" style="stroke:#181818;stroke-width:1.0;"/><path d="M128.4188,185.6406 Q127.8406,185.9375 127.2,186.0781 Q126.5594,186.2344 125.8563,186.2344 Q123.3563,186.2344 122.0281,184.5938 Q120.7156,182.9375 120.7156,179.8125 Q120.7156,176.6875 122.0281,175.0313 Q123.3563,173.375 125.8563,173.375 Q126.5594,173.375 127.2,173.5313 Q127.8563,173.6875 128.4188,173.9844 L128.4188,176.7031 Q127.7938,176.125 127.2,175.8594 Q126.6063,175.5781 125.9813,175.5781 Q124.6375,175.5781 123.95,176.6563 Q123.2625,177.7188 123.2625,179.8125 Q123.2625,181.9063 123.95,182.9844 Q124.6375,184.0469 125.9813,184.0469 Q126.6063,184.0469 127.2,183.7813 Q127.7938,183.5 128.4188,182.9219 L128.4188,185.6406 Z " fill="#000000"/><text fill="#000000" font-family="sans-serif" font-size="14" lengthAdjust="spacing" textLength="86" x="139.55" y="184.8467">NoCoinState</text><line style="stroke:#181818;stroke-width:0.5;" x1="111" x2="228" y1="196" y2="196"/><line style="stroke:#181818;stroke-width:0.5;" x1="111" x2="228" y1="204" y2="204"/><text fill="#000000" font-family="sans-serif" font-size="14" lengthAdjust="spacing" textLength="80" x="116" y="220.9951">InsertCoin()</text><text fill="#000000" font-family="sans-serif" font-size="14" lengthAdjust="spacing" textLength="107" x="116" y="237.292">SelectProduct()</text><text fill="#000000" font-family="sans-serif" font-size="14" lengthAdjust="spacing" textLength="76" x="116" y="253.5889">Dispense()</text></g><!--class HasCoinState--><g id="elem_HasCoinState"><rect codeLine="15" fill="#F1F1F1" height="96.8906" id="HasCoinState" rx="2.5" ry="2.5" style="stroke:#181818;stroke-width:0.5;" width="125" x="264" y="164"/><ellipse cx="279" cy="180" fill="#ADD1B2" rx="11" ry="11" style="stroke:#181818;stroke-width:1.0;"/><path d="M281.9688,185.6406 Q281.3906,185.9375 280.75,186.0781 Q280.1094,186.2344 279.4063,186.2344 Q276.9063,186.2344 275.5781,184.5938 Q274.2656,182.9375 274.2656,179.8125 Q274.2656,176.6875 275.5781,175.0313 Q276.9063,173.375 279.4063,173.375 Q280.1094,173.375 280.75,173.5313 Q281.4063,173.6875 281.9688,173.9844 L281.9688,176.7031 Q281.3438,176.125 280.75,175.8594 Q280.1563,175.5781 279.5313,175.5781 Q278.1875,175.5781 277.5,176.6563 Q276.8125,177.7188 276.8125,179.8125 Q276.8125,181.9063 277.5,182.9844 Q278.1875,184.0469 279.5313,184.0469 Q280.1563,184.0469 280.75,183.7813 Q281.3438,183.5 281.9688,182.9219 L281.9688,185.6406 Z " fill="#000000"/><text fill="#000000" font-family="sans-serif" font-size="14" lengthAdjust="spacing" textLength="93" x="293" y="184.8467">HasCoinState</text><line style="stroke:#181818;stroke-width:0.5;" x1="265" x2="388" y1="196" y2="196"/><line style="stroke:#181818;stroke-width:0.5;" x1="265" x2="388" y1="204" y2="204"/><text fill="#000000" font-family="sans-serif" font-size="14" lengthAdjust="spacing" textLength="80" x="270" y="220.9951">InsertCoin()</text><text fill="#000000" font-family="sans-serif" font-size="14" lengthAdjust="spacing" textLength="107" x="270" y="237.292">SelectProduct()</text><text fill="#000000" font-family="sans-serif" font-size="14" lengthAdjust="spacing" textLength="76" x="270" y="253.5889">Dispense()</text></g><!--link VendingMachine to State--><g id="link_VendingMachine_State"><path codeLine="20" d="M168.19,56 C168.19,56 174.74,56 174.74,56 " fill="none" id="VendingMachine-State" style="stroke:#181818;stroke-width:1.0;"/><polygon fill="none" points="155.19,56,161.19,60,167.19,56,161.19,52,155.19,56" style="stroke:#181818;stroke-width:1.0;"/><polygon fill="#181818" points="187.74,56,178.74,52,182.74,56,178.74,60,187.74,56" style="stroke:#181818;stroke-width:1.0;"/><line style="stroke:#181818;stroke-width:1.0;" x1="182.74" x2="174.74" y1="56" y2="56"/></g><!--reverse link State to NoCoinState--><g id="link_State_NoCoinState"><path codeLine="21" d="M209,125.32 C209,125.32 209,163.72 209,163.72 " fill="none" id="State-backto-NoCoinState" style="stroke:#181818;stroke-width:1.0;"/><polygon fill="none" points="202,125.32,209,105.32,216,125.32,202,125.32" style="stroke:#181818;stroke-width:1.0;"/></g><!--reverse link State to HasCoinState--><g id="link_State_HasCoinState"><path codeLine="22" d="M286,125.32 C286,125.32 286,163.72 286,163.72 " fill="none" id="State-backto-HasCoinState" style="stroke:#181818;stroke-width:1.0;"/><polygon fill="none" points="279,125.32,286,105.32,293,125.32,279,125.32" style="stroke:#181818;stroke-width:1.0;"/></g><!--SRC=[fK-x3i8m3Dpp5HvXo2-mm00320c9tKfDQr6SA7O71Frtqgf8XRMBfNlepgTtbeGP7z2oa3qJGSpMH1TQL8KhISLI7p4qHOQN0r138xWCr_MEnIZVC4pCw3Y8KhPjP5cj2xnGIy7EELPTi97PiIOgfWBwgUWK1_-oZ3tgaf2_hT5dhXlpcsdh_4FV9V_-2Z-rS-K3]--></g></svg>