<?xml version="1.0" encoding="us-ascii" standalone="no"?><svg xmlns="http://www.w3.org/2000/svg" xmlns:xlink="http://www.w3.org/1999/xlink" contentStyleType="text/css" height="252px" preserveAspectRatio="none" style="width:362px;height:252px;background:#FFFFFF;" version="1.1" viewBox="0 0 362 252" width="362px" zoomAndPan="magnify"><defs/><g><!--class Aggregate--><g id="elem_Aggregate"><rect codeLine="1" fill="#F1F1F1" height="64.2969" id="Aggregate" rx="2.5" ry="2.5" style="stroke:#181818;stroke-width:0.5;" width="104" x="50" y="15.5"/><ellipse cx="65" cy="31.5" fill="#B4A7E5" rx="11" ry="11" style="stroke:#181818;stroke-width:1.0;"/><path d="M60.9219,27.2656 L60.9219,25.1094 L68.3125,25.1094 L68.3125,27.2656 L65.8438,27.2656 L65.8438,35.3438 L68.3125,35.3438 L68.3125,37.5 L60.9219,37.5 L60.9219,35.3438 L63.3906,35.3438 L63.3906,27.2656 L60.9219,27.2656 Z " fill="#000000"/><text fill="#000000" font-family="sans-serif" font-size="14" font-style="italic" lengthAdjust="spacing" textLength="72" x="79" y="36.3467">Aggregate</text><line style="stroke:#181818;stroke-width:0.5;" x1="51" x2="153" y1="47.5" y2="47.5"/><line style="stroke:#181818;stroke-width:0.5;" x1="51" x2="153" y1="55.5" y2="55.5"/><text fill="#000000" font-family="sans-serif" font-size="14" lengthAdjust="spacing" textLength="49" x="56" y="72.4951">iterator</text></g><!--class Iterator--><g id="elem_Iterator"><rect codeLine="4" fill="#F1F1F1" height="80.5938" id="Iterator" rx="2.5" ry="2.5" style="stroke:#181818;stroke-width:0.5;" width="81" x="240.5" y="7"/><ellipse cx="255.5" cy="23" fill="#B4A7E5" rx="11" ry="11" style="stroke:#181818;stroke-width:1.0;"/><path d="M251.4219,18.7656 L251.4219,16.6094 L258.8125,16.6094 L258.8125,18.7656 L256.3438,18.7656 L256.3438,26.8438 L258.8125,26.8438 L258.8125,29 L251.4219,29 L251.4219,26.8438 L253.8906,26.8438 L253.8906,18.7656 L251.4219,18.7656 Z " fill="#000000"/><text fill="#000000" font-family="sans-serif" font-size="14" font-style="italic" lengthAdjust="spacing" textLength="49" x="269.5" y="27.8467">Iterator</text><line style="stroke:#181818;stroke-width:0.5;" x1="241.5" x2="320.5" y1="39" y2="39"/><line style="stroke:#181818;stroke-width:0.5;" x1="241.5" x2="320.5" y1="47" y2="47"/><text fill="#000000" font-family="sans-serif" font-size="14" lengthAdjust="spacing" textLength="56" x="246.5" y="63.9951">hasNext</text><text fill="#000000" font-family="sans-serif" font-size="14" lengthAdjust="spacing" textLength="30" x="246.5" y="80.292">next</text></g><!--class ConcreteAggregate--><g id="elem_ConcreteAggregate"><rect codeLine="8" fill="#F1F1F1" height="64.2969" id="ConcreteAggregate" rx="2.5" ry="2.5" style="stroke:#181818;stroke-width:0.5;" width="168" x="7" y="165.5"/><ellipse cx="22" cy="181.5" fill="#ADD1B2" rx="11" ry="11" style="stroke:#181818;stroke-width:1.0;"/><path d="M24.9688,187.1406 Q24.3906,187.4375 23.75,187.5781 Q23.1094,187.7344 22.4063,187.7344 Q19.9063,187.7344 18.5781,186.0938 Q17.2656,184.4375 17.2656,181.3125 Q17.2656,178.1875 18.5781,176.5313 Q19.9063,174.875 22.4063,174.875 Q23.1094,174.875 23.75,175.0313 Q24.4063,175.1875 24.9688,175.4844 L24.9688,178.2031 Q24.3438,177.625 23.75,177.3594 Q23.1563,177.0781 22.5313,177.0781 Q21.1875,177.0781 20.5,178.1563 Q19.8125,179.2188 19.8125,181.3125 Q19.8125,183.4063 20.5,184.4844 Q21.1875,185.5469 22.5313,185.5469 Q23.1563,185.5469 23.75,185.2813 Q24.3438,185 24.9688,184.4219 L24.9688,187.1406 Z " fill="#000000"/><text fill="#000000" font-family="sans-serif" font-size="14" lengthAdjust="spacing" textLength="136" x="36" y="186.3467">ConcreteAggregate</text><line style="stroke:#181818;stroke-width:0.5;" x1="8" x2="174" y1="197.5" y2="197.5"/><line style="stroke:#181818;stroke-width:0.5;" x1="8" x2="174" y1="205.5" y2="205.5"/><text fill="#000000" font-family="sans-serif" font-size="14" lengthAdjust="spacing" textLength="49" x="13" y="222.4951">iterator</text></g><!--class ConcreteIterator--><g id="elem_ConcreteIterator"><rect codeLine="11" fill="#F1F1F1" height="96.8906" id="ConcreteIterator" rx="2.5" ry="2.5" style="stroke:#181818;stroke-width:0.5;" width="145" x="210.5" y="149"/><ellipse cx="225.5" cy="165" fill="#ADD1B2" rx="11" ry="11" style="stroke:#181818;stroke-width:1.0;"/><path d="M228.4688,170.6406 Q227.8906,170.9375 227.25,171.0781 Q226.6094,171.2344 225.9063,171.2344 Q223.4063,171.2344 222.0781,169.5938 Q220.7656,167.9375 220.7656,164.8125 Q220.7656,161.6875 222.0781,160.0313 Q223.4063,158.375 225.9063,158.375 Q226.6094,158.375 227.25,158.5313 Q227.9063,158.6875 228.4688,158.9844 L228.4688,161.7031 Q227.8438,161.125 227.25,160.8594 Q226.6563,160.5781 226.0313,160.5781 Q224.6875,160.5781 224,161.6563 Q223.3125,162.7188 223.3125,164.8125 Q223.3125,166.9063 224,167.9844 Q224.6875,169.0469 226.0313,169.0469 Q226.6563,169.0469 227.25,168.7813 Q227.8438,168.5 228.4688,167.9219 L228.4688,170.6406 Z " fill="#000000"/><text fill="#000000" font-family="sans-serif" font-size="14" lengthAdjust="spacing" textLength="113" x="239.5" y="169.8467">ConcreteIterator</text><line style="stroke:#181818;stroke-width:0.5;" x1="211.5" x2="354.5" y1="181" y2="181"/><text fill="#000000" font-family="sans-serif" font-size="14" lengthAdjust="spacing" textLength="71" x="216.5" y="197.9951">aggregate</text><line style="stroke:#181818;stroke-width:0.5;" x1="211.5" x2="354.5" y1="205.2969" y2="205.2969"/><text fill="#000000" font-family="sans-serif" font-size="14" lengthAdjust="spacing" textLength="56" x="216.5" y="222.292">hasNext</text><text fill="#000000" font-family="sans-serif" font-size="14" lengthAdjust="spacing" textLength="30" x="216.5" y="238.5889">next</text></g><!--link Aggregate to Iterator--><g id="link_Aggregate_Iterator"><path codeLine="17" d="M154.26,47.5 C179.57,47.5 209.73,47.5 234.27,47.5 " fill="none" id="Aggregate-to-Iterator" style="stroke:#181818;stroke-width:1.0;"/><polygon fill="#181818" points="239.06,47.5,230.06,43.5,234.06,47.5,230.06,51.5,239.06,47.5" style="stroke:#181818;stroke-width:1.0;"/><text fill="#000000" font-family="sans-serif" font-size="13" lengthAdjust="spacing" textLength="48" x="173.25" y="40.5669">creates</text></g><!--reverse link Aggregate to ConcreteAggregate--><g id="link_Aggregate_ConcreteAggregate"><path codeLine="18" d="M98.13,100.61 C96.53,122.16 94.72,146.43 93.33,165.16 " fill="none" id="Aggregate-backto-ConcreteAggregate" style="stroke:#181818;stroke-width:1.0;stroke-dasharray:7.0,7.0;"/><polygon fill="none" points="91.2,100.31,99.67,80.89,105.17,101.35,91.2,100.31" style="stroke:#181818;stroke-width:1.0;"/></g><!--reverse link Iterator to ConcreteIterator--><g id="link_Iterator_ConcreteIterator"><path codeLine="19" d="M281.82,108.85 C281.99,122.07 282.18,135.9 282.35,148.55 " fill="none" id="Iterator-backto-ConcreteIterator" style="stroke:#181818;stroke-width:1.0;stroke-dasharray:7.0,7.0;"/><polygon fill="none" points="274.81,109.25,281.54,89.16,288.81,109.06,274.81,109.25" style="stroke:#181818;stroke-width:1.0;"/></g><!--link ConcreteAggregate to ConcreteIterator--><g id="link_ConcreteAggregate_ConcreteIterator"><path codeLine="20" d="M189.28,197.5 C191.68,197.5 194.09,197.5 196.49,197.5 " fill="none" id="ConcreteAggregate-ConcreteIterator" style="stroke:#181818;stroke-width:1.0;stroke-dasharray:7.0,7.0;"/><polygon fill="#181818" points="176.38,197.5,185.3844,201.4901,181.38,197.4945,185.3756,193.4901,176.38,197.5" style="stroke:#181818;stroke-width:1.0;"/><line style="stroke:#181818;stroke-width:1.0;" x1="181.38" x2="189.375" y1="197.4945" y2="197.5"/><polygon fill="none" points="209.27,197.5,203.27,193.5,197.27,197.5,203.27,201.5,209.27,197.5" style="stroke:#181818;stroke-width:1.0;"/></g><!--SRC=[oymhIIrAIqnELN1CJozAJKyiILMevb9GgCvDBSd8JwbLo0JA9vRa5t7LScN2rNf21L6LPYGM-wLMb20BvO7ujLp9EOd5nGhE-Nd9HQabgOHjGbMFObiYJ3DnDdF1BTErWvbZfG0q5YXIZ91KiAdHqyDq81VSQXHvc2WNfezizF8nb040]--></g></svg>