<?xml version="1.0" encoding="us-ascii" standalone="no"?><svg xmlns="http://www.w3.org/2000/svg" xmlns:xlink="http://www.w3.org/1999/xlink" contentStyleType="text/css" height="301px" preserveAspectRatio="none" style="width:414px;height:301px;background:#FFFFFF;" version="1.1" viewBox="0 0 414 301" width="414px" zoomAndPan="magnify"><defs/><g><!--class Aggregater--><g id="elem_Aggregater"><rect codeLine="1" fill="#F1F1F1" height="64.2969" id="Aggregater" rx="2.5" ry="2.5" style="stroke:#181818;stroke-width:0.5;" width="109" x="99.5" y="15.5"/><ellipse cx="114.5" cy="31.5" fill="#B4A7E5" rx="11" ry="11" style="stroke:#181818;stroke-width:1.0;"/><path d="M110.4219,27.2656 L110.4219,25.1094 L117.8125,25.1094 L117.8125,27.2656 L115.3438,27.2656 L115.3438,35.3438 L117.8125,35.3438 L117.8125,37.5 L110.4219,37.5 L110.4219,35.3438 L112.8906,35.3438 L112.8906,27.2656 L110.4219,27.2656 Z " fill="#000000"/><text fill="#000000" font-family="sans-serif" font-size="14" font-style="italic" lengthAdjust="spacing" textLength="77" x="128.5" y="36.3467">Aggregater</text><line style="stroke:#181818;stroke-width:0.5;" x1="100.5" x2="207.5" y1="47.5" y2="47.5"/><line style="stroke:#181818;stroke-width:0.5;" x1="100.5" x2="207.5" y1="55.5" y2="55.5"/><text fill="#000000" font-family="sans-serif" font-size="14" lengthAdjust="spacing" textLength="49" x="105.5" y="72.4951">Iterator</text></g><!--class Iterator--><g id="elem_Iterator"><rect codeLine="4" fill="#F1F1F1" height="80.5938" id="Iterator" rx="2.5" ry="2.5" style="stroke:#181818;stroke-width:0.5;" width="81" x="293.5" y="7"/><ellipse cx="308.5" cy="23" fill="#B4A7E5" rx="11" ry="11" style="stroke:#181818;stroke-width:1.0;"/><path d="M304.4219,18.7656 L304.4219,16.6094 L311.8125,16.6094 L311.8125,18.7656 L309.3438,18.7656 L309.3438,26.8438 L311.8125,26.8438 L311.8125,29 L304.4219,29 L304.4219,26.8438 L306.8906,26.8438 L306.8906,18.7656 L304.4219,18.7656 Z " fill="#000000"/><text fill="#000000" font-family="sans-serif" font-size="14" font-style="italic" lengthAdjust="spacing" textLength="49" x="322.5" y="27.8467">Iterator</text><line style="stroke:#181818;stroke-width:0.5;" x1="294.5" x2="373.5" y1="39" y2="39"/><line style="stroke:#181818;stroke-width:0.5;" x1="294.5" x2="373.5" y1="47" y2="47"/><text fill="#000000" font-family="sans-serif" font-size="14" lengthAdjust="spacing" textLength="57" x="299.5" y="63.9951">HasNext</text><text fill="#000000" font-family="sans-serif" font-size="14" lengthAdjust="spacing" textLength="31" x="299.5" y="80.292">Next</text></g><!--class BookSherlf--><g id="elem_BookSherlf"><rect codeLine="8" fill="#F1F1F1" height="145.7813" id="BookSherlf" rx="2.5" ry="2.5" style="stroke:#181818;stroke-width:0.5;" width="107" x="110.5" y="149"/><ellipse cx="125.5" cy="165" fill="#ADD1B2" rx="11" ry="11" style="stroke:#181818;stroke-width:1.0;"/><path d="M128.4688,170.6406 Q127.8906,170.9375 127.25,171.0781 Q126.6094,171.2344 125.9063,171.2344 Q123.4063,171.2344 122.0781,169.5938 Q120.7656,167.9375 120.7656,164.8125 Q120.7656,161.6875 122.0781,160.0313 Q123.4063,158.375 125.9063,158.375 Q126.6094,158.375 127.25,158.5313 Q127.9063,158.6875 128.4688,158.9844 L128.4688,161.7031 Q127.8438,161.125 127.25,160.8594 Q126.6563,160.5781 126.0313,160.5781 Q124.6875,160.5781 124,161.6563 Q123.3125,162.7188 123.3125,164.8125 Q123.3125,166.9063 124,167.9844 Q124.6875,169.0469 126.0313,169.0469 Q126.6563,169.0469 127.25,168.7813 Q127.8438,168.5 128.4688,167.9219 L128.4688,170.6406 Z " fill="#000000"/><text fill="#000000" font-family="sans-serif" font-size="14" lengthAdjust="spacing" textLength="75" x="139.5" y="169.8467">BookSherlf</text><line style="stroke:#181818;stroke-width:0.5;" x1="111.5" x2="216.5" y1="181" y2="181"/><text fill="#000000" font-family="sans-serif" font-size="14" lengthAdjust="spacing" textLength="43" x="116.5" y="197.9951">books</text><text fill="#000000" font-family="sans-serif" font-size="14" lengthAdjust="spacing" textLength="24" x="116.5" y="214.292">last</text><line style="stroke:#181818;stroke-width:0.5;" x1="111.5" x2="216.5" y1="221.5938" y2="221.5938"/><text fill="#000000" font-family="sans-serif" font-size="14" lengthAdjust="spacing" textLength="50" x="116.5" y="238.5889">BookAt</text><text fill="#000000" font-family="sans-serif" font-size="14" lengthAdjust="spacing" textLength="90" x="116.5" y="254.8857">AppendBook</text><text fill="#000000" font-family="sans-serif" font-size="14" lengthAdjust="spacing" textLength="48" x="116.5" y="271.1826">Length</text><text fill="#000000" font-family="sans-serif" font-size="14" lengthAdjust="spacing" textLength="49" x="116.5" y="287.4795">Iterator</text></g><!--class BookShelfIterater--><g id="elem_BookShelfIterater"><rect codeLine="16" fill="#F1F1F1" height="113.1875" id="BookShelfIterater" rx="2.5" ry="2.5" style="stroke:#181818;stroke-width:0.5;" width="151" x="256.5" y="165.5"/><ellipse cx="271.5" cy="181.5" fill="#ADD1B2" rx="11" ry="11" style="stroke:#181818;stroke-width:1.0;"/><path d="M274.4688,187.1406 Q273.8906,187.4375 273.25,187.5781 Q272.6094,187.7344 271.9063,187.7344 Q269.4063,187.7344 268.0781,186.0938 Q266.7656,184.4375 266.7656,181.3125 Q266.7656,178.1875 268.0781,176.5313 Q269.4063,174.875 271.9063,174.875 Q272.6094,174.875 273.25,175.0313 Q273.9063,175.1875 274.4688,175.4844 L274.4688,178.2031 Q273.8438,177.625 273.25,177.3594 Q272.6563,177.0781 272.0313,177.0781 Q270.6875,177.0781 270,178.1563 Q269.3125,179.2188 269.3125,181.3125 Q269.3125,183.4063 270,184.4844 Q270.6875,185.5469 272.0313,185.5469 Q272.6563,185.5469 273.25,185.2813 Q273.8438,185 274.4688,184.4219 L274.4688,187.1406 Z " fill="#000000"/><text fill="#000000" font-family="sans-serif" font-size="14" lengthAdjust="spacing" textLength="119" x="285.5" y="186.3467">BookShelfIterater</text><line style="stroke:#181818;stroke-width:0.5;" x1="257.5" x2="406.5" y1="197.5" y2="197.5"/><text fill="#000000" font-family="sans-serif" font-size="14" lengthAdjust="spacing" textLength="69" x="262.5" y="214.4951">bookShelf</text><text fill="#000000" font-family="sans-serif" font-size="14" lengthAdjust="spacing" textLength="37" x="262.5" y="230.792">index</text><line style="stroke:#181818;stroke-width:0.5;" x1="257.5" x2="406.5" y1="238.0938" y2="238.0938"/><text fill="#000000" font-family="sans-serif" font-size="14" lengthAdjust="spacing" textLength="57" x="262.5" y="255.0889">HasNext</text><text fill="#000000" font-family="sans-serif" font-size="14" lengthAdjust="spacing" textLength="31" x="262.5" y="271.3857">Next</text></g><!--class Book--><g id="elem_Book"><rect codeLine="22" fill="#F1F1F1" height="64.2969" id="Book" rx="2.5" ry="2.5" style="stroke:#181818;stroke-width:0.5;" width="68" x="7" y="190"/><ellipse cx="22" cy="206" fill="#ADD1B2" rx="11" ry="11" style="stroke:#181818;stroke-width:1.0;"/><path d="M24.9688,211.6406 Q24.3906,211.9375 23.75,212.0781 Q23.1094,212.2344 22.4063,212.2344 Q19.9063,212.2344 18.5781,210.5938 Q17.2656,208.9375 17.2656,205.8125 Q17.2656,202.6875 18.5781,201.0313 Q19.9063,199.375 22.4063,199.375 Q23.1094,199.375 23.75,199.5313 Q24.4063,199.6875 24.9688,199.9844 L24.9688,202.7031 Q24.3438,202.125 23.75,201.8594 Q23.1563,201.5781 22.5313,201.5781 Q21.1875,201.5781 20.5,202.6563 Q19.8125,203.7188 19.8125,205.8125 Q19.8125,207.9063 20.5,208.9844 Q21.1875,210.0469 22.5313,210.0469 Q23.1563,210.0469 23.75,209.7813 Q24.3438,209.5 24.9688,208.9219 L24.9688,211.6406 Z " fill="#000000"/><text fill="#000000" font-family="sans-serif" font-size="14" lengthAdjust="spacing" textLength="36" x="36" y="210.8467">Book</text><line style="stroke:#181818;stroke-width:0.5;" x1="8" x2="74" y1="222" y2="222"/><text fill="#000000" font-family="sans-serif" font-size="14" lengthAdjust="spacing" textLength="39" x="13" y="238.9951">name</text><line style="stroke:#181818;stroke-width:0.5;" x1="8" x2="74" y1="246.2969" y2="246.2969"/></g><!--link Aggregater to Iterator--><g id="link_Aggregater_Iterator"><path codeLine="26" d="M208.98,47.5 C233.96,47.5 263.19,47.5 287.1,47.5 " fill="none" id="Aggregater-to-Iterator" style="stroke:#181818;stroke-width:1.0;"/><polygon fill="#181818" points="292.06,47.5,283.06,43.5,287.06,47.5,283.06,51.5,292.06,47.5" style="stroke:#181818;stroke-width:1.0;"/><text fill="#000000" font-family="sans-serif" font-size="13" lengthAdjust="spacing" textLength="48" x="227" y="40.5669">creates</text></g><!--reverse link Aggregater to BookSherlf--><g id="link_Aggregater_BookSherlf"><path codeLine="27" d="M157.02,100.52 C157.9,115.72 158.88,132.62 159.82,148.83 " fill="none" id="Aggregater-backto-BookSherlf" style="stroke:#181818;stroke-width:1.0;stroke-dasharray:7.0,7.0;"/><polygon fill="none" points="149.98,101.11,155.81,80.74,163.96,100.3,149.98,101.11" style="stroke:#181818;stroke-width:1.0;"/></g><!--reverse link Iterator to BookShelfIterater--><g id="link_Iterator_BookShelfIterater"><path codeLine="28" d="M333.3,108.94 C333.09,127.25 332.85,147.28 332.65,165.27 " fill="none" id="Iterator-backto-BookShelfIterater" style="stroke:#181818;stroke-width:1.0;stroke-dasharray:7.0,7.0;"/><polygon fill="none" points="326.31,108.99,333.54,89.07,340.31,109.15,326.31,108.99" style="stroke:#181818;stroke-width:1.0;"/></g><!--link BookSherlf to BookShelfIterater--><g id="link_BookSherlf_BookShelfIterater"><path codeLine="29" d="M231.6,222 C235.18,222 238.77,222 242.35,222 " fill="none" id="BookSherlf-BookShelfIterater" style="stroke:#181818;stroke-width:1.0;stroke-dasharray:7.0,7.0;"/><polygon fill="#181818" points="218.81,222,227.81,226,223.81,222,227.81,218,218.81,222" style="stroke:#181818;stroke-width:1.0;"/><line style="stroke:#181818;stroke-width:1.0;" x1="223.81" x2="231.81" y1="222" y2="222"/><polygon fill="none" points="255.17,222,249.17,218,243.17,222,249.17,226,255.17,222" style="stroke:#181818;stroke-width:1.0;"/></g><!--link Book to BookSherlf--><g id="link_Book_BookSherlf"><path codeLine="30" d="M89.09,222 C91.5,222 93.92,222 96.34,222 " fill="none" id="Book-BookSherlf" style="stroke:#181818;stroke-width:1.0;stroke-dasharray:7.0,7.0;"/><polygon fill="#181818" points="76.11,222,85.11,226,81.11,222,85.11,218,76.11,222" style="stroke:#181818;stroke-width:1.0;"/><line style="stroke:#181818;stroke-width:1.0;" x1="81.11" x2="89.11" y1="222" y2="222"/><polygon fill="none" points="109.18,222,103.18,218,97.18,222,103.18,226,109.18,222" style="stroke:#181818;stroke-width:1.0;"/></g><!--SRC=[bP0n3eCm34Ltdy8NA0UeK2KwjLBLfIS8O08g95MI0OboznfQm1aOEYL-_pknVsC2kKeLX9dMZhJY4WT073eAjIr7l39HmJeOeLdD2uoj5-Nlr0U9vdg4ebNUuzdQvwCcrrPpNywbvvErg6UoPH79NYyovSGblP7HeTwPDVgnhRxARxTyeNnlJ4dzlqlChnZL4LFOWZkSbW6EM3XYv8MAwJj9H0QmXYY5RLGGSQM9tJ58YPqV]--></g></svg>