<?xml version="1.0" encoding="us-ascii" standalone="no"?><svg xmlns="http://www.w3.org/2000/svg" xmlns:xlink="http://www.w3.org/1999/xlink" contentStyleType="text/css" height="203px" preserveAspectRatio="none" style="width:437px;height:203px;background:#FFFFFF;" version="1.1" viewBox="0 0 437 203" width="437px" zoomAndPan="magnify"><defs/><g><!--class Product--><g id="elem_Product"><rect codeLine="1" fill="#F1F1F1" height="64.2969" id="Product" rx="2.5" ry="2.5" style="stroke:#181818;stroke-width:0.5;" width="86" x="305" y="7"/><ellipse cx="320" cy="23" fill="#A9DCDF" rx="11" ry="11" style="stroke:#181818;stroke-width:1.0;"/><path d="M320.1094,18.3438 L318.9531,23.4219 L321.2813,23.4219 L320.1094,18.3438 Z M318.625,16.1094 L321.6094,16.1094 L324.9688,28.5 L322.5156,28.5 L321.75,25.4375 L318.4688,25.4375 L317.7188,28.5 L315.2813,28.5 L318.625,16.1094 Z " fill="#000000"/><text fill="#000000" font-family="sans-serif" font-size="14" font-style="italic" lengthAdjust="spacing" textLength="54" x="334" y="27.8467">Product</text><line style="stroke:#181818;stroke-width:0.5;" x1="306" x2="390" y1="39" y2="39"/><line style="stroke:#181818;stroke-width:0.5;" x1="306" x2="390" y1="47" y2="47"/><text fill="#000000" font-family="sans-serif" font-size="14" font-style="italic" lengthAdjust="spacing" textLength="74" x="311" y="63.9951">something</text></g><!--class Factory--><g id="elem_Factory"><rect codeLine="4" fill="#F1F1F1" height="64.2969" id="Factory" rx="2.5" ry="2.5" style="stroke:#181818;stroke-width:0.5;" width="110" x="62" y="7"/><ellipse cx="89.6" cy="23" fill="#A9DCDF" rx="11" ry="11" style="stroke:#181818;stroke-width:1.0;"/><path d="M89.7094,18.3438 L88.5531,23.4219 L90.8813,23.4219 L89.7094,18.3438 Z M88.225,16.1094 L91.2094,16.1094 L94.5688,28.5 L92.1156,28.5 L91.35,25.4375 L88.0688,25.4375 L87.3188,28.5 L84.8813,28.5 L88.225,16.1094 Z " fill="#000000"/><text fill="#000000" font-family="sans-serif" font-size="14" font-style="italic" lengthAdjust="spacing" textLength="50" x="106.4" y="27.8467">Factory</text><line style="stroke:#181818;stroke-width:0.5;" x1="63" x2="171" y1="39" y2="39"/><line style="stroke:#181818;stroke-width:0.5;" x1="63" x2="171" y1="47" y2="47"/><text fill="#000000" font-family="sans-serif" font-size="14" font-style="italic" lengthAdjust="spacing" textLength="98" x="68" y="63.9951">createProduct</text></g><!--class ConcreteProduct--><g id="elem_ConcreteProduct"><rect codeLine="7" fill="#F1F1F1" height="64.2969" id="ConcreteProduct" rx="2.5" ry="2.5" style="stroke:#181818;stroke-width:0.5;" width="150" x="280" y="132"/><ellipse cx="295" cy="148" fill="#ADD1B2" rx="11" ry="11" style="stroke:#181818;stroke-width:1.0;"/><path d="M297.9688,153.6406 Q297.3906,153.9375 296.75,154.0781 Q296.1094,154.2344 295.4063,154.2344 Q292.9063,154.2344 291.5781,152.5938 Q290.2656,150.9375 290.2656,147.8125 Q290.2656,144.6875 291.5781,143.0313 Q292.9063,141.375 295.4063,141.375 Q296.1094,141.375 296.75,141.5313 Q297.4063,141.6875 297.9688,141.9844 L297.9688,144.7031 Q297.3438,144.125 296.75,143.8594 Q296.1563,143.5781 295.5313,143.5781 Q294.1875,143.5781 293.5,144.6563 Q292.8125,145.7188 292.8125,147.8125 Q292.8125,149.9063 293.5,150.9844 Q294.1875,152.0469 295.5313,152.0469 Q296.1563,152.0469 296.75,151.7813 Q297.3438,151.5 297.9688,150.9219 L297.9688,153.6406 Z " fill="#000000"/><text fill="#000000" font-family="sans-serif" font-size="14" lengthAdjust="spacing" textLength="118" x="309" y="152.8467">ConcreteProduct</text><line style="stroke:#181818;stroke-width:0.5;" x1="281" x2="429" y1="164" y2="164"/><line style="stroke:#181818;stroke-width:0.5;" x1="281" x2="429" y1="172" y2="172"/><text fill="#000000" font-family="sans-serif" font-size="14" lengthAdjust="spacing" textLength="74" x="286" y="188.9951">something</text></g><!--class ConcreteFactory--><g id="elem_ConcreteFactory"><rect codeLine="10" fill="#F1F1F1" height="64.2969" id="ConcreteFactory" rx="2.5" ry="2.5" style="stroke:#181818;stroke-width:0.5;" width="146" x="7" y="132"/><ellipse cx="22" cy="148" fill="#ADD1B2" rx="11" ry="11" style="stroke:#181818;stroke-width:1.0;"/><path d="M24.9688,153.6406 Q24.3906,153.9375 23.75,154.0781 Q23.1094,154.2344 22.4063,154.2344 Q19.9063,154.2344 18.5781,152.5938 Q17.2656,150.9375 17.2656,147.8125 Q17.2656,144.6875 18.5781,143.0313 Q19.9063,141.375 22.4063,141.375 Q23.1094,141.375 23.75,141.5313 Q24.4063,141.6875 24.9688,141.9844 L24.9688,144.7031 Q24.3438,144.125 23.75,143.8594 Q23.1563,143.5781 22.5313,143.5781 Q21.1875,143.5781 20.5,144.6563 Q19.8125,145.7188 19.8125,147.8125 Q19.8125,149.9063 20.5,150.9844 Q21.1875,152.0469 22.5313,152.0469 Q23.1563,152.0469 23.75,151.7813 Q24.3438,151.5 24.9688,150.9219 L24.9688,153.6406 Z " fill="#000000"/><text fill="#000000" font-family="sans-serif" font-size="14" lengthAdjust="spacing" textLength="114" x="36" y="152.8467">ConcreteFactory</text><line style="stroke:#181818;stroke-width:0.5;" x1="8" x2="152" y1="164" y2="164"/><line style="stroke:#181818;stroke-width:0.5;" x1="8" x2="152" y1="172" y2="172"/><text fill="#000000" font-family="sans-serif" font-size="14" lengthAdjust="spacing" textLength="98" x="13" y="188.9951">createProduct</text></g><!--link Factory to Product--><g id="link_Factory_Product"><path codeLine="14" d="M172.33,39 C210.85,39 261.75,39 298.84,39 " fill="none" id="Factory-to-Product" style="stroke:#181818;stroke-width:1.0;"/><polygon fill="#181818" points="303.67,39,294.67,35,298.67,39,294.67,43,303.67,39" style="stroke:#181818;stroke-width:1.0;"/><text fill="#000000" font-family="sans-serif" font-size="13" lengthAdjust="spacing" textLength="90" x="193.5" y="32.0669">createProduct</text></g><!--link ConcreteFactory to ConcreteProduct--><g id="link_ConcreteFactory_ConcreteProduct"><path codeLine="15" d="M153.33,164 C190.64,164 236.07,164 274.36,164 " fill="none" id="ConcreteFactory-to-ConcreteProduct" style="stroke:#181818;stroke-width:1.0;"/><polygon fill="#181818" points="278.96,164,269.96,160,273.96,164,269.96,168,278.96,164" style="stroke:#181818;stroke-width:1.0;"/><text fill="#000000" font-family="sans-serif" font-size="13" lengthAdjust="spacing" textLength="90" x="171.5" y="157.0669">createProduct</text></g><!--reverse link Product to ConcreteProduct--><g id="link_Product_ConcreteProduct"><path codeLine="16" d="M350.97,92.25 C351.74,105.68 352.54,119.71 353.22,131.7 " fill="none" id="Product-backto-ConcreteProduct" style="stroke:#181818;stroke-width:1.0;"/><polygon fill="none" points="343.93,92.72,349.78,72.36,357.91,91.93,343.93,92.72" style="stroke:#181818;stroke-width:1.0;"/></g><!--reverse link Factory to ConcreteFactory--><g id="link_Factory_ConcreteFactory"><path codeLine="17" d="M101.58,91.28 C97.45,105 93.11,119.42 89.42,131.7 " fill="none" id="Factory-backto-ConcreteFactory" style="stroke:#181818;stroke-width:1.0;"/><polygon fill="none" points="95.1,89.49,107.57,72.36,108.51,93.53,95.1,89.49" style="stroke:#181818;stroke-width:1.0;"/></g><!--SRC=[IqmgBYbAJ2vH22ZAJoa5qjLS2WhLkQab6VafjGhLYL3fMeNYV91WPbuwLoqNJ5J13KZa5rNYr9HSb9fOaWer6gWnEIUnk5Z1EJyFA04NHzMDR0-gSgoMeTl01LEbQmVtaXMQAdG3WKhHdOIk1IPkKwEhYwuORYMA95GG0000]--></g></svg>