<?xml version="1.0" encoding="us-ascii" standalone="no"?><svg xmlns="http://www.w3.org/2000/svg" xmlns:xlink="http://www.w3.org/1999/xlink" contentStyleType="text/css" height="203px" preserveAspectRatio="none" style="width:322px;height:203px;background:#FFFFFF;" version="1.1" viewBox="0 0 322 203" width="322px" zoomAndPan="magnify"><defs/><g><!--class Btn--><g id="elem_Btn"><rect codeLine="1" fill="#F1F1F1" height="64.2969" id="Btn" rx="2.5" ry="2.5" style="stroke:#181818;stroke-width:0.5;" width="56" x="241.5" y="7"/><ellipse cx="256.5" cy="23" fill="#A9DCDF" rx="11" ry="11" style="stroke:#181818;stroke-width:1.0;"/><path d="M256.6094,18.3438 L255.4531,23.4219 L257.7813,23.4219 L256.6094,18.3438 Z M255.125,16.1094 L258.1094,16.1094 L261.4688,28.5 L259.0156,28.5 L258.25,25.4375 L254.9688,25.4375 L254.2188,28.5 L251.7813,28.5 L255.125,16.1094 Z " fill="#000000"/><text fill="#000000" font-family="sans-serif" font-size="14" font-style="italic" lengthAdjust="spacing" textLength="24" x="270.5" y="27.8467">Btn</text><line style="stroke:#181818;stroke-width:0.5;" x1="242.5" x2="296.5" y1="39" y2="39"/><line style="stroke:#181818;stroke-width:0.5;" x1="242.5" x2="296.5" y1="47" y2="47"/><text fill="#000000" font-family="sans-serif" font-size="14" font-style="italic" lengthAdjust="spacing" textLength="32" x="247.5" y="63.9951">Click</text></g><!--class UIFactory--><g id="elem_UIFactory"><rect codeLine="4" fill="#F1F1F1" height="64.2969" id="UIFactory" rx="2.5" ry="2.5" style="stroke:#181818;stroke-width:0.5;" width="95" x="42" y="7"/><ellipse cx="57" cy="23" fill="#A9DCDF" rx="11" ry="11" style="stroke:#181818;stroke-width:1.0;"/><path d="M57.1094,18.3438 L55.9531,23.4219 L58.2813,23.4219 L57.1094,18.3438 Z M55.625,16.1094 L58.6094,16.1094 L61.9688,28.5 L59.5156,28.5 L58.75,25.4375 L55.4688,25.4375 L54.7188,28.5 L52.2813,28.5 L55.625,16.1094 Z " fill="#000000"/><text fill="#000000" font-family="sans-serif" font-size="14" font-style="italic" lengthAdjust="spacing" textLength="63" x="71" y="27.8467">UIFactory</text><line style="stroke:#181818;stroke-width:0.5;" x1="43" x2="136" y1="39" y2="39"/><line style="stroke:#181818;stroke-width:0.5;" x1="43" x2="136" y1="47" y2="47"/><text fill="#000000" font-family="sans-serif" font-size="14" font-style="italic" lengthAdjust="spacing" textLength="70" x="48" y="63.9951">CreateBtn</text></g><!--class MacBtn--><g id="elem_MacBtn"><rect codeLine="7" fill="#F1F1F1" height="64.2969" id="MacBtn" rx="2.5" ry="2.5" style="stroke:#181818;stroke-width:0.5;" width="84" x="231.5" y="132"/><ellipse cx="246.5" cy="148" fill="#ADD1B2" rx="11" ry="11" style="stroke:#181818;stroke-width:1.0;"/><path d="M249.4688,153.6406 Q248.8906,153.9375 248.25,154.0781 Q247.6094,154.2344 246.9063,154.2344 Q244.4063,154.2344 243.0781,152.5938 Q241.7656,150.9375 241.7656,147.8125 Q241.7656,144.6875 243.0781,143.0313 Q244.4063,141.375 246.9063,141.375 Q247.6094,141.375 248.25,141.5313 Q248.9063,141.6875 249.4688,141.9844 L249.4688,144.7031 Q248.8438,144.125 248.25,143.8594 Q247.6563,143.5781 247.0313,143.5781 Q245.6875,143.5781 245,144.6563 Q244.3125,145.7188 244.3125,147.8125 Q244.3125,149.9063 245,150.9844 Q245.6875,152.0469 247.0313,152.0469 Q247.6563,152.0469 248.25,151.7813 Q248.8438,151.5 249.4688,150.9219 L249.4688,153.6406 Z " fill="#000000"/><text fill="#000000" font-family="sans-serif" font-size="14" lengthAdjust="spacing" textLength="52" x="260.5" y="152.8467">MacBtn</text><line style="stroke:#181818;stroke-width:0.5;" x1="232.5" x2="314.5" y1="164" y2="164"/><line style="stroke:#181818;stroke-width:0.5;" x1="232.5" x2="314.5" y1="172" y2="172"/><text fill="#000000" font-family="sans-serif" font-size="14" lengthAdjust="spacing" textLength="32" x="237.5" y="188.9951">Click</text></g><!--class MacUIFactory--><g id="elem_MacUIFactory"><rect codeLine="10" fill="#F1F1F1" height="64.2969" id="MacUIFactory" rx="2.5" ry="2.5" style="stroke:#181818;stroke-width:0.5;" width="123" x="7" y="132"/><ellipse cx="22" cy="148" fill="#ADD1B2" rx="11" ry="11" style="stroke:#181818;stroke-width:1.0;"/><path d="M24.9688,153.6406 Q24.3906,153.9375 23.75,154.0781 Q23.1094,154.2344 22.4063,154.2344 Q19.9063,154.2344 18.5781,152.5938 Q17.2656,150.9375 17.2656,147.8125 Q17.2656,144.6875 18.5781,143.0313 Q19.9063,141.375 22.4063,141.375 Q23.1094,141.375 23.75,141.5313 Q24.4063,141.6875 24.9688,141.9844 L24.9688,144.7031 Q24.3438,144.125 23.75,143.8594 Q23.1563,143.5781 22.5313,143.5781 Q21.1875,143.5781 20.5,144.6563 Q19.8125,145.7188 19.8125,147.8125 Q19.8125,149.9063 20.5,150.9844 Q21.1875,152.0469 22.5313,152.0469 Q23.1563,152.0469 23.75,151.7813 Q24.3438,151.5 24.9688,150.9219 L24.9688,153.6406 Z " fill="#000000"/><text fill="#000000" font-family="sans-serif" font-size="14" lengthAdjust="spacing" textLength="91" x="36" y="152.8467">MacUIFactory</text><line style="stroke:#181818;stroke-width:0.5;" x1="8" x2="129" y1="164" y2="164"/><line style="stroke:#181818;stroke-width:0.5;" x1="8" x2="129" y1="172" y2="172"/><text fill="#000000" font-family="sans-serif" font-size="14" lengthAdjust="spacing" textLength="70" x="13" y="188.9951">CreateBtn</text></g><!--link UIFactory to Btn--><g id="link_UIFactory_Btn"><path codeLine="14" d="M137.26,39 C168.19,39 207.71,39 235.46,39 " fill="none" id="UIFactory-to-Btn" style="stroke:#181818;stroke-width:1.0;"/><polygon fill="#181818" points="240.2,39,231.2,35,235.2,39,231.2,43,240.2,39" style="stroke:#181818;stroke-width:1.0;"/><text fill="#000000" font-family="sans-serif" font-size="13" lengthAdjust="spacing" textLength="65" x="156.75" y="32.0669">CreateBtn</text></g><!--link MacUIFactory to MacBtn--><g id="link_MacUIFactory_MacBtn"><path codeLine="15" d="M130.28,164 C160.66,164 196.74,164 225.08,164 " fill="none" id="MacUIFactory-to-MacBtn" style="stroke:#181818;stroke-width:1.0;"/><polygon fill="#181818" points="230.01,164,221.01,160,225.01,164,221.01,168,230.01,164" style="stroke:#181818;stroke-width:1.0;"/><text fill="#000000" font-family="sans-serif" font-size="13" lengthAdjust="spacing" textLength="65" x="148.25" y="157.0669">CreateBtn</text></g><!--reverse link Btn to MacBtn--><g id="link_Btn_MacBtn"><path codeLine="16" d="M271.2,92.25 C271.64,105.68 272.09,119.71 272.48,131.7 " fill="none" id="Btn-backto-MacBtn" style="stroke:#181818;stroke-width:1.0;"/><polygon fill="none" points="264.17,92.57,270.52,72.36,278.17,92.12,264.17,92.57" style="stroke:#181818;stroke-width:1.0;"/></g><!--reverse link UIFactory to MacUIFactory--><g id="link_UIFactory_MacUIFactory"><path codeLine="17" d="M80.66,91.76 C78.34,105.34 75.92,119.56 73.84,131.7 " fill="none" id="UIFactory-backto-MacUIFactory" style="stroke:#181818;stroke-width:1.0;"/><polygon fill="none" points="73.88,90.89,84.15,72.36,87.68,93.25,73.88,90.89" style="stroke:#181818;stroke-width:1.0;"/></g><!--SRC=[IqmgBYbAJ2vHS2h9KwZcKb2epaqjoSXFgLMeJeHArIeuvsGcPtFLSi54548ztO1KVb4bRYr5gOabgK13WTgISnABYnLy4vCnx80P35U1ms1aqxWGQdJjmCwsGf97CGCe3xKLMGc8RrEZgmkLGp8F9WeN0G00]--></g></svg>