<?xml version="1.0" encoding="us-ascii" standalone="no"?><svg xmlns="http://www.w3.org/2000/svg" xmlns:xlink="http://www.w3.org/1999/xlink" contentStyleType="text/css" height="203px" preserveAspectRatio="none" style="width:390px;height:203px;background:#FFFFFF;" version="1.1" viewBox="0 0 390 203" width="390px" zoomAndPan="magnify"><defs/><g><!--class Btn--><g id="elem_Btn"><rect codeLine="1" fill="#F1F1F1" height="64.2969" id="Btn" rx="2.5" ry="2.5" style="stroke:#181818;stroke-width:0.5;" width="56" x="288.5" y="7"/><ellipse cx="303.5" cy="23" fill="#A9DCDF" rx="11" ry="11" style="stroke:#181818;stroke-width:1.0;"/><path d="M303.6094,18.3438 L302.4531,23.4219 L304.7813,23.4219 L303.6094,18.3438 Z M302.125,16.1094 L305.1094,16.1094 L308.4688,28.5 L306.0156,28.5 L305.25,25.4375 L301.9688,25.4375 L301.2188,28.5 L298.7813,28.5 L302.125,16.1094 Z " fill="#000000"/><text fill="#000000" font-family="sans-serif" font-size="14" font-style="italic" lengthAdjust="spacing" textLength="24" x="317.5" y="27.8467">Btn</text><line style="stroke:#181818;stroke-width:0.5;" x1="289.5" x2="343.5" y1="39" y2="39"/><line style="stroke:#181818;stroke-width:0.5;" x1="289.5" x2="343.5" y1="47" y2="47"/><text fill="#000000" font-family="sans-serif" font-size="14" font-style="italic" lengthAdjust="spacing" textLength="32" x="294.5" y="63.9951">Click</text></g><!--class UIFactory--><g id="elem_UIFactory"><rect codeLine="4" fill="#F1F1F1" height="64.2969" id="UIFactory" rx="2.5" ry="2.5" style="stroke:#181818;stroke-width:0.5;" width="95" x="84" y="7"/><ellipse cx="99" cy="23" fill="#A9DCDF" rx="11" ry="11" style="stroke:#181818;stroke-width:1.0;"/><path d="M99.1094,18.3438 L97.9531,23.4219 L100.2813,23.4219 L99.1094,18.3438 Z M97.625,16.1094 L100.6094,16.1094 L103.9688,28.5 L101.5156,28.5 L100.75,25.4375 L97.4688,25.4375 L96.7188,28.5 L94.2813,28.5 L97.625,16.1094 Z " fill="#000000"/><text fill="#000000" font-family="sans-serif" font-size="14" font-style="italic" lengthAdjust="spacing" textLength="63" x="113" y="27.8467">UIFactory</text><line style="stroke:#181818;stroke-width:0.5;" x1="85" x2="178" y1="39" y2="39"/><line style="stroke:#181818;stroke-width:0.5;" x1="85" x2="178" y1="47" y2="47"/><text fill="#000000" font-family="sans-serif" font-size="14" font-style="italic" lengthAdjust="spacing" textLength="70" x="90" y="63.9951">CreateBtn</text></g><!--class WindowsBtn--><g id="elem_WindowsBtn"><rect codeLine="7" fill="#F1F1F1" height="64.2969" id="WindowsBtn" rx="2.5" ry="2.5" style="stroke:#181818;stroke-width:0.5;" width="118" x="265.5" y="132"/><ellipse cx="280.5" cy="148" fill="#ADD1B2" rx="11" ry="11" style="stroke:#181818;stroke-width:1.0;"/><path d="M283.4688,153.6406 Q282.8906,153.9375 282.25,154.0781 Q281.6094,154.2344 280.9063,154.2344 Q278.4063,154.2344 277.0781,152.5938 Q275.7656,150.9375 275.7656,147.8125 Q275.7656,144.6875 277.0781,143.0313 Q278.4063,141.375 280.9063,141.375 Q281.6094,141.375 282.25,141.5313 Q282.9063,141.6875 283.4688,141.9844 L283.4688,144.7031 Q282.8438,144.125 282.25,143.8594 Q281.6563,143.5781 281.0313,143.5781 Q279.6875,143.5781 279,144.6563 Q278.3125,145.7188 278.3125,147.8125 Q278.3125,149.9063 279,150.9844 Q279.6875,152.0469 281.0313,152.0469 Q281.6563,152.0469 282.25,151.7813 Q282.8438,151.5 283.4688,150.9219 L283.4688,153.6406 Z " fill="#000000"/><text fill="#000000" font-family="sans-serif" font-size="14" lengthAdjust="spacing" textLength="86" x="294.5" y="152.8467">WindowsBtn</text><line style="stroke:#181818;stroke-width:0.5;" x1="266.5" x2="382.5" y1="164" y2="164"/><line style="stroke:#181818;stroke-width:0.5;" x1="266.5" x2="382.5" y1="172" y2="172"/><text fill="#000000" font-family="sans-serif" font-size="14" lengthAdjust="spacing" textLength="32" x="271.5" y="188.9951">Click</text></g><!--class WindowsUIFactory--><g id="elem_WindowsUIFactory"><rect codeLine="10" fill="#F1F1F1" height="64.2969" id="WindowsUIFactory" rx="2.5" ry="2.5" style="stroke:#181818;stroke-width:0.5;" width="157" x="7" y="132"/><ellipse cx="22" cy="148" fill="#ADD1B2" rx="11" ry="11" style="stroke:#181818;stroke-width:1.0;"/><path d="M24.9688,153.6406 Q24.3906,153.9375 23.75,154.0781 Q23.1094,154.2344 22.4063,154.2344 Q19.9063,154.2344 18.5781,152.5938 Q17.2656,150.9375 17.2656,147.8125 Q17.2656,144.6875 18.5781,143.0313 Q19.9063,141.375 22.4063,141.375 Q23.1094,141.375 23.75,141.5313 Q24.4063,141.6875 24.9688,141.9844 L24.9688,144.7031 Q24.3438,144.125 23.75,143.8594 Q23.1563,143.5781 22.5313,143.5781 Q21.1875,143.5781 20.5,144.6563 Q19.8125,145.7188 19.8125,147.8125 Q19.8125,149.9063 20.5,150.9844 Q21.1875,152.0469 22.5313,152.0469 Q23.1563,152.0469 23.75,151.7813 Q24.3438,151.5 24.9688,150.9219 L24.9688,153.6406 Z " fill="#000000"/><text fill="#000000" font-family="sans-serif" font-size="14" lengthAdjust="spacing" textLength="125" x="36" y="152.8467">WindowsUIFactory</text><line style="stroke:#181818;stroke-width:0.5;" x1="8" x2="163" y1="164" y2="164"/><line style="stroke:#181818;stroke-width:0.5;" x1="8" x2="163" y1="172" y2="172"/><text fill="#000000" font-family="sans-serif" font-size="14" lengthAdjust="spacing" textLength="70" x="13" y="188.9951">CreateBtn</text></g><!--link UIFactory to Btn--><g id="link_UIFactory_Btn"><path codeLine="14" d="M179.14,39 C211.33,39 253.07,39 282.05,39 " fill="none" id="UIFactory-to-Btn" style="stroke:#181818;stroke-width:1.0;"/><polygon fill="#181818" points="287.03,39,278.03,35,282.03,39,278.03,43,287.03,39" style="stroke:#181818;stroke-width:1.0;"/><text fill="#000000" font-family="sans-serif" font-size="13" lengthAdjust="spacing" textLength="65" x="201.25" y="32.0669">CreateBtn</text></g><!--link WindowsUIFactory to WindowsBtn--><g id="link_WindowsUIFactory_WindowsBtn"><path codeLine="15" d="M164.42,164 C195.27,164 230.21,164 259.56,164 " fill="none" id="WindowsUIFactory-to-WindowsBtn" style="stroke:#181818;stroke-width:1.0;"/><polygon fill="#181818" points="264.35,164,255.35,160,259.35,164,255.35,168,264.35,164" style="stroke:#181818;stroke-width:1.0;"/><text fill="#000000" font-family="sans-serif" font-size="13" lengthAdjust="spacing" textLength="65" x="182.25" y="157.0669">CreateBtn</text></g><!--reverse link Btn to WindowsBtn--><g id="link_Btn_WindowsBtn"><path codeLine="16" d="M319.9,92.25 C320.77,105.68 321.68,119.71 322.46,131.7 " fill="none" id="Btn-backto-WindowsBtn" style="stroke:#181818;stroke-width:1.0;"/><polygon fill="none" points="312.85,92.77,318.54,72.36,326.82,91.86,312.85,92.77" style="stroke:#181818;stroke-width:1.0;"/></g><!--reverse link UIFactory to WindowsUIFactory--><g id="link_UIFactory_WindowsUIFactory"><path codeLine="17" d="M112.5,90.79 C107.32,104.66 101.85,119.27 97.21,131.7 " fill="none" id="UIFactory-backto-WindowsUIFactory" style="stroke:#181818;stroke-width:1.0;"/><polygon fill="none" points="106.21,88.64,119.77,72.36,119.32,93.54,106.21,88.64" style="stroke:#181818;stroke-width:1.0;"/></g><!--SRC=[IqmgBYbAJ2vHS2h9KwZcKb2epaqjoSXFgLMeJeHArIeuvsGcPtFLSi54548ztO1KVb4bRYr5gOabgK13WTgISnABYnN2C_DIyikBCUo16OwY2eS5oAPo8TJese6TRuKaZs4EK0sI2v2LWlWsDRgwIF98PYFBm4K1]--></g></svg>